<svg xmlns="http://www.w3.org/2000/svg" viewBox="0 0 230.35 52.15" preserveAspectRatio="xMinYMid"><defs><style>.cls-1{fill:#ea5514;stroke:#ea5514;stroke-linecap:round;stroke-linejoin:round;stroke-width:1.5px;}</style></defs><g id="letter"><path class="cls-1" d="M1.41,18.48c-.49,0-.66,0-.66-.18a8.84,8.84,0,0,1,1.37-.92C8,14.15,11,11.14,14.77,7.39c.39-.35,1.71-2,2-2.37A3.33,3.33,0,0,1,19,4.16,1.7,1.7,0,0,1,20.6,6c0,.86-.16,1-1.65,2.48-1.92,1.79-3.41,3.06-4.56,4-.06,14.5-.11,16.12,0,22.24,0,1.79.33,9.76.33,11.38a3.55,3.55,0,0,1-3.3,3.75c-.94,0-1-.75-1-1.33,0-1.67.55-9.24.6-10.74.33-6.06.33-6.18.39-23.16C9.77,15.59,5,18.48,1.41,18.48Zm19.91,4.85c-.55.12-2.75,1.56-3.3,1.56-.39,0-.88-.41-.88-1.5,0-2.08,1.1-2.2,2.36-2.25,1.43-.12,2.92-.41,9.63-1.79A125.34,125.34,0,0,1,27.48,5.89a1.8,1.8,0,0,1-1.21-1.5c0-1.33,1.54-3.64,3.19-3.64.88,0,1.65.75,1.65,2.54,0,.41-.11,2.43-.11,2.83a109.55,109.55,0,0,0,1.21,12.65c7.31-1.67,9.34-2.19,11.87-2.89.44-1.32,1.05-2.94,2.53-2.94S50,14.09,50,15.71c0,1.21-1.43,1.68-2.42,1.91-6.93,1.5-13.36,2.88-15.17,3.29,3.4,19.23,11.38,24.54,14.07,24.54a4.66,4.66,0,0,0,3.8-2.36c.16-.29.82-1.45,1-1.45s.22.12.22,1c0,1.68,0,8.72-3.85,8.72-2.2,0-5.56-2.19-8.8-6.29-6.27-7.92-8.25-17.85-9.4-23.63ZM41.5,8.38c-1,1-3.63,3.46-4.4,3.46-.22,0-.5-.17-.5-.4S39.08,5,39.25,4.68a2.15,2.15,0,0,1,2-1.27,1.94,1.94,0,0,1,2,2C43.2,6.7,42.49,7.39,41.5,8.38Z"/><path class="cls-1" d="M80.88,45.81c2.81-.47,5.56-1,8.36-1.62.11,0,.72-.17.83-.17a.31.31,0,0,1,.33.29c0,1.56-12.38,6.12-16.56,6.12-.77,0-2.53-.7-2.53-2.26,0-1.73,2-1.9,3.69-1.9a21.41,21.41,0,0,0,2.69-.12c0-1.9.06-10.22.06-11.95-8.75,5-14.41,5.08-15.46,5.08-.66,0-.71-.35-.71-.46s3.68-1.22,4.34-1.51A53.67,53.67,0,0,0,84.4,25l-14.13.11c-.55,0-2.81,1-3.25,1a.72.72,0,0,1-.77-.81c0-.4.22-2.77,1.6-2.77.44,0,2.2.46,2.58.46l14.91.12V18.32H82c-2.47,0-4.45,0-5.22.11-.44.06-2.26.64-2.64.64s-.66-.24-.66-.58c0-.7.33-2.31,1.54-2.31.22,0,1.26.29,1.48.29h8.86c-.06-1.79-.11-3.7-.11-5.09H82.15c-2.7,0-7.43.06-8.75.24-.44.05-2.31.75-2.69.75a.89.89,0,0,1-.83-.93c0-.75.66-2.37,1.87-2.37.44,0,2.42.52,2.81.52H85.17a17.4,17.4,0,0,0-.27-4.21c-.06-.17-.88-.87-.88-1,0-1,2.2-3.41,3.52-3.41.11,0,1.32,0,1.32,1.68,0,.29-.22,1.79-.28,2.08,0,.81-.11,4.21-.11,4.91h11.61c.71-1.22,1.15-2,2.25-2s3,1.33,3,2.71c0,1.16-1.38,1.16-2.48,1.16-4.12.05-10.28,0-14.4-.06,0,.8-.11,4.39-.11,5.08,1.32,0,7.15.06,8.36,0,.49-.92,1-1.85,2-1.85a2.94,2.94,0,0,1,2.75,2.6c0,1-1.48,1-2.31,1-5.33,0-7.58,0-10.77.06v1.09c0,.58,0,3.24,0,3.76l14.79-.06c.66-.92,1.32-1.79,2.15-1.79a3.18,3.18,0,0,1,3,2.72,1,1,0,0,1-.44.86c-.5.23-1,.29-3.14.29-2.91,0-15.78-.23-18.42-.23a1.56,1.56,0,0,1,1.32,1.5,2,2,0,0,1-.66,1.44c-.49.52-4.78,3.47-6,4.33ZM108.38,47c.49.17,3.19.75,3.19,1.09,0,.58-5.12,2.72-6.22,2.72-1.32,0-13-4.86-17.1-20.8,0-.29-.88-1.21-.88-1.44,0-.41.55-.69,1-.69s.5.11.88,1.38a22.69,22.69,0,0,0,1.87,4.05,41.09,41.09,0,0,0,7.64-4.74,2.38,2.38,0,0,1,1.65-.63,2,2,0,0,1,2,1.9c0,2.66-7.86,3.81-10.72,4.27C94.36,37.78,98,43,108.38,47Z"/><path class="cls-1" d="M134.07,15.72l.05,8.38c.72-.35,4.18-2.31,4.57-2.31.05,0,.16.12.16.17,0,1.16-3.3,3.53-4.73,4.56,0,1.51.22,13.23.22,13.46,0,3.64-.16,9.47-5.61,9.47-3.57,0-6-2.19-6-2.83,0-.29.28-.29.44-.29.44,0,2.37.18,2.81.18,4.84,0,4.89-3.81,5-8.84l.17-9.12c-3.14,1.73-5.5,3.06-6.49,3.06a2,2,0,0,1-1.87-2.08c0-1.79,1.65-2.08,3-2.37a30.27,30.27,0,0,0,5.34-1.73L131,15.72h-4c-.5,0-2.48.64-2.92.64-.6,0-.82-.17-.82-.64,0-.29.11-2.19,1.26-2.19.28,0,1.6.35,1.87.35h4.51c0-1.1-.16-6.82-.16-7.28-.55-.35-.88-.64-.88-1.27a3.26,3.26,0,0,1,3-3.24c1.27,0,1.43.76,1.43,1.74,0,1.79-.22,8.31-.27,10.05h2.25c.72-1,1.27-1.5,2-1.5a2.19,2.19,0,0,1,1.93,2.31c0,.63-.39,1-2.09,1Zm21.44,16.93c3.47,9.93,11.83,13.46,14.08,14.44a14.14,14.14,0,0,1,2,.81c0,.17-4.84,2.77-5.83,2.77-.77,0-2.75-1.38-4.68-3.46-4.67-5.09-5.82-11-6.43-14.21-.61,2.94-1.92,9.06-7,12.3a24.06,24.06,0,0,1-10.07,2.94c-.22,0-1.54-.06-1.54-.35,0-.11,3.69-1.15,4.35-1.38,4-1.39,9.24-4.45,10.89-13.86h-3.8a41,41,0,0,0-5.94.23c-.44,0-2.36.52-2.75.52-.71,0-.71-1.16-.71-1.33A1.65,1.65,0,0,1,140,30.34c1,0,5.44.4,6.38.4h5.17c.11-2,.11-4.27.11-5.77h-5.23c-1.65,1.67-4.56,4.21-5.5,4.21-.16,0-.38-.05-.38-.23s2.14-2.65,2.47-3.23a66.66,66.66,0,0,0,3.41-7.11,1.76,1.76,0,0,1,1.65-1A1.72,1.72,0,0,1,150,19.19c0,.87-.22,1.22-2,4h13c.5-1,1.16-2.2,2.26-2.2a3.29,3.29,0,0,1,2.8,2.89c0,1.1-1.37,1.1-1.7,1.1L159.92,25h-4.84c0,2-.06,2.77-.11,5.78l12.31-.06c.88-1.27,1.54-1.79,2.42-1.79a2.8,2.8,0,0,1,2.59,2.66c0,1.27-1.16,1.27-1.82,1.27-1.65,0-8.91-.18-10.34-.18Zm1.76-22.87c-.32-.29-2-1.85-2-1.91,0-.23.44-.23.49-.23,1.48,0,9.9,3.59,9.9,8.26A1.74,1.74,0,0,1,164,17.69c-1,0-1.6-.86-2.92-2.83C153,16.19,147.87,17,143.42,17c-.83,0-2.2,0-2.2-1.85a1.39,1.39,0,0,1,1.37-1.44c.44,0,3.63.28,4.18.29a77.17,77.17,0,0,0,3.69-9.77,4.42,4.42,0,0,1-.11-1c0-1.61,1.76-2.08,2.69-2.08a1.58,1.58,0,0,1,1.76,1.68c0,1.62-4.84,10-5.55,11.26a90.43,90.43,0,0,0,11-.57A36.87,36.87,0,0,0,157.27,9.78Z"/><path class="cls-1" d="M192,27.86c-1.87,1-5.17,2.6-6.27,2.6a2,2,0,0,1-1.92-2c0-.46.11-1.62,1.87-2.08,1-.29,5.44-1.16,6.32-1.39l0-10.22h-4.07c-.44,0-2.26.63-2.64.63a1,1,0,0,1-.94-.86c0-.64.5-1.85,1.49-1.85.27,0,1.48.23,1.7.23h4.46c-.06-2.42-.11-3.35-.11-7a8.4,8.4,0,0,1-.94-1.9,3.06,3.06,0,0,1,2.92-2.89c1.26,0,1.43.69,1.43,1.79,0,.23-.17,3.12-.22,3.52C195,8,194.9,10.83,194.9,13h2.25c.5-.69,1-1.38,1.82-1.38,1.1,0,1.76,1.33,1.76,2.31s-.66.92-1.54.92H194.9V24.4c.77-.29,5.88-2.37,6.21-2.37a.18.18,0,0,1,.17.17c0,.58-3.8,3-4.62,3.47A19.51,19.51,0,0,0,195,26.82c.06,2.2.17,11.73.17,13.69,0,2.83,0,8.9-5.23,8.9a7.34,7.34,0,0,1-5.39-2.84c0-.23.17-.28.33-.28.39,0,2.15.23,2.53.23,4.4,0,4.46-3.87,4.51-8.49Zm19.53,1.74c-4.18,4.39-9.74,8.49-12.6,8.49-.16,0-.49-.06-.49-.29s3.57-2.66,4.18-3.18a30.8,30.8,0,0,0,8.58-10.22,2.45,2.45,0,0,1-.22-1,2.59,2.59,0,0,1,2.36-2,1.75,1.75,0,0,1,2,1.79c0,1.73-1.26,3.47-2.25,4.79h11c1-1.56,1.87-1.85,2.36-1.85a2.7,2.7,0,0,1,2.31,2.54,2,2,0,0,1-1,1.62,37,37,0,0,1-14.52,15.18,36.17,36.17,0,0,1-15.12,4.22c-.11,0-.77,0-.77-.23,0-.41,4.56-1.5,5.39-1.79,5.17-1.74,9.51-4.91,13.58-8.38a58.07,58.07,0,0,1-5.61-2c-1.1-.52-1.87-1-1.87-2a1.88,1.88,0,0,1,2-1.85c2.2,0,6.16,4.39,6.6,4.91A37.19,37.19,0,0,0,224,29.6Zm-1-10.57a1,1,0,0,1,.49.75c0,1.1-1.76,1.91-2.53,1.91-1.59,0-6.54-7.69-6.54-9.42,0-.29.38-.87,2.14-3.64.5-.75,2.48-4.21,2.92-4.91s1-1.67,2.09-1.67a1.58,1.58,0,0,1,1.65,1.67c0,2.26-4.84,6.53-7.32,8.72C204.8,14.35,205.35,14.81,210.52,19Zm9.29-.35c.05.06.44.29.44.64,0,1.1-1.82,2-2.58,2-1,0-1.87-.87-4-4.22-.55-.86-2.8-4.39-2.8-5,0-.75.38-1.33,2.36-4.22.5-.75,2.42-4.1,2.86-4.79s1-1.68,2.2-1.68a1.58,1.58,0,0,1,1.65,1.68c0,2.31-4.89,6.58-7.48,8.83A27.55,27.55,0,0,0,219.81,18.68Zm9.24.12c.27.17.55.35.55.75,0,1-2.09,1.79-3,1.79-1,0-1.76-.87-3-2.48-1.49-2-4-5.72-4-6.82,0-.52.39-1.09,2.2-3.81.5-.69,2.42-4.1,2.86-4.79.55-1,1.1-1.85,2.26-1.85a1.57,1.57,0,0,1,1.65,1.73c0,1.33-.66,2.08-1.6,3.12a57.94,57.94,0,0,1-5.88,5.6A35,35,0,0,0,229.05,18.8Z"/></g></svg>