<svg id="レイヤー_1" data-name="レイヤー 1" xmlns="http://www.w3.org/2000/svg" viewBox="0 0 102 42"><defs><style>.cls-1{fill:none;}.cls-2,.cls-3{fill:#fff;}.cls-2{stroke:#fff;stroke-linecap:round;stroke-linejoin:round;stroke-width:0.3px;}</style></defs><title>_txt_greeting01</title><rect class="cls-1" width="102" height="42"/><g id="menu_letter" data-name="menu letter"><path class="cls-2" d="M2.25,7.86c-.18,0-.25,0-.25-.06a2.75,2.75,0,0,1,.53-.36A19.28,19.28,0,0,0,7.32,3.61c.16-.14.66-.77.78-.9a1.23,1.23,0,0,1,.82-.33.65.65,0,0,1,.61.68h0c0,.32-.07.39-.63,1A18.49,18.49,0,0,1,7.2,5.55v8.5c0,.68.12,3.72.12,4.34a1.34,1.34,0,0,1-1.24,1.43h0c-.36,0-.38-.29-.38-.51,0-.63.21-3.53.23-4.09.13-2.32.13-2.37.15-8.85A8.71,8.71,0,0,1,2.25,7.86ZM9.84,9.67c-.21,0-1.05.6-1.26.6s-.34-.15-.34-.58c0-.79.43-.83.91-.85a22,22,0,0,0,3.66-.65,46.34,46.34,0,0,1-.62-5.13.7.7,0,0,1-.46-.58c0-.5.58-1.39,1.21-1.39.34,0,.63.29.63,1V3.14A40.24,40.24,0,0,0,14,7.93c2.78-.63,3.55-.83,4.52-1.09.17-.51.4-1.13,1-1.13s1.31.44,1.31,1.06c0,.46-.55.63-1,.72-2.65.57-5.1,1.07-5.76,1.27,1.27,7.37,4.36,9.45,5.36,9.45a1.75,1.75,0,0,0,1.45-1,2.63,2.63,0,0,1,.38-.56c.08,0,.08.05.08.41,0,.63,0,3.32-1.46,3.32-.85,0-2.12-.84-3.36-2.4C14.16,15,13.4,11.17,13,9Zm7.67-5.75c-.4.38-1.38,1.32-1.68,1.32a.18.18,0,0,1-.18-.16c0-.1,1-2.44,1-2.58A.81.81,0,0,1,17.39,2a.74.74,0,0,1,.81.65h0v.19A1.51,1.51,0,0,1,17.57,4Z"/><path class="cls-2" d="M30.46,18.3c1.08-.19,2.12-.38,3.19-.62H34a.12.12,0,0,1,.13.07h0c0,.59-4.72,2.34-6.31,2.34-.29,0-1-.27-1-.86s.76-.73,1.4-.73a8.34,8.34,0,0,0,1,0V13.9a11.76,11.76,0,0,1-5.88,1.92c-.4,0-.28-.13-.28-.17s1.41-.47,1.66-.58a20.73,20.73,0,0,0,7-4.69H26.36c-.2,0-1.07.37-1.24.37a.29.29,0,0,1-.29-.29h0c0-.2.09-1,.61-1,.17,0,.84.17,1,.17h5.67V7.8H30.85a16.68,16.68,0,0,0-2,0c-.16,0-.85.24-1,.24S27.6,8,27.6,7.82s.13-.88.59-.88c.09,0,.49.12.56.12h3.38V5.18H30.91c-1,0-2.83,0-3.33.09-.17,0-.88.28-1,.28a.32.32,0,0,1-.32-.32h0c0-.29.25-1,.71-1,.17,0,1,.2,1.08.2h4A7,7,0,0,0,32,2.85c0-.07-.34-.33-.34-.4,0-.37.84-1.3,1.33-1.3,0,0,.51,0,.51.64,0,.11-.08.68-.1.8v2h4.42c.27-.46.44-.77.85-.77a1.26,1.26,0,0,1,1.09,1c0,.44-.51.44-1,.44H33.28V7.14h3.18c.2-.35.41-.71.76-.71a1.16,1.16,0,0,1,1.05,1c0,.4-.57.4-.89.4h-4.1V9.67h5.64c.25-.35.5-.68.81-.68a1.2,1.2,0,0,1,1.13,1,.37.37,0,0,1-.16.34,3,3,0,0,1-1.2.1c-1.11,0-6-.08-7-.08a.57.57,0,0,1,.51.57.71.71,0,0,1-.26.55c-.18.2-1.82,1.32-2.28,1.66Zm10.48.44c.18.06,1.21.28,1.21.42a6.07,6.07,0,0,1-2.37,1c-.5,0-4.94-1.85-6.51-7.93,0-.12-.33-.47-.33-.56s.21-.26.37-.26.19,0,.34.53a8.28,8.28,0,0,0,.68,1.62,15.59,15.59,0,0,0,2.87-1.81,1,1,0,0,1,.63-.24.76.76,0,0,1,.78.72h0c0,1-3,1.46-4.08,1.63a12.1,12.1,0,0,0,6.38,4.87Z"/><path class="cls-2" d="M48.59,6.81V10c.27-.13,1.59-.88,1.74-.88s.07,0,.07.06c0,.44-1.27,1.35-1.81,1.74,0,.58.08,5.06.08,5.14,0,1.39-.06,3.62-2.13,3.62a2.62,2.62,0,0,1-2.31-1.13c0-.1.11-.1.17-.1l1.06.1c1.84,0,1.91-1.45,1.91-3.37l.09-3.52A8.9,8.9,0,0,1,45,12.83a.75.75,0,0,1-.72-.79c0-.69.63-.79,1.16-.91a10,10,0,0,0,2-.61V6.84H46c-.2,0-1,.24-1.12.24s-.31-.07-.31-.24S44.54,6,45,6c.1,0,.61.14.72.14H47.4c0-.42-.06-2.61-.06-2.78-.21-.14-.34-.24-.34-.49a1.25,1.25,0,0,1,1.16-1.31c.48,0,.54.29.54.66,0,.69-.08,3.19-.11,3.84h.87c.26-.4.48-.58.75-.58a.82.82,0,0,1,.73.89h0c0,.24-.14.39-.79.39Zm8.18,6.46a9.26,9.26,0,0,0,5.36,5.51,6.67,6.67,0,0,1,.78.31,8.61,8.61,0,0,1-2.23,1,4.08,4.08,0,0,1-1.77-1.33,10.46,10.46,0,0,1-2.45-5.34c-.23,1.12-.74,3.46-2.67,4.69A9.09,9.09,0,0,1,50,19.24c-.08,0-.59,0-.59-.14A8.05,8.05,0,0,1,51,18.56c1.5-.52,3.52-1.69,4.15-5.29H53.73a17.08,17.08,0,0,0-2.26.09c-.17,0-.9.2-1,.2s-.27-.44-.27-.51a.61.61,0,0,1,.55-.66h.16c.38,0,2.08.15,2.43.15h1.92v-2.2H53.31a6.44,6.44,0,0,1-2.09,1.61c-.07,0-.15,0-.15-.09s.82-1,1-1.24A26.88,26.88,0,0,0,53.36,7.9a.72.72,0,0,1,1-.37h0a.74.74,0,0,1,.39.55c0,.34-.08.47-.77,1.55h4.94c.19-.38.44-.84.86-.84a1.24,1.24,0,0,1,1.07,1.1c0,.43-.53.43-.65.43H56.6v2.22h4.69c.33-.49.58-.68,1-.68a1.06,1.06,0,0,1,1,1c0,.49-.45.49-.69.49-.64,0-3.4-.07-4-.07Zm.69-8.71c-.27-.23-.54-.46-.78-.71,0-.09.16-.09.19-.09.56,0,3.77,1.37,3.77,3.16a.68.68,0,0,1-.64.69c-.37,0-.6-.34-1.1-1.09a45.89,45.89,0,0,1-6.71.82c-.32,0-.84,0-.84-.71a.54.54,0,0,1,.51-.55h0c.17,0,1.38.11,1.59.11a26.86,26.86,0,0,0,1.41-3.72,2.41,2.41,0,0,1,0-.38c0-.62.67-.79,1-.79a.58.58,0,0,1,.6.56h0v.07c0,.62-1.84,3.83-2.11,4.3A34.49,34.49,0,0,0,58.54,6,15.14,15.14,0,0,0,57.46,4.56Z"/><path class="cls-2" d="M68.57,11.44a8.65,8.65,0,0,1-2.39,1,.75.75,0,0,1-.72-.77c0-.18,0-.62.71-.79.38-.12,2.08-.45,2.42-.53V6.43H67c-.17,0-.86.24-1,.24a.38.38,0,0,1-.36-.34c0-.24.19-.7.57-.7.1,0,.56.09.65.09h1.7V3.05a3.1,3.1,0,0,1-.36-.73,1.17,1.17,0,0,1,1.07-1.06c.48,0,.54.27.54.68,0,.09-.06,1.2-.08,1.35V5.75h.85c.19-.26.38-.52.69-.52s.67.5.67.88-.25.35-.58.35H69.72v3.66c.28-.11,2.23-.9,2.35-.9a.07.07,0,0,1,.07.06c0,.22-1.45,1.15-1.76,1.33a4.83,4.83,0,0,0-.64.44v5.22c0,1.09,0,3.4-2,3.4a2.75,2.75,0,0,1-2-1.09c0-.08,0-.1.12-.1s.82.08,1,.08c1.68,0,1.7-1.47,1.72-3.24Zm7.43.67c-1.6,1.67-3.7,3.23-4.8,3.23-.06,0-.19,0-.19-.1A17.31,17.31,0,0,1,72.61,14a11.45,11.45,0,0,0,3.26-3.89,1,1,0,0,1-.07-.41A.94.94,0,0,1,76.7,9a.65.65,0,0,1,.75.54h0a0,0,0,0,1,0,.05.22.22,0,0,1,0,.11,3.3,3.3,0,0,1-.85,1.86h4.21c.39-.6.71-.71.9-.71a1,1,0,0,1,.88,1,.77.77,0,0,1-.4.62,14.12,14.12,0,0,1-5.53,5.78,13.65,13.65,0,0,1-5.75,1.6s-.29,0-.29-.08a9.44,9.44,0,0,1,2-.68,16.16,16.16,0,0,0,5.18-3.2,20.25,20.25,0,0,1-2.15-.75c-.42-.2-.72-.38-.72-.75a.72.72,0,0,1,.74-.7h0c.83,0,2.35,1.67,2.51,1.92a14.59,14.59,0,0,0,2.54-3.35Zm-.38-4a.37.37,0,0,1,.19.29c0,.41-.67.72-1,.72-.61,0-2.5-2.92-2.5-3.59a7,7,0,0,1,.83-1.39,18.93,18.93,0,0,0,1.1-1.91.93.93,0,0,1,.8-.64.62.62,0,0,1,.63.58v.06c0,.86-1.84,2.49-2.79,3.32a11.7,11.7,0,0,0,2.69,2.52ZM79.16,8s.17.11.17.24c0,.42-.69.78-1,.78s-.76-.33-1.55-1.61a12.4,12.4,0,0,1-1.07-1.92c0-.29.15-.51.9-1.61.19-.29,1-1.57,1.09-1.83a1,1,0,0,1,.83-.62.61.61,0,0,1,.63.57h0v.06c0,.88-1.92,2.51-2.88,3.37a10.36,10.36,0,0,0,2.88,2.52Zm3.53,0a.31.31,0,0,1,.2.28c0,.38-.8.69-1.13.69s-.67-.34-1.13-1A9.63,9.63,0,0,1,79.1,5.34c0-.19.15-.41.84-1.45A16.66,16.66,0,0,0,81,2.06a1.06,1.06,0,0,1,.85-.71.61.61,0,0,1,.64.54h0V2a1.66,1.66,0,0,1-.61,1.19,20.6,20.6,0,0,1-2.24,2.14,13.31,13.31,0,0,0,3,2.65Z"/></g><g id="letter"><path class="cls-3" d="M7.86,32.82h4.6v1.31h-.35a1.14,1.14,0,0,0-.45.06.44.44,0,0,0-.19.19,1.43,1.43,0,0,0-.06.5v2.93H10l-.37-.68a5.42,5.42,0,0,1-1.31.62A4.82,4.82,0,0,1,6.94,38a4.5,4.5,0,0,1-2.32-.61A4.37,4.37,0,0,1,3,35.56a5.29,5.29,0,0,1,0-5,4.43,4.43,0,0,1,1.69-1.72A4.6,4.6,0,0,1,7,28.25a4.21,4.21,0,0,1,1.22.15,4,4,0,0,1,1,.43l.24-.42h1l.85,3.15-1.24.4a8.89,8.89,0,0,0-1-1.37,2.8,2.8,0,0,0-.84-.6,2.24,2.24,0,0,0-.92-.2,2.2,2.2,0,0,0-1.19.37,2.57,2.57,0,0,0-.89,1.07A4.41,4.41,0,0,0,4.91,33a4.85,4.85,0,0,0,.36,1.92,2.73,2.73,0,0,0,.91,1.21,2.21,2.21,0,0,0,2.18.19A1.39,1.39,0,0,0,9,35.84a1.13,1.13,0,0,0,.16-.65v-.35a1.77,1.77,0,0,0,0-.46.61.61,0,0,0-.2-.19,1.74,1.74,0,0,0-.45-.06h-.6Z"/><path class="cls-3" d="M16.05,31v1a3.53,3.53,0,0,1,.95-.77,1.53,1.53,0,0,1,.75-.2,1.2,1.2,0,0,1,.59.15,1,1,0,0,1,.41.44,1.16,1.16,0,0,1,.15.6,1.08,1.08,0,0,1-.28.77,1,1,0,0,1-.78.34H17.6a2.44,2.44,0,0,1-.46-.14.71.71,0,0,0-.29,0,1.46,1.46,0,0,0-.58.22V36a1,1,0,0,0,0,.43.35.35,0,0,0,.17.15,2.09,2.09,0,0,0,.5,0h.29v1.29H13.15V36.56h.31a1.77,1.77,0,0,0,.46,0,.32.32,0,0,0,.14-.14,1.19,1.19,0,0,0,0-.46V32.81h-1V31.56a6.69,6.69,0,0,0,2.4-.61Z"/><path class="cls-3" d="M25.46,35.33l.91.92a5.25,5.25,0,0,1-1.58,1.31A3.78,3.78,0,0,1,23,38a3.46,3.46,0,0,1-2.57-1,3.59,3.59,0,0,1-.6-4.28,3.22,3.22,0,0,1,1.31-1.25A3.89,3.89,0,0,1,23,31a3.44,3.44,0,0,1,2.22.76,2.86,2.86,0,0,1,.67.88,4.05,4.05,0,0,1,.35,1.05,6.46,6.46,0,0,1,0,.88H21.76a1.91,1.91,0,0,0,.5,1.37,1.56,1.56,0,0,0,1.19.53,2.2,2.2,0,0,0,1-.27A3.91,3.91,0,0,0,25.46,35.33Zm-1.35-1.94a1.44,1.44,0,0,0-.19-.63,1.29,1.29,0,0,0-.39-.38,1,1,0,0,0-.51-.13,1.11,1.11,0,0,0-.54.14,1.1,1.1,0,0,0-.42.38,1.39,1.39,0,0,0-.21.62Z"/><path class="cls-3" d="M33.46,35.33l.92.92a5.41,5.41,0,0,1-1.62,1.31A3.78,3.78,0,0,1,31,38a3.46,3.46,0,0,1-2.57-1,3.35,3.35,0,0,1-1.05-2.51,3.43,3.43,0,0,1,.45-1.79,3.22,3.22,0,0,1,1.31-1.25A3.89,3.89,0,0,1,31,31a3.44,3.44,0,0,1,2.23.76,3,3,0,0,1,.66.88,4.47,4.47,0,0,1,.35,1.07,6.46,6.46,0,0,1,0,.88H29.74a1.91,1.91,0,0,0,.5,1.37,1.56,1.56,0,0,0,1.19.53,2.2,2.2,0,0,0,1-.27A4,4,0,0,0,33.46,35.33Zm-1.33-1.94a1.59,1.59,0,0,0-.19-.63,1.29,1.29,0,0,0-.39-.38,1.06,1.06,0,0,0-.52-.13,1.17,1.17,0,0,0-1,.52,1.4,1.4,0,0,0-.22.62Z"/><path class="cls-3" d="M38.38,28.81V31.1h2.16v1.46H38.38V34.9a3.33,3.33,0,0,0,.09,1,.73.73,0,0,0,.31.36,1.39,1.39,0,0,0,.69.18A2.58,2.58,0,0,0,40.84,36v1.43a5,5,0,0,1-1.06.39,3.74,3.74,0,0,1-1,.11,3.21,3.21,0,0,1-1.11-.16,2.35,2.35,0,0,1-.82-.45,1.55,1.55,0,0,1-.45-.62,2.43,2.43,0,0,1-.12-.93V32.56h-1V31.25a2.15,2.15,0,0,0,.91-.5,2.36,2.36,0,0,0,.62-.78,3.51,3.51,0,0,0,.32-1.16Z"/><path class="cls-3" d="M44.84,31v5a1.55,1.55,0,0,0,0,.43.29.29,0,0,0,.15.12,1.24,1.24,0,0,0,.47.06h.36v1.29H41.7V36.56h.36a1.77,1.77,0,0,0,.46,0,.29.29,0,0,0,.15-.12.69.69,0,0,0,0-.35V32.8h-1V31.56a6.65,6.65,0,0,0,1-.11,6.48,6.48,0,0,0,.87-.21,3.33,3.33,0,0,0,.61-.27Zm-1.09-3a1.19,1.19,0,0,1,.87.36,1.26,1.26,0,0,1,0,1.75,1.23,1.23,0,0,1-1.74,0h0a1.23,1.23,0,0,1-.36-.87A1.3,1.3,0,0,1,43.76,28Z"/><path class="cls-3" d="M49.62,31v.92a5.42,5.42,0,0,1,1.31-.73A3.2,3.2,0,0,1,52,31a2.41,2.41,0,0,1,1.15.27,2,2,0,0,1,.73.69,2.41,2.41,0,0,1,.22,1.18v2.79a1.19,1.19,0,0,0,0,.46.35.35,0,0,0,.17.15h.78v1.28H51.2V36.56h.5a.39.39,0,0,0,.23-.15A1.41,1.41,0,0,0,52,36V33.42a1.18,1.18,0,0,0-.1-.61.54.54,0,0,0-.51-.24,1.68,1.68,0,0,0-.62.13,4.34,4.34,0,0,0-.88.52v2.66a1,1,0,0,0,.09.54.69.69,0,0,0,.5.14h.22v1.29h-3.9V36.56H47a2.71,2.71,0,0,0,.57,0,.33.33,0,0,0,.17-.14.89.89,0,0,0,.06-.4v-3.2h-1V31.56A8.75,8.75,0,0,0,49,31Z"/><path class="cls-3" d="M61.17,31.5a2.53,2.53,0,0,1,.71-.71,1.46,1.46,0,0,1,.76-.22.89.89,0,0,1,.62.24.81.81,0,0,1,.23.59.7.7,0,0,1-.22.55.74.74,0,0,1-.54.21h-.46a.54.54,0,0,0-.36.14,2.25,2.25,0,0,1,.37,1.17,2.13,2.13,0,0,1-.37,1.2,2.47,2.47,0,0,1-1,.87,3.63,3.63,0,0,1-1.56.31h-.52a3.35,3.35,0,0,1-.54-.08A1.44,1.44,0,0,0,58,36a.35.35,0,0,0-.1.2c0,.14.15.23.43.26l2.78.4a3.65,3.65,0,0,1,1.8.66,1.56,1.56,0,0,1,.53,1.1A1.82,1.82,0,0,1,63,39.73a2.91,2.91,0,0,1-1.38.84,7.37,7.37,0,0,1-2.38.33,7.68,7.68,0,0,1-2.08-.23A2.54,2.54,0,0,1,56,40.05a1,1,0,0,1-.08-1.4A3.52,3.52,0,0,1,57,38a2,2,0,0,1-.74-.46,1,1,0,0,1-.34-.72,1.28,1.28,0,0,1,.31-.79,4.16,4.16,0,0,1,.94-.78,1.88,1.88,0,0,1-.55-.46,2,2,0,0,1-.32-.61,2.26,2.26,0,0,1,.7-2.46A3.16,3.16,0,0,1,59.17,31a4.1,4.1,0,0,1,1.1.14A2.68,2.68,0,0,1,61.17,31.5Zm-2.88,6.75a2.3,2.3,0,0,0-.46.42.48.48,0,0,0-.09.32c0,.21.17.39.53.51a4.59,4.59,0,0,0,1.38.18,4.9,4.9,0,0,0,1.08-.12,1.35,1.35,0,0,0,.63-.26.33.33,0,0,0,.09-.27.37.37,0,0,0-.19-.36,2.89,2.89,0,0,0-1-.21Zm1-6a.93.93,0,0,0-.7.31,1.22,1.22,0,0,0-.28.86,1.08,1.08,0,0,0,.27.79,1,1,0,0,0,1.33,0h0a1.13,1.13,0,0,0,.28-.79,1.25,1.25,0,0,0-.26-.85.87.87,0,0,0-.67-.33Z"/></g></svg>