<svg xmlns="http://www.w3.org/2000/svg" viewBox="0 0 700.61 142.03"><defs><style>.cls-1{fill:none;stroke:#ea5514;stroke-miterlimit:10}</style></defs><title>_bg_branding01</title><g id="レイヤー_2" data-name="レイヤー 2"><path class="cls-1" d="M.5 19.91V5.78h58q13.32 0 20.93 3.12a25.84 25.84 0 0 1 11.71 8.94 21.73 21.73 0 0 1 4.1 12.78 22 22 0 0 1-2.17 9.6 24.19 24.19 0 0 1-6.25 8A32.55 32.55 0 0 1 76.1 54a45 45 0 0 1 11 4 22.87 22.87 0 0 1 8.71 8.61A24.09 24.09 0 0 1 99 79a25.19 25.19 0 0 1-4.9 15 30.4 30.4 0 0 1-13.86 10.44Q71.29 108 54 108H.5V93.81h4q4 0 5.46-.7a4.07 4.07 0 0 0 2-2q.58-1.28.59-5.75v-57q0-4.54-.59-5.79a4.29 4.29 0 0 0-2-2q-1.43-.73-5.46-.73zm37.35 27.26h11.21q8.79 0 13-1.46a12.58 12.58 0 0 0 6.34-4.43 11.46 11.46 0 0 0 2.12-6.85 11.64 11.64 0 0 0-2-6.88 10.88 10.88 0 0 0-5.82-4.06q-3.81-1.21-13.62-1.21H37.85zm0 15V84.3a28 28 0 0 0 .36 5.49 2.37 2.37 0 0 0 1.21 1.43 14.56 14.56 0 0 0 4.57.4h7.45a40.47 40.47 0 0 0 10.78-1.21 14 14 0 0 0 7.27-5 14.34 14.34 0 0 0 3-9.15 13.47 13.47 0 0 0-2.12-7.69A12.92 12.92 0 0 0 64 63.79q-4.24-1.61-12.93-1.61zm102.91-29.05v10.62q5.87-6.15 10.17-8.38a17.87 17.87 0 0 1 8.26-2.23 12.51 12.51 0 0 1 6.42 1.65 11.77 11.77 0 0 1 4.48 4.72 13.73 13.73 0 0 1 1.65 6.59 12.88 12.88 0 0 1-3 8.35 10.42 10.42 0 0 1-8.55 3.73 13.84 13.84 0 0 1-2.61-.22 48.31 48.31 0 0 1-4.81-1.46 11.23 11.23 0 0 0-3.16-.59q-1.91 0-6.31 2.42V87a12.88 12.88 0 0 0 .55 4.76 3.34 3.34 0 0 0 1.79 1.61 17.66 17.66 0 0 0 5.42.51h3.22V108H109V93.83h3.76a16.74 16.74 0 0 0 5.05-.44 3 3 0 0 0 1.51-1.54 14.3 14.3 0 0 0 .52-4.91V53.33H109V39.27a76.14 76.14 0 0 0 24.83-6.15zm80.86 30.55v-5.42q0-4.83-.81-6.66a6.62 6.62 0 0 0-2.93-3 10.53 10.53 0 0 0-5.27-1.21 11.55 11.55 0 0 0-4.39.8 8.83 8.83 0 0 0-3.15 2.05 17.91 17.91 0 0 0-2.71 4.77 15.35 15.35 0 0 1-4.72 6.52 10.8 10.8 0 0 1-6.48 2 10.55 10.55 0 0 1-7.69-2.93 9.72 9.72 0 0 1-3-7.25 13.49 13.49 0 0 1 3.08-8.71q4.1-5.05 12.23-8.27a49.33 49.33 0 0 1 18.31-3.22q10.18 0 17.32 3.3t10 7.88q2.82 4.58 2.82 14v26.16a22.4 22.4 0 0 0 .51 6.19 4.93 4.93 0 0 0 2.2 2.38 7 7 0 0 0 3.74 1 18.23 18.23 0 0 0 5.49-1.17v14.28a39.4 39.4 0 0 1-11.94 2 27.32 27.32 0 0 1-11.5-2.2 20.39 20.39 0 0 1-8-6.59 60.55 60.55 0 0 1-13.29 6.77 36 36 0 0 1-11.54 2q-10.48 0-16.92-5.9a18.93 18.93 0 0 1-6.45-14.54 18.53 18.53 0 0 1 2.23-9 21 21 0 0 1 6.67-7.18q4.43-3.08 13.7-5.46a133.42 133.42 0 0 1 22.49-3.39zm0 12.16a77.89 77.89 0 0 0-13.55 2.82 12.24 12.24 0 0 0-5.64 3.59 7.14 7.14 0 0 0-1.68 4.43 6.33 6.33 0 0 0 2.2 4.91 8.54 8.54 0 0 0 5.93 2 15.71 15.71 0 0 0 5.6-1.24 46.34 46.34 0 0 0 7.14-3.66zm75.22-42.69v9.74A63.78 63.78 0 0 1 311 35.2a36.48 36.48 0 0 1 12-2 25.61 25.61 0 0 1 12.56 3 19.46 19.46 0 0 1 7.95 7.51Q346 48.22 346 56.49v30.42q0 3.88.55 5a3.35 3.35 0 0 0 1.72 1.61 20.43 20.43 0 0 0 5.27.37h3.59V108h-43V93.87a51.62 51.62 0 0 0 5.49-.22 3.58 3.58 0 0 0 2.49-1.65q.58-1.17.59-5V60.09q0-5.19-1.1-6.73a6.28 6.28 0 0 0-5.6-2.56 18.72 18.72 0 0 0-6.74 1.39 49 49 0 0 0-9.67 5.7v29q0 4.75 1 5.85t5 1.1H308V108h-42.58V93.86h2.12a25.43 25.43 0 0 0 6.26-.44 3.36 3.36 0 0 0 1.83-1.54 9.91 9.91 0 0 0 .62-4.31V53.5h-10.83V39.37A98.55 98.55 0 0 0 290 33.14zM442.3.5v85.18q0 5.05.44 6.12a3 3 0 0 0 1.5 1.57q1.06.51 5.6.51h3.44V108l-31.79 1.09v-7.54a54.59 54.59 0 0 1-12.08 6.45 31.69 31.69 0 0 1-10.4 1.79 27.92 27.92 0 0 1-15.49-4.58 33.53 33.53 0 0 1-11.57-13.61 44.08 44.08 0 0 1-4.5-20A44 44 0 0 1 372 51.43a33.4 33.4 0 0 1 12-13.66 30.4 30.4 0 0 1 16.47-4.61 35.12 35.12 0 0 1 9 1.14 43.09 43.09 0 0 1 9.5 4V20.86h-10.73V6.72A112.13 112.13 0 0 0 423 4.49a88.37 88.37 0 0 0 12.24-4zm-23.4 86.57V62.53a22.29 22.29 0 0 0-.66-6.52 9.26 9.26 0 0 0-4-4.76 12.61 12.61 0 0 0-14.27.33 15.89 15.89 0 0 0-5.35 7.29 32.86 32.86 0 0 0-2 12.23q0 10.18 4.47 16.33a10.73 10.73 0 0 0 9.17 4.83 13.54 13.54 0 0 0 4.77-.84 51.84 51.84 0 0 0 7.87-4.35zm77.89-53.89V87.3q0 3.88.44 4.76a2.92 2.92 0 0 0 1.57 1.36 16.52 16.52 0 0 0 5.09.48h4V108h-45.31V93.89h3.88a17.54 17.54 0 0 0 4.87-.4 2.88 2.88 0 0 0 1.58-1.35 9.27 9.27 0 0 0 .51-3.81V53.39h-10.84V39.62a87.76 87.76 0 0 0 11.1-1.24 76.19 76.19 0 0 0 9.49-2.27 45.86 45.86 0 0 0 6.67-2.93zM484.92.51a12.93 12.93 0 0 1 9.48 3.92 12.93 12.93 0 0 1 3.92 9.49 13 13 0 0 1-3.92 9.56 13.44 13.44 0 0 1-19 0 12.92 12.92 0 0 1-3.88-9.48 12.89 12.89 0 0 1 4-9.48 12.91 12.91 0 0 1 9.4-4.01zm63.94 32.68v9.74A63.7 63.7 0 0 1 563 35.24a36.43 36.43 0 0 1 12-2 25.63 25.63 0 0 1 12.56 3 19.47 19.47 0 0 1 7.95 7.51Q598 48.26 598 56.53V87q0 3.88.55 5a3.36 3.36 0 0 0 1.72 1.61 20.63 20.63 0 0 0 5.27.37h3.59V108h-43V93.9a51 51 0 0 0 5.49-.22 3.58 3.58 0 0 0 2.51-1.68q.58-1.17.59-5V60.13q0-5.19-1.1-6.73a6.28 6.28 0 0 0-5.57-2.56 18.68 18.68 0 0 0-6.74 1.39 49.11 49.11 0 0 0-9.67 5.7V87q0 4.75 1 5.85t5 1.1H560V108h-42.56V93.9h2.12a25.43 25.43 0 0 0 6.26-.44 3.36 3.36 0 0 0 1.83-1.54 9.92 9.92 0 0 0 .62-4.31V53.54h-10.83V39.4a98.46 98.46 0 0 0 24.63-6.22zm125.98 6.05a26.93 26.93 0 0 1 7.76-7.82 15.76 15.76 0 0 1 8.2-2.31 9.13 9.13 0 0 1 6.81 2.53 8.84 8.84 0 0 1 2.49 6.48 8.1 8.1 0 0 1-2.38 6 8 8 0 0 1-5.9 2.38l-2.42-.07-2.49-.07a6.61 6.61 0 0 0-4 1.47q4 6.68 4 12.77a22.61 22.61 0 0 1-4 12.55 26.58 26.58 0 0 1-11.06 9.46 39.05 39.05 0 0 1-17 3.37 50.54 50.54 0 0 1-5.75-.33 54.43 54.43 0 0 1-5.82-1 13.78 13.78 0 0 0-3 2.42 3.44 3.44 0 0 0-1 2.19q0 2.27 4.69 2.93l30.32 4.32q13.55 1.91 19.56 7.25a16.78 16.78 0 0 1 6 12.88 18.94 18.94 0 0 1-4.54 12.18q-4.54 5.59-14.83 9.18t-26 3.58q-13.77 0-22.78-2.67t-12.78-6.73q-3.77-4.06-3.77-7.72a11.3 11.3 0 0 1 2.82-7.5q2.82-3.33 11.61-7.64a21 21 0 0 1-8.13-4.84q-3.66-3.81-3.66-7.84A13.75 13.75 0 0 1 621.2 88a39.32 39.32 0 0 1 10.22-8.43 20.33 20.33 0 0 1-9.49-11.8 24.93 24.93 0 0 1-1.35-8.13q0-11 9-18.68t23.62-7.69a44 44 0 0 1 11.9 1.51 30.83 30.83 0 0 1 9.74 4.46zm-31.42 73.53a24.92 24.92 0 0 0-4.94 4.57 6.08 6.08 0 0 0-1.06 3.47q0 3.58 5.86 5.59a47.11 47.11 0 0 0 15 2 53.38 53.38 0 0 0 11.79-1.17q5.13-1.17 6.81-2.85a4 4 0 0 0 1.1-3 4.16 4.16 0 0 0-2.2-3.55q-2.2-1.43-10.62-2.45zM654 47.26a9.85 9.85 0 0 0-7.73 3.44q-3 3.44-3 9.3a12.36 12.36 0 0 0 2.93 8.64 9.73 9.73 0 0 0 7.54 3.22 9.84 9.84 0 0 0 7.58-3.33 12.28 12.28 0 0 0 3-8.61q0-5.86-2.89-9.27a9.31 9.31 0 0 0-7.43-3.39z" id="letter"/></g></svg>