<svg xmlns="http://www.w3.org/2000/svg" width="381.87" height="104.99" viewBox="0 0 381.87 104.99" preserveAspectRatio="xMinYMid"><defs><style>.a{fill:none;stroke:#ea5514;stroke-miterlimit:10}</style></defs><path class="a" d="M.5.5h41.45l30 59.62V23.66q0-4.68-.51-5.86a4.77 4.77 0 0 0-2-2.45q-1.25-.69-4.83-.7h-5V.51h42.11v14.14h-4.66a11.22 11.22 0 0 0-5 .8 4.42 4.42 0 0 0-2.06 2.2q-.58 1.39-.58 6v79h-21L30.46 27.38V80q0 4.54.55 5.79a4.06 4.06 0 0 0 2 2 11.68 11.68 0 0 0 4.91.73h4.88v14.13H.5V88.54h4.37a13.49 13.49 0 0 0 5-.62A4.63 4.63 0 0 0 12 85.76a10.34 10.34 0 0 0 .8-4.61v-58.6a12.5 12.5 0 0 0-.73-4.94 4.8 4.8 0 0 0-2-2.27 9.05 9.05 0 0 0-4.07-.7H.5zm171.03 75.1l10 10.11q-8.61 9.89-17.58 14.29a43.17 43.17 0 0 1-19.37 4.43q-16.7 0-28.13-11.32A37.09 37.09 0 0 1 105 65.78a37.48 37.48 0 0 1 5.13-19.3 36.18 36.18 0 0 1 14.21-13.7 42.35 42.35 0 0 1 20.58-4.94A39.76 39.76 0 0 1 158.27 30a31.87 31.87 0 0 1 10.51 6.08 30.32 30.32 0 0 1 7.22 9.53 42.54 42.54 0 0 1 3.77 11.61 73.14 73.14 0 0 1 .44 9.52H131q.15 9.3 5.46 15.05a17 17 0 0 0 13 5.75 23.69 23.69 0 0 0 10.69-3 42.72 42.72 0 0 0 11.38-8.94zm-14.65-21.17a16.78 16.78 0 0 0-2.09-6.92 11.64 11.64 0 0 0-4.26-4A11.35 11.35 0 0 0 144.9 42a12.86 12.86 0 0 0-10.54 5.71 15.75 15.75 0 0 0-2.24 6.74zm30.98-24.82h38.74v14.14H225q-2.78 0-3.59.59a2.3 2.3 0 0 0-1 2 11.25 11.25 0 0 0 .66 3.15L231.27 81l8.86-24.72-2.31-6.86a9.41 9.41 0 0 0-2.53-4.32 7.42 7.42 0 0 0-4.43-1.39V29.62h36.84v14.14h-3a5.91 5.91 0 0 0-3.45.73 2.52 2.52 0 0 0-1 2.13 12.59 12.59 0 0 0 .88 3.81L270 76.68l8.92-26.25a13.26 13.26 0 0 0 .88-3.88 2.33 2.33 0 0 0-1.06-2.09q-1.05-.7-4.38-.7h-1.67V29.62h32.89v14.14a15.4 15.4 0 0 0-4.65.44 4.85 4.85 0 0 0-1.93 1.39 20.47 20.47 0 0 0-2.29 4.83L277 102.72h-19.41l-10.9-29.35-11.07 29.35h-19.56l-19.26-52.3a16.46 16.46 0 0 0-2.49-4.62 4.19 4.19 0 0 0-1.87-1.61 18.14 18.14 0 0 0-4.58-.44zm174.14.03h9.59L377.48 50l-13.84 5.56a29.91 29.91 0 0 0-9.92-10 22.68 22.68 0 0 0-11.83-3.63 10.25 10.25 0 0 0-5.79 1.32 3.79 3.79 0 0 0-1.9 3.15 3.94 3.94 0 0 0 1.35 2.86q1.35 1.32 5.6 2.79l20.14 7.18A61.11 61.11 0 0 1 371.55 64a20 20 0 0 1 7.36 7 18.68 18.68 0 0 1 2.45 9.71A20.34 20.34 0 0 1 373.75 97q-8.94 7.47-22.27 7.47a34.55 34.55 0 0 1-19.92-5.79l-2.05 4h-9.74l-9-24 13.84-5.86a39.8 39.8 0 0 0 12.82 12.78q7.62 4.65 14 4.65a11.63 11.63 0 0 0 6.67-1.83 4.2 4.2 0 0 0 2.03-3.42 4.47 4.47 0 0 0-1.61-3.22q-1.61-1.54-7.1-3.44l-15.82-5.5q-13.12-4.61-17.85-9.84A17.91 17.91 0 0 1 313 50.58 19.62 19.62 0 0 1 320.43 35q8.42-7.17 20.8-7.17 11 0 18.82 5z"/></svg>