<svg xmlns="http://www.w3.org/2000/svg" viewBox="0 0 572.84 110.31" preserveAspectRatio="xMinYMid"><defs><style>.cls-1{fill:none;stroke:#ea5514;stroke-miterlimit:10}</style></defs><title>_bg_outline01</title><g id="レイヤー_2" data-name="レイヤー 2"><path class="cls-1" d="M55.72 4q24.31 0 39.37 14.8t15.05 38q0 15.6-6.88 27.68a47.49 47.49 0 0 1-19 18.64q-12.13 6.62-29.26 6.62-22.63 0-37.06-12.46Q.5 82.26.5 57.14q0-23.36 15.27-38.23T55.72 4zM56 20.31q-11.65 0-18.53 8.71-8.64 11-8.64 28.34t8.07 27.47a22.44 22.44 0 0 0 18.38 8.65q11.5 0 18.38-8.64 8.14-10.33 8.14-27.61 0-12.16-3.48-20.43t-9.41-12.39A22.21 22.21 0 0 0 56 20.31zm63.08 14.58l34.2-.65v47.53a23.3 23.3 0 0 0 .62 6.74 5.48 5.48 0 0 0 2.27 2.75 7.48 7.48 0 0 0 4.14 1.06 19.75 19.75 0 0 0 7.76-1.76q1.61-.73 8.57-5.2V56.8a15 15 0 0 0-.59-5.13 4 4 0 0 0-1.7-2 9.84 9.84 0 0 0-4.28-.62h-4.28V34.9l34.35-.65v52.44a16.46 16.46 0 0 0 .48 5.16 3 3 0 0 0 1.54 1.54 16.14 16.14 0 0 0 5.09.48h3.88V108l-32.15.87v-8.64a51.71 51.71 0 0 1-12.98 7.14 37.87 37.87 0 0 1-13 2.38 26.53 26.53 0 0 1-9.69-1.72 22 22 0 0 1-7.42-4.62 18.23 18.23 0 0 1-4.46-6.78 28.64 28.64 0 0 1-1.46-10V56.5a17.16 17.16 0 0 0-.48-5.27 3.25 3.25 0 0 0-1.59-1.65 12.71 12.71 0 0 0-4.72-.55h-4.06zm133.74-25.1v25.12h23.58v15.6h-23.58V76q0 8.64.92 11.1a7.56 7.56 0 0 0 3.4 3.9 14.37 14.37 0 0 0 7.54 2 27.15 27.15 0 0 0 15-4.9v15.67a59.09 59.09 0 0 1-11.52 4.23 48.9 48.9 0 0 1-11.16 1.18 38.63 38.63 0 0 1-12-1.72 25.88 25.88 0 0 1-8.94-4.91 17.76 17.76 0 0 1-5.13-6.77q-1.43-3.59-1.43-10.4V50.51h-11V36.45a29.22 29.22 0 0 0 10-5.46 27.27 27.27 0 0 0 6.7-8.53 38.63 38.63 0 0 0 3.48-12.67zM321.67.5v85.69q0 4.32.37 5.13a3.52 3.52 0 0 0 2.27 2.12q1.1.44 5.93.44h2.56V108h-45.34V93.88h2.78q4.39 0 5.64-.55a3.57 3.57 0 0 0 1.83-1.76q.58-1.21.59-5.38V20.86h-10.84V6.72A93.85 93.85 0 0 0 314.56.5zm52.58 32.68V87.3q0 3.88.44 4.76a2.92 2.92 0 0 0 1.57 1.36 16.52 16.52 0 0 0 5.09.48h4V108h-45.3V93.89h3.88a17.58 17.58 0 0 0 4.87-.4 2.88 2.88 0 0 0 1.58-1.35 9.27 9.27 0 0 0 .51-3.81V53.39h-10.84V39.62a87.76 87.76 0 0 0 11.1-1.24 76.37 76.37 0 0 0 9.49-2.27 45.88 45.88 0 0 0 6.67-2.93zM362.39.51a12.92 12.92 0 0 1 9.48 3.92 12.93 12.93 0 0 1 3.92 9.49 13 13 0 0 1-3.92 9.56 13.44 13.44 0 0 1-19 0A12.92 12.92 0 0 1 349 14a12.89 12.89 0 0 1 4-9.48 12.91 12.91 0 0 1 9.39-4.01zm63.94 32.67v9.74a63.71 63.71 0 0 1 14.17-7.69 36.45 36.45 0 0 1 12-2 25.63 25.63 0 0 1 12.56 3 19.47 19.47 0 0 1 7.95 7.51q2.49 4.51 2.49 12.78V87q0 3.88.55 5a3.36 3.36 0 0 0 1.72 1.61 20.53 20.53 0 0 0 5.27.37h3.59V108h-43V93.9a51.31 51.31 0 0 0 5.49-.22A3.58 3.58 0 0 0 451.6 92q.58-1.17.59-5V60.13q0-5.19-1.1-6.73a6.28 6.28 0 0 0-5.57-2.56 18.7 18.7 0 0 0-6.74 1.39 49.07 49.07 0 0 0-9.67 5.7V87q0 4.75 1 5.85t5 1.1h2.36V108h-42.56V93.9H397a25.43 25.43 0 0 0 6.26-.44 3.36 3.36 0 0 0 1.83-1.54 9.92 9.92 0 0 0 .62-4.31V53.54h-10.8V39.4a98.55 98.55 0 0 0 24.63-6.22zM562.12 81l10 10.11q-8.64 9.89-17.62 14.32a43.14 43.14 0 0 1-19.37 4.43q-16.7 0-28.13-11.32a37.09 37.09 0 0 1-11.43-27.36 37.47 37.47 0 0 1 5.13-19.3A36.16 36.16 0 0 1 515 38.14a42.33 42.33 0 0 1 20.58-4.94 39.74 39.74 0 0 1 13.33 2.13 31.85 31.85 0 0 1 10.51 6.08 30.33 30.33 0 0 1 7.21 9.59 42.54 42.54 0 0 1 3.77 11.61 73.13 73.13 0 0 1 .44 9.52h-49.3q.15 9.3 5.46 15.05a17 17 0 0 0 13 5.75 23.69 23.69 0 0 0 10.69-3A42.73 42.73 0 0 0 562.12 81zm-14.65-21.21a16.79 16.79 0 0 0-2.09-6.92 11.65 11.65 0 0 0-4.26-4 11.35 11.35 0 0 0-5.62-1.5A12.86 12.86 0 0 0 525 53a15.74 15.74 0 0 0-2.24 6.74z" id="letter"/></g></svg>