<svg id="レイヤー_1" data-name="レイヤー 1" xmlns="http://www.w3.org/2000/svg" viewBox="0 0 99.13 37.47"><defs><style>.cls-1{fill:none;}.cls-2,.cls-3{fill:#fff;}.cls-3{stroke:#fff;stroke-linecap:round;stroke-linejoin:round;stroke-width:0.3px;}</style></defs><title>_txt_contact01</title><rect class="cls-1" x="-2" y="-2.19" width="102" height="42"/><g id="letter"><path class="cls-2" d="M7.91,27H9l1,3.67-1.36.39a7.42,7.42,0,0,0-1.28-1.86,2.66,2.66,0,0,0-1.81-.75,2.41,2.41,0,0,0-1.33.4,2.62,2.62,0,0,0-1,1.16,4.15,4.15,0,0,0-.37,1.8,4.47,4.47,0,0,0,.84,2.71A2.58,2.58,0,0,0,5.85,35.7a3,3,0,0,0,1.65-.49,5.87,5.87,0,0,0,1.69-1.64l1.13.85a8.5,8.5,0,0,1-2,2.1,5.64,5.64,0,0,1-3.14.91A5,5,0,0,1,.69,34.8a5.59,5.59,0,0,1,0-5.38,4.75,4.75,0,0,1,1.84-1.88,5.15,5.15,0,0,1,2.6-.68,5.21,5.21,0,0,1,2.56.62Z"/><path class="cls-2" d="M15.2,29.77a4.56,4.56,0,0,1,2.18.5,3.52,3.52,0,0,1,1.43,1.33,3.89,3.89,0,0,1,.5,2,3.7,3.7,0,0,1-1.11,2.79,4.14,4.14,0,0,1-3,1.06,4.19,4.19,0,0,1-3-1.07,3.63,3.63,0,0,1-1.09-2.78,3.79,3.79,0,0,1,.5-2A3.59,3.59,0,0,1,13,30.27,4.51,4.51,0,0,1,15.2,29.77Zm0,1.61a1.37,1.37,0,0,0-.78.25,1.64,1.64,0,0,0-.57.73,3.41,3.41,0,0,0-.2,1.23,3.67,3.67,0,0,0,.2,1.27,1.57,1.57,0,0,0,.54.75,1.32,1.32,0,0,0,.77.24,1.42,1.42,0,0,0,1.11-.54,2.7,2.7,0,0,0,.46-1.7A2.71,2.71,0,0,0,16.32,32a1.3,1.3,0,0,0-1.1-.61Z"/><path class="cls-2" d="M23.68,29.77v1A6.26,6.26,0,0,1,25.09,30a3.58,3.58,0,0,1,1.21-.21,2.74,2.74,0,0,1,1.25.3,2,2,0,0,1,.8.76,2.65,2.65,0,0,1,.25,1.27v3a1.67,1.67,0,0,0,0,.5.35.35,0,0,0,.18.16,2.26,2.26,0,0,0,.52,0h.36v1.41h-4.3V35.85H26a.4.4,0,0,0,.24-.16,1.46,1.46,0,0,0,.06-.51V32.47a1.19,1.19,0,0,0-.11-.67.63.63,0,0,0-.55-.26,2,2,0,0,0-.68.14,4.7,4.7,0,0,0-1,.57v2.9a1,1,0,0,0,.11.59.77.77,0,0,0,.49.11h.24v1.41H20.53V35.85h.22a2.15,2.15,0,0,0,.62,0,.4.4,0,0,0,.19-.15,1,1,0,0,0,.06-.43V31.81H20.53V30.4A9.57,9.57,0,0,0,23,29.77Z"/><path class="cls-2" d="M33.92,27.44V30h2.36v1.56H33.92V34.1a3.46,3.46,0,0,0,.1,1.11.72.72,0,0,0,.34.39,1.43,1.43,0,0,0,.75.2,2.68,2.68,0,0,0,1.5-.49v1.57a5.86,5.86,0,0,1-1.15.42,5.26,5.26,0,0,1-1.12.12,4,4,0,0,1-1.2-.17,2.82,2.82,0,0,1-.9-.49,1.8,1.8,0,0,1-.51-.68,2.82,2.82,0,0,1-.14-1V31.51h-1.1V30.1a2.75,2.75,0,0,0,1.67-1.39,3.76,3.76,0,0,0,.35-1.27Z"/><path class="cls-2" d="M42,32.83v-.54a2.16,2.16,0,0,0-.08-.67.67.67,0,0,0-.3-.3,1.21,1.21,0,0,0-1,0,.83.83,0,0,0-.32.2A1.75,1.75,0,0,0,40,32a1.6,1.6,0,0,1-.47.65,1.16,1.16,0,0,1-.65.2,1,1,0,0,1-.77-.3,1,1,0,0,1-.3-.72,1.26,1.26,0,0,1,.31-.87,2.83,2.83,0,0,1,1.22-.83,4.94,4.94,0,0,1,1.83-.32,4.15,4.15,0,0,1,1.74.33,2.26,2.26,0,0,1,1,.78,2.71,2.71,0,0,1,.28,1.4v2.62a2.14,2.14,0,0,0,.06.62.47.47,0,0,0,.22.24.69.69,0,0,0,.37.1,1.75,1.75,0,0,0,.55-.12V37.2a4.08,4.08,0,0,1-1.2.2A2.65,2.65,0,0,1,43,37.18a2.11,2.11,0,0,1-.79-.66,6.18,6.18,0,0,1-1.33.68,3.82,3.82,0,0,1-1.16.2,2.38,2.38,0,0,1-1.69-.59,1.92,1.92,0,0,1,.25-3.07,4.19,4.19,0,0,1,1.37-.55A12.91,12.91,0,0,1,42,32.83Zm0,1.22a7,7,0,0,0-1.36.28,1.16,1.16,0,0,0-.56.36.77.77,0,0,0-.17.44.58.58,0,0,0,.22.49.85.85,0,0,0,.59.2,1.58,1.58,0,0,0,.56-.13,4.84,4.84,0,0,0,.72-.36Z"/><path class="cls-2" d="M52.91,34.5l1.08.94A5.55,5.55,0,0,1,52.2,37a4.34,4.34,0,0,1-2,.48,3.87,3.87,0,0,1-2.83-1.11,3.59,3.59,0,0,1-1.14-2.69,3.79,3.79,0,0,1,.53-2,3.68,3.68,0,0,1,1.46-1.39,4.45,4.45,0,0,1,2.18-.5,4.09,4.09,0,0,1,2.47.7,1.91,1.91,0,0,1,1,1.51,1.2,1.2,0,0,1-.15.59,1.16,1.16,0,0,1-.45.43,1.53,1.53,0,0,1-.66.16,1.17,1.17,0,0,1-.49-.11,1.44,1.44,0,0,1-.37-.28,3,3,0,0,1-.26-.46,4,4,0,0,0-.37-.63.9.9,0,0,0-.32-.23,1,1,0,0,0-.41-.09,1.22,1.22,0,0,0-.73.25,1.8,1.8,0,0,0-.57.74,2.66,2.66,0,0,0-.23,1.11,2.72,2.72,0,0,0,.27,1.22,1.89,1.89,0,0,0,.7.81,1.78,1.78,0,0,0,1,.28,2.06,2.06,0,0,0,1-.28A4.15,4.15,0,0,0,52.91,34.5Z"/><path class="cls-2" d="M58.23,27.44V30h2.35v1.56H58.23v2.54a4.13,4.13,0,0,0,.09,1.11.74.74,0,0,0,.34.4,1.42,1.42,0,0,0,.75.19,2.68,2.68,0,0,0,1.5-.49v1.57a5.86,5.86,0,0,1-1.15.42,5.26,5.26,0,0,1-1.12.12,4,4,0,0,1-1.2-.17,2.55,2.55,0,0,1-.9-.49,1.91,1.91,0,0,1-.51-.68,3.06,3.06,0,0,1-.14-1V31.52h-1.1V30.11a2.72,2.72,0,0,0,1-.55,2.53,2.53,0,0,0,.67-.85,3.76,3.76,0,0,0,.35-1.27Z"/><path class="cls-3" d="M6.16,2.35c.19-.39.46-.78.94-.78a.83.83,0,0,1,.81.85h0c0,.16-.11.92-.11,1.1,0,.64.13,4.81.13,5.43,0,1-.81,1-.94,1-.39,0-.39-.07-.39-.81H2.33l0,6.44v3.57c0,.18.07,1.26.07,1.38,0,.62-.92,1-1.27,1S.81,21.29.81,21c0-.55.17-3.27.19-3.89.05-1.49.07-3.08.07-6.16V3.31A.49.49,0,0,1,.7,2.88c0-.46.68-1.25,1.16-1.25s.57.53.57.72Zm.41,3.06V3.34c0-.16-.06-.26-.22-.26h-4V5.41Zm0,.66H2.33V8.49H6.57Zm4.72,6.23a1.16,1.16,0,0,1,.83-.5.67.67,0,0,1,.7.66v0a1.22,1.22,0,0,1,0,.27,3.06,3.06,0,0,0-.13,1v2.53c0,.32.11,1.59.11,1.89a1,1,0,0,1-1,.94c-.22,0-.39-.09-.39-.34v-1H6.92v.92a.93.93,0,0,1-.94.83c-.28,0-.3-.18-.3-.53s.13-2.71.13-3.7V13.82a4.23,4.23,0,0,0,0-.5c-.19-.12-.39-.26-.39-.44a1.36,1.36,0,0,1,1.18-1.1.6.6,0,0,1,.57.52Zm.2,4.83V14.05c0-1,0-1.1-.33-1.1h-4c-.2,0-.22.92-.22,1.52v2.66ZM15.77,2.35c.42-1,1.07-1,1.25-1,.54,0,.67.44.67.81a2.16,2.16,0,0,1,0,.36,5.58,5.58,0,0,0-.11,1.29V18.05c0,1.52-.26,3.59-2.77,3.59a3.15,3.15,0,0,1-2.23-1c0-.09.06-.09.65-.09,1.86,0,3.06-.53,3.06-3.4V9.25H11.77a1.07,1.07,0,0,1-1,.69c-.29,0-.31-.19-.31-.51s.09-2.44.09-2.87V3.11c-.26-.14-.42-.33-.42-.51a1.42,1.42,0,0,1,1.16-1.08c.28,0,.61.25.57.83Zm.48,3.06V3.68a1.27,1.27,0,0,0-.15-.6H11.73V5.41Zm0,3.12V6.07H11.73V8.53Z"/><path class="cls-3" d="M29.76,13a17.77,17.77,0,0,0-.35,3.26V17c0,.73-.59.89-1.23.89-3.05,0-5.41-4.09-5.55-8.55,0-.37-.08-3.17-.15-3.38a4.68,4.68,0,0,1-.17-.53c0-.3.08-.37.3-.37a1.86,1.86,0,0,1,1.58,1.52c0,.14-.07.57-.11.92a15.6,15.6,0,0,0-.2,2.46c0,4.67,2.6,6.12,3.43,6.12s.94-.46,1.79-3c.13-.37.64-1.89.83-1.89s.13.09.13.16C30.08,11.57,29.8,12.72,29.76,13Zm8.69.46c-.3,0-.35-.14-1-1.54a5.37,5.37,0,0,0-5.1-3.61c-.19,0-.28,0-.28-.14a2.89,2.89,0,0,1,1.7-.44c3.65,0,5.62,3.15,5.62,4.67a1.06,1.06,0,0,1-.94,1Z"/><path class="cls-3" d="M43.72,9.43a8.38,8.38,0,0,1-2.06.71c-.11,0-.19,0-.19-.07s.28-.3.39-.36a25.76,25.76,0,0,0,7.93-8A1.77,1.77,0,0,0,50.1.82c.06-.35.24-.67.92-.67.5,0,1.18.3,1.18.85,0,.19-.07.32-.38.39a20.33,20.33,0,0,0,8,6.37,21.48,21.48,0,0,1,2.42.92,5,5,0,0,1-2,1.38c-.8,0-5.28-2.55-8.74-8C49.84,4.46,46.69,8,43.72,9.43Zm13,6.92c0,.55.17,2.94.17,3.43a1.1,1.1,0,0,1-1.15,1c-.48,0-.59-.34-.59-1v-.3h-7.5v.6a1.08,1.08,0,0,1-1.09,1c-.5,0-.5-.41-.5-.67,0-.78.17-4.18.17-4.87,0-.41,0-1.54-.06-1.91a4.3,4.3,0,0,1-.2-.57,1.43,1.43,0,0,1,1.27-1c.46,0,.59.51.65.76h7a1.57,1.57,0,0,1,1.2-.64c.55,0,.72.46.72.85a1.93,1.93,0,0,1,0,.34,3.11,3.11,0,0,0-.09.86ZM51,9.41c-.59,0-2.51,0-2.89.07-.21,0-1.11.29-1.31.29s-.3-.36-.3-.46c0-.27.22-.82.54-.82.09,0,.46.07.55.07h6.6c.28-.44.52-.74.83-.74a1.11,1.11,0,0,1,1,1c0,.51-.44.56-.83.56Zm4.15,5.31c0-.78,0-1-.44-1H48c-.26,0-.35.25-.35.46v4.46h7.58Z"/><path class="cls-3" d="M68.63,10.81c1.16-1,3.56-3,6.16-3A4.21,4.21,0,0,1,79.07,12a2.25,2.25,0,0,1,0,.26c0,4.07-4.7,5.84-7.62,5.84-.09,0-.24,0-.24-.14s0-.14.3-.21c5.88-1.61,5.88-5.13,5.88-5.86,0-1.57-.7-3.13-3-3.13-2.08,0-3.91,1.1-5.75,2.81,0,.5,0,2.8.07,4.6,0,.43.28,2.36.28,2.78a.71.71,0,0,1-.68.73c-.52,0-.78-.87-.78-1.38,0-2.07-.09-2.34-.94-5A15.48,15.48,0,0,0,65,16.08c-.16.36-.31.66-.66.66s-.54-.69-.54-1.31a1,1,0,0,1,.48-1,13.53,13.53,0,0,0,2-2.14,8.11,8.11,0,0,0-1.75-2.51c-.48-.44-.59-.53-.59-.8,0-1.09,2-1.75,3.06-1.75a2.64,2.64,0,0,1,.92.14V4.81c0-.29-.11-1.7-.11-2s0-.58.48-.58a1.06,1.06,0,0,1,1,.94c0,.1-.08.53-.08.6a31.6,31.6,0,0,0-.31,4.12,1.38,1.38,0,0,1,.28.83,2.83,2.83,0,0,1-.48,1.4ZM68,8.69c-.16-.2-.31-.43-1-.43s-1.88.53-1.88,1.1c0,.23,1.25,2.19,1.44,2.62A11.43,11.43,0,0,0,68,9.57,3.78,3.78,0,0,0,68,8.69Zm-1,4.17a24.09,24.09,0,0,1,1,3.63c.09-3.17.09-4.25.09-5.2A12.91,12.91,0,0,0,67,12.86Z"/><path class="cls-3" d="M97.1,7.68a4.08,4.08,0,0,1,.7-.11,1.11,1.11,0,0,1,1.18,1c0,.64-.7.6-1.18.6a20.56,20.56,0,0,0-4,.21c0,.48-.11,3.42-.11,3.52-.18,1.45-1.12,1.61-1.25,1.61-.43,0-1.55-1.41-1.55-1.73,0-.07.09-.07.11-.07s.81.19.94.19c.9,0,.9-1.66.9-3.45A32.93,32.93,0,0,0,87.68,11c-.11,1.38-.11,2.2-.11,2.6,0,2,0,4.32,4.2,4.32a6,6,0,0,0,1.33-.16c.17,0,1.14-.25,1.27-.25.91,0,1.37.43,1.37,1s-1.33.76-2,.76c-6.89,0-7.15-3-7.15-6.88v-1c-.74.32-3,1.49-3.12,1.54a1.71,1.71,0,0,1-.83.18c-.84,0-1.16-.3-1.16-.62s.3-.53,2.44-1.15c.42-.12,2.3-.74,2.67-.85V6.22a1.15,1.15,0,0,1,1-1.08c.57,0,.59.46.59.69S88,7,88,7.27c0,.46-.2,2.44-.22,2.85,2.9-.87,4.06-1.17,5.09-1.4,0-1.47.07-3.45,0-4.4,0-.22-.42-1.14-.42-1.35a.4.4,0,0,1,.42-.37c.11,0,1.4,0,1.4,1.15,0,0-.4,4-.44,4.78C94.89,8.28,96,8,97.1,7.68Z"/></g></svg>