<svg xmlns="http://www.w3.org/2000/svg" viewBox="0 0 90.13 18.8" preserveAspectRatio="xMinYMid"><g id="letter"><path d="M8.06,7.06h6.65V9h-.5a2,2,0,0,0-.67.08.61.61,0,0,0-.27.28,2,2,0,0,0-.09.73v4.27h-2l-.51-1a7.58,7.58,0,0,1-1.91.91,7,7,0,0,1-2,.3A6.52,6.52,0,0,1,.89,11.11,7.5,7.5,0,0,1,0,7.46,7.2,7.2,0,0,1,.88,3.88a6.45,6.45,0,0,1,2.47-2.5A6.78,6.78,0,0,1,6.79.47,7.26,7.26,0,0,1,8.58.7a5.68,5.68,0,0,1,1.53.61L10.47.7h1.37l1.23,4.51-1.8.58a12.7,12.7,0,0,0-1.45-2A3.92,3.92,0,0,0,8.6,2.94a3.36,3.36,0,0,0-1.34-.3,3.15,3.15,0,0,0-1.74.53A3.65,3.65,0,0,0,4.25,4.74a6.06,6.06,0,0,0-.47,2.5A7,7,0,0,0,4.29,10a4,4,0,0,0,1.34,1.75,3.25,3.25,0,0,0,3.16.29,2.08,2.08,0,0,0,.87-.63,1.76,1.76,0,0,0,.23-.95V10a1.73,1.73,0,0,0-.07-.65.66.66,0,0,0-.28-.29A2.15,2.15,0,0,0,8.83,9H8.06Z"/><path d="M20.35,4.35V5.76a5.8,5.8,0,0,1,1.36-1.11,2.37,2.37,0,0,1,1.1-.3,1.61,1.61,0,0,1,.85.22,1.58,1.58,0,0,1,.6.63,1.8,1.8,0,0,1,.22.88,1.7,1.7,0,0,1-.4,1.11,1.43,1.43,0,0,1-1.15.5,1.72,1.72,0,0,1-.34,0,4.67,4.67,0,0,1-.64-.2,1.52,1.52,0,0,0-.43-.07,2.07,2.07,0,0,0-.84.32v3.82a1.65,1.65,0,0,0,.08.63.4.4,0,0,0,.24.22,2.65,2.65,0,0,0,.72.06h.43v1.89h-6V12.44h.5a2.25,2.25,0,0,0,.68-.06.36.36,0,0,0,.2-.2,2.08,2.08,0,0,0,.07-.65V7H16.12V5.17a10.29,10.29,0,0,0,3.31-.82Z"/><path d="M34.06,10.72l1.34,1.35A7.8,7.8,0,0,1,33.05,14a5.69,5.69,0,0,1-2.58.6,5.17,5.17,0,0,1-3.75-1.51,5,5,0,0,1-1.53-3.65,5,5,0,0,1,.69-2.58A4.87,4.87,0,0,1,27.77,5a5.68,5.68,0,0,1,2.75-.66,5.22,5.22,0,0,1,1.77.28,4.37,4.37,0,0,1,1.41.81,4.06,4.06,0,0,1,1,1.28,5.76,5.76,0,0,1,.51,1.55,12.21,12.21,0,0,1,0,1.27H28.65a3,3,0,0,0,.73,2,2.27,2.27,0,0,0,1.73.77,3.11,3.11,0,0,0,1.43-.4A5.7,5.7,0,0,0,34.06,10.72Zm-2-2.82A2.33,2.33,0,0,0,31.83,7a1.53,1.53,0,0,0-.57-.53,1.46,1.46,0,0,0-.75-.2,1.6,1.6,0,0,0-.79.2,1.57,1.57,0,0,0-.61.56,1.91,1.91,0,0,0-.3.89Z"/><path d="M45.66,10.72,47,12.07A7.85,7.85,0,0,1,44.65,14a5.78,5.78,0,0,1-2.58.59,5.13,5.13,0,0,1-3.75-1.51A4.93,4.93,0,0,1,36.8,9.41,4.93,4.93,0,0,1,39.37,5a5.68,5.68,0,0,1,2.75-.66,5.32,5.32,0,0,1,1.78.29,4,4,0,0,1,1.4.81,3.91,3.91,0,0,1,1,1.27,5.53,5.53,0,0,1,.51,1.55,9.56,9.56,0,0,1,.06,1.27H40.25a3,3,0,0,0,.73,2,2.24,2.24,0,0,0,1.73.77,3.18,3.18,0,0,0,1.43-.39A6,6,0,0,0,45.66,10.72ZM43.71,7.9A2.38,2.38,0,0,0,43.43,7a1.53,1.53,0,0,0-.57-.53,1.43,1.43,0,0,0-.75-.2,1.63,1.63,0,0,0-.79.2,1.64,1.64,0,0,0-.61.56,2,2,0,0,0-.3.9Z"/><path d="M52.82,1.24V4.59H56V6.67H52.82v3.4a5.55,5.55,0,0,0,.12,1.48,1.1,1.1,0,0,0,.46.52,2,2,0,0,0,1,.26,3.7,3.7,0,0,0,2-.65v2.09a7.92,7.92,0,0,1-1.54.56,6.42,6.42,0,0,1-1.49.16,5.26,5.26,0,0,1-1.61-.23,3.5,3.5,0,0,1-1.19-.65,2.34,2.34,0,0,1-.68-.91,3.83,3.83,0,0,1-.19-1.38V6.67H48.24V4.79a4,4,0,0,0,1.34-.72,3.67,3.67,0,0,0,.89-1.14,5.22,5.22,0,0,0,.47-1.69Z"/><path d="M62.62,4.36v7.21a2.45,2.45,0,0,0,.05.64.42.42,0,0,0,.21.18,2.39,2.39,0,0,0,.68.06h.53v1.89h-6V12.45h.51a2.66,2.66,0,0,0,.65,0,.38.38,0,0,0,.21-.18,1.19,1.19,0,0,0,.07-.51V7.05H58.06V5.21a11.76,11.76,0,0,0,1.48-.16q.7-.13,1.26-.3a6.56,6.56,0,0,0,.89-.39ZM61,0A1.72,1.72,0,0,1,62.3.52a1.72,1.72,0,0,1,.52,1.27,1.72,1.72,0,0,1-.52,1.27,1.8,1.8,0,0,1-2.53,0,1.71,1.71,0,0,1-.52-1.26A1.76,1.76,0,0,1,59.78.53,1.75,1.75,0,0,1,61,0Z"/><path d="M70,4.36v1.3a8.28,8.28,0,0,1,1.89-1,4.9,4.9,0,0,1,1.61-.27,3.36,3.36,0,0,1,1.67.4,2.57,2.57,0,0,1,1.06,1,3.59,3.59,0,0,1,.33,1.7v4.07a1.76,1.76,0,0,0,.08.66.37.37,0,0,0,.23.21,2.33,2.33,0,0,0,.7,0H78v1.89H72.27V12.45a4.42,4.42,0,0,0,.74,0,.47.47,0,0,0,.32-.22,1.83,1.83,0,0,0,.08-.67V8a1.76,1.76,0,0,0-.15-.9.83.83,0,0,0-.74-.34,2.39,2.39,0,0,0-.9.19,6,6,0,0,0-1.29.76v3.87a1.36,1.36,0,0,0,.14.78,1,1,0,0,0,.66.14h.31v1.89H65.77V12.45h.28a3.37,3.37,0,0,0,.84-.06.4.4,0,0,0,.24-.2,1.25,1.25,0,0,0,.09-.58V7.07H65.77V5.19a13.72,13.72,0,0,0,3.28-.83Z"/><path d="M86.76,5.16a3.62,3.62,0,0,1,1-1,2.18,2.18,0,0,1,1.1-.31A1.17,1.17,0,0,1,90.13,5,1.09,1.09,0,0,1,89,6.13h-.65a.88.88,0,0,0-.53.19A3.31,3.31,0,0,1,88.38,8a3,3,0,0,1-.53,1.67,3.59,3.59,0,0,1-1.48,1.26,5.21,5.21,0,0,1-2.26.45,6.74,6.74,0,0,1-.77,0,7.37,7.37,0,0,1-.77-.14,1.8,1.8,0,0,0-.4.33.46.46,0,0,0-.14.29q0,.3.63.39l4,.57a5.06,5.06,0,0,1,2.61,1,2.24,2.24,0,0,1,.8,1.72,2.55,2.55,0,0,1-.61,1.62,4.18,4.18,0,0,1-2,1.22,10.6,10.6,0,0,1-3.46.48,11.29,11.29,0,0,1-3-.35,3.83,3.83,0,0,1-1.7-.9,1.55,1.55,0,0,1-.5-1,1.49,1.49,0,0,1,.37-1,5,5,0,0,1,1.55-1,2.76,2.76,0,0,1-1.08-.65,1.47,1.47,0,0,1-.49-1,1.82,1.82,0,0,1,.45-1.15A5.28,5.28,0,0,1,81,10.53a2.89,2.89,0,0,1-.8-.68A3,3,0,0,1,79.72,9a3.31,3.31,0,0,1-.18-1.08,3.18,3.18,0,0,1,1.2-2.5,4.66,4.66,0,0,1,3.15-1,6,6,0,0,1,1.58.2A4.24,4.24,0,0,1,86.76,5.16ZM82.57,15a2.91,2.91,0,0,0-.66.61.76.76,0,0,0-.14.46q0,.48.78.75a6.56,6.56,0,0,0,2,.26,7.34,7.34,0,0,0,1.57-.15,2,2,0,0,0,.91-.38.55.55,0,0,0-.15-.87,3.91,3.91,0,0,0-1.41-.33ZM84,6.23a1.34,1.34,0,0,0-1,.46,1.81,1.81,0,0,0-.4,1.24,1.62,1.62,0,0,0,.39,1.15,1.27,1.27,0,0,0,1,.43,1.32,1.32,0,0,0,1-.44,1.69,1.69,0,0,0,.4-1.15A1.81,1.81,0,0,0,85,6.69,1.23,1.23,0,0,0,84,6.23Z"/></g></svg>