<svg id="レイヤー_1" data-name="レイヤー 1" xmlns="http://www.w3.org/2000/svg" viewBox="0 0 102 42"><defs><style>.cls-1{fill:none;}.cls-2,.cls-3{fill:#fff;}.cls-3{stroke:#fff;stroke-linecap:round;stroke-linejoin:round;stroke-width:0.28px;}</style></defs><title>_txt_home01</title><rect class="cls-1" width="102" height="42"/><g id="letter"><path class="cls-2" d="M2,29.17H6.74v1.35H6.3a1,1,0,0,0-.49.07.39.39,0,0,0-.19.21,2.32,2.32,0,0,0,0,.59v1.69H9.1V31.26a1.7,1.7,0,0,0,0-.45.3.3,0,0,0-.19-.23,1.42,1.42,0,0,0-.58-.06H7.92V29.18h4.75v1.34h-.39a1.11,1.11,0,0,0-.54.07.29.29,0,0,0-.18.19,2,2,0,0,0-.06.61v5.26a1.94,1.94,0,0,0,.07.63.39.39,0,0,0,.2.2,2.25,2.25,0,0,0,.63.06h.27v1.34H7.92V37.54h.31a1.73,1.73,0,0,0,.6-.07.41.41,0,0,0,.21-.2,2.21,2.21,0,0,0,.06-.62v-2H5.57v2a3,3,0,0,0,0,.6.36.36,0,0,0,.22.23,1.88,1.88,0,0,0,.58.06H6.7v1.34H2V37.54h.32a2.17,2.17,0,0,0,.57-.07.4.4,0,0,0,.22-.2,1.72,1.72,0,0,0,.06-.55V31.45a2.25,2.25,0,0,0-.06-.64.35.35,0,0,0-.19-.22.92.92,0,0,0-.49-.07H2Z"/><path class="cls-2" d="M17.58,31.77a4.25,4.25,0,0,1,2.07.47A3.24,3.24,0,0,1,21,33.51,3.87,3.87,0,0,1,20.42,38a3.94,3.94,0,0,1-2.82,1,4.07,4.07,0,0,1-2.87-1,3.47,3.47,0,0,1-1-2.64,3.63,3.63,0,0,1,.47-1.88,3.37,3.37,0,0,1,1.36-1.26A4.19,4.19,0,0,1,17.58,31.77Zm0,1.53a1.19,1.19,0,0,0-.75.23,1.56,1.56,0,0,0-.54.7,3.09,3.09,0,0,0-.19,1.17,3.33,3.33,0,0,0,.19,1.21,1.53,1.53,0,0,0,.52.71,1.26,1.26,0,0,0,.73.23A1.38,1.38,0,0,0,18.59,37,2.5,2.5,0,0,0,19,35.42a2.61,2.61,0,0,0-.4-1.59,1.24,1.24,0,0,0-1-.53Z"/><path class="cls-2" d="M25.72,31.77v.95A4.55,4.55,0,0,1,27,32a3.7,3.7,0,0,1,1.27-.23,2.12,2.12,0,0,1,.79.13,1.9,1.9,0,0,1,.64.31,2.12,2.12,0,0,1,.46.53A5,5,0,0,1,31.4,32a3.6,3.6,0,0,1,1.26-.23,2.17,2.17,0,0,1,1,.21,1.84,1.84,0,0,1,.73.54,1.71,1.71,0,0,1,.37.75,4.45,4.45,0,0,1,0,.73V36.9a1.19,1.19,0,0,0,0,.46.4.4,0,0,0,.18.16,2.18,2.18,0,0,0,.51,0h.31v1.35H31.81V37.54a2.62,2.62,0,0,0,.56,0,.34.34,0,0,0,.18-.15A1.35,1.35,0,0,0,32.6,37V34.38a1.85,1.85,0,0,0-.06-.58.51.51,0,0,0-.23-.25.76.76,0,0,0-.41-.1,1.43,1.43,0,0,0-.58.12,5.37,5.37,0,0,0-.93.54v2.72a1.77,1.77,0,0,0,.05.51.45.45,0,0,0,.2.16,2.44,2.44,0,0,0,.54,0v1.35h-3.8V37.54a2.71,2.71,0,0,0,.57,0,.29.29,0,0,0,.16-.15,1.49,1.49,0,0,0,.06-.51V34.45a1.64,1.64,0,0,0-.1-.73.54.54,0,0,0-.54-.27,1.84,1.84,0,0,0-.41,0,1.69,1.69,0,0,0-.43.15,2.92,2.92,0,0,0-.57.36l-.12.11v2.71a1.34,1.34,0,0,0,0,.49.35.35,0,0,0,.16.16,1,1,0,0,0,.42.06h.19v1.34H22.71V37.54H23a2.44,2.44,0,0,0,.54,0,.35.35,0,0,0,.16-.16,1.49,1.49,0,0,0,.06-.51V33.72h-1V32.36a7.59,7.59,0,0,0,2.35-.59Z"/><path class="cls-2" d="M43.09,36.31l1,1a5.53,5.53,0,0,1-1.68,1.36,4.17,4.17,0,0,1-1.84.42A3.7,3.7,0,0,1,37.9,38a3.69,3.69,0,0,1-.6-4.43,3.44,3.44,0,0,1,1.35-1.3,4,4,0,0,1,2-.47,3.58,3.58,0,0,1,1.26.2A2.95,2.95,0,0,1,43.6,33.5,3.61,3.61,0,0,1,44,34.61a6.76,6.76,0,0,1,0,.9H39.24a2.06,2.06,0,0,0,.52,1.43,1.64,1.64,0,0,0,1.23.55,2.5,2.5,0,0,0,1-.28A4.17,4.17,0,0,0,43.09,36.31Zm-1.39-2a1.5,1.5,0,0,0-.2-.66,1.12,1.12,0,0,0-.4-.38,1.08,1.08,0,0,0-.53-.14,1.26,1.26,0,0,0-.57.14,1.13,1.13,0,0,0-.44.4,1.43,1.43,0,0,0-.21.64Z"/><path class="cls-3" d="M6.81,12.28c0,1.64-1.24,4.06-3.07,4.06-.42,0-1-.19-1-.83s.46-.76,1.06-.94a4.58,4.58,0,0,0,2.66-2c.06-.13.19-.37.27-.37S6.81,12.24,6.81,12.28ZM15.28,7a1.34,1.34,0,0,1,1.3,1.14c0,.46-.41.5-.83.5H12.83c-.4,0-.83,0-2.14.09v4.69c0,.83.17,2.15.17,3,0,1.5-.85,2.27-1.6,2.27s-2.14-2-2.14-2.14,0-.07.07-.07.49.22.6.24a1.73,1.73,0,0,0,.7.18c1,0,1.06-.7,1.14-3.37V8.87a21.89,21.89,0,0,0-4.1.65c-.46.21-.94.4-1.42.57-.33,0-.47-.2-.47-.52,0-.73.45-.86.85-.92S8.8,8.3,9.61,8.21c0-.39,0-2-.06-3,0-.31-.17-1.62-.17-1.88s.07-.46.46-.46a1.08,1.08,0,0,1,1.16,1c0,.13-.08.72-.1.83a23.92,23.92,0,0,0-.21,3.39c.94-.11,2.55-.33,3.3-.44A2.47,2.47,0,0,1,15.28,7Zm-2.56,4.07c.67,0,4.92,1.05,4.92,3.78,0,.52-.27.94-.7.94s-.71-.31-1-.94a7.17,7.17,0,0,0-2-2.62c-.21-.18-1.45-.94-1.45-1S12.54,11.08,12.72,11.08Z"/><path class="cls-3" d="M35,9.59c.64,0,1.68.53,1.68,1.31a.57.57,0,0,1-.48.55H33.42a97.93,97.93,0,0,0-10.83.4c-.27,0-1.52.5-1.81.5s-.41-.37-.41-.66a1.14,1.14,0,0,1,1-1.24h.06a4.66,4.66,0,0,1,.64.08h1c.37,0,5.44,0,10.29-.22A2.68,2.68,0,0,1,35,9.59Z"/><path class="cls-3" d="M41.93,16.65c-.21,0-1.26.33-1.41.33a1.25,1.25,0,0,1-1.18-1.26.41.41,0,0,1,.36-.46h0l1.89-.16c1.31-2.34,3.18-7,3.24-8,.06-.74.14-1.61,1.1-1.61a.77.77,0,0,1,.83.72v.06A4.36,4.36,0,0,1,46.14,8c-1.16,2.36-2.36,4.72-3.73,7a59.87,59.87,0,0,0,7.3-1.26,14,14,0,0,0-1.47-2.58.89.89,0,0,1-.15-.31c0-.08.11-.08.13-.08.73,0,3.82,2.57,3.82,5,0,.52-.19,1.26-.81,1.26-.29,0-.52-.15-.67-.72a13.06,13.06,0,0,0-.7-2.14A56.31,56.31,0,0,1,41.93,16.65Z"/></g></svg>