<svg xmlns="http://www.w3.org/2000/svg" viewBox="0 0 512 512"><defs><style>.cls-1{fill:#fff;}</style></defs><g><g><path class="cls-1" d="M334.4,102.4H177.6a75.29,75.29,0,0,0-75.2,75.2V334.4a75.29,75.29,0,0,0,75.2,75.2H334.4a75.29,75.29,0,0,0,75.2-75.2V177.6A75.29,75.29,0,0,0,334.4,102.4ZM256,353.6A97.6,97.6,0,1,1,353.6,256,97.71,97.71,0,0,1,256,353.6ZM356.89,178.83a23.53,23.53,0,1,1,23.53-23.53A23.53,23.53,0,0,1,356.89,178.83ZM256,193.6A62.4,62.4,0,1,0,318.4,256,62.47,62.47,0,0,0,256,193.6ZM399,0H113C50.85,0,0,50.85,0,113V399c0,62.15,50.85,113,113,113H399c62.15,0,113-50.85,113-113V113C512,50.85,461.15,0,399,0Zm45.8,334.4A110.53,110.53,0,0,1,334.4,444.8H177.6A110.53,110.53,0,0,1,67.2,334.4V177.6A110.53,110.53,0,0,1,177.6,67.2H334.4A110.53,110.53,0,0,1,444.8,177.6Z"/></g></g></svg>