<svg id="レイヤー_1" data-name="レイヤー 1" xmlns="http://www.w3.org/2000/svg" viewBox="0 0 102 42"><defs><style>.cls-1{fill:none;}.cls-2,.cls-3{fill:#fff;}.cls-3{stroke:#fff;stroke-linecap:round;stroke-linejoin:round;stroke-width:0.3px;}</style></defs><title>_txt_outline01</title><rect class="cls-1" width="102" height="42"/><g id="letter"><path class="cls-2" d="M7.85,30.06a5.43,5.43,0,0,1,4,1.48,5.14,5.14,0,0,1,1.51,3.81,5.42,5.42,0,0,1-.69,2.76A4.62,4.62,0,0,1,10.77,40a6.07,6.07,0,0,1-2.93.65,5.43,5.43,0,0,1-3.7-1.24,5,5,0,0,1-1.75-4,5.14,5.14,0,0,1,1.46-3.84A5.53,5.53,0,0,1,7.85,30.06Zm0,1.63A2.27,2.27,0,0,0,6,32.56a4.54,4.54,0,0,0-.86,2.84,4.31,4.31,0,0,0,.8,2.74A2.25,2.25,0,0,0,7.85,39a2.21,2.21,0,0,0,1.84-.87,4.37,4.37,0,0,0,.81-2.76,5.27,5.27,0,0,0-.34-2,2.88,2.88,0,0,0-.94-1.24,2.31,2.31,0,0,0-1.32-.45Z"/><path class="cls-2" d="M13.9,33.2l3.42-.07v4.76a2.46,2.46,0,0,0,.06.67.56.56,0,0,0,.23.27.62.62,0,0,0,.42.11,1.84,1.84,0,0,0,.77-.17c.11-.05.4-.23.86-.52V35.34a1.49,1.49,0,0,0-.06-.51.41.41,0,0,0-.17-.2.89.89,0,0,0-.43-.07h-.42V33.2L22,33.13v5.25a1.7,1.7,0,0,0,0,.51.22.22,0,0,0,.15.16,1.48,1.48,0,0,0,.51.05h.39v1.41l-3.26,0v-.87a5,5,0,0,1-1.29.72,3.45,3.45,0,0,1-1.31.23,2.45,2.45,0,0,1-1-.17,2,2,0,0,1-.74-.46,1.84,1.84,0,0,1-.45-.68,3.06,3.06,0,0,1-.14-1v-3a1.94,1.94,0,0,0-.05-.53.35.35,0,0,0-.16-.16,1.24,1.24,0,0,0-.47-.06h-.41Z"/><path class="cls-2" d="M26.68,30.64V33.2H29v1.56H26.68v2.55a4.1,4.1,0,0,0,.09,1.11.69.69,0,0,0,.34.39,1.34,1.34,0,0,0,.75.2,2.54,2.54,0,0,0,1.5-.49v1.57a4.81,4.81,0,0,1-1.15.42,4.23,4.23,0,0,1-1.12.12,3.75,3.75,0,0,1-1.2-.17A2.38,2.38,0,0,1,25,40a1.65,1.65,0,0,1-.52-.67,3.06,3.06,0,0,1-.14-1V34.71h-1.1V33.3a2.7,2.7,0,0,0,1-.54,2.47,2.47,0,0,0,.67-.86,3.64,3.64,0,0,0,.35-1.26Z"/><path class="cls-2" d="M33.56,29.71v8.57a1.46,1.46,0,0,0,0,.51.31.31,0,0,0,.22.21,1.75,1.75,0,0,0,.6,0h.25v1.41H30.14V39.05h.28A1.33,1.33,0,0,0,31,39a.29.29,0,0,0,.19-.17,1.6,1.6,0,0,0,0-.54V31.74H30.14V30.33a9.37,9.37,0,0,0,2.71-.62Z"/><path class="cls-2" d="M39.12,33v5.41a1.29,1.29,0,0,0,0,.48.29.29,0,0,0,.16.13,1.48,1.48,0,0,0,.51,0h.4v1.41H35.7V39.05h.39a1.93,1.93,0,0,0,.48,0,.25.25,0,0,0,.16-.14.81.81,0,0,0,0-.38V35h-1V33.62a7.35,7.35,0,0,0,1.15-.12,6.26,6.26,0,0,0,.95-.23,3.89,3.89,0,0,0,.66-.29Zm-1.19-3.27a1.35,1.35,0,0,1,.23,2.69h-.23a1.33,1.33,0,0,1-1.34-1.32v0a1.32,1.32,0,0,1,.41-.95A1.3,1.3,0,0,1,37.93,29.71Z"/><path class="cls-2" d="M44.63,33v1A7.45,7.45,0,0,1,46,33.2a4.14,4.14,0,0,1,1.21-.2,2.75,2.75,0,0,1,1.26.3,2.11,2.11,0,0,1,.79.75,2.58,2.58,0,0,1,.25,1.28v3a1.4,1.4,0,0,0,0,.5.28.28,0,0,0,.18.16,1.51,1.51,0,0,0,.52,0h.36V40.4h-4.3V39.05a2.53,2.53,0,0,0,.55,0,.27.27,0,0,0,.24-.17,1.43,1.43,0,0,0,.06-.51v-2.7a1.21,1.21,0,0,0-.11-.67.65.65,0,0,0-.55-.26,2.29,2.29,0,0,0-.68.14,6.15,6.15,0,0,0-1,.57v2.9a1,1,0,0,0,.1.59.67.67,0,0,0,.49.11h.24v1.41H41.49V39.05h.21a3.21,3.21,0,0,0,.62,0,.33.33,0,0,0,.19-.16,1,1,0,0,0,.06-.43V35H41.49V33.6A10,10,0,0,0,44,33Z"/><path class="cls-2" d="M57.91,37.76l1,1a6,6,0,0,1-1.76,1.44,4.21,4.21,0,0,1-1.94.44,3.8,3.8,0,0,1-2.81-1.13,3.7,3.7,0,0,1-1.14-2.74,3.77,3.77,0,0,1,.51-1.93,3.67,3.67,0,0,1,1.42-1.37,4.47,4.47,0,0,1,3.39-.28,3.44,3.44,0,0,1,1.05.61,3,3,0,0,1,.73,1A4,4,0,0,1,58.73,36a8.34,8.34,0,0,1,0,1H53.85a2.17,2.17,0,0,0,.54,1.5,1.67,1.67,0,0,0,1.3.58,2.24,2.24,0,0,0,1.07-.3A4,4,0,0,0,57.91,37.76Zm-1.47-2.12a1.54,1.54,0,0,0-.21-.69,1.18,1.18,0,0,0-.42-.41,1.2,1.2,0,0,0-1.16,0,1.3,1.3,0,0,0-.46.41,1.52,1.52,0,0,0-.22.68Z"/><path class="cls-3" d="M2.11,11.31H2a14.43,14.43,0,0,1,1.33-1C6.7,7.9,10.24,3.88,10.5,2.41c.09-.48.15-.88,1-.88.42,0,1.16.26,1.16.86a.39.39,0,0,1-.35.39,23.13,23.13,0,0,0,6.77,5.68,11.9,11.9,0,0,0,2.43,1c.55.16,1.14.26,1.14.3A4.94,4.94,0,0,1,20.59,11c-.33,0-2.1-.51-4.52-2.78a22.9,22.9,0,0,1-4.13-4.81C8.69,8.2,4.08,11.31,2.11,11.31Zm4.74,8.37c0-1.11.07-5.5-.06-6.23,0-.12-.31-.56-.31-.67a1.68,1.68,0,0,1,1.21-1.11c.52,0,.5.4.5.76L8.12,19.7h3.12c0-2.07.09-8.35-.11-10.12-.28-.09-.39-.23-.39-.38,0-.43.83-1.38,1.33-1.38a.76.76,0,0,1,.68.81,6.17,6.17,0,0,1-.09.62c-.08,1.5-.08,2.81-.08,4.14h3.34c.06-.09.55-1,1-1s1.27.44,1.27,1.08-.55.6-.85.6H12.55V19.7l5.73-.05c.13-.2.55-.76,1-.76A1.34,1.34,0,0,1,20.49,20c0,.64-.73.64-1.66.64H4a8.15,8.15,0,0,0-.77.28.5.5,0,0,1-.35-.46c0-.25.11-.92.55-.92,0,0,1.46.14,1.75.14Z"/><path class="cls-3" d="M38.56,7.35h-13c-.22,0-1.18.23-1.4.23s-.31-.23-.31-.44a.7.7,0,0,1,.67-.73h.05c.24,0,2.32.14,2.75.14h4c.05-.6.05-1.27.05-1.91V3.44a1,1,0,0,0-.27-.8.37.37,0,0,1-.1-.23c0-.44.78-1.06,1.18-1.06s.5.23.5.67c0,.2-.13,1-.13,1.19V6.58h2.18V3.44a1.21,1.21,0,0,0-.18-.69.83.83,0,0,1-.2-.32c0-.46.77-1.08,1.18-1.08S36,1.58,36,2c0,.2-.13,1-.13,1.19V6.52h5.5c.2-.34.44-.73.85-.73a1,1,0,0,1,1,1c0,.5-.28.57-.68.57ZM32,17.2c0,.57-1.77,2-2.66,2.6a14.26,14.26,0,0,1-5.25,1.84s-.24,0-.24-.07.44-.33.57-.37a13.07,13.07,0,0,0,5.79-4c.55-.67.59-.74.9-.74A.82.82,0,0,1,32,17.2ZM34.21,16c0,.71.06,4.14.06,4.46,0,.48,0,1.58-1,1.58-.42,0-.46-.41-.46-.78s.09-2,.09-2.32L33,16H29.85c-.85,0-2.23,0-2.93.07-.2,0-1,.2-1.2.2s-.37-.27-.37-.46A.7.7,0,0,1,26,15h.08c.24,0,2.31.14,2.75.14H33V13.31H28.55c-.18,0-1,.25-1.14.25a.31.31,0,0,1-.33-.3v0c0-.05,0-.74.59-.74.11,0,.64.1.75.1H33V10.67H28.85c-.53,0-1.82,0-2.23.07-.16,0-.81.18-.94.18s-.48,0-.48-.43a.73.73,0,0,1,.7-.74H26c.22,0,2.27.14,2.69.14h2.51c-.81-.67-1.4-1.15-1.4-1.61s.46-.58.79-.58c.9,0,1.16,2.17,1.16,2.19H35c.11-.72.48-2.26,1.18-2.26.37,0,.78.23.78.56,0,.59-1.2,1.44-1.51,1.68h4.7c.18-.4.42-.72.81-.72a1.08,1.08,0,0,1,1,1c0,.46-.44.51-.94.51h-6.8v1.91h4.21a.83.83,0,0,1,.79-.65.94.94,0,0,1,.92.86c0,.5-.46.5-.83.5H34.21V15.1h6.27c.09-.21.33-.76.83-.76a1.08,1.08,0,0,1,1,1c0,.55-.44.58-.85.58H34.78c2.12,2.39,4.67,3.49,8,4.09a6,6,0,0,1,1.1.25,6.53,6.53,0,0,1-2.52,1.4,6.88,6.88,0,0,1-1.9-.69,10.54,10.54,0,0,1-5.11-5Zm-4-11.76a3.32,3.32,0,0,1-2.82,1.26c-.61,0-.89-.32-.89-.69a.62.62,0,0,1,.58-.65h.4a4,4,0,0,0,1.09.12,5.48,5.48,0,0,0,.81,0c.09,0,.57-.11.66-.11S30.23,4.09,30.23,4.2Zm9.29-1.34a.8.8,0,0,1,.78.76c0,1-3,1.82-3.56,1.82-.13,0-.26,0-.26-.09s.07-.14.11-.19c.59-.5,1.59-1.21,2.21-1.7a.81.81,0,0,1,.72-.62Z"/><path class="cls-3" d="M46,7.72a1.68,1.68,0,0,1,1.13-1.1c.57,0,.57.52.57.75s-.11.76-.11.9c-.08.67-.22,3.66-.41,4.21a.72.72,0,0,1-.61.51c-.24,0-.24-.28-.24-.4,0-.59.06-3.19.06-3.74A2.25,2.25,0,0,0,46.33,8C46.22,8,46,7.88,46,7.72Zm4.26,12.6a1.38,1.38,0,0,1-1.12,1.31c-.06,0-.48,0-.48-.78,0-.37.14-2.07.16-2.42.19-3.21.26-7.17.26-10.43,0-1.61,0-3-.11-4.51-.15-.09-.35-.19-.35-.29,0-.41.85-1.15,1.29-1.15s.48.46.48.62-.13,1.27-.13,1.5c0,.06-.11,2.78-.11,4.55v9.72Zm.39-11.24V9a11.74,11.74,0,0,1,1.17-2.64c.16-.21.35-.53.7-.53a.72.72,0,0,1,.68.67A.7.7,0,0,1,53,7,13.38,13.38,0,0,1,50.68,9.08Zm6.71,1a43,43,0,0,0-4.54.12c-.14,0-.66.25-.77.25s-.31,0-.31-.25c0-.8.42-.8.57-.8s1.23.09,1.42.09h3.89q0-.3,0-.6V7.56h-2c-.16,0-.77.23-.9.23s-.3-.09-.3-.23.06-.67.43-.67c.11,0,.57.07.66.07h2.07V5H54.75c-.2,0-1,.28-1.14.28s-.26-.19-.26-.35c0-.34.15-.62.5-.62h3.78a11.56,11.56,0,0,0-.09-1.43c0-.07-.35-.39-.35-.41A1.83,1.83,0,0,1,58.5,1.35c.46,0,.51.32.51.64a1.48,1.48,0,0,1,0,.42,19.3,19.3,0,0,0-.11,2h3.37c.15-.26.46-.69.74-.69s1,.39,1,.89-.33.44-.61.44H58.85V7H61c.11-.23.4-.64.7-.64a.94.94,0,0,1,.9.82c0,.35-.42.42-.66.42h-3V9.49h4.7c.22-.39.52-.9.9-.9a1.32,1.32,0,0,1,1.11,1.06c0,.41-.37.46-.68.46Zm4,7.08H55.47v3.31c0,.46-.48,1.15-1,1.15-.33,0-.44-.27-.44-.57,0-.51.15-2.76.17-3.25.07-1.42.11-3.56.11-3.86V12.56s-.31-.3-.31-.37c0-.39.68-.89,1.07-.89s.42.32.46.48h5.55c.27-.39.59-.67.88-.67a.87.87,0,0,1,.85.74,4,4,0,0,1-.11.5,1.94,1.94,0,0,0-.07.63c0,1,.16,5.58.16,6.5s0,2.3-1.58,2.3A3.53,3.53,0,0,1,59,20.49h.17c.11,0,.92.11,1.09.11.94,0,1.14-.43,1.14-1.28Zm0-2.44h-6v1.79h5.94Zm0-1.93c0-.18-.07-.37-.24-.37H55.51v1.64h5.94Z"/><path class="cls-3" d="M72.05,8.59V5.81H69.69c-.15,0-.85.25-1,.25s-.29-.32-.29-.46.22-.76.55-.76c.11,0,.52.16.61.16H72a10.87,10.87,0,0,0-.11-1.7c0-.09-.26-.44-.26-.53,0-.43.65-1.29,1.18-1.29a.58.58,0,0,1,.61.53v.05a2.48,2.48,0,0,1-.07.73c-.07.11-.06,2-.06,2.21h1.94c.29-.39.42-.6.68-.6a1,1,0,0,1,.89.9c0,.35-.24.46-.52.46h-3c0,1.52,0,1.91,0,2.78h2.43c.3-.69.61-.76.76-.76a1.12,1.12,0,0,1,.94,1c0,.41-.41.41-.72.41-1.25,0-6.88,0-7.63.07-.21,0-1.11.25-1.31.25s-.26-.2-.26-.39a.72.72,0,0,1,.63-.76c.14,0,.73.16.86.16Zm1.2,5.09v2.75h2.18c.18-.3.42-.57.73-.57a1,1,0,0,1,.89.94c0,.37-.41.37-.68.37H73.25v4a1,1,0,0,1-1,1c-.46,0-.46-.39-.46-.75s.17-3.66.19-4.19c-.39,0-2.77,0-3,.07a5.76,5.76,0,0,1-.85.21.3.3,0,0,1-.35-.26v-.09c0-.27.3-.76.59-.76.08,0,.5.12.59.14s2.58,0,3.06,0V13.73H70.85a20.31,20.31,0,0,0-2.21.09c-.13,0-.74.16-.87.16s-.26-.14-.26-.39.3-.78.65-.78c.13,0,.7.16.83.16a20.21,20.21,0,0,0,2.58.07h1.49c.52,0,1.9,0,2.79,0,.29-.6.64-.64.77-.64.5,0,.79.6.79,1s-.22.4-.57.4Zm-2-.92c-.51,0-1.49-1.66-1.49-2.14a.57.57,0,0,1,.61-.53h0a.65.65,0,0,1,.53.27,6.16,6.16,0,0,1,.52,2.14c0,.19,0,.26-.17.26Zm2.6,0c-.18,0-.2-.09-.2-.23,0-.6.33-2.6,1-2.6.26,0,.69.23.69.55,0,.53-1,2.32-1.49,2.32ZM83.2,3.4c.37-.53.7-.64.89-.64a1.23,1.23,0,0,1,1,1.13,1.52,1.52,0,0,1-.17.48V8A1.57,1.57,0,0,1,83.23,9.4a2.79,2.79,0,0,1-2.16-1.1c0-.11.09-.14.17-.14s1.14.12,1.32.12c1,0,1-.69,1-1.7v-2c0-.32,0-.55-.37-.55H79.68c-.18.11-.18.39-.18.76,0,1-.11,5.33-.11,6.23h4.53c.15-.23.54-.76.91-.76a.92.92,0,0,1,.92.88,1.22,1.22,0,0,1-.3.8,15.08,15.08,0,0,1-2,4.35,11,11,0,0,0,3.91,3.08c.13.07.7.32.7.41a6.35,6.35,0,0,1-2.1,1c-.7,0-2.43-2-3.26-3.45a8.07,8.07,0,0,1-3.27,2.51c.22,1.82-.81,1.95-1,1.95-.41,0-.5-.39-.5-.75,0-.1.13-3.38.15-4,0-1.24.18-7.45.18-8.28,0-.64,0-3.84-.09-4.2,0-.1-.35-.46-.35-.56a1.89,1.89,0,0,1,1.27-1.19c.48,0,.5.34.52.57ZM80,11.73a1.74,1.74,0,0,0-.64.09V14.2c0,.92,0,2.57.07,5.43a9.07,9.07,0,0,0,2.75-3.09,15.68,15.68,0,0,1-1.57-4.73Zm1,0a11.66,11.66,0,0,0,1.68,3.65A15.53,15.53,0,0,0,84,11.73Z"/></g></svg>