<svg xmlns="http://www.w3.org/2000/svg" width="100" height="32.041" viewBox="0 0 100 32.041"><g data-name="グループ 32"><g data-name="グループ 635"><g data-name="グループ 33"><g data-name="グループ 32"><path data-name="パス 80" d="M2.881 8.345l-.026.044a15.019 15.019 0 0 0-1.582 3.793l-.026.1 1.089 1.236h4.725a1.166 1.166 0 0 0 .833-1.99L4.531 8.19l-1.625.121z" fill="#003e92"/><path data-name="パス 81" d="M2.289 18.671l-1.033 1.2.025.093a15 15 0 0 0 1.574 3.794l.051.088 1.649.108 3.34-3.329a1.153 1.153 0 0 0 .255-1.27 1.134 1.134 0 0 0-.255-.377 1.156 1.156 0 0 0-.83-.339H2.321z" fill="#004ea2"/><path data-name="パス 82" d="M8.244 27.528l-.061.059.117 1.62.087.049a15.131 15.131 0 0 0 3.812 1.577l.1.024.034-.033 1.208-1.055v-4.698a1.163 1.163 0 0 0-.346-.828 1.1 1.1 0 0 0-.386-.251 1.176 1.176 0 0 0-1.28.251z" fill="#003e92"/><path data-name="パス 83" d="M18.686 25.069v4.728l1.234 1.058.1-.026a15.319 15.319 0 0 0 3.812-1.573l.092-.049.1-1.638-3.338-3.328a1.18 1.18 0 0 0-1.278-.252 1.165 1.165 0 0 0-.722 1.08z" fill="#004ea2"/><path data-name="パス 84" d="M24.071 19.345a1.155 1.155 0 0 0 .251 1.274l3.356 3.343 1.63-.122.05-.091a15.3 15.3 0 0 0 1.583-3.788l.023-.107-1.091-1.228h-4.724a1.173 1.173 0 0 0-1.078.719z" fill="#003e92"/><path data-name="パス 85" d="M24.064 12.783a1.064 1.064 0 0 0 .258.385 1.168 1.168 0 0 0 .824.332h4.746l1.069-1.222-.025-.1a15.3 15.3 0 0 0-1.578-3.794l-.05-.09h-.057l-1.592-.1-3.338 3.326a1.143 1.143 0 0 0-.257 1.263z" fill="#003e92"/><path data-name="パス 86" d="M18.678 2.416v4.657a1.124 1.124 0 0 0 .341.821 1.1 1.1 0 0 0 .381.253 1.174 1.174 0 0 0 1.282-.253l3.355-3.342-.12-1.614-.089-.053a15.668 15.668 0 0 0-3.81-1.579l-.105-.019-1.234 1.082z" fill="#003e92"/><path data-name="パス 87" d="M8.287 2.988v.051a.172.172 0 0 1 .025-.026c-.032.117-.053.473-.12 1.515v.045l3.338 3.33a1.177 1.177 0 0 0 1.277.25 1.163 1.163 0 0 0 .725-1.081V2.346l-1.236-1.053-.1.022A15.384 15.384 0 0 0 8.38 2.884l-.089.053z" fill="#003e92"/><path data-name="パス 88" d="M2.881 8.345l-.026.044a15.019 15.019 0 0 0-1.582 3.793l-.026.1 1.089 1.236h4.725a1.166 1.166 0 0 0 .833-1.99L4.531 8.19l-1.625.121z" fill="#004ea2"/><path data-name="パス 89" d="M8.244 27.528l-.061.059.117 1.62.087.049a15.131 15.131 0 0 0 3.812 1.577l.1.024.034-.033 1.208-1.055v-4.698a1.163 1.163 0 0 0-.346-.828 1.1 1.1 0 0 0-.386-.251 1.176 1.176 0 0 0-1.28.251z" fill="#004ea2"/><path data-name="パス 90" d="M24.071 19.345a1.155 1.155 0 0 0 .251 1.274l3.356 3.343 1.63-.122.05-.091a15.3 15.3 0 0 0 1.583-3.788l.023-.107-1.091-1.228h-4.724a1.173 1.173 0 0 0-1.078.719z" fill="#004ea2"/><path data-name="パス 91" d="M24.064 12.783a1.064 1.064 0 0 0 .258.385 1.168 1.168 0 0 0 .824.332h4.746l1.069-1.222-.025-.1a15.3 15.3 0 0 0-1.578-3.794l-.05-.09h-.057l-1.592-.1-3.338 3.326a1.143 1.143 0 0 0-.257 1.263z" fill="#004ea2"/><path data-name="パス 92" d="M18.678 2.416v4.657a1.124 1.124 0 0 0 .341.821 1.1 1.1 0 0 0 .381.253 1.174 1.174 0 0 0 1.282-.253l3.355-3.342-.12-1.614-.089-.053a15.668 15.668 0 0 0-3.81-1.579l-.105-.019-1.234 1.082z" fill="#004ea2"/><path data-name="パス 93" d="M8.287 2.988v.051a.172.172 0 0 1 .025-.026c-.032.117-.053.473-.12 1.515v.045l3.338 3.33a1.177 1.177 0 0 0 1.277.25 1.163 1.163 0 0 0 .725-1.081V2.346l-1.236-1.053-.1.022A15.384 15.384 0 0 0 8.38 2.884l-.089.053z" fill="#004ea2"/><path data-name="パス 94" d="M19.954 14.441c-.083-.273-.3-.527.406-1.468.531-.726 5.829-6.494 11.534-12.664h-.006c-6.208 5.67-12 10.944-12.726 11.477-.946.7-1.2.477-1.478.394-.256-.137-.591-.158-.765-1.318-.134-.889-.559-4.818-.822-10.859h-.006c-.253 6.041-.682 9.97-.818 10.859-.18 1.16-.512 1.181-.767 1.318-.279.083-.531.306-1.477-.394C12.3 11.253 6.508 5.978.304.309H.298c5.7 6.173 11 11.941 11.54 12.668.7.939.48 1.184.4 1.465-.138.256-.162.588-1.328.766-.9.132-4.842.56-10.912.813 6.07.257 10.015.7 10.912.825 1.162.17 1.187.5 1.323.759.082.276.306.529-.4 1.477-.538.724-5.836 6.488-11.538 12.661 6.21-5.671 12-10.945 12.731-11.481.946-.7 1.2-.478 1.471-.4.261.139.593.162.77 1.326.138.889.562 4.816.821 10.854.261-6.038.693-9.965.827-10.854.175-1.155.5-1.187.765-1.326.278-.081.529-.3 1.478.4.723.536 6.514 5.811 12.722 11.481-5.7-6.173-11-11.936-11.535-12.661-.7-.942-.483-1.193-.4-1.473.142-.253.16-.592 1.329-.763.892-.129 4.848-.561 10.914-.825-6.066-.253-10.022-.68-10.914-.812-1.157-.183-1.171-.515-1.32-.768z" fill="#ffaf00"/></g><path data-name="パス 95" d="M39.417 13.765a15.506 15.506 0 0 1-2.682 4.37l.971 1a15.536 15.536 0 0 0 2.817-4.5zm9.065 2.219c0 .107-.009.489-.009.571 0 .009-.007.019-.007.03 0 .079-.007.151-.009.213v.032a1.25 1.25 0 0 0-.017.179.064.064 0 0 1-.007.034 1.017 1.017 0 0 1-.015.149c0 .007-.006.019-.006.031a.587.587 0 0 1-.019.126.206.206 0 0 1 0 .021.654.654 0 0 1-.023.111.043.043 0 0 1 0 .02.473.473 0 0 1-.024.081.039.039 0 0 0 0 .021.236.236 0 0 0-.026.066.023.023 0 0 0-.012.013.325.325 0 0 1-.03.053l-.007.01c-.01.011-.019.023-.031.034s-.009.006-.011.011a.343.343 0 0 1-.037.028.043.043 0 0 1-.012 0 .072.072 0 0 1-.032.015.023.023 0 0 1-.018 0 .181.181 0 0 1-.03.013h-.747c-.306 0-.4-.023-.4-.45v-3.724h2.737v-1.284h-3.865v-2.166h3.469V8.965h-3.469V6.851h-1.388v2.114h-1.482a8.711 8.711 0 0 0 .348-1.484l-1.258-.334a8.445 8.445 0 0 1-1.9 4.065l1.126.719a8.706 8.706 0 0 0 1.155-1.7l2.013.01v2.166h-3.886v1.284h2.4a4.291 4.291 0 0 1-.923 2.763 6.889 6.889 0 0 1-2.185 1.751l.708 1.116c2.295-1.214 3.44-2.4 3.725-5.63h1.339v4.349c0 1.165.935 1.165 1.316 1.165h1.437a1.106 1.106 0 0 0 1.033-.494.809.809 0 0 0 .056-.089 9.723 9.723 0 0 0 .33-2.635l-1.31-.215c.003.032-.002.119-.002.213zm-7.929-7.847a14.358 14.358 0 0 0-2.245-1.288l-.709 1.083a14.946 14.946 0 0 1 2.22 1.332zm-.646 3.588a14.366 14.366 0 0 0-2.247-1.285l-.706 1.083a14.516 14.516 0 0 1 2.212 1.329zm41.456 2.054h4.027v-1.272h-4.027V9.138h4.694V7.865H75.206v1.271h4.6v3.369h-3.989v1.272h3.99v3.626h-5.17v1.272H86.6v-1.27h-5.242zM69.556 9.451a4.121 4.121 0 0 0-4.422 4.187c0 1.374.661 2.766 1.917 2.766a2.148 2.148 0 0 0 1.849-1.339 11.9 11.9 0 0 0 1.017-4.469 2.3 2.3 0 0 1 2.287 2.46 2.906 2.906 0 0 1-3 2.9l.285 1.156a4.029 4.029 0 0 0 4.052-3.961c-.009-1.786-1.055-3.7-3.989-3.7zm-2.472 5.77c-.386 0-.774-.45-.774-1.445a3.067 3.067 0 0 1 2.381-3.124c-.092 1.206-.456 4.57-1.611 4.57zm31.026.114h-1.575l.942-.382a6.961 6.961 0 0 0-.725-1.509h.89v-1.14h-2.829v-1.561h3.1v-1.14h-7.23v1.14h2.775v1.561h-2.532v1.14h2.532v1.891h-3.041v1.138h7.685zm-3.3 0v-1.891h1.364l-.731.284a7.96 7.96 0 0 1 .8 1.608zm-6.22-7.84V19.21h1.347v-.512h8.66v.512h1.347V7.495zm10.006 9.934h-8.66V8.765h8.66zm-40.17-1.936h4.5v-5.344h-4.5v-.964h5.418V7.911h-5.418V6.873h-1.35v1.038h-5.42v1.274h5.42v.964h-4.508v5.344h4.508v.964h-5.527v1.274h5.527v1.672h1.35v-1.672h5.519v-1.274h-5.519zm0-4.206h3.155v.962h-3.155zm0 2.106h3.155v.962h-3.155zm-1.35.962h-3.159v-.962h3.159zm0-2.106h-3.159v-.962h3.159z" fill="#004ea2"/></g><g data-name="グループ 34" fill="#004ea2"><path data-name="パス 96" d="M37.075 25.764h.081a1.027 1.027 0 0 0 .18-.007.324.324 0 0 0 .144-.052.346.346 0 0 0 .1-.159.389.389 0 0 0 .042-.148l-.9-2.56h.713l.535 1.808.506-1.808h.682l-.841 2.411a3.379 3.379 0 0 1-.385.865.733.733 0 0 1-.567.167h-.136c-.034 0-.086 0-.155-.008z"/><path data-name="パス 97" d="M43.104 24.994a1.351 1.351 0 0 1-1.885 0 1.521 1.521 0 0 1 0-1.842 1.337 1.337 0 0 1 1.885 0 1.522 1.522 0 0 1 0 1.842zm-.513-.354a1.144 1.144 0 0 0 0-1.135.569.569 0 0 0-.865 0 1.136 1.136 0 0 0 0 1.135.568.568 0 0 0 .865 0z"/><path data-name="パス 98" d="M45.89 24.511a.426.426 0 0 0 .088.243.6.6 0 0 0 .443.128.679.679 0 0 0 .3-.056.188.188 0 0 0 .022-.333 3.67 3.67 0 0 0-.67-.193 1.4 1.4 0 0 1-.589-.259.561.561 0 0 1-.171-.441.764.764 0 0 1 .267-.584 1.074 1.074 0 0 1 .752-.244 1.38 1.38 0 0 1 .749.183.786.786 0 0 1 .333.633h-.641a.384.384 0 0 0-.07-.2.44.44 0 0 0-.361-.131.521.521 0 0 0-.3.065.187.187 0 0 0-.089.153.167.167 0 0 0 .095.16 4.09 4.09 0 0 0 .669.178 1.229 1.229 0 0 1 .574.272.619.619 0 0 1 .189.461.744.744 0 0 1-.271.595 1.277 1.277 0 0 1-.84.231 1.264 1.264 0 0 1-.855-.244.793.793 0 0 1-.276-.622z"/><path data-name="パス 99" d="M51.236 22.857a.718.718 0 0 1 .3.241.638.638 0 0 1 .123.282 3.448 3.448 0 0 1 .022.474v1.441h-.655v-1.493a.659.659 0 0 0-.067-.319.335.335 0 0 0-.33-.171.452.452 0 0 0-.383.17.778.778 0 0 0-.131.485v1.328h-.641v-3.3h.641v1.169a.784.784 0 0 1 .321-.3.907.907 0 0 1 .384-.085 1.04 1.04 0 0 1 .416.078z"/><path data-name="パス 100" d="M54.467 22.55h-.65v-.591h.65zm-.65.292h.65v2.451h-.65z"/><path data-name="パス 101" d="M57.907 22.883a.776.776 0 0 1 .281.271v-1.17h.65v3.311h-.623v-.34a.906.906 0 0 1-.313.317.879.879 0 0 1-.436.1.911.911 0 0 1-.723-.347 1.334 1.334 0 0 1-.293-.892 1.534 1.534 0 0 1 .289-.987.94.94 0 0 1 .772-.36.791.791 0 0 1 .396.097zm.157 1.746a.893.893 0 0 0 .142-.524.805.805 0 0 0-.227-.643.49.49 0 0 0-.324-.117.45.45 0 0 0-.413.213 1.145 1.145 0 0 0 0 1.07.453.453 0 0 0 .406.2.473.473 0 0 0 .417-.199z"/><path data-name="パス 102" d="M61.913 23.803a1.012 1.012 0 0 0 .256-.056.192.192 0 0 0 .138-.182.215.215 0 0 0-.106-.208.671.671 0 0 0-.311-.057.408.408 0 0 0-.326.113.462.462 0 0 0-.091.225h-.619a.939.939 0 0 1 .181-.529 1.054 1.054 0 0 1 .876-.324 1.562 1.562 0 0 1 .718.16.612.612 0 0 1 .314.6v1.407a.357.357 0 0 0 .038.171.23.23 0 0 0 .095.074v.095h-.7a.719.719 0 0 1-.041-.14 2.15 2.15 0 0 1-.018-.148 1.309 1.309 0 0 1-.308.245.926.926 0 0 1-.47.119.811.811 0 0 1-.553-.19.676.676 0 0 1-.218-.539.7.7 0 0 1 .351-.654 1.569 1.569 0 0 1 .567-.158zm.392.3a.743.743 0 0 1-.124.062 1.025 1.025 0 0 1-.172.044l-.146.027a.961.961 0 0 0-.295.088.293.293 0 0 0-.151.272.284.284 0 0 0 .092.237.351.351 0 0 0 .225.073.67.67 0 0 0 .387-.122.513.513 0 0 0 .184-.443z"/><path data-name="パス 103" d="M65.993 23.803a1.01 1.01 0 0 0 .256-.056.192.192 0 0 0 .138-.182.215.215 0 0 0-.106-.208.669.669 0 0 0-.311-.057.407.407 0 0 0-.326.113.465.465 0 0 0-.091.225h-.618a.937.937 0 0 1 .181-.529 1.053 1.053 0 0 1 .876-.324 1.564 1.564 0 0 1 .719.16.613.613 0 0 1 .314.6v1.407a.36.36 0 0 0 .038.171.227.227 0 0 0 .095.074v.095h-.7a.7.7 0 0 1-.04-.14 1.669 1.669 0 0 1-.018-.148 1.31 1.31 0 0 1-.307.245.927.927 0 0 1-.471.119.811.811 0 0 1-.553-.19.675.675 0 0 1-.218-.539.7.7 0 0 1 .351-.654 1.567 1.567 0 0 1 .566-.158zm.392.3a.721.721 0 0 1-.124.062 1.027 1.027 0 0 1-.172.044l-.146.027a.96.96 0 0 0-.295.088.292.292 0 0 0-.151.272.284.284 0 0 0 .093.237.351.351 0 0 0 .225.073.671.671 0 0 0 .387-.122.513.513 0 0 0 .183-.443z"/><path data-name="パス 104" d="M69.747 22.843v1.478a.778.778 0 0 0 .049.315.341.341 0 0 0 .342.187.447.447 0 0 0 .448-.265.965.965 0 0 0 .063-.38v-1.334h.65v2.451h-.623v-.346a1.09 1.09 0 0 0-.045.067.453.453 0 0 1-.086.1.887.887 0 0 1-.29.184.986.986 0 0 1-.329.049.732.732 0 0 1-.731-.391 1.5 1.5 0 0 1-.106-.636v-1.478z"/><path data-name="パス 105" d="M73.186 23.322v-.457h.342v-.684h.634v.684h.4v.457h-.4v1.3a.29.29 0 0 0 .038.188.418.418 0 0 0 .234.037h.126v.479l-.3.011a.815.815 0 0 1-.621-.158.467.467 0 0 1-.108-.339v-1.509z"/><path data-name="パス 106" d="M78.536 24.994a1.351 1.351 0 0 1-1.885 0 1.52 1.52 0 0 1 0-1.842 1.336 1.336 0 0 1 1.885 0 1.522 1.522 0 0 1 0 1.842zm-.513-.354a1.144 1.144 0 0 0 0-1.135.569.569 0 0 0-.865 0 1.136 1.136 0 0 0 0 1.135.568.568 0 0 0 .865 0z"/><path data-name="パス 107" d="M80.813 24.622h.682v.672h-.682z"/><path data-name="パス 108" d="M85.09 23.722a.565.565 0 0 0-.092-.247.388.388 0 0 0-.336-.149.442.442 0 0 0-.444.322 1.329 1.329 0 0 0-.063.453 1.221 1.221 0 0 0 .063.433.428.428 0 0 0 .433.306.383.383 0 0 0 .32-.121.608.608 0 0 0 .115-.315h.654a1.072 1.072 0 0 1-.212.553 1.028 1.028 0 0 1-.894.421 1.046 1.046 0 0 1-.871-.351 1.416 1.416 0 0 1-.279-.91 1.439 1.439 0 0 1 .308-.982 1.074 1.074 0 0 1 .851-.351 1.283 1.283 0 0 1 .755.207.962.962 0 0 1 .348.731z"/><path data-name="パス 109" d="M89.748 24.994a1.351 1.351 0 0 1-1.885 0 1.52 1.52 0 0 1 0-1.842 1.337 1.337 0 0 1 1.885 0 1.522 1.522 0 0 1 0 1.842zm-.513-.354a1.144 1.144 0 0 0 0-1.135.569.569 0 0 0-.865 0 1.135 1.135 0 0 0 0 1.135.568.568 0 0 0 .865 0z"/><path data-name="パス 110" d="M92.028 24.622h.683v.672h-.681z"/><path data-name="パス 111" d="M94.56 25.764l.077.006h.04a.2.2 0 0 0 .143-.046.246.246 0 0 0 .048-.179v-2.692h.641v2.7a.852.852 0 0 1-.146.549.722.722 0 0 1-.573.178h-.087l-.143-.005zm.949-3.214h-.641v-.591h.641z"/><path data-name="パス 112" d="M99.7 23.106a1.306 1.306 0 0 1 .3.931 1.472 1.472 0 0 1-.293.987.952.952 0 0 1-.755.34.791.791 0 0 1-.488-.146.933.933 0 0 1-.208-.236v1.277h-.634v-3.416h.614v.362a1.034 1.034 0 0 1 .222-.252.819.819 0 0 1 .512-.164.969.969 0 0 1 .73.317zm-.492.461a.456.456 0 0 0-.424-.218.482.482 0 0 0-.484.33 1.241 1.241 0 0 0-.068.445.707.707 0 0 0 .229.6.526.526 0 0 0 .323.1.47.47 0 0 0 .413-.207 1.086 1.086 0 0 0 .011-1.052z"/></g></g></g></svg>