<svg xmlns="http://www.w3.org/2000/svg" viewBox="0 0 152 25"><defs><style>.cls-1{fill:#b82221}.cls-2{fill:#cc4718}.cls-3{fill:#de690d}.cls-4{fill:#e38512}.cls-5{fill:#323333}.cls-6{fill:none}</style></defs><g id="Contents"><g id="txt"><path class="cls-1" d="M15.75.24a.54.54 0 0 0-.5.34l-2.79 7a.53.53 0 0 1-.46.32H3.59a.54.54 0 0 0-.5.33L.17 15.56l2.31 5.8a.53.53 0 0 0 .49.33h3.85l1.09 2.73a.54.54 0 0 0 .49.34h5.44a.54.54 0 0 0 .49-.34L23.85.58a.24.24 0 0 0-.22-.34z"/><path class="cls-2" d="M26 .24a.54.54 0 0 0-.49.34L17.2 21.36a.24.24 0 0 0 .23.33H24a.52.52 0 0 0 .49-.33L32.82.58a.24.24 0 0 0-.22-.34z"/><path class="cls-3" d="M37.55.58a.56.56 0 0 0-.5-.34H36a.54.54 0 0 0-.49.34l-8.3 20.78a.24.24 0 0 0 .23.33h1.41l1.09 2.73a.53.53 0 0 0 .49.34H31a.56.56 0 0 0 .5-.34l7.65-19.15a.86.86 0 0 0 0-.67z"/><path class="cls-4" d="M41.17 9.66a.15.15 0 0 0-.27 0L35 24.42a.24.24 0 0 0 .23.34h1.81a.56.56 0 0 0 .5-.34l4.62-11.59a.84.84 0 0 0 0-.66z"/><path class="cls-5" d="M53.63 18.18a.35.35 0 0 0 .35-.35v-.37a.35.35 0 0 0-.35-.35h-5.35a.35.35 0 0 1-.35-.35V6.84a.35.35 0 0 1 .35-.35h5.35a.34.34 0 0 0 .37-.35v-.21a.34.34 0 0 0-.35-.35h-6.54a.35.35 0 0 1-.35-.35V2.35a.35.35 0 0 1 .35-.35h6.52a.34.34 0 0 0 .37-.34V.84a.35.35 0 0 1 .35-.35h2.83a.35.35 0 0 1 .35.35v.82a.34.34 0 0 0 .35.34h6.82a.35.35 0 0 1 .34.35v2.88a.35.35 0 0 1-.34.35h-6.84a.34.34 0 0 0-.35.35v.21a.34.34 0 0 0 .35.35h5.79a.35.35 0 0 1 .35.35v6.62c.06 2.61-.65 3.62-2.55 3.65h-3.59a.35.35 0 0 0-.35.35v.37a.35.35 0 0 0 .35.35h7.21a.35.35 0 0 1 .35.35v3a.35.35 0 0 1-.35.34h-7.21a.35.35 0 0 0-.35.35V24a.35.35 0 0 1-.35.34h-2.83A.35.35 0 0 1 54 24v-1.77a.35.35 0 0 0-.35-.35h-6.9a.35.35 0 0 1-.35-.34v-3a.35.35 0 0 1 .35-.35zm0-8a.34.34 0 0 0 .37-.31v-.34a.34.34 0 0 0-.35-.35h-1.83a.34.34 0 0 0-.34.35v.34a.34.34 0 0 0 .34.35zm0 3.84a.35.35 0 0 0 .35-.35v-.37a.34.34 0 0 0-.35-.35h-1.81a.34.34 0 0 0-.34.35v.37a.35.35 0 0 0 .34.35zm6.24-3.84a.34.34 0 0 0 .35-.35v-.3a.34.34 0 0 0-.35-.35h-2a.34.34 0 0 0-.35.35v.34a.34.34 0 0 0 .35.35zm0 3.84a.35.35 0 0 0 .35-.35v-.37a.34.34 0 0 0-.35-.35h-2a.34.34 0 0 0-.35.35v.37a.35.35 0 0 0 .35.35zm13.68-1.66a.33.33 0 0 1 .33.33c-.28 6.71-1.76 9.88-5.43 11.66a.22.22 0 0 1-.32-.2v-4a.73.73 0 0 1 .28-.56c1.47-1.21 2-3 2.17-6.82a.38.38 0 0 1 .36-.38zm-5-11.18a.29.29 0 0 1 .34-.28c1.8.41 2.82.67 4.67 1.26a.47.47 0 0 1 .33.45v3.61a.23.23 0 0 1-.31.23A41.29 41.29 0 0 0 68.9 5a.46.46 0 0 1-.35-.44zm0 5.5a.29.29 0 0 1 .37-.26 39.17 39.17 0 0 1 4.67 1.25.46.46 0 0 1 .3.45v3.19a.27.27 0 0 1-.36.24c-1.68-.5-2.69-.78-4.63-1.2a.44.44 0 0 1-.35-.42zM77.89 12a.35.35 0 0 1 .34.35v4.14c0 5.05-1 7-4.41 8a.27.27 0 0 1-.34-.26v-3.5a.54.54 0 0 1 .32-.48c1.19-.54 1.49-1.3 1.47-3.39v-4.54a.35.35 0 0 1 .35-.35zm.85-10a.35.35 0 0 0 .35-.35V.84a.35.35 0 0 1 .35-.35H82a.35.35 0 0 1 .35.35v.74a.35.35 0 0 0 .34.35h3.94a.35.35 0 0 1 .35.34v2.78a.35.35 0 0 1-.35.35h-6.17a.49.49 0 0 0-.46.32l-.54 1.51a.22.22 0 0 0 .22.31c1.11 0 1.46-.07 2.46-.18a.24.24 0 0 0 .19-.36l-.26-.59a.23.23 0 0 1 .21-.32h2.6a.54.54 0 0 1 .49.33A37.34 37.34 0 0 1 87.05 11a.25.25 0 0 1-.25.32H84a.45.45 0 0 1-.44-.33v-.17a.38.38 0 0 0-.44-.27 53.39 53.39 0 0 1-6.77.54H75a.35.35 0 0 1-.34-.35V8a.34.34 0 0 1 .34-.33h.62a.45.45 0 0 0 .44-.34l.45-1.6a.26.26 0 0 0-.26-.33h-1.36a.35.35 0 0 1-.35-.35V2.27a.35.35 0 0 1 .35-.34zm.2 10.39a.35.35 0 0 1 .35-.35h2.23a.35.35 0 0 1 .35.35v10.06a.35.35 0 0 1-.35.35h-2.23a.35.35 0 0 1-.35-.35zm6.38-.39a.35.35 0 0 1 .35.35v7.47a.35.35 0 0 0 .34.35h.28c.42 0 .55-.06.93-.67a.1.1 0 0 1 .18.05v2.9a1.48 1.48 0 0 1-.14.66c-.38.77-.84 1-1.84.94h-1.26c-1.33-.05-1.6-.52-1.56-2.79v-8.94A.35.35 0 0 1 83 12zm5.32-2.73a.34.34 0 0 1 .36-.35h4.54a.35.35 0 0 1 .35.35V17c0 1.85 1.67 3.15 3.92 3.07h9.4a.35.35 0 0 1 .35.35v2.93a.35.35 0 0 1-.35.35H99.4c-2.26 0-3.49-.51-4.66-2.13a.2.2 0 0 0-.35 0A6 6 0 0 1 91 24.49a.24.24 0 0 1-.34-.21v-4a.55.55 0 0 1 .28-.49 3.08 3.08 0 0 0 1.53-2.52v-4.14a.35.35 0 0 0-.34-.35H91a.35.35 0 0 1-.35-.35zm5.3-2.94a.25.25 0 0 1-.33.23 36.23 36.23 0 0 0-4.18-1.2.42.42 0 0 1-.33-.42V1.28a.26.26 0 0 1 .31-.28c1.93.43 2.83.67 4.18 1.09a.49.49 0 0 1 .35.46zm2.55-.52a.2.2 0 0 0 .18-.3l-.35-.62a.2.2 0 0 1 .18-.3h2.87a.66.66 0 0 1 .55.28l.41.58a.31.31 0 0 0 .46 0L104 4.38a.14.14 0 0 0-.09-.24h-6.66a.35.35 0 0 1-.35-.34V1.31a.35.35 0 0 1 .35-.31h11.3a.35.35 0 0 1 .35.35v2.34a.77.77 0 0 1-.26.57l-1.56 1.33a.12.12 0 0 0 .08.22h1.48a.35.35 0 0 1 .35.35v9.75c0 2.53-.78 3.39-3 3.26h-1.36a.34.34 0 0 1-.35-.35v-.32a.35.35 0 0 0-.35-.35h-2.33a.35.35 0 0 1-.35-.34v-2a.34.34 0 0 0-.35-.34h-.62a.34.34 0 0 0-.34.34v2.94a.35.35 0 0 1-.35.34h-2.28a.35.35 0 0 1-.35-.34V6.16a.35.35 0 0 1 .35-.35zm2.4 3.6a.34.34 0 0 0 .35-.34v-.3a.35.35 0 0 0-.35-.35h-.62a.35.35 0 0 0-.34.35v.3a.34.34 0 0 0 .34.34zm0 3.58a.35.35 0 0 0 .35-.35v-.32a.35.35 0 0 0-.35-.35h-.62a.35.35 0 0 0-.34.35v.32a.35.35 0 0 0 .34.35zm4.45-3.58a.35.35 0 0 0 .35-.34v-.3a.35.35 0 0 0-.35-.35h-.64a.35.35 0 0 0-.35.35v.3a.35.35 0 0 0 .35.34zm0 3.58a.35.35 0 0 0 .35-.35v-.32a.35.35 0 0 0-.35-.35h-.64a.35.35 0 0 0-.35.35v.32a.35.35 0 0 0 .35.35zm0 3.47a.35.35 0 0 0 .35-.35v-.3a.35.35 0 0 0-.35-.34h-.64a.35.35 0 0 0-.35.34v.3a.35.35 0 0 0 .35.35zm14.05.99a.35.35 0 0 0 .35-.35v-.4a.35.35 0 0 0-.35-.35h-5.77a.35.35 0 0 1-.35-.34V9.55a.35.35 0 0 1 .35-.35h5.77a.34.34 0 0 0 .35-.34v-.19a.34.34 0 0 0-.35-.35h-3.2a.35.35 0 0 1-.35-.35V5.56a.35.35 0 0 0-.35-.35h-3.21a.34.34 0 0 1-.34-.35V2.27a.34.34 0 0 1 .34-.34h3.23a.35.35 0 0 0 .35-.35v-.53a.35.35 0 0 1 .35-.35h3a.34.34 0 0 1 .35.35v.53a.35.35 0 0 0 .35.35h3.31a.35.35 0 0 0 .35-.35v-.53a.35.35 0 0 1 .35-.35h3a.35.35 0 0 1 .35.35v.53a.35.35 0 0 0 .34.35h3a.35.35 0 0 1 .35.34v2.59a.35.35 0 0 1-.35.35h-3.06a.35.35 0 0 0-.35.35V8a.35.35 0 0 1-.34.35h-3.17a.35.35 0 0 0-.35.35v.19a.35.35 0 0 0 .35.34h5.84a.35.35 0 0 1 .34.35v4.09c0 2.09-.48 2.74-2 2.71h-4.2a.35.35 0 0 0-.35.35v.4a.35.35 0 0 0 .35.35h7a.35.35 0 0 1 .35.35v2.95a.34.34 0 0 1-.35.35h-7a.35.35 0 0 0-.35.35v2.7a.34.34 0 0 1-.35.34h-2.89a.35.35 0 0 1-.35-.34v-2.7a.35.35 0 0 0-.35-.35h-7.11a.34.34 0 0 1-.34-.35V17.8a.35.35 0 0 1 .34-.35zm0-4.2a.35.35 0 0 0 .35-.35v-.71a.35.35 0 0 0-.35-.35h-2.22a.35.35 0 0 0-.35.35v.71a.35.35 0 0 0 .35.35zm3.78-7.18a.35.35 0 0 0 .35-.34v-.17a.35.35 0 0 0-.35-.35h-3.31a.35.35 0 0 0-.35.35v.17a.35.35 0 0 0 .35.34zm2.53 7.18a.35.35 0 0 0 .35-.35v-.71a.35.35 0 0 0-.35-.35h-2a.35.35 0 0 0-.35.35v.71a.35.35 0 0 0 .35.35zm7.35-6.36a.5.5 0 0 1 .32-.47 13.63 13.63 0 0 0 6.87-5.58.66.66 0 0 1 .55-.32h3.33a.65.65 0 0 1 .54.29 14.09 14.09 0 0 0 6.86 5.43.45.45 0 0 1 .31.44v3.64a.25.25 0 0 1-.32.25A13.35 13.35 0 0 1 148 9.08a.2.2 0 0 0-.31.16v.61a.35.35 0 0 1-.35.35h-10.19a.35.35 0 0 1-.34-.35v-.48a.21.21 0 0 0-.32-.16 15.47 15.47 0 0 1-3.1 1.44.25.25 0 0 1-.34-.23zm8.19 4.51a.35.35 0 0 1 .35.34v6.65c0 2.79-.69 3.63-3 3.6h-4.26a.35.35 0 0 1-.35-.35v-9.9a.34.34 0 0 1 .35-.34zm-3 6.68a.35.35 0 0 0 .35-.35v-2.18a.35.35 0 0 0-.35-.34h-.85a.34.34 0 0 0-.34.34v2.18a.35.35 0 0 0 .34.35zM144 6.33a.15.15 0 0 0 .12-.25c-.54-.59-.75-.88-1.57-1.94a.25.25 0 0 0-.4 0 19.81 19.81 0 0 1-1.47 1.94.16.16 0 0 0 .12.27zm-1.26 5.41a.35.35 0 0 1 .35-.34h7.84a.34.34 0 0 1 .35.34v6.41c0 2.69-.63 3.55-2.69 3.63h-2.16a.35.35 0 0 0-.35.35v2.07a.35.35 0 0 1-.34.35h-2.65a.35.35 0 0 1-.35-.35zm4.79 6.57a.35.35 0 0 0 .35-.35v-2.69a.35.35 0 0 0-.35-.35h-1.1a.35.35 0 0 0-.35.35V18a.35.35 0 0 0 .35.35z"/><path class="cls-6" d="M0 0h152v25H0z"/></g></g></svg>