<svg xmlns="http://www.w3.org/2000/svg" width="115" height="12" viewBox="0 0 115 12"><defs><style>.cls-1{fill:#ea5514;}</style></defs><title>アートボード 45</title><g id="letter"><path class="cls-1" d="M42.827,1.538a2.313,2.313,0,0,1,.879.645,2.864,2.864,0,0,1,.471.777,2.542,2.542,0,0,1,.174.971,2.737,2.737,0,0,1-.337,1.293,1.88,1.88,0,0,1-1.115.9,1.743,1.743,0,0,1,.92.73A3,3,0,0,1,44.091,8.3v.621a4.635,4.635,0,0,0,.051.858.77.77,0,0,0,.363.526v.232H42.339q-.09-.308-.127-.5a4.439,4.439,0,0,1-.082-.8l-.014-.859a1.723,1.723,0,0,0-.31-1.178,1.6,1.6,0,0,0-1.118-.294H38.773v3.621H36.856V1.3h4.49A4.147,4.147,0,0,1,42.827,1.538ZM38.773,2.9V5.384h2.112a2.283,2.283,0,0,0,.944-.15,1.037,1.037,0,0,0,.557-1.04,1.159,1.159,0,0,0-.539-1.128,1.969,1.969,0,0,0-.907-.163Z"/><path class="cls-1" d="M53.173,2.935H48.2V4.9h4.56V6.5H48.2V8.873h5.2v1.66H46.287V1.3h6.886Z"/><path class="cls-1" d="M57.616,1.3h2.219l3.322,9.233H61.03l-.619-1.9H56.952l-.636,1.9H54.265Zm-.129,5.744h2.4L58.7,3.411Z"/><path class="cls-1" d="M69.852,1.5a3.1,3.1,0,0,1,1.6,1.171,4.089,4.089,0,0,1,.669,1.491A7.071,7.071,0,0,1,72.3,5.691a6.05,6.05,0,0,1-.753,3.119A3.4,3.4,0,0,1,68.4,10.534H64.351V1.3H68.4A5,5,0,0,1,69.852,1.5Zm-3.6,1.4V8.93h1.811a1.954,1.954,0,0,0,1.939-1.347,4.67,4.67,0,0,0,.3-1.76,4.279,4.279,0,0,0-.45-2.164,1.914,1.914,0,0,0-1.79-.755Z"/><path class="cls-1" d="M83.623,1.3h2.822v9.233H84.618V4.288q0-.269.007-.755t.006-.749l-1.779,7.749H80.945L79.178,2.784q0,.263.006.749t.007.755v6.246H77.364V1.3h2.854l1.709,7.26Z"/><path class="cls-1" d="M95.49,9.712a4.932,4.932,0,0,1-6.154,0A4.936,4.936,0,0,1,87.91,5.9,4.842,4.842,0,0,1,89.337,2.1a4.932,4.932,0,0,1,6.154,0A4.852,4.852,0,0,1,96.91,5.9,4.947,4.947,0,0,1,95.49,9.712Zm-1.227-1.4A3.733,3.733,0,0,0,94.949,5.9a3.734,3.734,0,0,0-.685-2.4,2.25,2.25,0,0,0-1.85-.849,2.282,2.282,0,0,0-1.86.845A3.7,3.7,0,0,0,89.86,5.9a3.7,3.7,0,0,0,.694,2.405,2.283,2.283,0,0,0,1.86.846A2.256,2.256,0,0,0,94.264,8.309Z"/><path class="cls-1" d="M104.424,1.538a2.313,2.313,0,0,1,.879.645,2.864,2.864,0,0,1,.471.777,2.542,2.542,0,0,1,.174.971,2.737,2.737,0,0,1-.337,1.293,1.88,1.88,0,0,1-1.115.9,1.743,1.743,0,0,1,.92.73,3,3,0,0,1,.271,1.444v.621a4.635,4.635,0,0,0,.051.858.77.77,0,0,0,.363.526v.232h-2.166q-.09-.308-.127-.5a4.439,4.439,0,0,1-.082-.8l-.014-.859a1.723,1.723,0,0,0-.31-1.178,1.6,1.6,0,0,0-1.118-.294h-1.916v3.621H98.453V1.3h4.49A4.147,4.147,0,0,1,104.424,1.538ZM100.369,2.9V5.384h2.112a2.283,2.283,0,0,0,.944-.15,1.037,1.037,0,0,0,.557-1.04,1.159,1.159,0,0,0-.539-1.128,1.969,1.969,0,0,0-.907-.163Z"/><path class="cls-1" d="M114.771,2.935H109.8V4.9h4.56V6.5H109.8V8.873H115v1.66h-7.115V1.3h6.886Z"/><rect class="cls-1" y="5.507" width="16.711" height="0.987"/><polygon class="cls-1" points="19.853 12 19.144 11.302 24.535 6 19.144 0.698 19.853 0 25.954 6 19.853 12"/></g></svg>