<svg xmlns="http://www.w3.org/2000/svg" viewBox="0 0 233.1 80.35" preserveAspectRatio="xMinYMid"><defs><style>.cls-1{fill:#ea5514;stroke:#ea5514;stroke-linecap:round;stroke-linejoin:round;stroke-width:1.5px;}</style></defs><title>アセット 29</title><g id="レイヤー_2" data-name="レイヤー 2"><g id="letter"><path class="cls-1" d="M9.44,29.6C7,30.82,3.55,32.2,2.51,32.2A2,2,0,0,1,.75,30.12,1.82,1.82,0,0,1,2.4,28.33c1.21-.29,5.83-1.5,7-1.84V16.55H4.93c-.44,0-2.26.69-2.64.69a.78.78,0,0,1-.88-.75c0-.52.38-2.08,1.43-2.08.27,0,1.48.29,1.76.29H9.44c-.06-3.58-.17-6-.22-7.5-.5-.29-.88-.58-.88-1.22a3.19,3.19,0,0,1,3-3.12c1.21,0,1.37.76,1.37,1.68,0,.4-.16,2.31-.16,2.66-.06,1.21-.17,6.47-.17,7.5h2.09c.55-.8,1-1.44,1.82-1.44a2.09,2.09,0,0,1,1.92,2.2c0,.8-.6,1.09-1.65,1.09H12.35v9.24a38.93,38.93,0,0,0,4.18-1.44c.44-.17,1.54-.69,1.65-.69a.23.23,0,0,1,.22.23c0,.75-3.68,2.89-4.51,3.4a15.51,15.51,0,0,0-1.48.93c0,1,.16,13,.16,13.11,0,2.66,0,9.82-5.17,9.82-3.19,0-5.5-2.95-5.5-3s.17-.11.22-.11c.44,0,2.31.23,2.7.23,4,0,4.45-3.24,4.51-7.57Zm19.19,2.2c.88,0,1.71.29,1.71,1.39,0,1.33-3,4.79-5.39,7-5.39,4.91-9.63,5.84-10.34,5.84-.17,0-.77,0-.77-.29,0-.06,1.65-1.1,1.92-1.33,3.47-2.43,7.87-5.54,11-10.92A1.71,1.71,0,0,1,28.63,31.8Zm5.17,0c0,2.6.22,14,.22,16.29,0,2.08-.55,3.64-2.47,3.64-.94,0-1.16-.69-1.16-1.39,0-1.56.17-4.16.22-5,0-.35.44-6.94.44-11.79v-4H21.1c-.61,0-3.08.69-3.58.69-.66,0-.71-.29-.71-.69s.22-2,1.43-2c.33,0,1.81.29,2.09.29H31.05c0-1.45,0-2-.05-2.78a2.25,2.25,0,0,1-.83-1.38c0-1.22,1.65-2.43,2.7-2.43.6,0,1.21.46,1.21,1.5,0,.35-.22,1.79-.28,2.08,0,.58,0,1.68,0,2.31v.7H44.58C45,27.18,45.73,26,46.72,26a2.84,2.84,0,0,1,2.48,2.66c0,1-1.05,1-1.76,1H34.35C37,34.81,41,39.43,49,43.76a14.48,14.48,0,0,1,2.47,1.33c0,.4-4,2.13-4.84,2.13-2,0-5.66-3.58-8.19-7-2-2.83-3-4.91-4.62-10.23ZM39.13,2.41c1,0,2.7.81,2.7,2.31C41.83,5.87,41.55,6,39,7A41,41,0,0,1,23.19,9.85c-.88,0-5.23,0-5.23-1,0-.4.5-.46,3.36-.69,1.81-.17,5-.87,6.05-1.1,3.52-.8,6.38-1.44,9.9-3.58A2.18,2.18,0,0,1,39.13,2.41ZM26.6,20.6c-.88,0-5.45-4.16-5.45-5.61A2.06,2.06,0,0,1,25,14.13,25.39,25.39,0,0,1,27.09,20C27.09,20.08,27.09,20.6,26.6,20.6Zm8-1.33c-1.21,0-4.73-4.91-4.73-6.06a1.84,1.84,0,0,1,1.87-1.85,2.1,2.1,0,0,1,2,1.56,29.27,29.27,0,0,1,1.38,5.54C35.07,19.15,34.74,19.27,34.57,19.27Zm9.24-4.56c-2,2.83-5.06,7-5.83,7-.22,0-.33-.23-.33-.41,0-.63,3.08-8.78,3.46-9.82A2.2,2.2,0,0,1,43.2,9.86a2,2,0,0,1,1.87,2.19C45.07,13,44.69,13.55,43.81,14.71Z"/><path class="cls-1" d="M99.69,6.57c.71-1,1.65-2.19,2.64-2.19S105,5.25,105,6.52a6,6,0,0,1-.5,1.56,5.54,5.54,0,0,0-.38,2.31c0,1,.77,28.53.77,32.8,0,2.89,0,8.32-6,8.32-2.42,0-5.82-2.26-5.82-2.95,0-.29.21-.29,1-.29,4.56,0,7.09-1.27,7.09-5.54V31.81H87.87c0,2,.22,11.55.22,13.69,0,2.42,0,4.74-2.42,4.74-1.27,0-1.27-1.33-1.27-2.84,0-1,.22-8,.5-15.59H72.74c-.33,3.81-1,12.76-8.25,18-.44.29-2.2,1.5-2.91,1.5-.28,0-.44-.17-.44-.35a20.34,20.34,0,0,1,2.42-2.36c6-6.59,6-18.37,6-25.3,0-1.91-.22-11.15-.22-13.22a1.23,1.23,0,0,0-.33-1c-.72-.86-.83-1-.83-1.33,0-1,2-3.17,3.08-3.17a2,2,0,0,1,1.76,2ZM85,18.07v-3.7c0-3.06-.17-4.62-.22-5.54l-.17-.18H73.73c-.71,0-.93.69-.93,1.33l0,8.08ZM85,20H72.85v6c0,2,0,2.48,0,3.81H85Zm16.11,9.82L101,20h-13c0,1,0,6.18,0,7.34v2.48ZM101,18.07l-.27-9.36L88.31,8.65c-.28,5.08-.28,5.66-.39,9.42Z"/><path class="cls-1" d="M121,16.74c0-.92,1.92-2.77,2.85-2.77,1.43,0,1.43,1.33,1.43,1.91,0,.4-.27,1.9-.27,2.25-.22,1.67-.55,9.18-1,10.57A1.8,1.8,0,0,1,122.46,30c-.6,0-.6-.69-.6-1,0-1.5.16-8,.16-9.42a6,6,0,0,0-.22-2.13C121.53,17.32,121,17.15,121,16.74Zm10.72,31.65c.05,1.62-1.6,3.3-2.81,3.3-.16,0-1.21-.06-1.21-2,0-.92.33-5.2.39-6.06.49-8.09.66-18,.66-26.22,0-4.05-.06-7.45-.28-11.32-.49-.23-.88-.46-.88-.75,0-1,2.15-2.89,3.25-2.89s1.21,1.15,1.21,1.56c0,.58-.33,3.17-.33,3.75,0,.18-.28,7-.28,11.44,0,10.28.11,23.73.11,24.43Zm1-28.24c-.06,0-.11-.17-.11-.23,0-1.27,2.69-6,3.08-6.64S136.6,12,137.48,12a1.82,1.82,0,0,1,1.7,1.68,1.9,1.9,0,0,1-.49,1.27C137.48,16.34,133.19,20.15,132.75,20.15Zm16.88,2.55c-7.75,0-10.23,0-11.44.22-.33.06-1.65.64-1.92.64s-.77,0-.77-.64c0-2,1-2,1.43-2,.55,0,3.08.24,3.57.24h9.79a12.21,12.21,0,0,0,.06-1.51V16.34H145.4c-.39,0-1.93.58-2.26.58s-.77-.23-.77-.58.17-1.67,1.1-1.67c.28,0,1.43.17,1.65.17h5.23L150.29,10H143c-.5,0-2.48.69-2.86.69s-.66-.46-.66-.86c0-.87.38-1.56,1.26-1.56.22,0,1.27.11,1.49.11h8A35.65,35.65,0,0,0,150,4.79c-.11-.17-.88-1-.88-1,0-.86,2-3,3.3-3,1.15,0,1.26.81,1.26,1.62a4.47,4.47,0,0,1-.11,1,46.81,46.81,0,0,0-.27,5h8.46c.39-.64,1.16-1.74,1.87-1.74,1,0,2.53,1,2.53,2.26,0,.92-.82,1.09-1.54,1.09H153.32c0,.75-.11,3.58-.11,4.85h5.38c.28-.57,1-1.61,1.76-1.61a2.35,2.35,0,0,1,2.26,2.08c0,.86-1.05,1-1.65,1h-7.75v1c0,.57,0,3.29,0,3.81h11.82c.55-1,1.32-2.25,2.26-2.25a3.27,3.27,0,0,1,2.8,2.65c0,1-.93,1.16-1.7,1.16Zm10.12,17.79h-15V48.8c0,1.16-1.21,2.89-2.42,2.89-.82,0-1.1-.69-1.1-1.45,0-1.27.39-6.93.44-8.14.17-3.58.28-9,.28-9.7,0-1.73-.06-2.49-.11-3.47-.06-.05-.77-.75-.77-.92,0-1,1.7-2.25,2.69-2.25.83,0,1,.8,1.16,1.21h14a3.22,3.22,0,0,1,2.2-1.67c.88,0,2.15.75,2.15,1.85a11.73,11.73,0,0,1-.28,1.27,4.92,4.92,0,0,0-.16,1.55c0,2.6.38,14,.38,16.35s-.11,5.77-4,5.77c-2.47,0-5.55-2.94-5.55-3.23,0-.12.17-.12.44-.12.44,0,2.31.29,2.75.29,2.36,0,2.86-1.09,2.86-3.23Zm0-6.13h-15v1.1c0,.92,0,2.08,0,3.29h15Zm-.11-4.85c0-.46-.17-.92-.61-.92H144.9c-.05,1.21-.11,3.06-.11,4.1h15Z"/><path class="cls-1" d="M192,19,192,12c-1.54,0-4.45.06-5.94.12-.38,0-2.14.63-2.53.63s-.71-.81-.71-1.15c0-.64.55-1.91,1.37-1.91.28,0,1.32.4,1.54.4h6.22a27.93,27.93,0,0,0-.28-4.27c-.05-.23-.66-1.1-.66-1.33,0-1.09,1.65-3.23,3-3.23a1.43,1.43,0,0,1,1.54,1.44c0,.35-.11,1.56-.16,1.85s-.17,4.91-.17,5.55h4.9c.71-1,1-1.51,1.7-1.51A2.51,2.51,0,0,1,204,10.81c0,.86-.61,1.15-1.32,1.15h-7.59c-.06,3.81-.11,4.79-.11,7h6.1c.77-1.73,1.54-1.91,1.93-1.91a2.77,2.77,0,0,1,2.36,2.55c0,1-1,1-1.81,1-3.14,0-17.33,0-19.2.17-.55.05-2.8.63-3.3.63s-.66-.52-.66-1a1.82,1.82,0,0,1,1.6-1.91c.33,0,1.81.41,2.14.41Zm3,12.76c-.05,1.16-.11,2.08-.11,2.66v4.39h5.5c.44-.75,1.05-1.44,1.82-1.44a2.63,2.63,0,0,1,2.25,2.36c0,.93-1,.93-1.7.93-1.6,0-5.17-.06-7.87-.12l.11,9.94a2.6,2.6,0,0,1-2.58,2.48c-1.16,0-1.16-1-1.16-1.91,0-.63.44-9.18.5-10.51-1,0-7,.12-7.59.17-.33.06-1.81.52-2.15.52a.77.77,0,0,1-.87-.86c0-.7.76-1.91,1.48-1.91a13.21,13.21,0,0,1,1.48.35c.44.06,6.49,0,7.7.06.06-1.79.11-3.64.11-4.57V31.77h-3a47.53,47.53,0,0,0-5.55.23c-.33.06-1.87.4-2.2.4-.5,0-.66-.34-.66-1,0-.86.77-2,1.65-2,.33,0,1.76.4,2.09.4a51.69,51.69,0,0,0,6.49.18h3.74c1.32,0,4.78-.06,7-.12.71-1.5,1.59-1.61,1.92-1.61,1.27,0,2,1.5,2,2.42,0,.7-.55,1-1.43,1Zm-5-2.31c-1.27,0-3.74-4.16-3.74-5.37a1.44,1.44,0,0,1,1.59-1.33,1.49,1.49,0,0,1,1.32.7,15,15,0,0,1,1.32,5.37C190.55,29.23,190.55,29.4,190.06,29.4Zm6.54.12c-.44,0-.49-.23-.49-.58,0-1.5.82-6.52,2.58-6.52.66,0,1.76.57,1.76,1.38C200.45,25,197.81,29.52,196.6,29.52ZM220.14,6c.93-1.33,1.76-1.62,2.25-1.62A3.07,3.07,0,0,1,225,7.23a3.69,3.69,0,0,1-.44,1.21c0,1.45,0,8.09-.05,9.07a4,4,0,0,1-4.24,3.58,7.19,7.19,0,0,1-5.44-2.77c0-.29.22-.35.44-.35.55,0,2.86.29,3.3.29,2.42,0,2.64-1.73,2.64-4.27,0-.75-.06-4.22-.06-4.91s0-1.39-.93-1.39h-9c-.44.29-.44,1-.44,1.91,0,2.48-.27,13.39-.27,15.65l.88.05h10.5c.38-.58,1.37-1.91,2.31-1.91a2.26,2.26,0,0,1,2.31,2.2,3.1,3.1,0,0,1-.77,2,37.51,37.51,0,0,1-5,10.91,27.56,27.56,0,0,0,9.85,7.74c.33.18,1.76.81,1.76,1s-4.4,2.49-5.28,2.49c-1.76,0-6.11-5.15-8.19-8.67-3.52,4-5.89,5.31-8.25,6.29.55,4.57-2,4.91-2.48,4.91-1,0-1.26-1-1.26-1.9,0-.23.33-8.49.38-10.11.06-3.12.44-18.71.44-20.79,0-1.62,0-9.65-.22-10.57-.05-.23-.88-1.16-.88-1.39,0-.92,2-3,3.19-3s1.27.87,1.32,1.44Zm-8,20.9a4.35,4.35,0,0,0-1.59.23c-.06.58-.06,1.27-.06,1.91v3.87c0,2.31.06,6.47.17,13.63,2.25-1.5,4.12-3.29,6.92-7.74a39.65,39.65,0,0,1-4-11.9Zm2.64,0A30.08,30.08,0,0,0,219,36.11a39.18,39.18,0,0,0,3.25-9.19Z"/><path d="M.88,66.48H9.29a11.53,11.53,0,0,1,1.77.15,4.36,4.36,0,0,1,1.74.65A3.55,3.55,0,0,1,14,68.54a3.37,3.37,0,0,1,.43,1.71,3.17,3.17,0,0,1-1.11,2.52A5.47,5.47,0,0,1,10.71,74l2.8,3.27.12.14a2.92,2.92,0,0,0,.5.5,1.56,1.56,0,0,0,.45.22,2,2,0,0,0,.62.07h.59v1.89H11.42L7.05,74.24H5.91V77a3.16,3.16,0,0,0,.08.9.57.57,0,0,0,.25.28,1.69,1.69,0,0,0,.69.09h.62v1.89H.88V78.22h.61a1.67,1.67,0,0,0,.69-.1.69.69,0,0,0,.3-.31,3.3,3.3,0,0,0,0-.73V69.41a2,2,0,0,0-.07-.64.42.42,0,0,0-.24-.25,1.33,1.33,0,0,0-.54-.1H.88Zm5,2.24v3.53h2A5.64,5.64,0,0,0,9.72,72a1.94,1.94,0,0,0,.89-.63,1.73,1.73,0,0,0,.29-1,1.54,1.54,0,0,0-.27-.92,1.59,1.59,0,0,0-.8-.57,5.15,5.15,0,0,0-1.67-.19Z"/><path d="M25.35,76.5l1.34,1.34a7.81,7.81,0,0,1-2.35,1.91,5.69,5.69,0,0,1-2.59.59A5.12,5.12,0,0,1,18,78.83a5,5,0,0,1-1.52-3.64,5.07,5.07,0,0,1,.68-2.58,4.89,4.89,0,0,1,1.9-1.82,5.64,5.64,0,0,1,2.74-.66,5.28,5.28,0,0,1,1.78.28,4.32,4.32,0,0,1,1.4.81,4.13,4.13,0,0,1,1,1.28,5.78,5.78,0,0,1,.5,1.54,9.66,9.66,0,0,1,.06,1.27H19.94a2.9,2.9,0,0,0,.72,2,2.29,2.29,0,0,0,1.74.77,3.07,3.07,0,0,0,1.42-.4A5.58,5.58,0,0,0,25.35,76.5Zm-2-2.83a2,2,0,0,0-.28-.92,1.61,1.61,0,0,0-.56-.54,1.56,1.56,0,0,0-.75-.2,1.65,1.65,0,0,0-.8.21,1.72,1.72,0,0,0-.61.56,2.17,2.17,0,0,0-.3.89Z"/><path d="M37,76.42l1.43,1.26a7.71,7.71,0,0,1-2.39,2,5.8,5.8,0,0,1-2.66.64,5.22,5.22,0,0,1-3.78-1.48,4.82,4.82,0,0,1-1.52-3.59,5,5,0,0,1,2.65-4.49,6.14,6.14,0,0,1,2.92-.66,5.42,5.42,0,0,1,3.28.93,2.57,2.57,0,0,1,1.28,2,1.6,1.6,0,0,1-.2.79,1.51,1.51,0,0,1-.61.56,1.92,1.92,0,0,1-.87.21,1.44,1.44,0,0,1-1.15-.51,3.84,3.84,0,0,1-.35-.61,5.48,5.48,0,0,0-.49-.84,1.3,1.3,0,0,0-.42-.32,1.43,1.43,0,0,0-.56-.11,1.65,1.65,0,0,0-1,.33,2.3,2.3,0,0,0-.76,1,3.56,3.56,0,0,0-.3,1.48,3.7,3.7,0,0,0,.35,1.62,2.59,2.59,0,0,0,.94,1.09,2.4,2.4,0,0,0,1.31.37,2.85,2.85,0,0,0,1.37-.37A5.72,5.72,0,0,0,37,76.42Z"/><path d="M44,70.13v1.42a5.62,5.62,0,0,1,1.35-1.12,2.41,2.41,0,0,1,1.11-.3,1.71,1.71,0,0,1,.85.22A1.65,1.65,0,0,1,48,71a1.82,1.82,0,0,1,.22.88A1.71,1.71,0,0,1,47.76,73a1.37,1.37,0,0,1-1.14.5,1.9,1.9,0,0,1-.35,0,6.59,6.59,0,0,1-.64-.19,1.59,1.59,0,0,0-.42-.08,2.18,2.18,0,0,0-.84.32v3.82a2,2,0,0,0,.07.64.5.5,0,0,0,.24.21,2.22,2.22,0,0,0,.73.07h.43v1.88h-6V78.23h.5a2.12,2.12,0,0,0,.67-.06.43.43,0,0,0,.21-.21,2,2,0,0,0,.07-.65V72.83H39.81V71a10.1,10.1,0,0,0,3.31-.82Z"/><path d="M48.68,70.37l4.56-.09v6.34a3.37,3.37,0,0,0,.08.9.75.75,0,0,0,.3.36,1,1,0,0,0,.56.14,2.54,2.54,0,0,0,1-.23q.21-.11,1.14-.69V73.29a1.78,1.78,0,0,0-.08-.68.47.47,0,0,0-.22-.27,1.23,1.23,0,0,0-.57-.09h-.57V70.37l4.58-.09v7a2.29,2.29,0,0,0,.06.69.36.36,0,0,0,.21.21,2.25,2.25,0,0,0,.68.06H61v1.89l-4.28.11V79.08a7.08,7.08,0,0,1-1.73,1,5.1,5.1,0,0,1-1.75.32,3.65,3.65,0,0,1-1.29-.23,2.93,2.93,0,0,1-1-.62,2.39,2.39,0,0,1-.59-.9,3.84,3.84,0,0,1-.2-1.33v-4a2.51,2.51,0,0,0-.06-.71.43.43,0,0,0-.21-.21,1.65,1.65,0,0,0-.63-.08h-.54Z"/><path d="M66.7,70.14v7.21a1.93,1.93,0,0,0,.06.64.38.38,0,0,0,.21.18,2.34,2.34,0,0,0,.68.06h.53v1.89h-6V78.23h.52a2.66,2.66,0,0,0,.65,0,.38.38,0,0,0,.21-.18,1.19,1.19,0,0,0,.07-.51V72.83H62.14V71a11.37,11.37,0,0,0,1.48-.16,12.65,12.65,0,0,0,1.27-.3,6.56,6.56,0,0,0,.89-.39Zm-1.58-4.36a1.76,1.76,0,0,1,1.27.52,1.8,1.8,0,1,1-2.52,0A1.75,1.75,0,0,1,65.12,65.78Z"/><path d="M73.71,67v3.35h3.14v2.08H73.71v3.4a5.5,5.5,0,0,0,.12,1.48,1,1,0,0,0,.45.52,1.91,1.91,0,0,0,1,.27,3.58,3.58,0,0,0,2-.66v2.09a7.31,7.31,0,0,1-1.54.56,6.36,6.36,0,0,1-1.49.16,4.9,4.9,0,0,1-1.6-.23,3.33,3.33,0,0,1-1.19-.65,2.45,2.45,0,0,1-.69-.9,3.86,3.86,0,0,1-.19-1.39V72.45H69.13V70.58a4,4,0,0,0,1.33-.73,3.7,3.7,0,0,0,.9-1.14A5.09,5.09,0,0,0,71.82,67Z"/></g></g></svg>