<svg id="レイヤー_1" data-name="レイヤー 1" xmlns="http://www.w3.org/2000/svg" viewBox="0 0 102 42"><defs><style>.cls-1{fill:none;}.cls-2,.cls-3{fill:#fff;}.cls-3{stroke:#fff;stroke-linecap:round;stroke-linejoin:round;stroke-width:0.3px;}</style></defs><title>_txt_recruit01</title><rect class="cls-1" width="102" height="42"/><g id="letter"><path class="cls-2" d="M2,29H8.3a8.42,8.42,0,0,1,1.33.11,3.41,3.41,0,0,1,1.31.49,2.7,2.7,0,0,1,.9.94,2.53,2.53,0,0,1,.33,1.29,2.39,2.39,0,0,1-.84,1.89,4.16,4.16,0,0,1-2,.94l2.1,2.44.09.11a1.85,1.85,0,0,0,.37.37,1.11,1.11,0,0,0,.34.18,1.83,1.83,0,0,0,.47,0h.44v1.41H9.9l-3.28-4.4H5.77v2a2.54,2.54,0,0,0,.06.67.43.43,0,0,0,.19.21,1.26,1.26,0,0,0,.51.07H7v1.41H2V37.8h.46A1.25,1.25,0,0,0,3,37.72a.52.52,0,0,0,.19-.27,1.69,1.69,0,0,0,0-.55V31.19a1.57,1.57,0,0,0,0-.48A.3.3,0,0,0,3,30.52a1,1,0,0,0-.41-.07H2Zm3.77,1.68v2.64H7.29a4,4,0,0,0,1.33-.16,1.44,1.44,0,0,0,.67-.47,1.25,1.25,0,0,0,.22-.75,1.12,1.12,0,0,0-.2-.69,1.24,1.24,0,0,0-.6-.43,4.07,4.07,0,0,0-1.25-.14Z"/><path class="cls-2" d="M20.65,36.5l1,1a6,6,0,0,1-1.76,1.44,4.48,4.48,0,0,1-1.94.44,3.88,3.88,0,0,1-3.44-5.8,3.67,3.67,0,0,1,1.42-1.37A4.26,4.26,0,0,1,18,31.73a4,4,0,0,1,1.33.21,3.08,3.08,0,0,1,1.05.61,3.22,3.22,0,0,1,.73,1,4.36,4.36,0,0,1,.37,1.16,6.7,6.7,0,0,1,.05,1H16.59a2.17,2.17,0,0,0,.54,1.5,1.76,1.76,0,0,0,1.31.58,2.34,2.34,0,0,0,1.06-.29A4.39,4.39,0,0,0,20.65,36.5Zm-1.47-2.11a1.55,1.55,0,0,0-.21-.7,1.08,1.08,0,0,0-.42-.4,1.13,1.13,0,0,0-.57-.15,1.2,1.2,0,0,0-.59.15,1.42,1.42,0,0,0-.46.42,1.65,1.65,0,0,0-.22.68Z"/><path class="cls-2" d="M29.41,36.45l1.07.94a5.46,5.46,0,0,1-1.79,1.52,4.34,4.34,0,0,1-2,.48,3.91,3.91,0,0,1-2.84-1.11,3.59,3.59,0,0,1-1.14-2.69,3.79,3.79,0,0,1,.53-2A3.68,3.68,0,0,1,24.7,32.2a4.45,4.45,0,0,1,2.18-.5,4.09,4.09,0,0,1,2.47.7,1.88,1.88,0,0,1,.95,1.47,1.31,1.31,0,0,1-.14.59,1.19,1.19,0,0,1-.46.43,1.45,1.45,0,0,1-.65.16,1.25,1.25,0,0,1-.5-.11,1.44,1.44,0,0,1-.37-.28,3,3,0,0,1-.26-.46,4,4,0,0,0-.37-.63.79.79,0,0,0-.31-.23,1,1,0,0,0-.42-.09,1.22,1.22,0,0,0-.73.25,1.8,1.8,0,0,0-.57.74,2.65,2.65,0,0,0-.22,1.11,2.71,2.71,0,0,0,.26,1.22,1.92,1.92,0,0,0,.71.81,1.78,1.78,0,0,0,1,.28,2.21,2.21,0,0,0,1-.28A4.27,4.27,0,0,0,29.41,36.45Z"/><path class="cls-2" d="M34.67,31.73v1.06a4.46,4.46,0,0,1,1-.84,1.72,1.72,0,0,1,.83-.22,1.2,1.2,0,0,1,.64.16,1.16,1.16,0,0,1,.45.48,1.37,1.37,0,0,1,.16.66,1.27,1.27,0,0,1-.3.83,1,1,0,0,1-.86.37,1.13,1.13,0,0,1-.26,0,4.34,4.34,0,0,1-.48-.14,1.07,1.07,0,0,0-.31-.06,1.6,1.6,0,0,0-.64.24v2.86a1.29,1.29,0,0,0,.06.48.35.35,0,0,0,.18.16,2,2,0,0,0,.54,0H36v1.42H31.49V37.8h.38a2.17,2.17,0,0,0,.51,0,.33.33,0,0,0,.15-.16,1.35,1.35,0,0,0,0-.49v-3.4h-1v-1.4A7.52,7.52,0,0,0,34,31.73Z"/><path class="cls-2" d="M38.44,31.91l3.43-.07v4.75a2.57,2.57,0,0,0,.06.68.53.53,0,0,0,.22.27.78.78,0,0,0,.42.11,2,2,0,0,0,.77-.18A9.35,9.35,0,0,0,44.2,37V34.1a1.51,1.51,0,0,0-.06-.52.41.41,0,0,0-.17-.2,1,1,0,0,0-.42-.06h-.43V31.91l3.43-.07v5.25a1.77,1.77,0,0,0,.05.51.29.29,0,0,0,.15.16,2.18,2.18,0,0,0,.51,0h.39v1.42l-3.21.09v-.82a4.83,4.83,0,0,1-1.3.71,3.66,3.66,0,0,1-1.31.24,2.84,2.84,0,0,1-1-.17,2.48,2.48,0,0,1-.74-.46,1.7,1.7,0,0,1-.44-.68,2.82,2.82,0,0,1-.15-1v-3a1.87,1.87,0,0,0,0-.53.31.31,0,0,0-.16-.16,1.24,1.24,0,0,0-.47-.06h-.41Z"/><path class="cls-2" d="M52,31.73v5.42a1.24,1.24,0,0,0,0,.47.25.25,0,0,0,.16.14,2.18,2.18,0,0,0,.51,0h.39v1.42H48.54V37.8h.39a2,2,0,0,0,.49,0,.29.29,0,0,0,.16-.13,1,1,0,0,0,.05-.38V33.75H48.54V32.38a8.39,8.39,0,0,0,1.11-.13,8.49,8.49,0,0,0,1-.22,4,4,0,0,0,.67-.3Zm-1.22-3.28a1.34,1.34,0,1,1-1.34,1.34,1.23,1.23,0,0,1,.4-.94A1.27,1.27,0,0,1,50.78,28.45Z"/><path class="cls-2" d="M57.22,29.45V32h2.36v1.49H57.22V36a4.13,4.13,0,0,0,.09,1.11.72.72,0,0,0,.34.39,1.53,1.53,0,0,0,.75.2,2.68,2.68,0,0,0,1.5-.49v1.56a5.9,5.9,0,0,1-1.15.43,5.26,5.26,0,0,1-1.12.12,3.5,3.5,0,0,1-1.2-.18,2.36,2.36,0,0,1-.89-.49A1.9,1.9,0,0,1,55,38a3.06,3.06,0,0,1-.14-1V33.45h-1.1V32.06a3,3,0,0,0,1-.54,2.81,2.81,0,0,0,.67-.86,3.91,3.91,0,0,0,.35-1.21Z"/><path class="cls-3" d="M5.94,14.1a10.79,10.79,0,0,1-2.75,1,.79.79,0,0,1-.7-.83.73.73,0,0,1,.66-.71c.48-.11,2.31-.6,2.79-.73v-4H4.15c-.17,0-.89.28-1,.28a.32.32,0,0,1-.35-.29h0C2.8,8.6,3,8,3.37,8c.11,0,.59.11.7.11H5.94c0-1.42-.06-2.39-.08-3-.2-.12-.35-.23-.35-.49A1.27,1.27,0,0,1,6.69,3.45c.48,0,.54.3.54.67,0,.16-.06.92-.06,1.06,0,.48-.07,2.57-.07,3h.83c.22-.32.4-.57.72-.57a.83.83,0,0,1,.77.84c0,.33-.24.44-.66.44H7.1v3.68A16.25,16.25,0,0,0,8.76,12c.18-.07.61-.28.66-.28s.09.07.09.09c0,.3-1.47,1.15-1.8,1.36a5.27,5.27,0,0,0-.59.37c0,.39.07,5.17.07,5.22,0,1,0,3.9-2.05,3.9A3.11,3.11,0,0,1,3,21.45H3s.92.09,1.07.09c1.59,0,1.77-1.28,1.79-3Zm7.63.87c.35,0,.68.12.68.55a8.23,8.23,0,0,1-2.14,2.81A8,8,0,0,1,8,20.65c-.07,0-.31,0-.31-.11s.66-.44.77-.53a13.66,13.66,0,0,0,4.34-4.35.69.69,0,0,1,.69-.69Zm2,0c0,1,.09,5.57.09,6.49s-.22,1.44-1,1.44c-.37,0-.46-.27-.46-.55,0-.62.06-1.65.09-2,0-.14.17-2.76.17-4.7V14.1H10.58c-.24,0-1.23.27-1.42.27a.26.26,0,0,1-.29-.27c0-.16.09-.81.57-.81.13,0,.72.12.83.12h4.26V12.3c-.15-.16-.33-.34-.33-.55a1.25,1.25,0,0,1,1.07-1c.24,0,.48.18.48.59a7.53,7.53,0,0,1-.11.83v1.28H20c.15-.28.46-.76.85-.76a1.12,1.12,0,0,1,1,1.06c0,.39-.41.39-.7.39H15.9a12.67,12.67,0,0,0,5.81,5.63,5.31,5.31,0,0,1,1,.53,5.3,5.3,0,0,1-1.93.85c-.8,0-2.25-1.43-3.25-2.78a12.19,12.19,0,0,1-1.84-4.07Zm2.17-11.7c.4,0,1.07.32,1.07.92s-.11.5-1.13.89a16.18,16.18,0,0,1-6.27,1.15c-.35,0-2.08,0-2.08-.39,0-.16.2-.18,1.33-.27.72-.07,2-.35,2.41-.44A11.76,11.76,0,0,0,17,3.7.87.87,0,0,1,17.74,3.27Zm-5,7.24c-.35,0-2.16-1.66-2.16-2.23a.82.82,0,0,1,.83-.76.84.84,0,0,1,.7.41A10.28,10.28,0,0,1,13,10.26a.24.24,0,0,1-.24.25ZM15.91,10C15.43,10,14,8,14,7.57a.73.73,0,0,1,.72-.74h0a.84.84,0,0,1,.79.62,12.11,12.11,0,0,1,.55,2.21c0,.27-.11.32-.18.32ZM19.6,8.16c-.81,1.13-2,2.79-2.32,2.79-.08,0-.13-.1-.13-.16,0-.26,1.23-3.5,1.38-3.91a.88.88,0,0,1,.83-.65.81.81,0,0,1,.74.87h0C20.1,7.5,20,7.7,19.6,8.16Z"/><path class="cls-3" d="M39.61,4.92c.29-.41.66-.87,1-.87s1,.34,1,.85a2.34,2.34,0,0,1-.19.62,2.08,2.08,0,0,0-.16.92c0,.41.31,11.36.31,13.06,0,1.15,0,3.31-2.38,3.31A3.32,3.32,0,0,1,37,21.64c0-.12.09-.12.39-.12,1.82,0,2.82-.5,2.82-2.2V15H34.92c0,.78.08,4.6.08,5.45s0,1.89-1,1.89c-.5,0-.5-.53-.5-1.13,0-.41.09-3.17.2-6.21H28.91c-.13,1.52-.42,5.08-3.28,7.15a3.66,3.66,0,0,1-1.16.6.16.16,0,0,1-.17-.13h0a8.9,8.9,0,0,1,1-.94c2.4-2.62,2.4-7.31,2.4-10.07,0-.76-.09-4.44-.09-5.27a.47.47,0,0,0-.13-.39c-.28-.34-.32-.39-.32-.53,0-.41.78-1.26,1.22-1.26a.81.81,0,0,1,.7.78ZM33.78,9.5V8c0-1.22-.07-1.84-.09-2.21l-.06-.07H29.3c-.28,0-.37.28-.37.53V9.5Zm0,.76H29v3.91h4.83Zm6.4,3.91-.06-3.91H34.94v3.92ZM40.12,9.5,40,5.77H35.08C35,7.77,35,8,34.93,9.52Z"/><path class="cls-3" d="M45.91,9A1.69,1.69,0,0,1,47,7.87c.57,0,.57.52.57.75s-.11.76-.11.9c-.08.67-.22,3.66-.41,4.21a.75.75,0,0,1-.61.51c-.24,0-.24-.28-.24-.4,0-.59.06-3.19.06-3.74a2.21,2.21,0,0,0-.09-.85C46.1,9.2,45.91,9.13,45.91,9Zm4.26,12.6a1.39,1.39,0,0,1-1.12,1.31c-.06,0-.48,0-.48-.78,0-.37.13-2.07.16-2.42.19-3.23.27-7.17.27-10.43,0-1.61,0-3-.11-4.51-.2-.09-.35-.19-.35-.3,0-.41.85-1.15,1.29-1.15s.48.46.48.62-.13,1.27-.13,1.5c0,.06-.11,2.78-.11,4.55v9.72Zm.39-11.24v-.1a12.17,12.17,0,0,1,1.22-2.64c.15-.21.35-.53.7-.53A.69.69,0,0,1,53,8.23,14.12,14.12,0,0,1,50.56,10.33Zm6.71,1a38.24,38.24,0,0,0-4.54.12c-.14,0-.66.25-.77.25s-.31,0-.31-.25c0-.8.42-.8.57-.8s1.23.09,1.42.09h3.89q0-.3,0-.6V8.81h-2c-.16,0-.77.23-.9.23s-.3-.09-.3-.23.06-.67.43-.67c.11,0,.57.07.66.07h2.07V6.28h-2.9c-.2,0-1,.28-1.14.28s-.26-.19-.26-.35c0-.34.15-.62.5-.62h3.78a11.32,11.32,0,0,0-.09-1.43c0-.07-.35-.39-.35-.41A1.81,1.81,0,0,1,58.38,2.6c.46,0,.51.32.51.64a1.48,1.48,0,0,1,0,.42,19,19,0,0,0-.11,2H62.1c.15-.26.46-.69.74-.69s1,.39,1,.89-.33.44-.62.44h-4.5V8.23h2.14c.11-.23.39-.64.7-.64a.93.93,0,0,1,.9.82c0,.35-.42.42-.66.42H58.69v1.91h4.7c.22-.39.52-.9.9-.9A1.29,1.29,0,0,1,65.4,10.9c0,.41-.37.46-.68.46Zm4,7.08H55.35v3.31c0,.46-.48,1.15-1,1.15s-.44-.27-.44-.57c0-.51.15-2.76.17-3.25.07-1.42.11-3.56.11-3.86V13.81s-.31-.3-.31-.37c0-.39.68-.89,1.07-.89s.42.32.46.48H61a1.28,1.28,0,0,1,.88-.67.86.86,0,0,1,.85.74,4,4,0,0,1-.11.5,1.91,1.91,0,0,0-.07.63c0,1,.16,5.58.16,6.5S62.66,23,61.13,23a3.53,3.53,0,0,1-2.2-1.29h.17c.11,0,.92.11,1.09.11.94,0,1.14-.43,1.14-1.28Zm0-2.44h-6v1.79h5.94Zm0-1.93c0-.18-.07-.37-.24-.37H55.39v1.64h5.94Z"/><path class="cls-3" d="M71.93,9.84V7.06H69.57c-.15,0-.85.25-1,.25s-.28-.32-.28-.46.22-.76.55-.76c.11,0,.52.16.61.16h2.47a10.71,10.71,0,0,0-.11-1.7c0-.09-.26-.44-.26-.53,0-.43.65-1.29,1.18-1.29a.57.57,0,0,1,.61.53v.05a2.48,2.48,0,0,1-.07.73c-.07.11-.06,2-.06,2.21h1.94c.29-.39.42-.6.68-.6a1,1,0,0,1,.89.9c0,.35-.24.46-.52.46h-3V9.79h2.43c.3-.69.61-.76.76-.76a1.12,1.12,0,0,1,.94,1c0,.41-.41.41-.72.41-1.25,0-6.88,0-7.63.07-.21,0-1.11.25-1.31.25s-.26-.2-.26-.39A.72.72,0,0,1,68,9.68c.14,0,.73.16.86.16Zm1.2,5.09v2.75h2.18c.18-.3.42-.57.73-.57a1,1,0,0,1,.89.94c0,.37-.41.37-.68.37H73.13v4a1,1,0,0,1-1,1c-.46,0-.46-.39-.46-.75s.17-3.66.19-4.19c-.39,0-2.77,0-3,.07a5.76,5.76,0,0,1-.85.21.31.31,0,0,1-.35-.26v-.09c0-.27.3-.76.59-.76.08,0,.5.12.59.14s2.57,0,3.06,0V15H70.73a20.31,20.31,0,0,0-2.21.09c-.13,0-.74.16-.87.16s-.26-.14-.26-.39.3-.78.65-.78c.13,0,.7.16.83.16a22.23,22.23,0,0,0,2.58.07h1.49c.52,0,1.9,0,2.79,0,.29-.6.64-.64.77-.64.5,0,.78.6.78,1s-.21.4-.56.4Zm-2-.92c-.5,0-1.48-1.66-1.48-2.14a.57.57,0,0,1,.61-.53h0a.6.6,0,0,1,.53.27,6.11,6.11,0,0,1,.52,2.14c0,.19,0,.26-.19.26Zm2.6,0c-.17,0-.19-.09-.19-.23,0-.6.33-2.6,1-2.6.27,0,.7.23.7.55,0,.53-1,2.32-1.5,2.32ZM83.1,4.69c.37-.53.7-.64.89-.64a1.21,1.21,0,0,1,1,1.13,1.62,1.62,0,0,1-.17.48V9.27a1.58,1.58,0,0,1-1.68,1.42A2.85,2.85,0,0,1,81,9.59c0-.11.09-.14.17-.14s1.14.12,1.31.12c1,0,1-.69,1-1.7v-2c0-.32,0-.55-.37-.55H79.56c-.18.11-.18.39-.18.76,0,1-.11,5.33-.11,6.23H83.8c.15-.23.54-.76.91-.76a.92.92,0,0,1,.92.88,1.24,1.24,0,0,1-.3.8,15.21,15.21,0,0,1-2,4.35,11,11,0,0,0,3.91,3.08c.13.07.7.32.7.41a6.35,6.35,0,0,1-2.1,1c-.7,0-2.43-2-3.26-3.45a8.16,8.16,0,0,1-3.27,2.51c.22,1.82-.81,1.95-1,1.95-.41,0-.5-.39-.5-.75,0-.1.13-3.38.15-4,0-1.24.18-7.45.18-8.28,0-.64,0-3.84-.09-4.2,0-.1-.35-.46-.35-.56A1.87,1.87,0,0,1,79,4.12c.48,0,.5.34.52.57ZM79.91,13a1.74,1.74,0,0,0-.64.09v2.34c0,.92,0,2.57.07,5.43a9.17,9.17,0,0,0,2.75-3.09,15.78,15.78,0,0,1-1.57-4.73Zm1,0a11.76,11.76,0,0,0,1.68,3.65A15.69,15.69,0,0,0,83.88,13Z"/></g></svg>