<svg xmlns="http://www.w3.org/2000/svg" viewBox="0 0 58.81 76.38"><defs><style>.cls-1{fill:#f5e7d3;}</style></defs><g><g><g><path class="cls-1" d="M18.64.4c.12.26.36.7.55,1.14,0,.11.09.21.12.32l.08.27a1.28,1.28,0,0,0,.09.35,6.84,6.84,0,0,1,.16,1.34,11.72,11.72,0,0,1-.3,2.35,3.63,3.63,0,0,1-.25.44v.07S18.43,7.92,18.43,8A8,8,0,0,0,20.5,8c.07-.1,0,.05.25.06a3.86,3.86,0,0,1,.68,0,8.43,8.43,0,0,1,1.33,0h1.93c1.27-.07,9,0,10.24,0H38.7L38,6.68A4.84,4.84,0,0,1,37.82,6a3.34,3.34,0,0,1-.08-.35,7.42,7.42,0,0,1-.15-1.32,8.49,8.49,0,0,1,0-1.25,1.41,1.41,0,0,1,.07-.55c.07-.17,0-.17,0-.25A2,2,0,0,1,37.74,2a17.9,17.9,0,0,1,.93-2c-.1.17-.11.16,0,0h-.11a19.67,19.67,0,0,0-2,.07L35,.15H25.4l-4.56,0h.1A12,12,0,0,1,19.21,0c.15.06-.43,0-.7.11ZM29.38,9.85H26.73a8.58,8.58,0,0,0,.56,1s0,.06.13.23l.16.35a1.42,1.42,0,0,1,.09.27l0,.16V12A6.84,6.84,0,0,1,28,14a7.29,7.29,0,0,1-.16,1.36l-.08.35a4.59,4.59,0,0,1-.23.64c-.21.45-.48,1-.71,1.38H31c.69-.06,4.22,0,4.9-.07h-.07l5.74-.06h-.11a10.62,10.62,0,0,1,1.23.06c-.08-.06.56-.08.8-.08s1.2,0,1.81,0h1.82c.83,0,2.11.1,3.22.07l.72.11,1.82-.14s-.63-1-.59-1a4.13,4.13,0,0,0-.19-.44H52c-.14-.35,0-.14.13.11-.1-.23-.15-.49-.21-.59s0,0,0-.28a2.85,2.85,0,0,1-.15-.75,8,8,0,0,1,0-1.53v.06a6.34,6.34,0,0,1,.15-.94c0,.1-.08.18,0,0L52,12a5.07,5.07,0,0,1,.17-.51,7.88,7.88,0,0,1,.53-1L53,9.86V9.7l-6.14.11-4.78.09h.06C39.66,9.94,31.93,9.82,29.38,9.85Zm28.9,10.56c.19-.33.35-.62.53-1h-.38l-.74,0-11.42.2h.07L32.6,19.63H30c.49,0,.36,0,0,0H29.8l.64,1.14a1.08,1.08,0,0,1,.14.25,3.55,3.55,0,0,1,.17.37l.1.3v.19a7.16,7.16,0,0,1,.21,1.92A7.78,7.78,0,0,1,31,25.11l-.09.34a5.6,5.6,0,0,1-.23.64c-.22.44-.51.94-.75,1.38H35c.76-.07,1.72,0,2.47-.08h-.08c.81,0,8-.06,9,0h-.13a10.19,10.19,0,0,1,1.35.07c-.08-.07.62-.09.89-.09h4c.91,0,2.31.1,3.53.07l.79.11,1.87-.13s-.75-1.3-.82-1.46c0,0,0-.16.08.12-.11-.25-.17-.54-.24-.65,0-.27,0,0,0-.3a3.41,3.41,0,0,1-.15-.83,7.74,7.74,0,0,1,0-1.67v.07l.07-.45.06-.28v-.22l.06-.16-.07.17a.5.5,0,0,1,.08-.25A6.22,6.22,0,0,1,58.28,20.41Zm-29.66,9h-2.7c.53,1,.56,1,.59,1.07a2,2,0,0,1,.14.23l.16.36c0,.14.14.43.16.51a6.94,6.94,0,0,1,.22,2A8.08,8.08,0,0,1,27,34.93l-.09.34a3.83,3.83,0,0,1-.23.64c-.21.45-.49,1-.72,1.38h4.5c.72-.06,1.61,0,2.32-.08h5.72a11.25,11.25,0,0,1,1.27.06c-.08-.06.57-.08.83-.09H47c.85,0,2.17.1,3.31.07l.74.1,1.5-.1S52.12,36,52.15,36l.15.31a4,4,0,0,0-.2-.45,2.49,2.49,0,0,1-.17-.46l.25.57a6,6,0,0,0-.22-.61c0-.26,0,0,0-.29a3.09,3.09,0,0,1-.15-.77,7.44,7.44,0,0,1,0-1.56v.06a7.3,7.3,0,0,1,.17-1c0,.1-.08.18,0,0l.13-.4a4.66,4.66,0,0,1,.22-.56c.19-.37.39-.72.61-1.1l.17-.36h-.28L39,29.48c-2.52,0-7.74-.08-10.38-.06Zm24.61,9.76c-2.32,0-.22,0-2.51.07-1.51.06-10,.1-11.29.09-.72.07-1.62,0-2.33,0h.08l-5.94-.1h.12a7.93,7.93,0,0,1-1.27-.06c.08.06-.58.09-.83.09H27a.65.65,0,0,0-.31,0l.11.21-.08-.08a8.3,8.3,0,0,1,.8,1.67,6.08,6.08,0,0,1,.18.82,9.14,9.14,0,0,1-.18,3.07,6.54,6.54,0,0,1-.3.59v.08s-.51.61-.54.67a8.87,8.87,0,0,1-1,.78s3.14.06,3.27,0c.3,0,0,0,.33.06a6.19,6.19,0,0,1,.88,0,14.42,14.42,0,0,1,1.74,0h2.53c.84,0,2.9-.07,5-.07h14.1c-.25-.46-.49-.92-.74-1.37a4.7,4.7,0,0,1-.24-.65,1.64,1.64,0,0,1-.07-.21v-.15a7.61,7.61,0,0,1-.18-1.23,7.86,7.86,0,0,1,.16-2.1,7,7,0,0,1,.38-1c.25-.45.49-.89.7-1.3h0c-.15.25-.15.21-.06,0ZM54,54.6a6.46,6.46,0,0,1-.19-1.14,7.3,7.3,0,0,1,.1-2l.11-.32V51l.07-.18a3.08,3.08,0,0,1,.16-.38c.26-.5.64-1.1.91-1.56-.2.32-.19.26-.06,0H52.21c-1.83,0-11.5.09-13.12.08-.88.06-2,0-2.82,0h.08L29.16,49h.14a11.67,11.67,0,0,1-1.54-.06c.1.06-.7.08-1,.09h-4a1.22,1.22,0,0,0-.46,0,11.12,11.12,0,0,1,.91,1.73l0,.16V51l0,.19a.87.87,0,0,0,.07.41,6.85,6.85,0,0,1,.08.93,8,8,0,0,1-.19,2,4,4,0,0,1-.34.72v.11S21.75,57,22,57l2.16-.06h2.13c.87,0,1.32-.07,2.12,0h3.06l6-.09h8.6l9,.06-.78-1.33A4.71,4.71,0,0,1,54,54.6Zm-1,4H48.83l-16.46.19H14.65l.94,1.48a1.13,1.13,0,0,1,.16.3l.09.2.07.21a3.24,3.24,0,0,1,.12.44,6.22,6.22,0,0,1,.14,1.74A5.67,5.67,0,0,1,16,64.33v.15l-.07.21a3.72,3.72,0,0,1-.29.61c-.24.42-.55.9-.83,1.33h8.4c1-.06,2.25,0,3.23-.08h-.1c1,0,7-.07,8.25,0H34.3a15.3,15.3,0,0,1,1.77.06,4.25,4.25,0,0,1,1.15-.09h7.85c1.2,0,3,.1,4.63.08l1,.1h2s-.82-1.54-.78-1.56c.09.2.2.36.22.42a6.76,6.76,0,0,1-.3-.61h-.06c-.2-.49,0-.12-.18-.62a6,6,0,0,0,.34.79c-.16-.32-.23-.7-.31-.84-.07-.35,0,0,0-.39a4.1,4.1,0,0,1-.13-1.08,4.48,4.48,0,0,1,.08-1.09,4,4,0,0,1,.09-.48.36.36,0,0,1,.07-.25A5.44,5.44,0,0,1,52,60.4a.2.2,0,0,1-.07.18,10,10,0,0,1,1.08-2ZM28,68.45c-1.92,0-12.17.16-14.1.2H14L2.8,68.59H0a11.66,11.66,0,0,0,.65,1.15A1.83,1.83,0,0,1,.79,70a3.93,3.93,0,0,1,.17.38l.09.29.06.2a6.72,6.72,0,0,1,.2,1.91,7,7,0,0,1-.16,1.32l-.08.33A5.78,5.78,0,0,1,.83,75c-.22.44-.51,1-.75,1.38H5.34c.77-.06,1.74,0,2.49-.08H7.76c.81,0,5.42-.06,6.37,0H14a9.1,9.1,0,0,1,1.36.06c-.08-.06.62-.09.89-.09h4c.92,0,5,.1,6.22.08H29c-.11-.26-.77-1.93-.84-2,0-.28,0,0,0-.32A3.41,3.41,0,0,1,28,73.2a6.7,6.7,0,0,1,0-1.68v.07l.08-.46.06-.28v-.14a1.24,1.24,0,0,1,.11-.3c-.09.25-.19.45,0-.06a7.64,7.64,0,0,1,.52-1l.51-.9H28Z"/></g></g></g></svg>