<svg xmlns="http://www.w3.org/2000/svg" viewBox="0 0 58.81 76.41" width="50px" height="100px" preserveAspectRatio="xMinYMid"><defs><style>.cls-1{fill:#fff;}</style></defs><g><g><path class="cls-1" d="M18.64.4l0,0c.12.26.36.7.55,1.14,0,.11.09.21.12.32l.08.27c0,.13.06.24.09.35h0a6.84,6.84,0,0,1,.16,1.34,11.72,11.72,0,0,1-.3,2.35,3.63,3.63,0,0,1-.25.44l0,.07S18.43,7.92,18.43,8s2,.1,2.07,0,0,.05.25.06.45-.05.68,0h0c.54,0,.83-.07,1.33,0h-.05c.17,0,.52,0,.84,0-.09,0-.17,0,0,0,.37,0,.62,0,.88,0l.26,0c1.27-.07,9,0,10.24,0H34.9l3.8,0-.65-1.38A4.84,4.84,0,0,1,37.82,6a3.34,3.34,0,0,1-.08-.35,7.42,7.42,0,0,1-.15-1.32,8.49,8.49,0,0,1,0-1.25c0-.2,0-.38.07-.55s0-.17,0-.25a2,2,0,0,1,.08-.31A17.9,17.9,0,0,1,38.67,0h0c-.1.17-.11.16-.05,0h-.11c-1.79,0-.15,0-2,.07L35,.15l-4.62,0c-1.38,0-2.74,0-3.25,0s-1.24,0-1.78,0h.05L20.84.11h.1c-.92,0-.89,0-1.73-.08.15.06-.43,0-.7.11ZM29.38,9.85h-.23l-.31,0-.66,0-1.28,0c.45,0,.33,0,0,0h-.17a8.58,8.58,0,0,0,.56,1s0,.06.13.23l.16.35a1.42,1.42,0,0,1,.09.27l.05.16,0,.1A6.84,6.84,0,0,1,28,14a7.29,7.29,0,0,1-.16,1.36l-.08.35a4.59,4.59,0,0,1-.23.64c-.21.45-.48,1-.71,1.38H31c.69-.06,4.22,0,4.9-.07h-.07l5.74-.06h-.11a10.62,10.62,0,0,1,1.23.06c-.08-.06.56-.08.8-.08h0c.37,0,1.2-.05,1.81-.05l0,0c.51,0,1.46,0,1.82,0,.83,0,2.11.1,3.22.07l.72.11,1.82-.14s-.63-1-.59-.95-.13-.3-.19-.44H52c-.14-.35,0-.14.13.11-.1-.23-.15-.49-.21-.59-.05-.25,0,0,0-.28a2.85,2.85,0,0,1-.15-.75h0a8,8,0,0,1,0-1.53v.06a6.34,6.34,0,0,1,.15-.94c0,.1-.08.18,0,0L52,12a5.07,5.07,0,0,1,.17-.51,7.88,7.88,0,0,1,.53-1l.29-.63L53,9.7l-6.14.11-4.78.09h.06C39.66,9.94,31.93,9.82,29.38,9.85Zm28.9,10.56c.19-.33.35-.62.53-.95h-.38l-.74.05-11.42.2h.07L32.6,19.63h-.49l-.73,0-1.4,0c.49,0,.36.05,0,0l-.18,0,.64,1.14a1.08,1.08,0,0,1,.14.25,3.55,3.55,0,0,1,.17.37l.1.3,0,.19a7.16,7.16,0,0,1,.21,1.92A7.78,7.78,0,0,1,31,25.11l-.09.34a5.6,5.6,0,0,1-.23.64c-.22.44-.51.94-.75,1.38H35c.76-.07,1.72,0,2.47-.08h-.08c.81,0,8-.06,9,0h-.13a10.19,10.19,0,0,1,1.35.07c-.08-.07.62-.09.89-.09h0l2,0,0,0c.55,0,1.6,0,2,0,.91,0,2.31.1,3.53.07l.79.11,1.87-.13s-.75-1.3-.82-1.46c0,0-.05-.16.08.12-.11-.25-.17-.54-.24-.65,0-.27.05,0,0-.3a3.41,3.41,0,0,1-.15-.83h0a7.74,7.74,0,0,1,0-1.67v.07l.07-.45.06-.28,0-.14,0-.08.06-.16-.07.17s0,0,0,0,0,0,0,0,0-.13.08-.25A6.22,6.22,0,0,1,58.28,20.41Zm-29.66,9-.52,0-.68,0-1.32,0c.46,0,.34,0,0,0l-.18,0c.53,1,.56,1,.59,1.07a2,2,0,0,1,.14.23l.16.36c.05.14.14.43.16.51a6.94,6.94,0,0,1,.22,2,8.08,8.08,0,0,1-.15,1.35l-.09.34a3.83,3.83,0,0,1-.23.64c-.21.45-.49.95-.72,1.38h4.5c.72-.06,1.61,0,2.32-.08h-.07c.75,0,5,0,5.91,0h-.12a11.25,11.25,0,0,1,1.27.06c-.08-.06.57-.08.83-.09v0l4.5,0,0,0c.52,0,1.5,0,1.87,0,.85,0,2.17.1,3.31.07l.74.1,1.5-.1s-.44-1.28-.41-1.3l.15.31a4,4,0,0,0-.2-.45,2.49,2.49,0,0,1-.17-.46s.13.3.25.57a6,6,0,0,0-.22-.61c0-.26.05,0,0-.29a3.09,3.09,0,0,1-.15-.77h0a7.44,7.44,0,0,1,0-1.56v.06a7.3,7.3,0,0,1,.17-1c0,.1-.08.18,0,0l.13-.4a4.66,4.66,0,0,1,.22-.56c.19-.37.39-.72.61-1.1l.17-.36-.28,0L39,29.48H39C36.48,29.51,31.26,29.4,28.62,29.42Zm24.61,9.76c-2.32,0-.22,0-2.51.07-1.51.06-9.95.1-11.29.09-.72.07-1.62,0-2.33,0h.08l-5.94-.1h.12a7.93,7.93,0,0,1-1.27-.06c.08.06-.58.09-.83.09H27a.65.65,0,0,0-.31,0l.11.21-.08-.08a8.3,8.3,0,0,1,.8,1.67,6.08,6.08,0,0,1,.18.82,9.14,9.14,0,0,1-.18,3.07,6.54,6.54,0,0,1-.3.59l0,.08s-.51.61-.54.67-1,.82-1,.78,3.14.06,3.27,0c.3,0,0,.05.33.06a6.19,6.19,0,0,1,.88,0h0c.71,0,1.09-.07,1.74,0l-.07,0c.23,0,.69,0,1.11,0-.12,0-.23,0,0,0,.48,0,.81,0,1.16,0l.33,0c.84,0,2.9-.07,5-.07l7.61,0h-.06l6.55,0c-.25-.46-.49-.92-.74-1.37a4.7,4.7,0,0,1-.24-.65,1.64,1.64,0,0,1-.07-.21l0-.15a7.61,7.61,0,0,1-.18-1.23,7.86,7.86,0,0,1,.16-2.1,7,7,0,0,1,.38-1c.25-.45.49-.89.7-1.3h-.08l.08,0c-.15.25-.15.21-.06,0ZM54,54.6a6.46,6.46,0,0,1-.19-1.14,7.3,7.3,0,0,1,.1-2l.11-.32,0-.1.07-.18a3.08,3.08,0,0,1,.16-.38c.26-.5.64-1.1.91-1.56h0c-.2.32-.19.26-.06,0H55c-1.4,0-1.47,0-1.53,0l-.26,0-1,0c-1.83.05-11.5.09-13.12.08-.88.06-2,0-2.82.05h.08l-7.19-.09h.14c-.93,0-.8,0-1.54-.06.1.06-.7.08-1,.09v0l-1,0H24.22l0,0H22.78a1.22,1.22,0,0,0-.46,0,11.12,11.12,0,0,1,.91,1.73l.05.16,0,.09.05.19c0,.13,0,.27.07.41a6.85,6.85,0,0,1,.08.93,8,8,0,0,1-.19,2,4,4,0,0,1-.34.72l0,.11S21.75,57,22,57l2.16-.06c.54,0,.12,0,.65,0,0,0-.11.08,0,0,.37,0,0,0,.4,0s.72,0,1.08,0h0c.87,0,1.32-.07,2.12,0h-.09c.28,0,.83,0,1.34,0-.14,0-.27,0,0,0,.59,0,1,0,1.41,0l.4,0,6-.09,8.68,0h-.08l9,.06-.78-1.33A4.71,4.71,0,0,1,54,54.6Zm-1,4h-1.1c.33,0,.57,0-.12,0H49.3l-.47,0-16.46.19h.09L18,58.78l-.45,0h-.84l-1.83,0c.63,0,.45,0,0,0a1.06,1.06,0,0,0-.23,0l.94,1.48a1.13,1.13,0,0,1,.16.3l.09.2.07.21a3.24,3.24,0,0,1,.12.44,6.22,6.22,0,0,1,.14,1.74,5.67,5.67,0,0,1-.19,1.18l0,.15-.07.21a3.72,3.72,0,0,1-.29.61c-.24.42-.55.9-.83,1.33h8.4c1-.06,2.25,0,3.23-.08l-.1,0c1.05,0,7-.07,8.25,0H34.3a15.3,15.3,0,0,1,1.77.06,4.25,4.25,0,0,1,1.15-.09h0l2.59,0,0,0c.73,0,4.74,0,5.26,0,1.2,0,3,.1,4.63.08l1,.1h2s-.82-1.54-.78-1.56c.09.2.2.36.22.42s-.21-.4-.3-.61l-.06,0c-.2-.49,0-.12-.18-.62,0,0,.15.44.34.79-.16-.32-.23-.7-.31-.84-.07-.35,0,0,0-.39a4.1,4.1,0,0,1-.13-1.08h0c0-.44,0-.77.08-1.09a4,4,0,0,1,.09-.48c0-.08,0-.16.07-.25a5.44,5.44,0,0,1,.25-.59c0,.06,0,.12-.07.18C52,60.14,52.55,59.36,53,58.59Zm-25,9.85c-1.92,0-12.17.16-14.1.2H14l-11.2-.06H2.33l-.73,0-1.42,0c.49,0,.36,0,0,0a1.55,1.55,0,0,0-.18,0,11.66,11.66,0,0,0,.65,1.15A1.83,1.83,0,0,1,.79,70a3.93,3.93,0,0,1,.17.38l.09.29.06.2a6.72,6.72,0,0,1,.2,1.91,7,7,0,0,1-.16,1.32l-.08.33A5.78,5.78,0,0,1,.83,75c-.22.44-.51,1-.75,1.38H5.34c.77-.06,1.74,0,2.49-.08H7.76c.81,0,5.42-.06,6.37,0H14a9.1,9.1,0,0,1,1.36.06c-.08-.06.62-.09.89-.09h0l2,0,0,0c.56,0,1.61,0,2,0,.92,0,5,.1,6.22.08H29c-.11-.26-.77-1.93-.84-2-.05-.28.05,0,0-.32a3.41,3.41,0,0,1-.15-.83h0a6.7,6.7,0,0,1,0-1.68v.07l.08-.46.06-.28,0-.14c0-.07.07-.2.11-.3-.09.25-.19.45,0-.06a7.64,7.64,0,0,1,.52-1l.51-.9H28.8Z"/></g></g></svg>