<svg id="レイヤー_1" data-name="レイヤー 1" xmlns="http://www.w3.org/2000/svg" viewBox="0 0 102 42"><defs><style>.cls-1{fill:none;}.cls-2,.cls-3{fill:#fff;}.cls-3{stroke:#fff;stroke-linecap:round;stroke-linejoin:round;stroke-width:0.28px;}</style></defs><title>_txt_news01</title><rect class="cls-1" width="102" height="42"/><g id="letter"><path class="cls-2" d="M2,30.55H5.94l2.84,5.66V32.75a1.69,1.69,0,0,0,0-.55A.55.55,0,0,0,8.59,32a1.19,1.19,0,0,0-.46-.06H7.62V30.56h4V31.9h-.45a1.09,1.09,0,0,0-.47.08.48.48,0,0,0-.2.2,2.2,2.2,0,0,0-.05.57v7.51h-2l-3.6-7.15v5a1.69,1.69,0,0,0,0,.55.31.31,0,0,0,.18.19,1,1,0,0,0,.47.07H6v1.34H2V38.92h.42a1.24,1.24,0,0,0,.47-.06.41.41,0,0,0,.2-.21.91.91,0,0,0,.08-.44V32.65a1.08,1.08,0,0,0-.07-.47A.57.57,0,0,0,2.91,32a1.27,1.27,0,0,0-.39-.06H2Z"/><path class="cls-2" d="M18.25,37.69l.95,1a5.35,5.35,0,0,1-1.67,1.36,3.91,3.91,0,0,1-1.84.42A3.59,3.59,0,0,1,13,39.38a3.47,3.47,0,0,1-1.09-2.59A3.53,3.53,0,0,1,12.4,35a3.44,3.44,0,0,1,1.35-1.3A4.29,4.29,0,0,1,17,33.38,3.44,3.44,0,0,1,18,34a3.22,3.22,0,0,1,.69.91A3.92,3.92,0,0,1,19,36a6.91,6.91,0,0,1,0,.91H14.39a2.07,2.07,0,0,0,.52,1.43,1.64,1.64,0,0,0,1.24.54,2.09,2.09,0,0,0,1-.28A3.88,3.88,0,0,0,18.25,37.69Zm-1.39-2a1.74,1.74,0,0,0-.2-.66,1.07,1.07,0,0,0-.41-.38,1.08,1.08,0,0,0-.53-.15,1.24,1.24,0,0,0-.57.15,1.37,1.37,0,0,0-.43.4,1.68,1.68,0,0,0-.22.64Z"/><path class="cls-2" d="M19.8,33.32h3.68v1.34h-.15a.66.66,0,0,0-.34.06.26.26,0,0,0-.1.19,1.33,1.33,0,0,0,.06.3l1,3,.84-2.35-.22-.65a.86.86,0,0,0-.24-.41.71.71,0,0,0-.42-.14V33.32h3.5v1.34H27.1a.75.75,0,0,0-.33.07.27.27,0,0,0-.09.2,1.43,1.43,0,0,0,.08.37l.84,2.49.85-2.49a1.53,1.53,0,0,0,.08-.37.21.21,0,0,0-.1-.2,1,1,0,0,0-.42-.07h-.15V33.32H31v1.34a1.62,1.62,0,0,0-.44,0,.46.46,0,0,0-.18.13,2.15,2.15,0,0,0-.22.46l-1.87,5H26.42l-1-2.78-1.05,2.78H22.48l-1.83-5a2.11,2.11,0,0,0-.24-.44.4.4,0,0,0-.18-.16H19.8Z"/><path class="cls-2" d="M36.34,33.32h.91l.56,1.94-1.31.53a2.94,2.94,0,0,0-.94-.95,2.38,2.38,0,0,0-1.13-.35,1.06,1.06,0,0,0-.55.13.36.36,0,0,0-.18.3.34.34,0,0,0,.13.27,1.54,1.54,0,0,0,.53.26l1.92.68a7,7,0,0,1,1,.46,1.93,1.93,0,0,1,.7.66,1.77,1.77,0,0,1,.23.92,1.93,1.93,0,0,1-.72,1.55,3.15,3.15,0,0,1-2.12.71,3.19,3.19,0,0,1-1.89-.55l-.19.39h-.93L31.5,38l1.32-.55A3.59,3.59,0,0,0,34,38.64a2.43,2.43,0,0,0,1.33.44,1,1,0,0,0,.63-.17.37.37,0,0,0,.19-.33.42.42,0,0,0-.15-.3,2.1,2.1,0,0,0-.67-.33l-1.51-.52a4.28,4.28,0,0,1-1.69-.94,1.66,1.66,0,0,1-.45-1.18,1.84,1.84,0,0,1,.7-1.47,3,3,0,0,1,2-.69,3.41,3.41,0,0,1,1.79.48Z"/><path class="cls-3" d="M8.17,14a6.88,6.88,0,0,0,2.39,1.75c.31.15.33.17.33.32a1.07,1.07,0,0,1-.83.86c-.45,0-1.37-1.08-1.89-1.84,0,.72.11,3.87.11,4.5,0,1.18-.85,1.18-1,1.18-.48,0-.48-.33-.48-.59,0-.85.27-4.57.32-5.33-1.23,1.7-3.35,3.76-4.59,3.76,0,0-.13,0-.13-.07a8.84,8.84,0,0,1,.94-.78,12.14,12.14,0,0,0,2.72-3.48c.1-.44.14-.59.58-.59a.83.83,0,0,1,.5.18v-.77H4.71c-.19,0-1,.24-1.23.24s-.27-.32-.27-.39.09-.55.46-.55c0,0,2.93.13,3.47.13a8.34,8.34,0,0,0,0-1c-.24-.13-.29-.15-.29-.3a1,1,0,0,1,.94-.92.58.58,0,0,1,.6.54h0c0,.13-.12,1.46-.15,1.72h1.85c.27-.42.46-.57.67-.57a1,1,0,0,1,.85.83c0,.35-.29.39-.67.39H8.22Zm-.49-3.85c-.56,0-3.28,0-3.72,0-.16,0-.91.2-1.06.2a.44.44,0,0,1-.43-.44c0-.32.12-.68.58-.68.23,0,1.24.11,1.45.13h6.1c.19-.33.4-.66.77-.66a1,1,0,0,1,.93,1c0,.37-.58.39-.76.39Zm-.4-4.56c-1.58,0-2.63.08-2.76.1s-.68.18-.81.18-.27-.28-.27-.42.09-.65.56-.65c.21,0,1.14.09,1.33.09H7.24C7.18,4.54,7.09,3.38,7,3.16c-.27-.11-.35-.28-.35-.41A1.32,1.32,0,0,1,7.88,1.61a.56.56,0,0,1,.58.54.27.27,0,0,1,0,.09,8.46,8.46,0,0,1-.1.88,17.19,17.19,0,0,0-.14,1.75l1.93,0c.24-.3.45-.59.72-.59a1,1,0,0,1,.85,1c0,.35-.37.42-.7.42H9.11ZM6.49,8.73c-.39,0-1.41-1.35-1.41-1.88a.62.62,0,0,1,.67-.47c.72,0,.87,1.44.87,2.06C6.62,8.51,6.62,8.73,6.49,8.73Zm2,.11a.07.07,0,0,1-.07-.08,10.89,10.89,0,0,1,.63-2.21.58.58,0,0,1,.49-.33.65.65,0,0,1,.65.61c0,.55-1.19,2-1.68,2Zm9.58,1.34a6,6,0,0,0-.16,1.46c0,.87.06,4.65.08,5.59,0,.37.1,2,.1,2.34,0,.74-.33,1.4-1,1.4s-.62-.37-.62-.66.08-2,.1-2.36c.06-1.15.12-2.36.12-5.72a12.24,12.24,0,0,0-.1-2h-2c0,1.53-.09,6-3,8.39a3.2,3.2,0,0,1-1.27.74s-.18,0-.18-.09,1-1.05,1.2-1.27c1.93-2.4,1.93-6.88,1.93-8.74a17.3,17.3,0,0,0-.12-2.49c0-.17-.32-.85-.32-1A1.54,1.54,0,0,1,14,4.65c.45,0,.51.61.53.94,2.68-1.12,3.3-1.75,3.45-1.93.48-.54.54-.61.87-.61.52,0,1.16.35,1.16.92s-.5.72-1,.9a20.89,20.89,0,0,1-4.48,1.07v3.6h4.65c.14-.35.47-.94.87-.94a1.3,1.3,0,0,1,1.1,1.16c0,.35-.5.42-.71.42Z"/><path class="cls-3" d="M36.32,12.56c.12-.16.41-.55.81-.55a.9.9,0,0,1,.75.85s-.11.31-.11.35a3.53,3.53,0,0,0,0,.46c0,.81,0,3.52.06,4.39,0,.35.09,1.84.09,2.15,0,.54-.75.76-1,.76-.46,0-.46-.59-.46-.72a2.94,2.94,0,0,1,0-.42H30.09v.44a.8.8,0,0,1-.83.75h0c-.31,0-.35-.17-.35-.43,0-.42.1-2.23.12-2.6,0-.77.09-2.36.13-4.13a15.65,15.65,0,0,1-3.34,3A8.91,8.91,0,0,1,23,18h-.19s.08-.18.89-.72a18.91,18.91,0,0,0,6.21-6.73c-2.47,0-4.11,0-4.38.06a7.21,7.21,0,0,1-1,.31.34.34,0,0,1-.33-.38h0c0-.31.19-.86.58-.86.1,0,.64.16.75.16H31.9V8.1H28.81c-.17,0-.85.3-1,.3a.33.33,0,0,1-.37-.3.27.27,0,0,1,0-.09c0-.22.18-.66.5-.66.08,0,.51.09.6.09H32V5.54H29.45c-.62,0-1.68,0-2.35.07-.18,0-1,.28-1.14.28s-.33-.24-.33-.46.19-.76.6-.76c.13,0,.67.1.77.1H38c.19-.32.4-.67.81-.67a1.08,1.08,0,0,1,1,1c0,.33-.38.44-.9.44H33.16v1.9h3.45c.27-.37.48-.59.74-.59a.86.86,0,0,1,.81.85c0,.31-.29.4-.58.4H33.12V9.83h6.75c.39-.64.77-.79,1-.79a1.17,1.17,0,0,1,1,1c0,.48-.46.48-1.41.48H31.12a.86.86,0,0,1,.19.45,5.43,5.43,0,0,1-1,1.58ZM30.67,4.38c-.39,0-1.78-1.22-1.78-1.83a.78.78,0,0,1,.79-.72c.87,0,1.18,1.72,1.18,2.31C30.86,4.23,30.84,4.38,30.67,4.38Zm5.88,13.18H30.09v1.68h6.48Zm0-1.25v-1H30.11v1.6h6.46Zm-6.15-3.1a.25.25,0,0,0-.27.21V14.7h6.4V13.5a.31.31,0,0,0-.27-.29ZM35.78,2.38c0,.48-1.35,2-1.83,2-.14,0-.16-.11-.16-.22,0-.65.37-2.57,1.3-2.57C35.18,1.57,35.78,1.57,35.78,2.38Z"/><path class="cls-3" d="M44.25,7.58a1.66,1.66,0,0,1,1.08-1c.54,0,.54.5.54.72s-.1.72-.1.85c-.09.63-.21,3.47-.4,4a.66.66,0,0,1-.58.48c-.23,0-.23-.26-.23-.37,0-.57.06-3,.06-3.56a2.48,2.48,0,0,0-.08-.81C44.44,7.79,44.25,7.73,44.25,7.58Zm4,12a1.29,1.29,0,0,1-1.06,1.24c-.06,0-.46,0-.46-.74,0-.35.13-2,.15-2.29.19-3.06.25-6.82.25-9.92,0-1.53,0-2.82-.11-4.29-.18-.08-.33-.17-.33-.28A1.82,1.82,0,0,1,48,2.18c.45,0,.45.44.45.59s-.12,1.2-.12,1.42c0,.06-.11,2.64-.11,4.32,0,3.89.05,9,.05,9.25Zm.37-10.69V8.81a11.27,11.27,0,0,1,1.16-2.52c.15-.19.33-.5.67-.5a.7.7,0,0,1,.65.59.71.71,0,0,1-.19.48,13.3,13.3,0,0,1-2.24,2Zm6.37,1a41.28,41.28,0,0,0-4.31.08c-.13,0-.63.24-.73.24s-.29,0-.29-.24c0-.76.39-.76.54-.76s1.16.09,1.35.09h3.69a5.42,5.42,0,0,0,0-.57V7.38h-1.8c-.14,0-.72.22-.85.22s-.29,0-.29-.22.07-.63.42-.63l.62.06h2V5H52.53c-.19,0-.93.26-1.08.26s-.25-.17-.25-.33c0-.32.15-.59.48-.59h3.56A7.37,7.37,0,0,0,55.16,3c-.08-.09-.33-.37-.33-.39a1.76,1.76,0,0,1,1.27-1c.44,0,.48.31.48.61a1.34,1.34,0,0,1,0,.4,14.56,14.56,0,0,0-.15,1.85h3.2c.14-.24.43-.66.7-.66s1,.37,1,.85S61,5,60.75,5H56.43V6.82h2c.1-.21.37-.61.66-.61a.9.9,0,0,1,.85.79c0,.33-.39.39-.62.39H56.39V9.21h4.46c.21-.38.5-.86.85-.86a1.25,1.25,0,0,1,1.06,1c0,.39-.35.44-.64.44Zm3.82,6.73H53.22v3.14c0,.44-.46,1.09-.92,1.09-.31,0-.41-.26-.41-.54,0-.48.14-2.62.16-3.08.07-1.36.11-3.39.11-3.67V12.25s-.29-.29-.29-.35c0-.38.64-.86,1-.86s.4.31.44.46h5.27a1.24,1.24,0,0,1,.83-.63c.33,0,.81.28.81.7a3.39,3.39,0,0,1-.1.48,1.73,1.73,0,0,0-.07.59c0,1,.15,5.31.15,6.18S60.2,21,58.7,21a3.33,3.33,0,0,1-2.09-1.23h.16c.1,0,.88.11,1,.11.89,0,1.08-.41,1.08-1.22Zm0-2.32H53.2V16h5.64Zm0-1.84c0-.17-.06-.35-.23-.35H53.26v1.56H58.9Z"/><path class="cls-3" d="M69,8.38V5.73H66.76c-.15,0-.81.24-1,.24s-.27-.31-.27-.44.2-.72.51-.72c.11,0,.5.15.59.15H69a10.56,10.56,0,0,0-.15-1.58,3.89,3.89,0,0,1-.25-.5c0-.41.62-1.22,1.12-1.22a.55.55,0,0,1,.58.5v0a2.65,2.65,0,0,1-.06.7c-.06.11-.06,1.86-.06,2.1H72c.27-.37.4-.57.65-.57a1,1,0,0,1,.85,1c0,.32-.23.43-.5.43H70.13V8.46H72.4c.29-.66.58-.73.72-.73a1.07,1.07,0,0,1,.9,1c0,.39-.4.39-.69.39-1.18,0-6.54,0-7.24.07-.21,0-1.06.24-1.25.24s-.25-.2-.25-.38a.7.7,0,0,1,.61-.72c.12,0,.68.16.8.16Zm1.14,4.82v2.66h2.08c.16-.28.39-.55.68-.55a1,1,0,0,1,.85.9c0,.35-.39.35-.64.35h-3v3.75a1,1,0,0,1-1,.94c-.44,0-.44-.37-.44-.72s.17-3.47.19-4c-.37,0-2.64,0-2.86.06a6.71,6.71,0,0,1-.81.2.3.3,0,0,1-.34-.25v-.08c0-.26.29-.72.56-.72l.56.13h2.91V13.21h-1c-.7,0-1.4,0-2.1.08a5.79,5.79,0,0,1-.83.16c-.18,0-.24-.13-.24-.37s.34-.7.62-.7c.12,0,.66.16.79.16a20,20,0,0,0,2.45.06h4.06c.27-.57.61-.61.73-.61.48,0,.75.56.75.91s-.21.37-.54.37Zm-1.91-.82c-.48,0-1.42-1.57-1.42-2a.61.61,0,0,1,1.1-.24,5.61,5.61,0,0,1,.5,2C68.41,12.29,68.41,12.38,68.23,12.38Zm2.46,0c-.16,0-.18-.08-.18-.21,0-.57.31-2.47,1-2.47.25,0,.67.22.67.52C72.15,10.7,71.15,12.38,70.69,12.38Zm8.89-8.89c.35-.5.66-.61.85-.61a1.15,1.15,0,0,1,1,1.07,1.4,1.4,0,0,1-.16.46V7.84a1.5,1.5,0,0,1-1.6,1.35,2.71,2.71,0,0,1-2.06-1c0-.11.09-.14.17-.14s1.08.11,1.25.11c.91,0,1-.65,1-1.61V4.69c0-.26,0-.53-.35-.53H76.21c-.16.11-.16.38-.16.73,0,.94-.11,5.07-.11,5.92h4.34c.15-.22.52-.72.87-.72a.85.85,0,0,1,.87.83h0a1.13,1.13,0,0,1-.29.76,14.17,14.17,0,0,1-1.88,4.13,10.48,10.48,0,0,0,3.71,2.93c.12.07.66.31.66.39a5.74,5.74,0,0,1-2,.94c-.66,0-2.3-1.94-3.09-3.27A7.8,7.8,0,0,1,76,19.18c.2,1.72-.77,1.86-.94,1.86-.39,0-.47-.38-.47-.73,0-.08.12-3.21.14-3.82,0-1.18.17-7.08.17-7.87,0-.61,0-3.64-.09-4,0-.09-.33-.44-.33-.53A1.79,1.79,0,0,1,75.69,3c.45,0,.47.33.49.55Zm-3,7.91a1.56,1.56,0,0,0-.61.09v2.18c0,.88,0,2.45.07,5.16a8.55,8.55,0,0,0,2.61-2.93,15,15,0,0,1-1.54-4.52Zm1,0a11.6,11.6,0,0,0,1.6,3.48,14.75,14.75,0,0,0,1.19-3.5Z"/></g></svg>