<svg xmlns="http://www.w3.org/2000/svg" width="234.69" height="53.66" viewBox="0 0 234.69 53.66">
  <defs>
    <style>
      .a {
        fill: #ea5514;
        stroke: #ea5514;
        stroke-linecap: round;
        stroke-linejoin: round;
        stroke-width: 1.5px;
      }
    </style>
  </defs>
  <title>_ttl_news01</title>
  <g>
    <path class="a" d="M16,33.65a17.72,17.72,0,0,0,6.32,4.62c.82.4.88.46.88.87A2.81,2.81,0,0,1,21,41.39c-1.21,0-3.63-2.83-5-4.85,0,1.91.27,10.22.27,11.9,0,3.12-2.25,3.12-2.64,3.12-1.26,0-1.26-.87-1.26-1.56,0-2.25.72-12.07.82-14.09C10,40.4,4.38,45.83,1.08,45.83c-.11,0-.33-.06-.33-.17a21.61,21.61,0,0,1,2.47-2.08c3.19-2.77,6.87-7.8,7.2-9.18.27-1.16.38-1.56,1.54-1.56a2,2,0,0,1,1.32.46v-2l-6.43.06c-.49,0-2.75.63-3.24.63s-.71-.87-.71-1c0-.35.22-1.56,1.21-1.56.11,0,7.75.35,9.18.35a26.34,26.34,0,0,0-.11-2.77c-.66-.35-.77-.4-.77-.81a2.66,2.66,0,0,1,2.47-2.43,1.52,1.52,0,0,1,1.59,1.44c0,.35-.33,3.87-.39,4.56L21,29.61c.71-1.1,1.21-1.5,1.76-1.5A2.62,2.62,0,0,1,25,30.3c0,.92-.77,1-1.76,1L16,31.28ZM14.72,23.48c-1.48,0-8.69,0-9.84.11-.44,0-2.42.58-2.8.58C1.35,24.17.91,23.83.91,23c0-.58.33-1.79,1.54-1.79.6,0,3.3.29,3.85.35,1.87.12,8.47.12,8.63.12.33,0,4.4,0,7.53-.11.49-.87,1-1.73,2-1.73A2.74,2.74,0,0,1,27,22.45c0,1-1.54,1-2,1Zm-1-12.07a71.88,71.88,0,0,0-7.31.29c-.39.06-1.81.46-2.14.46-.55,0-.71-.75-.71-1.1s.22-1.73,1.37-1.73c.55,0,3,.23,3.52.23,1,.06,4.4,0,5.06,0-.05-.87-.27-3.93-.44-4.5-.71-.29-.93-.75-.93-1.1a3.47,3.47,0,0,1,3.19-3,1.49,1.49,0,0,1,1.54,1.67,21.89,21.89,0,0,1-.27,2.31,43.57,43.57,0,0,0-.38,4.62l5.11-.11c.66-.81,1.21-1.56,1.92-1.56a2.61,2.61,0,0,1,2.25,2.54c0,.92-1,1.1-1.87,1.1s-4.34-.12-5.06-.12Zm-2.09,8.38c-1,0-3.74-3.64-3.74-5A1.62,1.62,0,0,1,9.6,13.49c1.92,0,2.31,3.81,2.31,5.43C11.91,19.21,11.91,19.79,11.58,19.79Zm5.33.29c-.11,0-.17-.06-.17-.23A29,29,0,0,1,18.4,14a1.49,1.49,0,0,1,1.32-.87,1.72,1.72,0,0,1,1.7,1.62C21.43,16.15,18.13,20.08,16.92,20.08ZM42.27,23.6a15.49,15.49,0,0,0-.44,3.87c0,2.31.17,12.3.22,14.79,0,1,.27,5.31.27,6.18,0,2-.88,3.7-2.58,3.7s-1.65-1-1.65-1.73c0-1,.22-5.26.27-6.24.17-3.06.33-6.24.33-15.13a29.57,29.57,0,0,0-.27-5.43H33c-.05,4-.22,15.88-7.81,22.18a8.65,8.65,0,0,1-3.35,2c-.05,0-.49-.06-.49-.23s2.69-2.77,3.19-3.35c5.11-6.35,5.11-18.19,5.11-23.1a42.14,42.14,0,0,0-.33-6.58c-.05-.46-.82-2.25-.82-2.66,0-1,1.81-2.83,3-2.83s1.38,1.62,1.43,2.48C40,8.53,41.66,6.85,42,6.39c1.26-1.44,1.43-1.62,2.31-1.62,1.37,0,3.08.92,3.08,2.43,0,1.21-1.32,1.91-2.58,2.37A55.45,55.45,0,0,1,33,12.4c0,1.5.11,8.2.11,9.53H45.4c.39-.92,1.26-2.48,2.31-2.48a3.36,3.36,0,0,1,2.91,3.06c0,.92-1.32,1.1-1.87,1.1Z"/>
    <path class="a" d="M96.12,29.91c.33-.4,1.1-1.44,2.14-1.44a2.31,2.31,0,0,1,2,2.25c0,.12-.27.81-.27.92a8.91,8.91,0,0,0-.06,1.21c0,2.14.11,9.3.17,11.61,0,.92.22,4.85.22,5.66,0,1.44-2,2-2.64,2-1.21,0-1.21-1.56-1.21-1.91a5.59,5.59,0,0,1,.11-1.1H79.62v1.16a2.11,2.11,0,0,1-2.31,2c-.82,0-.93-.46-.93-1.16,0-1.1.28-5.89.33-6.87.11-2,.22-6.24.33-10.92a41.49,41.49,0,0,1-8.85,7.8c-3.3,2.08-6.6,3.29-7.31,3.29-.05,0-.49,0-.49-.12,0-.29.22-.46,2.36-1.91A49.66,49.66,0,0,0,79.18,24.59c-6.54,0-10.89.11-11.6.17a27.88,27.88,0,0,1-2.69.81,1,1,0,0,1-.88-1c0-.81.49-2.25,1.54-2.25.27,0,1.7.41,2,.41H84.4c0-1.21.05-3.29.11-4.68h-8.3c-.44,0-2.25.81-2.64.81a.92.92,0,0,1-1-1c0-.58.49-1.73,1.32-1.73.22,0,1.37.23,1.59.23h9.07c0-1.67-.06-3.64-.11-5H77.91c-1.65,0-4.45,0-6.21.17-.49.06-2.58.75-3,.75-.6,0-.88-.63-.88-1.21,0-.75.5-2,1.59-2,.33,0,1.76.29,2,.29h29.26c.49-.87,1-1.79,2.14-1.79a2.85,2.85,0,0,1,2.64,2.66c0,.87-1,1.16-2.36,1.16H87.76c-.05,2.71-.11,3.46-.11,5h9.13c.71-1,1.26-1.56,2-1.56A2.28,2.28,0,0,1,100.9,17c0,.81-.77,1-1.54,1H87.65v4.68h17.87c1-1.67,2-2.08,2.53-2.08a3.06,3.06,0,0,1,2.64,2.71c0,1.27-1.21,1.27-3.74,1.27L82.2,24.53a2.12,2.12,0,0,1,.49,1.21c0,.81-2,3.23-2.75,4.16Zm-15-21.72c-1,0-4.73-3.23-4.73-4.85a2,2,0,0,1,2.09-1.91c2.31,0,3.13,4.56,3.13,6.12C81.65,7.9,81.6,8.19,81.16,8.19ZM96.72,43H79.62c-.05,1-.05,2.08-.05,3.12v1.33H96.72Zm0-3.29c0-.63,0-1.79-.06-2.54h-17c0,1.16,0,3-.05,4.22h17.1ZM80.44,31.64c-.44,0-.71.17-.71.69v3.23H96.67c0-.52,0-2.77-.05-3.18-.05-.58-.39-.75-.71-.75ZM94.69,2.88c0,1.27-3.57,5.37-4.84,5.37-.39,0-.44-.29-.44-.58,0-1.73,1-6.81,3.46-6.81C93.09.86,94.69.86,94.69,2.88Z"/>
    <path class="a" d="M122.63,16.74c0-.92,1.92-2.77,2.86-2.77,1.43,0,1.43,1.33,1.43,1.91,0,.4-.27,1.91-.27,2.25-.22,1.67-.55,9.18-1,10.57A1.82,1.82,0,0,1,124.06,30c-.6,0-.6-.69-.6-1,0-1.5.17-8,.17-9.41a6.27,6.27,0,0,0-.22-2.14C123.12,17.32,122.63,17.15,122.63,16.74Zm10.72,31.65a3.46,3.46,0,0,1-2.8,3.29c-.17,0-1.21-.06-1.21-2,0-.92.33-5.2.39-6.06.49-8.09.66-18,.66-26.22,0-4-.06-7.45-.27-11.32-.5-.23-.88-.46-.88-.75,0-1,2.14-2.89,3.24-2.89s1.21,1.16,1.21,1.56c0,.58-.33,3.18-.33,3.75,0,.17-.27,7-.27,11.43,0,10.28.11,23.74.11,24.43Zm1-28.24c-.06,0-.11-.17-.11-.23,0-1.27,2.69-6,3.08-6.64s.88-1.33,1.76-1.33a1.82,1.82,0,0,1,1.7,1.68,1.88,1.88,0,0,1-.49,1.27C139.07,16.34,134.78,20.15,134.34,20.15Zm16.88,2.54c-7.75,0-10.23,0-11.44.23-.33.06-1.65.63-1.92.63s-.77,0-.77-.64c0-2,1-2,1.43-2,.55,0,3.08.23,3.57.23h9.79a13.14,13.14,0,0,0,.06-1.5V16.34H147c-.39,0-1.92.58-2.25.58s-.77-.23-.77-.58.17-1.67,1.1-1.67c.27,0,1.43.17,1.65.17h5.22L151.89,10h-7.31c-.49,0-2.47.69-2.86.69s-.66-.46-.66-.87c0-.87.39-1.56,1.26-1.56.22,0,1.26.12,1.48.12h8a35.63,35.63,0,0,0-.22-3.58c-.11-.17-.88-1-.88-1,0-.87,2-3,3.3-3,1.16,0,1.26.81,1.26,1.62a4.43,4.43,0,0,1-.11,1,45.58,45.58,0,0,0-.28,5h8.47c.38-.64,1.15-1.73,1.87-1.73,1,0,2.53,1,2.53,2.25,0,.92-.82,1.1-1.54,1.1H154.91c0,.75-.11,3.58-.11,4.85h5.39c.28-.58,1-1.62,1.76-1.62a2.35,2.35,0,0,1,2.25,2.08c0,.87-1,1-1.65,1H154.8v1c0,.58.05,3.29.05,3.81h11.82c.55-1,1.32-2.25,2.25-2.25a3.28,3.28,0,0,1,2.8,2.66c0,1-.94,1.16-1.7,1.16Zm10.12,17.79h-15V48.8c0,1.16-1.21,2.89-2.42,2.89-.82,0-1.1-.69-1.1-1.44,0-1.27.38-6.93.44-8.14.16-3.58.27-9,.27-9.7,0-1.73-.06-2.48-.11-3.46-.05-.06-.77-.75-.77-.92,0-1,1.7-2.25,2.69-2.25.82,0,1,.81,1.15,1.21h14a3.22,3.22,0,0,1,2.2-1.67c.88,0,2.14.75,2.14,1.85a11.41,11.41,0,0,1-.28,1.27,4.85,4.85,0,0,0-.16,1.56c0,2.6.38,14,.38,16.34s-.11,5.78-4,5.77c-2.47,0-5.55-2.95-5.55-3.24,0-.12.17-.12.44-.12.44,0,2.31.29,2.75.29,2.36,0,2.86-1.1,2.86-3.23Zm0-6.12h-15v1.1c0,.92,0,2.08.06,3.29h15Zm-.11-4.85c0-.46-.17-.92-.6-.92H146.5c-.05,1.21-.11,3.06-.11,4.1h15Z"/>
    <path class="a" d="M193.63,18.95l-.05-7c-1.54,0-4.45.06-5.94.11-.39,0-2.14.63-2.53.63s-.71-.81-.71-1.15c0-.64.55-1.91,1.38-1.91.27,0,1.32.4,1.54.4h6.21a27.94,27.94,0,0,0-.27-4.27,14.72,14.72,0,0,1-.66-1.33c0-1.1,1.65-3.23,3-3.23a1.43,1.43,0,0,1,1.54,1.44c0,.35-.11,1.56-.17,1.85s-.16,4.91-.16,5.54h4.89c.71-1,1-1.5,1.7-1.5a2.51,2.51,0,0,1,2.25,2.25c0,.87-.6,1.16-1.32,1.16h-7.59c-.05,3.81-.11,4.79-.11,7h6.1c.77-1.73,1.54-1.91,1.92-1.91A2.77,2.77,0,0,1,207,19.59c0,1-1,1-1.81,1-3.13,0-17.32,0-19.19.17-.55.06-2.8.64-3.3.64s-.66-.52-.66-1a1.81,1.81,0,0,1,1.59-1.9c.33,0,1.81.4,2.14.4Zm3,12.76c-.05,1.15-.11,2.08-.11,2.66v4.39H202c.44-.75,1-1.44,1.81-1.44a2.63,2.63,0,0,1,2.25,2.37c0,.92-1,.92-1.7.92-1.59,0-5.17-.06-7.86-.12l.11,9.93a2.6,2.6,0,0,1-2.58,2.48c-1.15,0-1.15-1-1.15-1.91,0-.64.44-9.18.49-10.51-1,0-7,.11-7.59.17-.33.06-1.81.52-2.14.52a.78.78,0,0,1-.88-.87c0-.69.77-1.91,1.48-1.91a13.84,13.84,0,0,1,1.48.35c.44.06,6.49,0,7.7.06.06-1.79.11-3.64.11-4.56V31.77h-3a47.49,47.49,0,0,0-5.55.23c-.33.06-1.87.4-2.2.4-.49,0-.66-.35-.66-1,0-.87.77-2,1.65-2,.33,0,1.76.4,2.09.4a51.77,51.77,0,0,0,6.49.17h3.74c1.32,0,4.78-.06,7-.12.71-1.5,1.59-1.62,1.92-1.62,1.26,0,2,1.5,2,2.43,0,.69-.55,1-1.43,1Zm-5-2.31c-1.26,0-3.74-4.16-3.74-5.37a1.44,1.44,0,0,1,1.59-1.33,1.5,1.5,0,0,1,1.32.69,15.08,15.08,0,0,1,1.32,5.37C192.15,29.23,192.15,29.4,191.65,29.4Zm6.54.12c-.44,0-.49-.23-.49-.58,0-1.5.82-6.53,2.58-6.53.66,0,1.76.58,1.76,1.39C202,25,199.41,29.52,198.2,29.52ZM221.73,6c.93-1.33,1.76-1.62,2.25-1.62a3.07,3.07,0,0,1,2.64,2.83,3.69,3.69,0,0,1-.44,1.21c0,1.44,0,8.09-.05,9.07a4,4,0,0,1-4.23,3.58,7.18,7.18,0,0,1-5.44-2.77c0-.29.22-.35.44-.35.55,0,2.86.29,3.3.29,2.42,0,2.64-1.73,2.64-4.27,0-.75-.05-4.22-.05-4.91s0-1.39-.93-1.39h-9c-.44.29-.44,1-.44,1.91,0,2.48-.27,13.4-.27,15.65l.88.06h10.5c.39-.58,1.37-1.91,2.31-1.91a2.26,2.26,0,0,1,2.31,2.2,3.07,3.07,0,0,1-.77,2,37.48,37.48,0,0,1-5,10.91,27.7,27.7,0,0,0,9.84,7.74c.33.17,1.76.81,1.76,1s-4.4,2.48-5.28,2.48c-1.76,0-6.1-5.14-8.19-8.66-3.52,4-5.88,5.31-8.25,6.29.55,4.56-2,4.91-2.47,4.91-1,0-1.26-1-1.26-1.91,0-.23.33-8.49.38-10.11.06-3.12.44-18.71.44-20.79,0-1.62,0-9.65-.22-10.57-.06-.23-.88-1.16-.88-1.39,0-.92,2-3,3.19-3s1.26.87,1.32,1.44Zm-8,20.91a4.24,4.24,0,0,0-1.59.23c-.05.58-.05,1.27-.05,1.91v3.87c0,2.31.05,6.47.17,13.63,2.25-1.5,4.12-3.29,6.93-7.74a39.39,39.39,0,0,1-4-11.9Zm2.64,0a29.79,29.79,0,0,0,4.23,9.18,39,39,0,0,0,3.24-9.18Z"/>
  </g>
</svg>
