<svg xmlns="http://www.w3.org/2000/svg" viewBox="0 0 444.7 106.8" preserveAspectRatio="xMinYMid"><defs><style>.cls-1{fill:#fff;stroke:#fff;stroke-linecap:round;stroke-linejoin:round;stroke-width:2.5px;}</style></defs><g><g><path class="cls-1" d="M31.83,67c1.87,2.08,4.62,5.31,12.65,9.24,1.65.81,1.76.93,1.76,1.74,0,2.31-3.08,4.5-4.4,4.5-2.42,0-7.26-5.66-10-9.7,0,3.81.55,20.44.55,23.79,0,6.23-4.51,6.23-5.28,6.23-2.53,0-2.53-1.73-2.53-3.12,0-4.5,1.43-24.13,1.65-28.18-6.49,9-17.71,19.87-24.31,19.87-.22,0-.66-.12-.66-.35s4.18-3.58,5-4.16C12.58,81.36,20,71.31,20.61,68.54c.55-2.31.77-3.12,3.08-3.12a4,4,0,0,1,2.64.93v-4l-12.87.12c-1,0-5.5,1.27-6.49,1.27-1.21,0-1.43-1.73-1.43-2.08,0-.69.44-3.12,2.42-3.12.22,0,15.51.7,18.37.7a52.69,52.69,0,0,0-.22-5.55c-1.32-.69-1.54-.81-1.54-1.61a5.31,5.31,0,0,1,4.95-4.85,3,3,0,0,1,3.19,2.88c0,.7-.66,7.74-.77,9.13L41.73,59c1.43-2.2,2.42-3,3.52-3,1.76,0,4.51,2.19,4.51,4.38,0,1.85-1.54,2.08-3.52,2.08-2.2,0-12.32-.11-14.41-.11ZM29.19,46.71c-3,0-17.38,0-19.69.23-.88,0-4.84,1.16-5.61,1.16-1.43,0-2.31-.7-2.31-2.43,0-1.16.66-3.58,3.08-3.58,1.21,0,6.6.58,7.7.69C16.1,43,29.3,43,29.63,43c.66,0,8.8,0,15.07-.23,1-1.73,2.09-3.46,4.07-3.46,2.64,0,4.95,2.77,4.95,5.31,0,2-3.08,2.08-4.07,2.08ZM27.1,22.58a144,144,0,0,0-14.63.57c-.77.12-3.63.92-4.29.92-1.1,0-1.43-1.5-1.43-2.19s.44-3.47,2.75-3.46c1.1,0,6.05.46,7,.46,2,.11,8.8,0,10.12,0-.11-1.73-.55-7.85-.88-9-1.43-.58-1.87-1.5-1.87-2.19,0-3,3.52-6,6.38-6,2.31,0,3.08,1.73,3.08,3.35a43.74,43.74,0,0,1-.55,4.62,87.2,87.2,0,0,0-.77,9.24l10.23-.23c1.32-1.62,2.42-3.12,3.85-3.12,2.53,0,4.51,2.89,4.51,5.09,0,1.84-2,2.19-3.74,2.19s-8.69-.23-10.12-.23ZM22.92,39.32c-2.09,0-7.48-7.28-7.48-9.93,0-1.16,1.32-2.66,3.52-2.66,3.85,0,4.62,7.63,4.62,10.86C23.58,38.17,23.58,39.32,22.92,39.32Zm10.67.58c-.22,0-.33-.12-.33-.46,0-1.73,2.42-9.93,3.3-11.67A3,3,0,0,1,39.2,26a3.44,3.44,0,0,1,3.41,3.24C42.61,32.05,36,39.9,33.59,39.9ZM84.3,47a31,31,0,0,0-.88,7.74c0,4.62.33,24.6.44,29.57,0,2,.55,10.62.55,12.36,0,3.92-1.76,7.39-5.17,7.39-3.19,0-3.3-2-3.3-3.47,0-2.08.44-10.51.55-12.47.33-6.12.66-12.48.66-30.26,0-5.43,0-7.51-.55-10.86H65.71C65.6,55,65.27,78.71,50.09,91.3c-2.42,2.08-5.61,3.92-6.71,3.92-.11,0-1-.11-1-.46,0-.11,5.39-5.54,6.38-6.7C59,75.36,59,51.68,59,41.87a84.27,84.27,0,0,0-.66-13.17c-.11-.92-1.65-4.5-1.65-5.31,0-2,3.63-5.66,6.05-5.66s2.75,3.23,2.86,5c14.19-5.89,17.49-9.24,18.26-10.16,2.53-2.89,2.86-3.24,4.62-3.24,2.75,0,6.16,1.85,6.16,4.85,0,2.43-2.64,3.82-5.17,4.74a110.74,110.74,0,0,1-23.76,5.65c0,3,.22,16.41.22,19.06H90.57c.77-1.85,2.53-5,4.62-5,2.53,0,5.83,3,5.83,6.12,0,1.85-2.64,2.2-3.74,2.2Z"/><path class="cls-1" d="M183.19,59.56c.66-.81,2.2-2.89,4.29-2.89s4,2.54,4,4.51c0,.23-.55,1.61-.55,1.84a18,18,0,0,0-.11,2.43c0,4.27.22,18.59.33,23.21,0,1.85.44,9.71.44,11.32,0,2.89-4,4-5.28,4-2.42,0-2.42-3.11-2.42-3.81a11.06,11.06,0,0,1,.22-2.19H150.19v2.31c0,2.43-2.2,3.93-4.62,3.93-1.65,0-1.87-.93-1.87-2.31,0-2.2.55-11.78.66-13.75.22-4,.44-12.47.66-21.82A83.2,83.2,0,0,1,127.31,82c-6.6,4.15-13.2,6.58-14.63,6.58-.11,0-1,0-1-.24,0-.57.44-.92,4.73-3.81C134.35,72.72,143,59.67,149.31,48.93c-13.09,0-21.78.23-23.21.34a56,56,0,0,1-5.39,1.62A1.9,1.9,0,0,1,119,48.81c0-1.62,1-4.51,3.08-4.51.55,0,3.41.81,4,.81h33.77c0-2.43.11-6.59.22-9.36H143.37c-.88,0-4.51,1.62-5.28,1.62a1.84,1.84,0,0,1-2-2.08c0-1.16,1-3.47,2.64-3.47.44,0,2.75.46,3.19.46h18.15c0-3.35-.11-7.28-.22-10H146.78c-3.3,0-8.91,0-12.43.34-1,.12-5.17,1.5-6,1.5-1.21,0-1.76-1.27-1.76-2.42,0-1.5,1-4.05,3.19-4.05.66,0,3.52.58,4.07.58h58.52c1-1.73,2.09-3.58,4.29-3.58A5.69,5.69,0,0,1,201.89,20c0,1.73-2,2.31-4.73,2.31H166.47c-.11,5.43-.22,6.93-.22,10h18.26c1.43-2,2.53-3.12,4-3.12a4.56,4.56,0,0,1,4.29,4.51c0,1.62-1.54,2.08-3.08,2.08H166.25v9.36H202c2.09-3.34,4.07-4.15,5.06-4.15,2.53,0,5.28,3,5.28,5.43s-2.42,2.54-7.48,2.54c-7.81,0-42.46-.13-49.5-.13a4.24,4.24,0,0,1,1,2.43c0,1.62-4,6.47-5.5,8.31ZM153.27,16.13c-2.09,0-9.46-6.47-9.46-9.71,0-2.65,2.64-3.81,4.18-3.81,4.62,0,6.27,9.13,6.27,12.25C154.26,15.55,154.15,16.13,153.27,16.13ZM184.4,85.78H150.19c-.11,2-.11,4.16-.11,6.24v2.65H184.4Zm0-6.59c0-1.27,0-3.58-.11-5.08h-34c0,2.31,0,6-.11,8.43H184.4ZM151.84,63c-.88,0-1.43.34-1.43,1.38v6.47h33.88c0-1,0-5.55-.11-6.36-.11-1.15-.77-1.5-1.43-1.5ZM180.33,5.51c0,2.54-7.15,10.74-9.68,10.74-.77,0-.88-.58-.88-1.16,0-3.46,2-13.63,6.93-13.63C177.14,1.46,180.33,1.46,180.33,5.51Z"/><path class="cls-1" d="M225.21,33.23c0-1.85,3.85-5.54,5.72-5.54,2.86,0,2.86,2.66,2.86,3.81,0,.81-.55,3.81-.55,4.5-.44,3.35-1.1,18.37-2.09,21.14a3.63,3.63,0,0,1-3.08,2.54c-1.21,0-1.21-1.39-1.21-2,0-3,.33-16.06.33-18.83a12.5,12.5,0,0,0-.44-4.27C226.2,34.39,225.21,34,225.21,33.23Zm21.45,63.3c.11,3.23-3.19,6.58-5.61,6.58-.33,0-2.42-.12-2.42-3.93,0-1.85.66-10.39.77-12.13,1-16.16,1.32-36,1.32-52.43,0-8.08-.11-14.9-.55-22.64-1-.46-1.76-.92-1.76-1.5,0-2.08,4.29-5.77,6.49-5.77,2.42,0,2.42,2.31,2.42,3.12,0,1.15-.66,6.35-.66,7.5,0,.35-.55,14-.55,22.87,0,20.56.22,47.47.22,48.86Zm2-56.48c-.11,0-.22-.35-.22-.46,0-2.54,5.39-12,6.16-13.28.77-1,1.76-2.66,3.52-2.66A3.63,3.63,0,0,1,261.51,27a3.75,3.75,0,0,1-1,2.54C258.1,32.43,249.52,40.05,248.64,40.05Zm33.77,5.09c-15.51,0-20.46,0-22.88.46-.66.11-3.3,1.27-3.85,1.27-.33,0-1.54,0-1.54-1.28,0-4,2.09-4,2.86-4,1.1,0,6.16.47,7.15.47h19.58a26.36,26.36,0,0,0,.11-3V32.43h-9.9c-.77,0-3.85,1.16-4.51,1.16s-1.54-.47-1.54-1.16.33-3.35,2.2-3.35c.55,0,2.86.35,3.3.35h10.45l-.11-9.7H269.1c-1,0-5,1.38-5.72,1.38s-1.32-.92-1.32-1.73c0-1.73.77-3.12,2.53-3.12.44,0,2.53.23,3,.23h16.06a71.49,71.49,0,0,0-.44-7.16c-.22-.34-1.76-2-1.76-2.08,0-1.73,4-6,6.6-6,2.31,0,2.53,1.62,2.53,3.24a8.78,8.78,0,0,1-.22,2.07,91.28,91.28,0,0,0-.55,9.94h16.94c.77-1.27,2.31-3.47,3.74-3.47,2,0,5.06,2,5.06,4.51,0,1.85-1.65,2.19-3.08,2.19H289.78c0,1.5-.22,7.16-.22,9.7h10.78c.55-1.15,2-3.23,3.52-3.23,2,0,4.51,1.85,4.51,4.16,0,1.73-2.09,2.08-3.3,2.08H289.56v2c0,1.15.11,6.58.11,7.62h23.65c1.1-2,2.64-4.5,4.51-4.5,2.2,0,5.61,2.77,5.61,5.31,0,2.08-1.87,2.31-3.41,2.31Zm20.24,35.57H272.73V97.34c0,2.31-2.42,5.77-4.84,5.77-1.65,0-2.2-1.38-2.2-2.88,0-2.55.77-13.86.88-16.29.33-7.16.55-17.9.55-19.4,0-3.47-.11-5-.22-6.93-.11-.12-1.54-1.5-1.54-1.85,0-2,3.41-4.5,5.39-4.5,1.65,0,2.09,1.61,2.31,2.42H301c1.32-2,3-3.35,4.4-3.35,1.76,0,4.29,1.5,4.29,3.7a23.28,23.28,0,0,1-.55,2.54,9.66,9.66,0,0,0-.33,3.11c0,5.2.77,28.07.77,32.69s-.22,11.55-7.92,11.55c-5,0-11.11-5.89-11.11-6.47,0-.23.33-.23.88-.23.88,0,4.62.57,5.5.57,4.73,0,5.72-2.19,5.72-6.46Zm0-12.24h-30v2.19c0,1.85,0,4.16.11,6.58h29.92Zm-.22-9.7c0-.92-.33-1.85-1.21-1.85H273c-.11,2.42-.22,6.12-.22,8.2h29.92Z"/><path class="cls-1" d="M362.82,37.64l-.11-14c-3.08,0-8.91.11-11.88.23-.77,0-4.29,1.27-5.06,1.27-1,0-1.43-1.62-1.43-2.31,0-1.27,1.1-3.81,2.75-3.81.55,0,2.64.8,3.08.8H362.6c0-1.16-.11-7.4-.55-8.55-.11-.46-1.32-2.19-1.32-2.66,0-2.19,3.3-6.46,5.94-6.46.22,0,3.08,0,3.08,2.89,0,.69-.22,3.11-.33,3.69,0,.81-.33,9.82-.33,11.09h9.79c1.43-2,2.09-3,3.41-3,1.87,0,4.51,2.08,4.51,4.5,0,1.73-1.21,2.31-2.64,2.31H369c-.11,7.62-.22,9.58-.22,14H381c1.54-3.47,3.08-3.82,3.85-3.82,2.31,0,4.73,2.78,4.73,5.09,0,2.08-2.09,2.08-3.63,2.08-6.27,0-34.65,0-38.39.34-1.1.11-5.61,1.27-6.6,1.27s-1.32-1-1.32-2c0-1.85,1.32-3.81,3.19-3.81.66,0,3.63.81,4.29.81Zm6.05,25.53c-.11,2.31-.22,4.16-.22,5.31v8.78h11c.88-1.5,2.09-2.89,3.63-2.89a5.27,5.27,0,0,1,4.51,4.74c0,1.85-2.09,1.85-3.41,1.85-3.19,0-10.34-.12-15.73-.24l.22,19.87a5.2,5.2,0,0,1-5.17,5c-2.31,0-2.31-2-2.31-3.81,0-1.27.88-18.36,1-21-2,0-14,.23-15.18.35-.66.11-3.63,1-4.29,1a1.56,1.56,0,0,1-1.76-1.73c0-1.38,1.54-3.81,3-3.81a28.94,28.94,0,0,1,3,.69c.88.12,13,0,15.4.12.11-3.58.22-7.27.22-9.12v-5h-5.94a95.22,95.22,0,0,0-11.11.46c-.66.12-3.74.81-4.4.81-1,0-1.32-.69-1.32-2,0-1.74,1.54-3.93,3.3-3.93.66,0,3.52.81,4.18.81,3.3.58,11.11.35,13,.35h7.48c2.64,0,9.57-.11,14.08-.23,1.43-3,3.19-3.23,3.85-3.23,2.53,0,4,3,4,4.85,0,1.38-1.1,2-2.86,2Zm-10-4.62c-2.53,0-7.48-8.32-7.48-10.75,0-1.38,1.21-2.65,3.19-2.65a3,3,0,0,1,2.64,1.39c1.32,1.84,2.64,8.54,2.64,10.74C359.85,58.2,359.85,58.55,358.86,58.55Zm13.09.23c-.88,0-1-.46-1-1.16,0-3,1.65-13,5.17-13,1.32,0,3.52,1.15,3.52,2.77C379.65,49.77,374.37,58.78,372,58.78Zm47.08-47c1.87-2.66,3.52-3.23,4.51-3.23,2.75,0,5.28,3.23,5.28,5.66a7.38,7.38,0,0,1-.88,2.42c0,2.89,0,16.17-.11,18.14-.33,5.31-5.17,7.16-8.47,7.16a14.4,14.4,0,0,1-10.89-5.55c0-.58.44-.69.88-.69,1.1,0,5.72.58,6.6.58,4.84,0,5.28-3.47,5.28-8.55,0-1.5-.11-8.43-.11-9.82,0-1.61,0-2.77-1.87-2.77h-18c-.88.58-.88,2-.88,3.81,0,5-.55,26.79-.55,31.3.22,0,1.54.11,1.76.11h21c.77-1.16,2.75-3.81,4.62-3.81a4.52,4.52,0,0,1,4.62,4.39,6.15,6.15,0,0,1-1.54,4,75,75,0,0,1-10,21.82c8.8,10.63,17.93,14.68,19.69,15.48.66.35,3.52,1.62,3.52,2.08,0,.7-8.8,5-10.56,5-3.52,0-12.21-10.28-16.39-17.33-7,8-11.77,10.62-16.5,12.59,1.1,9.12-4.07,9.81-4.95,9.81-2.09,0-2.53-2-2.53-3.81,0-.46.66-17,.77-20.21.11-6.24.88-37.42.88-41.58,0-3.23,0-19.28-.44-21.13-.11-.46-1.76-2.31-1.76-2.77,0-1.85,4.07-6,6.38-6s2.53,1.73,2.64,2.89ZM403,53.59a8.54,8.54,0,0,0-3.19.46c-.11,1.15-.11,2.54-.11,3.81V65.6c0,4.62.11,12.93.33,27.26,4.51-3,8.25-6.59,13.86-15.48a78.75,78.75,0,0,1-7.92-23.79Zm5.28,0C410,60.4,412.32,64.91,416.72,72c2-3.92,4.07-8.54,6.49-18.36Z"/></g></g></svg>