<svg xmlns="http://www.w3.org/2000/svg" width="233.76" height="84.92" viewBox="0 0 233.76 84.92">
  <defs>
    <style>
      .a {
        fill: #ea5514;
        stroke: #ea5514;
        stroke-linecap: round;
        stroke-linejoin: round;
        stroke-width: 1.5px;
      }
    </style>
  </defs>
  <title>_txt_branding01</title>
  <g>
    <g>
      <path class="a" d="M40,36.65a45.32,45.32,0,0,0,.27,5.08c0,.29.17,1.5.17,1.73a2.42,2.42,0,0,1-2.58,2.37c-.93,0-1.1-.4-1.1-1.27V42.48H26.16v2.6c0,4.74-.5,8.26-5.28,8.26-3.79,0-5.94-2.43-5.94-2.77a.12.12,0,0,1,.11-.12c.11,0,2,.29,2.36.29,5.39,0,5.39-2.95,5.39-8.26H11.64c-.5,0-2.75.69-3.19.69s-.71-.12-.71-.69c0-.23.11-2.14,1.43-2.14.33,0,1.65.17,1.92.17l11.77.06.06-4.16H4.6c-.5,0-2.64.63-3.08.63-.6,0-.77-.23-.77-.69,0-.81.27-2,1.43-2,.33,0,1.59.17,1.87.17l18.86.06L23,30.35H11.64c-.5,0-2.64.69-3.08.69s-.82-.23-.82-.69c0-.93.33-2.08,1.27-2.08.33,0,1.81.23,2.09.23H23v-5H14.39v1c0,.92-1.59,1.56-2.36,1.56s-.83-.63-.83-.92c0-.58.17-3.18.17-3.7V18.68c0-.35-.6-1.85-.6-2.2,0-.81,1.59-1.62,2.31-1.62A2.56,2.56,0,0,1,14.83,16H23V11.81L8.34,12c-.5,0-2.64.75-3.13.75a1,1,0,0,1-1.1-1.1c0-.92.5-2,1.48-2,2.75,0,14.9.29,17.38.29,0-2.71,0-4.33-.38-5.14-.06-.12-.71-.46-.71-.64,0-.92,2.31-3,3.52-3s1.26.81,1.26,1.44c0,.23-.22,1.33-.22,1.5-.06.69-.11,3.58-.17,5.83l12.59-.11c.5-.81,1.43-2.48,2.8-2.48s3.52,1.44,3.52,3.12c0,1.5-2.09,1.45-4.18,1.45l-14.79-.18L26.16,16h8.36c1-1.1,1.1-1.21,1.54-1.21,1,0,2.8.81,2.8,1.9a1,1,0,0,1-.33.58,7.63,7.63,0,0,0-.17,1.91c0,.69.27,3.87.27,4.5,0,1.33-2,1.79-2.69,1.79-1,0-1-.46-1-2H26.1v5c3.74.06,7.26.06,10.17.06.82-.92,1.37-1.33,2.14-1.33A1.7,1.7,0,0,1,40.23,29,9.36,9.36,0,0,1,40,30.18a30.06,30.06,0,0,0-.11,4.39h3.85c.83-1.21,1.54-2.2,2.53-2.2,1.27,0,3.13,1.16,3.13,2.83,0,1.21-.82,1.44-2,1.44ZM23,17.53H15c-.66,0-.66,1-.66,1.5a12.56,12.56,0,0,0,.11,2.89H23Zm13.8,13.92c0-.58-.22-1.1-.77-1.1H26v4.22H36.77ZM26.16,17.53c0,.23-.05,1.27-.05,1.5v2.89h9c0-3.7,0-4.39-.77-4.39ZM36.77,36.42H26.1v4.16H36.77Z"/>
      <path class="a" d="M97.33,16.15c-4.51,0-30.25,0-32.61.11-.55.06-3,.58-3.52.58-.72,0-.94-.69-.94-1.21a1.77,1.77,0,0,1,1.81-1.85c.6,0,5.83.35,6.93.35H79.12c.11-1.5.11-3.18.11-4.79v-3a2.55,2.55,0,0,0-.66-2c-.17-.23-.27-.35-.27-.58,0-1.1,2-2.66,3-2.66.71,0,1.27.58,1.27,1.68,0,.52-.33,2.6-.33,3,0,.58-.06,3.18-.06,3.7V11.7c0,.4.06,2.08.06,2.43l5.5-.06c.11-1.44.11-3.12.11-4.74v-3a2.93,2.93,0,0,0-.44-1.73,2.16,2.16,0,0,1-.5-.81c0-1.16,1.92-2.71,3-2.71.71,0,1.27.58,1.27,1.68,0,.52-.33,2.6-.33,3,0,.58-.06,3.18-.06,3.7v2.25c0,.4.06,2,.06,2.37h13.86c.5-.87,1.1-1.85,2.15-1.85a2.56,2.56,0,0,1,2.53,2.48c0,1.27-.71,1.45-1.71,1.44ZM80.94,40.75c0,1.44-4.46,5.14-6.71,6.53C70.65,49.47,63.78,51.9,61,51.9c-.11,0-.6,0-.6-.17,0-.4,1.1-.81,1.43-.92,6.21-2.48,10.72-5.31,14.57-10,1.38-1.67,1.48-1.85,2.25-1.85A2.08,2.08,0,0,1,80.94,40.75Zm5.44-3.12c.06,1.79.17,10.4.17,11.21,0,1.21,0,4-2.53,4-1,0-1.15-1-1.15-2s.22-5,.22-5.83l.17-7.39H75.38c-2.14,0-5.61.06-7.37.17-.5.06-2.58.52-3,.52-.66,0-.93-.69-.93-1.16a1.78,1.78,0,0,1,1.81-1.9c.6,0,5.83.35,6.93.35H83.3L83.36,31H72.14c-.44,0-2.48.63-2.86.63a.8.8,0,0,1-.82-.87c0-.12,0-1.85,1.48-1.85.28,0,1.59.23,1.87.23l11.55.06.06-4.79H73c-1.32,0-4.56,0-5.61.17-.39.06-2,.46-2.36.46-.66,0-1.21-.12-1.21-1.1A1.81,1.81,0,0,1,65.7,22.1c.55,0,5.72.35,6.76.35h6.32c-2-1.68-3.52-2.89-3.52-4,0-.87,1.15-1.44,2-1.44,2.25,0,2.91,5.43,2.91,5.49h8.25c.28-1.79,1.21-5.66,3-5.66.93,0,2,.58,2,1.38,0,1.5-3,3.64-3.79,4.21h11.82c.44-1,1-1.79,2-1.79A2.68,2.68,0,0,1,106,23.14c0,1.16-1.1,1.27-2.37,1.27H86.38v4.79H97a2,2,0,0,1,2-1.62,2.32,2.32,0,0,1,2.31,2.14c0,1.27-1.15,1.27-2.09,1.27H86.38v4.56h15.78c.22-.52.83-1.91,2.09-1.91a2.71,2.71,0,0,1,2.47,2.54c0,1.39-1.1,1.44-2.14,1.44H87.81c5.33,6,11.77,8.78,20.13,10.28a14.17,14.17,0,0,1,2.75.64c0,.58-5.22,3.52-6.32,3.52s-3.57-1.16-4.78-1.73A26.65,26.65,0,0,1,86.71,37.64Zm-10-29.46c0,.52-2.8,3.18-7.09,3.18-1.54,0-2.25-.81-2.25-1.73a1.58,1.58,0,0,1,1.65-1.68,5.61,5.61,0,0,1,.83.12,10.36,10.36,0,0,0,2.75.29,16.59,16.59,0,0,0,2-.12,16.21,16.21,0,0,1,1.65-.29C76.15,7.95,76.37,7.95,76.37,8.18ZM99.74,4.83a2,2,0,0,1,2,1.91c0,2.6-7.48,4.56-9,4.56-.33,0-.66,0-.66-.23a.8.8,0,0,1,.28-.46c1.48-1.27,4-3.06,5.55-4.27A2,2,0,0,1,99.74,4.83Z"/>
      <path class="a" d="M122.35,39a11.48,11.48,0,0,0,5-2.08c.16-.12.82-.75.88-.75s.05.17.05.29c0,.92-2.75,6.76-6.6,6.76A2,2,0,0,1,119.6,41C119.6,39.2,120.43,39.14,122.35,39Zm11.27-10.22c-.17,2.54.22,16.46.22,19.58,0,2.66-1.76,3.29-2.15,3.29A1.48,1.48,0,0,1,130.38,50c0-1.33.33-7.16.38-8.32.17-4.16.22-8.43.22-12.59a55.82,55.82,0,0,1-7.81.81c-.44,0-1.59,0-1.59-1.38a1.37,1.37,0,0,1,1.32-1.39h4.23l4.07-5.54a45.6,45.6,0,0,1-6-1.21c-.82-.29-1.48-.52-1.48-1.56,0-.35.33-.75.88-1.39a48.57,48.57,0,0,0,6.65-11.55,15.14,15.14,0,0,1-.39-1.5c0-1.16,2.37-1.62,3.3-1.62,1.43,0,1.59,1.45,1.59,1.79,0,2.25-6.65,10.86-8.8,13.46.83.35,2.86,1.16,5.22,2.25,3.3-4.74,3.52-5.31,3.85-6.18a4.67,4.67,0,0,1-.11-.81c0-.87,1.71-1.38,2.53-1.38A1.47,1.47,0,0,1,140,13.5c0,.35-.11.46-1.1,1.85a110,110,0,0,1-9.29,11.78c3.79-.06,6.38-.17,8.08-.23a29.38,29.38,0,0,1-1.76-3.35c0-.29.22-.29.44-.29.5,0,5.33,2.25,5.33,5.83,0,.63-.17,1.44-1.21,1.44-1.32,0-1.76-1.21-2.2-2.48Zm7.92,13.52c-1,0-3.46-2.95-4.78-4.62a3.55,3.55,0,0,1-1-2.19A1.54,1.54,0,0,1,137.2,34c1,0,1.15.35,2.31,2.6.38.81,2.75,4.51,2.75,5S142.1,42.32,141.55,42.32Zm17.93-33.9a21.18,21.18,0,0,0-3.13.17,1.52,1.52,0,0,1,.39.92,1,1,0,0,1-.39.75c-3.35,12-11.66,14.55-14.24,14.55-.22,0-1-.06-1-.17a14.53,14.53,0,0,1,1.32-.69,22.68,22.68,0,0,0,8.3-7.79,19.58,19.58,0,0,0,3.08-6.93,1,1,0,0,0-.28-.63l-7,.17c-.44,0-2.42.58-2.86.58-.6,0-.94-.17-.94-.87s.33-2,1.43-2c.5,0,2.53.18,2.92.18H163c.28-.35,1.43-1.67,2.25-1.67a2.8,2.8,0,0,1,2.53,2.71c0,.35-.71,1.73-.77,2.08-.11.75-.44,4.16-.55,4.85-.44,2.6-1.92,11.32-7,11.32-2.86,0-5.17-3.29-5.17-3.81,0-.12.16-.12.22-.12.49,0,2.75.69,3.19.69,3.08,0,4.29-3.41,4.67-4.62A33.38,33.38,0,0,0,164,9.7c0-1.27-.83-1.27-1.26-1.27ZM147.71,46.83v1.79a2.78,2.78,0,0,1-2.42,2.6c-1,0-1-1.21-1-1.79,0-2.54.55-13.8.55-16.11a2.77,2.77,0,0,1-.5-1.39,3.24,3.24,0,0,1,2.58-2.66c.82,0,1.21,1.16,1.38,1.79h13c.71-.87,1.43-1.68,2.09-1.67.83,0,2.47,1.15,2.47,2.14a2.57,2.57,0,0,1-.44,1.1c-.06,1.56-.11,2.48-.11,3.52,0,1.73.44,9.47.44,11A2.71,2.71,0,0,1,163,50c-1.26,0-1.26-.75-1.21-3.18Zm14.19-11.38c0-2.31,0-2.6-.83-2.6l-12.59.05c-.72,0-.66.4-.72,3.87L147.65,45h14.24Z"/>
      <path class="a" d="M232.07,21.31c.27.06.93.17.93.4,0,.75-4.23,2.83-5.17,2.83-.77,0-5.28-1.33-11.33-6.93A61.45,61.45,0,0,1,206.06,5.49c-9.9,14.67-21.23,19.4-24.47,19.4-.11,0-.55,0-.55-.17s5.44-3.64,6.43-4.39C195,14.67,201.94,6.12,202.54,2.95c.22-1.21.38-2.2,2.42-2.2,1.1,0,3,.69,3,2.08a1,1,0,0,1-.94,1C215.74,14.61,226.19,19.93,232.07,21.31Zm-34,1.61a.55.55,0,0,1-.61-.52,3.67,3.67,0,0,1,2.92-2.89c1.1,0,1.1,1.16,1.1,2.6,0,13.28-1,18.6-4.12,22.35s-10.72,6.24-11.6,6.24c-.11,0-.66,0-.66-.35s3.63-2.08,4.34-2.48c8.52-5.14,8.63-13.11,8.63-23.45Zm16.06,11.73c0,3.41,0,7.1.11,10.51,0,.69.16,3.58.16,4.16a2.74,2.74,0,0,1-2.8,2.89c-.77,0-1.21-.75-1.21-1.79,0-.81.27-4.39.33-5.08s.22-7.16.22-16.29a27.88,27.88,0,0,0-.44-6.47,1.35,1.35,0,0,1-.6-1.1c0-1.1,2.2-3.18,3.3-3.18a1.15,1.15,0,0,1,1.26,1.33c0,.35-.17,2-.17,2.25-.05.69-.17,7.85-.17,8Z"/>
    </g>
    <g>
      <path d="M0,68.71V66.82H7.75a7.57,7.57,0,0,1,2.79.42,3.45,3.45,0,0,1,1.56,1.19,2.9,2.9,0,0,1,.55,1.71,2.94,2.94,0,0,1-.29,1.28,3.22,3.22,0,0,1-.83,1.07,4.36,4.36,0,0,1-1.44.77,6,6,0,0,1,1.46.54,3.06,3.06,0,0,1,1.16,1.15,3.21,3.21,0,0,1,.43,1.65,3.36,3.36,0,0,1-.65,2A4.06,4.06,0,0,1,10.64,80a9.84,9.84,0,0,1-3.5.48H0V78.56H.54a1.88,1.88,0,0,0,.73-.09.54.54,0,0,0,.27-.26,2.29,2.29,0,0,0,.08-.77v-7.6a2.28,2.28,0,0,0-.08-.77.57.57,0,0,0-.27-.26,1.8,1.8,0,0,0-.73-.1Zm5,3.63H6.48a5.65,5.65,0,0,0,1.73-.2,1.67,1.67,0,0,0,.84-.59,1.53,1.53,0,0,0,.28-.91,1.55,1.55,0,0,0-.27-.92,1.45,1.45,0,0,0-.78-.54A6.88,6.88,0,0,0,6.48,69H5Zm0,2v2.95A3.73,3.73,0,0,0,5,78a.31.31,0,0,0,.16.19,1.94,1.94,0,0,0,.61.05h1a5.39,5.39,0,0,0,1.44-.16,1.86,1.86,0,0,0,1-.67,1.92,1.92,0,0,0,.4-1.22,1.8,1.8,0,0,0-.28-1,1.72,1.72,0,0,0-.85-.64,5.19,5.19,0,0,0-1.73-.21Z"/>
      <path d="M18.71,70.47v1.42a5.64,5.64,0,0,1,1.36-1.12,2.36,2.36,0,0,1,1.1-.3,1.67,1.67,0,0,1,.86.22,1.57,1.57,0,0,1,.6.63,1.83,1.83,0,0,1,.22.88,1.72,1.72,0,0,1-.41,1.11,1.39,1.39,0,0,1-1.14.5,1.84,1.84,0,0,1-.35,0,6.25,6.25,0,0,1-.64-.2,1.51,1.51,0,0,0-.42-.08,2.13,2.13,0,0,0-.84.32v3.82a1.71,1.71,0,0,0,.07.63.44.44,0,0,0,.24.21,2.34,2.34,0,0,0,.72.07h.43v1.88h-6V78.56H15a2.24,2.24,0,0,0,.67-.06.4.4,0,0,0,.2-.21,1.91,1.91,0,0,0,.07-.65V73.16H14.48V71.29a10.12,10.12,0,0,0,3.31-.82Z"/>
      <path d="M29.49,74.54v-.72a2.49,2.49,0,0,0-.11-.89.88.88,0,0,0-.39-.41,1.41,1.41,0,0,0-.7-.16,1.53,1.53,0,0,0-.59.11,1.17,1.17,0,0,0-.42.27,2.39,2.39,0,0,0-.36.64,2,2,0,0,1-.63.87,1.44,1.44,0,0,1-.86.26,1.41,1.41,0,0,1-1-.39,1.3,1.3,0,0,1-.4-1A1.79,1.79,0,0,1,24.41,72,3.89,3.89,0,0,1,26,70.9a6.57,6.57,0,0,1,2.44-.43,5.49,5.49,0,0,1,2.31.44A3,3,0,0,1,32.12,72a3.62,3.62,0,0,1,.38,1.86v3.5a3,3,0,0,0,.07.83.66.66,0,0,0,.29.32.94.94,0,0,0,.5.14,2.41,2.41,0,0,0,.73-.16v1.9a5.25,5.25,0,0,1-1.59.26A3.64,3.64,0,0,1,31,80.31a2.72,2.72,0,0,1-1.06-.88,8,8,0,0,1-1.77.9,4.81,4.81,0,0,1-1.54.27,3.21,3.21,0,0,1-2.26-.79,2.52,2.52,0,0,1-.86-1.94,2.47,2.47,0,0,1,.3-1.2,2.81,2.81,0,0,1,.89-1A5.88,5.88,0,0,1,26.49,75,17.92,17.92,0,0,1,29.49,74.54Zm0,1.62a10.31,10.31,0,0,0-1.81.38,1.64,1.64,0,0,0-.75.48,1,1,0,0,0-.22.59.85.85,0,0,0,.29.65,1.14,1.14,0,0,0,.79.26,2.08,2.08,0,0,0,.75-.17,6.24,6.24,0,0,0,1-.49Z"/>
      <path d="M39.52,70.47v1.3a8.45,8.45,0,0,1,1.89-1A4.87,4.87,0,0,1,43,70.47a3.42,3.42,0,0,1,1.67.4,2.6,2.6,0,0,1,1.06,1,3.57,3.57,0,0,1,.33,1.7v4.06a1.84,1.84,0,0,0,.07.66.45.45,0,0,0,.23.21,2.76,2.76,0,0,0,.7,0h.48v1.88H41.83V78.57a6.55,6.55,0,0,0,.73,0,.47.47,0,0,0,.32-.22,1.81,1.81,0,0,0,.08-.67V74.06a1.76,1.76,0,0,0-.15-.9.84.84,0,0,0-.74-.34,2.51,2.51,0,0,0-.9.19,6.56,6.56,0,0,0-1.29.76v3.87a1.34,1.34,0,0,0,.14.78,1,1,0,0,0,.66.15H41v1.88H35.33V78.57h.28a3.46,3.46,0,0,0,.83-.06.45.45,0,0,0,.24-.21,1.32,1.32,0,0,0,.08-.58V73.19H35.33V71.3a13.13,13.13,0,0,0,3.28-.83Z"/>
      <path d="M58.91,66.12V77.48a3.11,3.11,0,0,0,.06.82.4.4,0,0,0,.2.21,2.32,2.32,0,0,0,.75.07h.46v1.88l-4.24.15v-1a7.26,7.26,0,0,1-1.61.85,4.24,4.24,0,0,1-1.39.24,3.71,3.71,0,0,1-2.07-.61,4.46,4.46,0,0,1-1.54-1.81,6.22,6.22,0,0,1,0-5.36,4.45,4.45,0,0,1,1.59-1.82,4.05,4.05,0,0,1,2.2-.62,4.68,4.68,0,0,1,1.2.15,5.76,5.76,0,0,1,1.27.53V68.83H54.37V66.95a15,15,0,0,0,2-.3A12,12,0,0,0,58,66.12ZM55.79,77.66V74.39a3,3,0,0,0-.09-.87,1.24,1.24,0,0,0-.53-.63,1.68,1.68,0,0,0-1.9,0,2.12,2.12,0,0,0-.71,1,4.38,4.38,0,0,0-.26,1.63,3.62,3.62,0,0,0,.6,2.18,1.43,1.43,0,0,0,1.22.64,1.83,1.83,0,0,0,.64-.11A7,7,0,0,0,55.79,77.66Z"/>
      <path d="M66.18,70.47v7.22a1.94,1.94,0,0,0,.06.63.39.39,0,0,0,.21.18,2.22,2.22,0,0,0,.68.06h.53v1.88h-6V78.57h.52a2.33,2.33,0,0,0,.65-.05.38.38,0,0,0,.21-.18,1.24,1.24,0,0,0,.07-.51V73.17H61.62V71.33a11.94,11.94,0,0,0,1.48-.17,10.25,10.25,0,0,0,1.26-.3,6.19,6.19,0,0,0,.89-.39ZM64.6,66.12a1.82,1.82,0,1,1-1.25.53A1.72,1.72,0,0,1,64.6,66.12Z"/>
      <path d="M73.12,70.48v1.3a8.45,8.45,0,0,1,1.89-1,4.85,4.85,0,0,1,1.61-.27,3.41,3.41,0,0,1,1.67.4,2.6,2.6,0,0,1,1.06,1,3.57,3.57,0,0,1,.33,1.7v4.06a1.84,1.84,0,0,0,.07.66.45.45,0,0,0,.23.21,2.71,2.71,0,0,0,.7,0h.48v1.88H75.44V78.57a6.84,6.84,0,0,0,.73,0,.48.48,0,0,0,.32-.22,1.8,1.8,0,0,0,.08-.67V74.07a1.76,1.76,0,0,0-.15-.9.83.83,0,0,0-.74-.34,2.5,2.5,0,0,0-.9.18,6.62,6.62,0,0,0-1.29.76v3.87a1.34,1.34,0,0,0,.14.78,1,1,0,0,0,.66.15h.32v1.88H68.93V78.57h.28a3.46,3.46,0,0,0,.83-.06.44.44,0,0,0,.24-.2,1.33,1.33,0,0,0,.08-.58V73.19H68.93V71.3a13.09,13.09,0,0,0,3.28-.83Z"/>
      <path d="M89.92,71.28a3.58,3.58,0,0,1,1-1A2.11,2.11,0,0,1,92,69.93a1.22,1.22,0,0,1,.91.34,1.18,1.18,0,0,1,.33.86,1.08,1.08,0,0,1-.32.8,1.07,1.07,0,0,1-.79.32h-.65a.89.89,0,0,0-.53.2,3.32,3.32,0,0,1,.54,1.7A3,3,0,0,1,91,75.8a3.54,3.54,0,0,1-1.47,1.26,5.21,5.21,0,0,1-2.26.45,6.77,6.77,0,0,1-.77,0,7.28,7.28,0,0,1-.78-.13,1.81,1.81,0,0,0-.4.32.45.45,0,0,0-.14.29c0,.2.21.33.63.39l4,.58a5,5,0,0,1,2.61,1,2.24,2.24,0,0,1,.8,1.72,2.53,2.53,0,0,1-.61,1.63,4.31,4.31,0,0,1-2,1.22,10.64,10.64,0,0,1-3.46.48,10.85,10.85,0,0,1-3-.36,3.79,3.79,0,0,1-1.7-.9,1.57,1.57,0,0,1-.5-1,1.5,1.5,0,0,1,.38-1,5,5,0,0,1,1.55-1A2.78,2.78,0,0,1,82.82,80a1.51,1.51,0,0,1-.49-1,1.83,1.83,0,0,1,.45-1.15,5.26,5.26,0,0,1,1.36-1.12,2.72,2.72,0,0,1-1.26-1.57A3.32,3.32,0,0,1,82.7,74a3.17,3.17,0,0,1,1.2-2.49,4.67,4.67,0,0,1,3.15-1,5.84,5.84,0,0,1,1.59.2A4.14,4.14,0,0,1,89.92,71.28Zm-4.19,9.8a3.33,3.33,0,0,0-.66.61.82.82,0,0,0-.14.46q0,.48.78.75a6.27,6.27,0,0,0,2,.27A7.14,7.14,0,0,0,89.28,83a2,2,0,0,0,.91-.38.54.54,0,0,0,.15-.4.55.55,0,0,0-.29-.47,4.11,4.11,0,0,0-1.42-.33Zm1.42-8.73a1.31,1.31,0,0,0-1,.46,1.81,1.81,0,0,0-.41,1.24,1.65,1.65,0,0,0,.39,1.15,1.38,1.38,0,0,0,2,0A1.63,1.63,0,0,0,88.52,74a1.85,1.85,0,0,0-.39-1.24A1.24,1.24,0,0,0,87.15,72.35Z"/>
    </g>
  </g>
</svg>
