<svg id="レイヤー_1" data-name="レイヤー 1" xmlns="http://www.w3.org/2000/svg" viewBox="0 0 102 42"><defs><style>.cls-1{fill:none;}.cls-2,.cls-3{fill:#fff;}.cls-3{stroke:#fff;stroke-linecap:round;stroke-linejoin:round;stroke-width:0.3px;}</style></defs><title>_txt_branding01</title><rect class="cls-1" width="102" height="42"/><g id="letter"><path class="cls-2" d="M2.31,29.68V28.27H8.12a5.71,5.71,0,0,1,2.09.31,2.54,2.54,0,0,1,1.17.9,2.1,2.1,0,0,1,.41,1.28,2.17,2.17,0,0,1-.21,1,2.5,2.5,0,0,1-.63.81,3.18,3.18,0,0,1-1.1.52,4.07,4.07,0,0,1,1.1.41,2.12,2.12,0,0,1,.87.86,2.32,2.32,0,0,1,.33,1.23,2.54,2.54,0,0,1-.49,1.5,3.1,3.1,0,0,1-1.39,1,7.26,7.26,0,0,1-2.62.36H2.31V37.07h.41A1.41,1.41,0,0,0,3.26,37a.39.39,0,0,0,.2-.2,1.91,1.91,0,0,0,.06-.58V30.54a1.57,1.57,0,0,0-.06-.61.39.39,0,0,0-.2-.2,1.42,1.42,0,0,0-.54-.08Zm3.74,2.73H7.17a4.06,4.06,0,0,0,1.3-.15,1.21,1.21,0,0,0,.63-.44,1.07,1.07,0,0,0,.22-.68,1.13,1.13,0,0,0-.21-.69A1,1,0,0,0,8.53,30a5.18,5.18,0,0,0-1.36-.11H6.05Zm0,1.5v2.21a2.53,2.53,0,0,0,0,.55.26.26,0,0,0,.12.15,1.69,1.69,0,0,0,.45,0h.75a3.94,3.94,0,0,0,1.08-.12,1.47,1.47,0,0,0,1-1.42A1.24,1.24,0,0,0,8.63,34a4.11,4.11,0,0,0-1.26-.1Z"/><path class="cls-2" d="M16.34,31v1.06a4,4,0,0,1,1-.84,1.68,1.68,0,0,1,.82-.22,1.23,1.23,0,0,1,.65.16,1.17,1.17,0,0,1,.44.47,1.38,1.38,0,0,1,.17.66,1.28,1.28,0,0,1-.31.84,1,1,0,0,1-.85.37H18a4.42,4.42,0,0,1-.48-.15.87.87,0,0,0-.32-.06,1.44,1.44,0,0,0-.63.25v2.86a1.93,1.93,0,0,0,0,.48.4.4,0,0,0,.18.16,2.53,2.53,0,0,0,.55,0h.32v1.41H13.17V37.08h.37a1.46,1.46,0,0,0,.51,0,.28.28,0,0,0,.15-.15,1.37,1.37,0,0,0,.05-.49V33H13.17V31.62A7.91,7.91,0,0,0,15.65,31Z"/><path class="cls-2" d="M24.43,34.06v-.54a2.16,2.16,0,0,0-.08-.67.72.72,0,0,0-.3-.3,1,1,0,0,0-.52-.12,1.11,1.11,0,0,0-.44.08.83.83,0,0,0-.32.2,1.8,1.8,0,0,0-.27.49,1.6,1.6,0,0,1-.47.65,1.16,1.16,0,0,1-.65.2,1,1,0,0,1-.77-.3,1,1,0,0,1-.3-.72,1.26,1.26,0,0,1,.31-.87,2.81,2.81,0,0,1,1.23-.83A4.77,4.77,0,0,1,23.68,31a4,4,0,0,1,1.73.33,2.26,2.26,0,0,1,1,.78,2.71,2.71,0,0,1,.28,1.4v2.62a2.6,2.6,0,0,0,0,.62A.56.56,0,0,0,27,37a.72.72,0,0,0,.38.1,1.75,1.75,0,0,0,.55-.12v1.43a4.43,4.43,0,0,1-1.2.2,2.68,2.68,0,0,1-1.15-.22,2.14,2.14,0,0,1-.8-.66,6,6,0,0,1-1.33.68,3.76,3.76,0,0,1-1.15.2A2.43,2.43,0,0,1,20.57,38a1.94,1.94,0,0,1-.42-2.36,2,2,0,0,1,.7-.73,4.28,4.28,0,0,1,1.37-.55A12.8,12.8,0,0,1,24.43,34.06Zm0,1.22a7,7,0,0,0-1.36.28,1.16,1.16,0,0,0-.56.36.77.77,0,0,0-.17.44.58.58,0,0,0,.22.49.85.85,0,0,0,.59.2,1.58,1.58,0,0,0,.56-.13,4.84,4.84,0,0,0,.72-.36Z"/><path class="cls-2" d="M32,31v1a6.51,6.51,0,0,1,1.42-.77,3.78,3.78,0,0,1,1.2-.2,2.52,2.52,0,0,1,1.26.3,2,2,0,0,1,.79.75,2.56,2.56,0,0,1,.23,1.25v3a1.4,1.4,0,0,0,0,.5A.35.35,0,0,0,37,37a2.26,2.26,0,0,0,.52,0h.36v1.41h-4.3V37.08a5,5,0,0,0,.55,0,.39.39,0,0,0,.25-.17,2.09,2.09,0,0,0,0-.5V33.7A1.19,1.19,0,0,0,34.3,33a.6.6,0,0,0-.55-.26,2,2,0,0,0-.68.14,4.31,4.31,0,0,0-1,.57v2.9a1,1,0,0,0,.1.59.8.8,0,0,0,.5.11h.23v1.41h-4V37.08h.21a3.21,3.21,0,0,0,.62,0,.35.35,0,0,0,.17-.15,1.07,1.07,0,0,0,.06-.43V33H28.85V31.63A10.45,10.45,0,0,0,31.31,31Z"/><path class="cls-2" d="M46.19,27.74v8.52a2.08,2.08,0,0,0,0,.61.29.29,0,0,0,.15.16,1.75,1.75,0,0,0,.56,0h.34v1.42l-3.18.1V37.8a5.32,5.32,0,0,1-1.2.64,3.39,3.39,0,0,1-1,.18,2.84,2.84,0,0,1-1.55-.46,3.4,3.4,0,0,1-1.16-1.36,4.62,4.62,0,0,1,0-4,3.23,3.23,0,0,1,1.19-1.37A3,3,0,0,1,42,31a3.89,3.89,0,0,1,.9.11,4.66,4.66,0,0,1,1,.4v-1.7H42.79V28.37a12.14,12.14,0,0,0,1.47-.23,8.83,8.83,0,0,0,1.23-.4ZM43.85,36.4V33.93a2.42,2.42,0,0,0-.06-.66,1,1,0,0,0-.4-.47,1.2,1.2,0,0,0-.69-.21,1.23,1.23,0,0,0-.74.24,1.61,1.61,0,0,0-.53.73,3.16,3.16,0,0,0-.2,1.22,2.74,2.74,0,0,0,.45,1.64,1.09,1.09,0,0,0,.91.48,1.56,1.56,0,0,0,.48-.08A5.86,5.86,0,0,0,43.85,36.4Z"/><path class="cls-2" d="M51.64,31v5.41a1.57,1.57,0,0,0,0,.48.34.34,0,0,0,.15.14,2.18,2.18,0,0,0,.51,0h.4v1.42H48.22V37.08h.39a2,2,0,0,0,.49,0,.29.29,0,0,0,.16-.13,1,1,0,0,0,.05-.38V33H48.22V31.66a10.49,10.49,0,0,0,1.11-.13,6.9,6.9,0,0,0,1-.23A4,4,0,0,0,51,31Zm-1.18-3.27a1.35,1.35,0,0,1,1.39,1.31v0a1.34,1.34,0,1,1-2.28-.94A1.29,1.29,0,0,1,50.46,27.74Z"/><path class="cls-2" d="M56.85,31v1a5.92,5.92,0,0,1,1.42-.77,3.48,3.48,0,0,1,1.2-.21,2.52,2.52,0,0,1,1.26.3,2,2,0,0,1,.79.75,2.58,2.58,0,0,1,.25,1.28v3a1.32,1.32,0,0,0,.08.52.37.37,0,0,0,.17.16,2.35,2.35,0,0,0,.53,0h.3v1.42h-4.3V37.08a5,5,0,0,0,.55,0,.35.35,0,0,0,.24-.17,1.4,1.4,0,0,0,.06-.5v-2.7a1.44,1.44,0,0,0-.11-.68.64.64,0,0,0-.56-.25,1.71,1.71,0,0,0-.67.14,4.7,4.7,0,0,0-1,.57v2.9c0,.32,0,.51.1.58a.83.83,0,0,0,.5.11h.23V38.5H53.71V37.08h.21a3.31,3.31,0,0,0,.63,0,.34.34,0,0,0,.18-.15,1.07,1.07,0,0,0,.06-.43V33.05H53.71V31.63A9.16,9.16,0,0,0,56.17,31Z"/><path class="cls-2" d="M69.45,31.62a2.64,2.64,0,0,1,.78-.78,1.48,1.48,0,0,1,.82-.24.91.91,0,0,1,.68.26.87.87,0,0,1,.25.65.78.78,0,0,1-.24.59.82.82,0,0,1-.59.24h-.49a.63.63,0,0,0-.4.14,2.42,2.42,0,0,1,.4,1.28A2.25,2.25,0,0,1,70.27,35a2.68,2.68,0,0,1-1.11,1,4.13,4.13,0,0,1-1.7.34h-.57a5.81,5.81,0,0,1-.58-.09,1,1,0,0,0-.3.24.33.33,0,0,0-.11.22c0,.15.16.25.47.29l3,.43a3.65,3.65,0,0,1,2,.73,1.66,1.66,0,0,1,.6,1.28,1.88,1.88,0,0,1-.45,1.22,3.41,3.41,0,0,1-1.49.92,8.11,8.11,0,0,1-2.59.36,8,8,0,0,1-2.28-.27,2.87,2.87,0,0,1-1.31-.75,1.23,1.23,0,0,1-.38-.78,1.13,1.13,0,0,1,.29-.75,3.7,3.7,0,0,1,1.16-.76,2.12,2.12,0,0,1-.82-.48,1.14,1.14,0,0,1-.36-.79,1.36,1.36,0,0,1,.34-.86,3.71,3.71,0,0,1,1-.85,2.22,2.22,0,0,1-.6-.5,2.58,2.58,0,0,1-.35-.68,2.5,2.5,0,0,1-.13-.81,2.37,2.37,0,0,1,.89-1.87A3.51,3.51,0,0,1,67.26,31a4.36,4.36,0,0,1,1.19.15A3.43,3.43,0,0,1,69.45,31.62Zm-3.14,7.31a2.19,2.19,0,0,0-.5.46.59.59,0,0,0-.1.34c0,.24.19.43.58.56a4.73,4.73,0,0,0,1.5.21A5.83,5.83,0,0,0,69,40.38a1.53,1.53,0,0,0,.68-.29.38.38,0,0,0,.11-.3.4.4,0,0,0-.22-.35,2.75,2.75,0,0,0-1.06-.25Zm1.06-6.55a1,1,0,0,0-.77.34,1.31,1.31,0,0,0-.31.93,1.27,1.27,0,0,0,.29.87,1,1,0,0,0,1.48,0l0,0a1.24,1.24,0,0,0,.3-.86,1.4,1.4,0,0,0-.29-.93.92.92,0,0,0-.74-.31Z"/><path class="cls-3" d="M17.58,14.38a16.76,16.76,0,0,0,.11,2c0,.11.06.59.06.69a1,1,0,0,1-1,.94c-.37,0-.44-.16-.44-.51v-.82h-4.2v1c0,1.88-.19,3.29-2.09,3.29a2.71,2.71,0,0,1-2.38-1h0s.79.11.94.11c2.14,0,2.14-1.17,2.14-3.28H6.33c-.2,0-1.1.27-1.27.27s-.29-.05-.29-.27.05-.86.57-.86c.13,0,.66.07.77.07h4.67V14.31H3.53c-.2,0-1,.25-1.22.25S2,14.47,2,14.29s.11-.81.57-.81c.13,0,.63.07.74.07h7.5l0-1.62H6.33c-.2,0-1,.27-1.23.27s-.33-.09-.33-.27c0-.37.14-.83.51-.83.13,0,.72.09.83.09h4.74v-2H7.42v.42c0,.36-.63.62-.94.62s-.33-.3-.33-.4.07-1.27.07-1.47V7.23c0-.14-.24-.73-.24-.87,0-.32.63-.65.91-.65a1,1,0,0,1,.7.46h3.26V4.5L5,4.56c-.2,0-1,.3-1.25.3a.4.4,0,0,1-.44-.36V4.43c0-.37.2-.79.59-.79,1.1,0,5.92.12,6.91.12a5.86,5.86,0,0,0-.16-2s-.28-.18-.28-.25c0-.37.92-1.2,1.4-1.2s.5.33.5.58c0,.09-.09.53-.09.6,0,.27,0,1.42-.06,2.32l5-.05c.2-.32.57-1,1.12-1s1.4.58,1.4,1.25-.83.57-1.67.57l-5.87-.07v1.7h3.33c.39-.43.43-.48.61-.48.41,0,1.11.32,1.11.76a.36.36,0,0,1-.13.23,3.21,3.21,0,0,0-.06.76c0,.27.11,1.54.11,1.79,0,.53-.79.71-1.08.71s-.39-.18-.39-.78H12.07v2h4c.32-.37.54-.53.85-.53a.68.68,0,0,1,.72.64v0a4.21,4.21,0,0,1-.09.49,12.63,12.63,0,0,0,0,1.74h1.53c.33-.48.61-.87,1-.87a1.28,1.28,0,0,1,1.25,1.13c0,.48-.33.57-.79.57ZM10.85,6.77H7.66c-.26,0-.26.39-.26.6a5.53,5.53,0,0,0,0,1.15h3.45Zm5.48,5.54c0-.23-.09-.43-.3-.43H12v1.67h4.26ZM12.09,6.77V8.52h3.56c0-1.47,0-1.75-.3-1.75Zm4.22,7.52H12.07v1.64h4.24Z"/><path class="cls-3" d="M38.18,6.22H25.23c-.22,0-1.18.23-1.4.23s-.37-.28-.37-.49a.7.7,0,0,1,.67-.73h.05c.24,0,2.31.13,2.75.13h4V2.31a1,1,0,0,0-.27-.8c-.06-.1-.11-.14-.11-.23,0-.44.79-1.06,1.18-1.06s.51.23.51.66c0,.21-.13,1-.13,1.2V5.45h2.18V2.31a1.13,1.13,0,0,0-.17-.69.83.83,0,0,1-.2-.32c0-.46.77-1.08,1.18-1.08s.5.23.5.66c0,.21-.13,1-.13,1.2V5.39H41c.2-.34.44-.73.85-.73a1,1,0,0,1,1,1c0,.51-.29.58-.68.58ZM31.67,16c0,.57-1.77,2-2.66,2.59a14.26,14.26,0,0,1-5.25,1.84s-.24,0-.24-.07.44-.32.57-.36a13.23,13.23,0,0,0,5.79-4c.55-.67.59-.74.9-.74A.82.82,0,0,1,31.67,16Zm2.18-1.25c0,.72.06,4.14.06,4.46,0,.49,0,1.59-1,1.59-.42,0-.46-.41-.46-.78s.08-2,.08-2.32l.07-2.95H29.47c-.86,0-2.23,0-2.93.07-.2,0-1,.21-1.2.21s-.38-.28-.38-.46a.71.71,0,0,1,.66-.76h.07c.24,0,2.31.14,2.75.14h4.17V12.13H28.18c-.18,0-1,.25-1.14.25a.32.32,0,0,1-.33-.31v0s0-.74.59-.74c.11,0,.64.09.75.09h4.58V9.48H28.5c-.52,0-1.81,0-2.22.07-.16,0-.81.18-.94.18s-.49,0-.49-.41a.71.71,0,0,1,.69-.73h.07c.22,0,2.27.14,2.69.14h2.55c-.81-.67-1.4-1.15-1.4-1.61s.46-.58.79-.58c.89,0,1.16,2.16,1.16,2.19h3.27c.11-.72.49-2.26,1.18-2.26.38,0,.79.23.79.55,0,.6-1.2,1.45-1.51,1.68h4.72c.18-.39.42-.71.81-.71a1.06,1.06,0,0,1,1,1c0,.46-.43.51-.94.51H33.85v1.91h4.2a.81.81,0,0,1,.79-.65.93.93,0,0,1,.92.85c0,.51-.46.51-.83.51H33.85v1.81h6.27c.08-.21.32-.76.83-.76a1.06,1.06,0,0,1,1,1c0,.55-.44.57-.85.57H34.4a13,13,0,0,0,8,4.1,5.07,5.07,0,0,1,1.09.25A6.76,6.76,0,0,1,41,20.49a7.22,7.22,0,0,1-1.9-.69A10.6,10.6,0,0,1,34,14.74Zm-4-11.72A3.37,3.37,0,0,1,27,4.31c-.61,0-.9-.32-.9-.69a.64.64,0,0,1,.58-.69.33.33,0,0,1,.14,0,1.82,1.82,0,0,1,.33,0,4,4,0,0,0,1.09.12q.4,0,.81,0c.09,0,.57-.12.65-.12S29.85,2.93,29.85,3.05Zm9.3-1.34a.79.79,0,0,1,.78.76c0,1-3,1.82-3.56,1.82-.13,0-.26,0-.26-.09A.29.29,0,0,1,36.22,4c.59-.5,1.59-1.22,2.2-1.7A.8.8,0,0,1,39.15,1.71Z"/><path class="cls-3" d="M45.94,15.33a4.71,4.71,0,0,0,2-.83c.06-.05.33-.3.35-.3s0,.07,0,.11c0,.37-1.09,2.69-2.62,2.69a.8.8,0,0,1-.82-.8v-.07C44.85,15.39,45.18,15.37,45.94,15.33Zm4.48-4.08c-.07,1,.09,6.56.09,7.8,0,1.06-.7,1.31-.85,1.31a.59.59,0,0,1-.53-.64v0c0-.52.13-2.85.15-3.31.07-1.65.09-3.35.09-5a21.43,21.43,0,0,1-3.1.32c-.18,0-.64,0-.64-.55a.54.54,0,0,1,.53-.55h1.69l1.62-2.21a19.85,19.85,0,0,1-2.42-.46c-.32-.12-.59-.21-.59-.62,0-.14.14-.3.35-.55a19.51,19.51,0,0,0,2.65-4.6c0-.1-.15-.51-.15-.6,0-.46.94-.65,1.31-.65.56,0,.63.58.63.72,0,.86-2.64,4.3-3.5,5.3.33.13,1.14.45,2.08.89a11,11,0,0,0,1.53-2.46,1.71,1.71,0,0,1,0-.32c0-.35.67-.55,1-.55A.57.57,0,0,1,53,5v.12c0,.14,0,.19-.43.74a45.56,45.56,0,0,1-3.71,4.72c1.51,0,2.54-.07,3.22-.09a11.37,11.37,0,0,1-.7-1.34c0-.11.08-.11.17-.11s2.12.89,2.12,2.32c0,.25-.06.58-.48.58s-.7-.49-.87-1Zm3.15,5.39c-.42,0-1.38-1.18-1.9-1.84a1.38,1.38,0,0,1-.42-.87.61.61,0,0,1,.6-.6c.39,0,.46.13.92,1a21.47,21.47,0,0,1,1.09,2C53.85,16.52,53.79,16.64,53.57,16.64Zm7.12-13.5a7.43,7.43,0,0,0-1.25.07.57.57,0,0,1,.16.37.43.43,0,0,1-.16.29c-1.33,4.79-4.63,5.8-5.65,5.8-.09,0-.4,0-.4-.07s.44-.23.53-.28a9,9,0,0,0,3.3-3.1,7.78,7.78,0,0,0,1.22-2.76.33.33,0,0,0-.11-.25l-2.78.07c-.17,0-1,.23-1.13.23a.35.35,0,0,1-.37-.35c0-.28.13-.8.57-.8l1.15.06h6.32c.11-.13.57-.66.89-.66a1.1,1.1,0,0,1,1,1.08c0,.14-.28.69-.31.83,0,.3-.17,1.65-.22,1.93-.17,1-.76,4.51-2.79,4.51A2.65,2.65,0,0,1,58.6,8.59c0-.05.07-.05.09-.05.2,0,1.09.28,1.27.28,1.22,0,1.7-1.36,1.86-1.84a13.56,13.56,0,0,0,.67-3.34c0-.5-.32-.5-.5-.5ZM56,18.43v.71a1.11,1.11,0,0,1-1,1c-.39,0-.39-.49-.39-.72,0-1,.22-5.49.22-6.41a1.08,1.08,0,0,1-.2-.55,1.28,1.28,0,0,1,1-1.06c.33,0,.48.46.54.71h5.16c.28-.34.57-.66.83-.66s1,.46,1,.85a1,1,0,0,1-.17.43v1.41c0,.69.17,3.77.17,4.39a1.07,1.07,0,0,1-1,1.12h-.07c-.5,0-.5-.29-.48-1.26Zm5.64-4.5c0-.92,0-1-.33-1h-5c-.28,0-.26.16-.28,1.54v3.29h5.61Z"/><path class="cls-3" d="M87.35,8.27c.11,0,.37.06.37.16,0,.3-1.68,1.12-2.06,1.12S83.57,9,81.16,6.79A24.38,24.38,0,0,1,77,1.93c-3.93,5.85-8.43,7.73-9.72,7.73,0,0-.22,0-.22-.07s2.16-1.45,2.56-1.75c3-2.25,5.74-5.65,6-6.92.09-.48.16-.87,1-.87.44,0,1.18.28,1.18.83a.41.41,0,0,1-.37.41A20.25,20.25,0,0,0,87.35,8.27Zm-13.5.66a.24.24,0,0,1-.24-.21,1.46,1.46,0,0,1,1.16-1.15c.44,0,.44.46.44,1,0,5.29-.42,7.4-1.64,8.9A9.63,9.63,0,0,1,69,19.93s-.26,0-.26-.14a12.84,12.84,0,0,1,1.72-1c3.44-2,3.44-5.17,3.44-9.28Zm6.38,4.67v4.18c0,.28.06,1.43.06,1.66a1.1,1.1,0,0,1-1,1.15h-.08c-.31,0-.48-.3-.48-.71s.11-1.75.13-2,.09-2.85.09-6.48a11.14,11.14,0,0,0-.18-2.58.52.52,0,0,1-.24-.44,1.92,1.92,0,0,1,1.35-1.31.45.45,0,0,1,.5.41.24.24,0,0,1,0,.12c0,.14-.06.78-.06.9s-.07,3.12-.07,3.19Z"/></g></svg>