<svg xmlns="http://www.w3.org/2000/svg" viewBox="0 0 81.23 14.09" width="80px" height="40px" preserveAspectRatio="xMinYMid"><defs><style>.cls-1{fill:#ea5514;}</style></defs><title>アセット 2</title><g id="レイヤー_2" data-name="レイヤー 2"><g id="letter"><path class="cls-1" d="M10.56.23h1.38l1.34,4.9-1.82.52a9.24,9.24,0,0,0-1.7-2.48,3.56,3.56,0,0,0-2.42-1,3.16,3.16,0,0,0-1.77.53A3.54,3.54,0,0,0,4.26,4.25a5.59,5.59,0,0,0-.48,2.4,5.93,5.93,0,0,0,1.11,3.61,3.43,3.43,0,0,0,2.9,1.52,4.09,4.09,0,0,0,2.2-.66A7.7,7.7,0,0,0,12.27,9l1.51,1.12a11.33,11.33,0,0,1-2.69,2.8,7.61,7.61,0,0,1-4.2,1.22,6.65,6.65,0,0,1-6-3.5A7.32,7.32,0,0,1,0,7,7.16,7.16,0,0,1,.9,3.4,6.49,6.49,0,0,1,3.36.9,6.83,6.83,0,0,1,6.83,0a6.86,6.86,0,0,1,3.41.82Z"/><path class="cls-1" d="M20.27,3.88a6.07,6.07,0,0,1,2.91.65,4.7,4.7,0,0,1,1.91,1.78A5.09,5.09,0,0,1,25.76,9a4.91,4.91,0,0,1-1.48,3.71,5.49,5.49,0,0,1-4,1.42,5.6,5.6,0,0,1-4-1.43A4.87,4.87,0,0,1,14.84,9a5,5,0,0,1,.66-2.64,4.75,4.75,0,0,1,1.91-1.77A6,6,0,0,1,20.27,3.88Zm0,2.14a1.81,1.81,0,0,0-1,.33,2.09,2.09,0,0,0-.76,1A4.29,4.29,0,0,0,18.24,9a4.59,4.59,0,0,0,.27,1.7,2,2,0,0,0,.72,1,1.71,1.71,0,0,0,1,.32,1.86,1.86,0,0,0,1.48-.73A3.43,3.43,0,0,0,22.34,9a3.65,3.65,0,0,0-.57-2.23A1.74,1.74,0,0,0,20.31,6Z"/><path class="cls-1" d="M31.58,3.88v1.3a8.28,8.28,0,0,1,1.89-1,5,5,0,0,1,1.61-.27,3.36,3.36,0,0,1,1.67.4,2.51,2.51,0,0,1,1.06,1A3.59,3.59,0,0,1,38.14,7V11a1.79,1.79,0,0,0,.08.67.4.4,0,0,0,.23.21,2.38,2.38,0,0,0,.7.05h.48v1.89H33.9V12a4.25,4.25,0,0,0,.73,0,.47.47,0,0,0,.32-.22,1.83,1.83,0,0,0,.08-.67V7.47a1.76,1.76,0,0,0-.15-.9.82.82,0,0,0-.74-.34,2.39,2.39,0,0,0-.9.19A6,6,0,0,0,32,7.18v3.87a1.36,1.36,0,0,0,.14.78,1,1,0,0,0,.66.14h.32v1.89H27.39V12h.29a3.33,3.33,0,0,0,.83-.06.37.37,0,0,0,.24-.2,1.25,1.25,0,0,0,.09-.58V6.59H27.39V4.71a13.34,13.34,0,0,0,3.29-.83Z"/><path class="cls-1" d="M45.24.76V4.11h3.15V6.19H45.24v3.4a5.35,5.35,0,0,0,.13,1.48,1,1,0,0,0,.45.52,1.88,1.88,0,0,0,1,.27,3.61,3.61,0,0,0,2-.66v2.09a7.31,7.31,0,0,1-1.54.56A6.42,6.42,0,0,1,45.8,14a5,5,0,0,1-1.61-.23A3.5,3.5,0,0,1,43,13.13a2.34,2.34,0,0,1-.68-.9,3.86,3.86,0,0,1-.19-1.39V6.19H40.66V4.32A3.85,3.85,0,0,0,42,3.59a3.85,3.85,0,0,0,.9-1.14A5.35,5.35,0,0,0,43.36.76Z"/><path class="cls-1" d="M56,8V7.23a2.51,2.51,0,0,0-.11-.89.85.85,0,0,0-.39-.41,1.48,1.48,0,0,0-.7-.16,1.59,1.59,0,0,0-.59.11,1.09,1.09,0,0,0-.42.27,2.65,2.65,0,0,0-.36.65,2.18,2.18,0,0,1-.63.87,1.49,1.49,0,0,1-.87.26,1.41,1.41,0,0,1-1-.39,1.28,1.28,0,0,1-.4-1,1.83,1.83,0,0,1,.41-1.16,3.81,3.81,0,0,1,1.63-1.1A6.51,6.51,0,0,1,55,3.88a5.35,5.35,0,0,1,2.31.44,2.88,2.88,0,0,1,1.33,1A3.6,3.6,0,0,1,59,7.23v3.49a3.26,3.26,0,0,0,.07.83.75.75,0,0,0,.3.32.92.92,0,0,0,.49.13,2.53,2.53,0,0,0,.74-.15v1.9A5.19,5.19,0,0,1,59,14a3.57,3.57,0,0,1-1.53-.29,2.65,2.65,0,0,1-1.06-.88,8.35,8.35,0,0,1-1.78.91,5,5,0,0,1-1.53.26,3.23,3.23,0,0,1-2.26-.78,2.54,2.54,0,0,1-.86-1.94,2.43,2.43,0,0,1,.3-1.2,2.7,2.7,0,0,1,.89-1A5.86,5.86,0,0,1,53,8.4,18,18,0,0,1,56,8Zm0,1.62a9.57,9.57,0,0,0-1.81.38,1.59,1.59,0,0,0-.75.47,1,1,0,0,0-.23.6.83.83,0,0,0,.3.65,1.11,1.11,0,0,0,.79.26,2.06,2.06,0,0,0,.74-.16,6.25,6.25,0,0,0,1-.49Z"/><path class="cls-1" d="M70.57,10.17,72,11.43a7.85,7.85,0,0,1-2.39,2,5.79,5.79,0,0,1-2.66.63,5.21,5.21,0,0,1-3.78-1.47A4.84,4.84,0,0,1,61.65,9a5,5,0,0,1,.71-2.62A4.89,4.89,0,0,1,64.3,4.54a6.11,6.11,0,0,1,2.92-.66,5.42,5.42,0,0,1,3.28.93,2.55,2.55,0,0,1,1.28,2,1.56,1.56,0,0,1-.2.78,1.51,1.51,0,0,1-.61.56,1.81,1.81,0,0,1-.87.22A1.49,1.49,0,0,1,69,7.82a3.14,3.14,0,0,1-.35-.6,4.6,4.6,0,0,0-.49-.84,1.18,1.18,0,0,0-.42-.32A1.43,1.43,0,0,0,67.13,6a1.7,1.7,0,0,0-1,.32,2.28,2.28,0,0,0-.76,1,3.53,3.53,0,0,0-.3,1.48,3.57,3.57,0,0,0,.35,1.62,2.65,2.65,0,0,0,.94,1.09,2.49,2.49,0,0,0,1.31.37,3,3,0,0,0,1.37-.37A5.88,5.88,0,0,0,70.57,10.17Z"/><path class="cls-1" d="M77.65.76V4.11h3.14V6.19H77.65v3.4a5.5,5.5,0,0,0,.12,1.48,1,1,0,0,0,.45.52,1.91,1.91,0,0,0,1,.27,3.58,3.58,0,0,0,2-.66v2.09a7.31,7.31,0,0,1-1.54.56A6.36,6.36,0,0,1,78.2,14a4.9,4.9,0,0,1-1.6-.23,3.33,3.33,0,0,1-1.19-.65,2.37,2.37,0,0,1-.69-.9,3.86,3.86,0,0,1-.19-1.39V6.19H73.07V4.32a3.8,3.8,0,0,0,1.33-.73,3.7,3.7,0,0,0,.9-1.14A5.09,5.09,0,0,0,75.76.76Z"/></g></g></svg>