<svg xmlns="http://www.w3.org/2000/svg" viewBox="0 0 132.82 38" width="132.82" height="38" preserveAspectRatio="xMinYMid"><defs><style>.cls-1{fill:#005bab}.cls-2{fill:#fff}.cls-3{fill:#fff000}</style></defs><path d="M8.4 1.65v1.4h4.37v2.7H11.5l-.62 3.64h1.89v2.67H8.4v2.23h4.37V17H9.29a9.75 9.75 0 0 0 1.4 2.9 6.19 6.19 0 0 0 2.08 1.9v3.55a9.4 9.4 0 0 1-2.5-2 11.27 11.27 0 0 1-1.87-2.78v4.77H5.33v-4.77a13.54 13.54 0 0 1-1.86 2.75 8.66 8.66 0 0 1-2.51 2v-3.53a6 6 0 0 0 2-1.93A9.59 9.59 0 0 0 4.36 17H1v-2.7h4.33v-2.24H1V9.39h2.17a19.57 19.57 0 0 0-.73-3.64H1v-2.7h4.33v-1.4zM5.73 9.39h2.48l.65-3.64H5.08a22 22 0 0 1 .65 3.64zM24 1.65v2.86a11.4 11.4 0 0 1-2.63.63 31.6 31.6 0 0 1-4.13.2v3.59h7.36v2.83h-2v13.58h-2.74V11.75h-2.64v2.75a23.62 23.62 0 0 1-.76 6.75 8.58 8.58 0 0 1-2.8 4.09v-4.47a6 6 0 0 0 .68-2.24 38.9 38.9 0 0 0 .15-4.12v-12h1.11c2.44 0 4.25-.05 5.42-.15A9.21 9.21 0 0 0 24 1.65zm17.27 0v1.59h10.3v2.67h-10.3v1.73h9.46v11.48h-9.46v1.73h10.3v2.67h-10.3v1.83h-3.05v-1.83h-10.3v-2.67h10.3v-1.73h-9.49V7.64h9.49V5.91h-10.3V3.24h10.3V1.65zm-9.41 10.52h6.36V10h-6.36zm0 4.63h6.36v-2.29h-6.36zm9.41-4.63h6.33V10h-6.33zm0 4.63h6.33v-2.29h-6.33zM95.24 1.65v2.08h10.25v3H95.24v2.85h9.6v12a3 3 0 0 1-.78 2.35 3.45 3.45 0 0 1-2.35.7h-3.45v-3.11h2.62a.92.92 0 0 0 .59-.2.83.83 0 0 0 .24-.66v-8h-6.47v12.69h-3.15V12.62h-6.5v12.06h-3.13V9.58h9.63V6.75H81.84v-3h10.25v-2.1zm18.34 0v5.26h1.91v2.88h-1.91v10.84a10.06 10.06 0 0 0 1.1-.5 9 9 0 0 0 1-.6v3.1a13.35 13.35 0 0 1-3.23 1.4 12.51 12.51 0 0 1-3.61.65V21.9c.21 0 .53-.07 1-.15l1-.17V9.79h-1.91V6.91h1.91V1.65zm18.87 10.7v2.3h-9.68a4.6 4.6 0 0 0-.29.59c-.18.34-.37.66-.54.94h10.51v5.67a3.84 3.84 0 0 1-.79 2.57 2.78 2.78 0 0 1-2.23.93H127v-2.29h1.73a1.13 1.13 0 0 0 .91-.38 1.45 1.45 0 0 0 .33-1v-3.23h-1.16a10.37 10.37 0 0 1-3 4.64 8.88 8.88 0 0 1-4.87 2.26V23a7 7 0 0 0 3.5-1.5 7.25 7.25 0 0 0 2.22-3h-2a10 10 0 0 1-3.38 3.75 8.2 8.2 0 0 1-4.65 1.64v-2.5a9 9 0 0 0 3.33-1 6.07 6.07 0 0 0 2.33-1.94h-2.51a8 8 0 0 1-3.15 1.26V17a4.55 4.55 0 0 0 2.14-.77 4.64 4.64 0 0 0 1.42-1.6h-3.56v-2.3zm-.65-10.27v8.79h-14.69V2.08zm-11.67 3.43h8.65V4h-8.65zm0 3.5h8.65V7.42h-8.65z"/><path class="cls-1" d="M0 29.19h132.82V38H0z"/><path class="cls-2" d="M6.28 32.12h-1v-.22c0-.46-.2-.85-.74-.85s-.71.44-.71.9.05.73.6.93l.8.31c.93.33 1.1.89 1.1 1.91s-.45 2-1.81 2a1.69 1.69 0 0 1-1.79-1.65v-.38h1v.32a.67.67 0 0 0 .74.71c.71 0 .76-.4.76-1s-.09-.87-.6-1.06l-.76-.3A1.63 1.63 0 0 1 2.73 32a1.73 1.73 0 0 1 1.8-1.9 1.68 1.68 0 0 1 1.75 1.57zm7.27-2.01h1v3h1.3v-3h1v7h-1V34H14.6v3.1h-1zm10.91 0h1.05v7h-1.05zm8.54 0h1l1.59 4.2v-4.2h1v7h-1l-1.61-4.19v4.19H33zm14.48 2.01h-1v-.22c0-.46-.2-.85-.74-.85s-.71.44-.71.9.05.73.6.93l.8.31c.93.33 1.1.89 1.1 1.91s-.45 2-1.81 2a1.69 1.69 0 0 1-1.79-1.65v-.38h1v.32a.67.67 0 0 0 .74.71c.71 0 .76-.4.76-1s-.09-.87-.61-1.06l-.75-.3A1.63 1.63 0 0 1 43.93 32a1.73 1.73 0 0 1 1.8-1.9 1.68 1.68 0 0 1 1.75 1.57zm7.27-2.01h1v3h1.3v-3h1v7h-1V34H55.8v3.1h-1zm12.04 0h.88l1.64 7h-1L68 35.58h-1.48l-.31 1.5h-1zm.45 2l-.52 2.53h1zm9.1-2h1v7h-1zm11.9 5.42a1.65 1.65 0 0 1-1.67 1.61 1.56 1.56 0 0 1-1.73-1.64v-3.84a1.6 1.6 0 0 1 1.71-1.6 1.62 1.62 0 0 1 1.69 1.66v.39h-1v-.33a.68.68 0 0 0-.65-.73c-.53 0-.65.35-.65.82v3.56c0 .4.17.71.64.71a.63.63 0 0 0 .66-.7v-.34h1zm7.34-5.42h1v3h1.3v-3h1v7h-1V34h-1.3v3.1h-1zm10.91 0h1.05v7h-1.05zm8.56 0h1.53a1.67 1.67 0 0 1 1.87 1.77v.25a1.26 1.26 0 0 1-.72 1.29 1.32 1.32 0 0 1 .72 1.37v.39a1.71 1.71 0 0 1-2 1.9h-1.43zm1 2.86h.47c.7 0 .89-.34.89-1s-.24-.94-.93-.94h-.43zm0 3.11h.45c.85 0 .91-.49.91-1.17s-.13-1.06-.9-1.06h-.46zm11.04-5.97h.91l1.63 7h-1l-.31-1.5h-1.43l-.31 1.5h-1zm.44 2l-.53 2.54h1.05z"/><path class="cls-1" d="M77.91 18.45h-.3c-.51-.8-1.12-4.59-1.33-5.9-.92-5.82-4.41-7.75-6.83-8.39V3.8A2.48 2.48 0 0 0 67 1.41a2.44 2.44 0 0 0-2.49 2.39v.36c-2.43.64-5.91 2.57-6.84 8.39-.21 1.31-.81 5.1-1.33 5.9H56a.91.91 0 0 0-.9.9V22a.9.9 0 0 0 .9.9h7.25a4 4 0 0 0 7.4 0h7.25a.9.9 0 0 0 .9-.9v-2.6a.9.9 0 0 0-.89-.95z"/><path class="cls-1" d="M67 26.68a5.44 5.44 0 0 1-4.53-2.42H56A2.31 2.31 0 0 1 53.71 22v-2.6a2.31 2.31 0 0 1 1.64-2.21 47.94 47.94 0 0 0 .93-4.81c.95-5.94 4.38-8.29 6.89-9.22A3.84 3.84 0 0 1 67 0a3.94 3.94 0 0 1 3.83 3.11c2.5.93 5.94 3.28 6.88 9.22a47.58 47.58 0 0 0 .94 4.83 2.3 2.3 0 0 1 1.61 2.19V22a2.32 2.32 0 0 1-2.31 2.31h-6.46A5.41 5.41 0 0 1 67 26.68zm-10.48-5.24h7.67l.36.85a2.63 2.63 0 0 0 4.82 0l.37-.85h7.66v-1.58h-.56l-.42-.65c-.4-.63-.81-2-1.52-6.43-.79-4.94-3.6-6.67-5.81-7.26l-1-.27V3.8a1.07 1.07 0 0 0-1.08-1 1 1 0 0 0-1 1v1.45l-1 .27c-2.22.59-5 2.32-5.81 7.25-.71 4.47-1.13 5.81-1.53 6.44l-.41.65h-.6z"/><path class="cls-3" d="M77.91 18.45h-.3c-.51-.8-1.12-4.59-1.33-5.9-.92-5.82-4.41-7.75-6.83-8.39V3.8A2.48 2.48 0 0 0 67 1.41a2.44 2.44 0 0 0-2.49 2.39v.36c-2.43.64-5.91 2.57-6.84 8.39-.21 1.31-.81 5.1-1.33 5.9H56a.91.91 0 0 0-.9.9V22a.9.9 0 0 0 .9.9h7.25a4 4 0 0 0 7.4 0h7.25a.9.9 0 0 0 .9-.9v-2.6a.9.9 0 0 0-.89-.95z"/><path class="cls-1" d="M69.8 8.32h.01v.01l-.01-.01zm-.11.2a2.73 2.73 0 0 0-2.18-.85 5.85 5.85 0 0 0-1.94.33.6.6 0 0 0-.39.49L65 9.68v.08a.55.55 0 0 0 .07.25 2.14 2.14 0 0 0-1.17 1.91 1.89 1.89 0 0 0 .67 1.54 2.17 2.17 0 0 0 1.77.71 2.64 2.64 0 0 0 1.17-.25.61.61 0 0 0 .37.14h1.34a.59.59 0 0 0 .59-.52 14.21 14.21 0 0 1 .35-1.79 7.48 7.48 0 0 0 .26-1.58 2.08 2.08 0 0 0-.73-1.65z"/><path class="cls-1" d="M66.74 6.58a.57.57 0 0 0-.32-.29 7.1 7.1 0 0 0-2.5-.39 4.21 4.21 0 0 0-4.54 4.34A3.51 3.51 0 0 0 60.51 13a3.88 3.88 0 0 0 3 1.2 6.74 6.74 0 0 0 1.92-.28.63.63 0 0 0 .4-.5L66 12v-.1a.58.58 0 0 0-.26-.49l-.08-.05a.55.55 0 0 0-.18-.22.6.6 0 0 0-.63 0 3.06 3.06 0 0 1-1.36.3 1.39 1.39 0 0 1-.75-.18 1.28 1.28 0 0 1-.14-.66 1.73 1.73 0 0 1 1.82-1.88 2.41 2.41 0 0 1 1.3.31.61.61 0 0 0 .53 0 .63.63 0 0 0 .36-.39l.4-1.34a.57.57 0 0 0 0-.18.62.62 0 0 0-.27-.54zm7.63 1.69a.61.61 0 0 0-.25-.27.6.6 0 0 0-.37-.27 2.43 2.43 0 0 0-.61-.07 1.91 1.91 0 0 0-.93.25.66.66 0 0 0-.38-.14H70.3a.6.6 0 0 0-.59.54 11.66 11.66 0 0 1-.19 1.2c0 .07-.14.55-.77 3.57v.12a.59.59 0 0 0 .14.38.58.58 0 0 0 .19.15l.07.11a.58.58 0 0 0 .46.22h1.64a.59.59 0 0 0 .58-.47l.47-2.22c0-.14.16-.82.63-.82a.88.88 0 0 1 .33 0 .64.64 0 0 0 .49 0 .59.59 0 0 0 .3-.39l.37-1.42a.77.77 0 0 0 0-.15.61.61 0 0 0-.05-.32z"/><path class="cls-1" d="M72.88 13.48a.62.62 0 0 0-.21-.15l-.07-.13a.62.62 0 0 0-.48-.22h-1a1.56 1.56 0 0 0-1.48 1.2l-.61 3-.61 3a1.22 1.22 0 0 0 .24 1 .93.93 0 0 0 .23.21v.07a1.18 1.18 0 0 0 .94.43h1a.61.61 0 0 0 .6-.48L73 14a.5.5 0 0 0 0-.12.62.62 0 0 0-.12-.4z"/><path class="cls-1" d="M75.47 13.49a.87.87 0 0 0-.21-.17l-.08-.12a.63.63 0 0 0-.49-.24h-1.08a1.62 1.62 0 0 0-1.54 1.26l-1.27 6.23a1.22 1.22 0 0 0 .25 1.05 1.05 1.05 0 0 0 .24.23v.06a1.24 1.24 0 0 0 1 .46h1.11a.64.64 0 0 0 .62-.51L75.6 14a.62.62 0 0 0 0-.13.63.63 0 0 0-.13-.38zm-5.93 2.56a2.89 2.89 0 0 0-2.31-.94 3.54 3.54 0 0 0-3.64 3.64 2.86 2.86 0 0 0 1 2.2A3.3 3.3 0 0 0 67.08 22a7 7 0 0 0 2-.32.6.6 0 0 0 .42-.47l.18-1.21v-.13a.61.61 0 0 0 .59-.48 6 6 0 0 0 .14-1.1 2.75 2.75 0 0 0-.87-2.24z"/><path class="cls-1" d="M65.8 16a2 2 0 0 0-.73-1.61 2.61 2.61 0 0 0-2.07-.91h-1.6a2.33 2.33 0 0 0-2.34 2.11c-.21.92-1.08 5.24-1.09 5.28V21a.62.62 0 0 0 .14.39.8.8 0 0 0 .21.15l.07.13a.62.62 0 0 0 .48.22h3.09c2.06 0 3.39-1.12 3.39-2.79a1.83 1.83 0 0 0-.48-1.26A2.22 2.22 0 0 0 65.8 16z"/><path class="cls-2" d="M61.33 16.1a.9.9 0 0 1 .77-.69c.53 0 1 .07 1 .62s-.45.78-1.21.78h-.71s.07-.37.15-.71zm-1.69-.37c-.21.91-1.08 5.26-1.08 5.26h3.09c1.56 0 2.79-.71 2.79-2.18a1.34 1.34 0 0 0-1.31-1.33 1.82 1.82 0 0 0 1.78-1.75c0-1.31-1.22-1.59-1.92-1.59h-1.6c-1.15-.06-1.57.86-1.75 1.59zM61 18.06h.44c.81 0 1.24.09 1.24.69s-.61.93-1.52.93h-.49zm10.26-4.46a1 1 0 0 0-.92.74l-.63 3.12-.64 3.11a.6.6 0 0 0 .61.75h1.08l1.58-7.72zm2.35 0a1 1 0 0 0-.92.74l-1.27 6.23a.6.6 0 0 0 .61.75h1.08l1.58-7.72z"/><path class="cls-2" d="M66 17.92a1.29 1.29 0 0 1 1.29-1c.64 0 .86.47.86 1zm2.84 1.64a3.9 3.9 0 0 1-1.59.36c-1.07 0-1.34-.44-1.36-1h3.59a5.54 5.54 0 0 0 .12-1 2.08 2.08 0 0 0-2.33-2.24 2.94 2.94 0 0 0-3 3 2.34 2.34 0 0 0 2.6 2.36 6.27 6.27 0 0 0 1.77-.29zM65.8 8.2a3 3 0 0 0-1.61-.4 2.31 2.31 0 0 0-2.43 2.49A1.58 1.58 0 0 0 63.53 12a3.51 3.51 0 0 0 1.64-.37L65 13.05a6.13 6.13 0 0 1-1.72.25A3 3 0 0 1 60 10.24a3.62 3.62 0 0 1 3.92-3.74 6.38 6.38 0 0 1 2.29.35z"/><path class="cls-2" d="M66.05 11.72c0-.42.58-.71 1.36-.68a2.38 2.38 0 0 1 .44 0 1.25 1.25 0 0 1-1.24 1.13.52.52 0 0 1-.56-.45zm1.58 1.48H69c.18-1.45.6-2.53.6-3.29 0-1.19-.93-1.64-2.06-1.64a4.94 4.94 0 0 0-1.74.28l-.16 1.21a2.88 2.88 0 0 1 1.53-.38c.54 0 .88.28.88.62a.62.62 0 0 1 0 .19h-.88c-1.45 0-2.61.58-2.61 1.77 0 .93.56 1.4 1.58 1.4a1.8 1.8 0 0 0 1.59-.79zm5.75-5.14a1.82 1.82 0 0 0-1.53 1.15l.18-1h-1.59a11.35 11.35 0 0 1-.21 1.32l-.76 3.71h1.7l.49-2.32c.12-.74.55-1.37 1.27-1.37a1.38 1.38 0 0 1 .56.08l.38-1.48a2.09 2.09 0 0 0-.49-.09z"/></svg>