<svg xmlns="http://www.w3.org/2000/svg" viewBox="0 0 139.92 33" width="139.92" height="33" preserveAspectRatio="xMinYMid"><path d="M132.07 33c-1.09-.26-2.17-.58-3.27-.77a12.72 12.72 0 0 1-7.43-3.89 1.69 1.69 0 0 0-.24-.2c-3.48 2.08-7.07 3.86-11.34 4.31.68-2.18 1.29-4.19 1.91-6.19.19-.62.72-.67 1.24-.82 1.35-.37 2.68-.78 4-1.21a4.6 4.6 0 0 0 .87-.53l-.08-.24h-3.92c1.1-3.79 2.29-7.37 3.44-11h5.45l.45-.81h-3.51l.18-1.24-1 .31c-1.35.41-1.35.41-2 1.47-.8.21-1.68-.2-2.54.32l1.46 2.6-2.93 9.32-1.2-2.22h-.23c-1.07 3.33-2.13 6.66-3.18 10h-7c.88-2.84 1.74-5.59 2.59-8.34l-.16-.09-4.37 4.16-.19-.09a3.27 3.27 0 0 1 .08-.7c.91-2.9 1.84-5.79 2.74-8.69a3.84 3.84 0 0 1 .92-1.52c1.4-1.44 2.76-2.93 4.13-4.41l-.1-.2h-2.76l2.17-7h3.34c.56-1.77 1.13-3.53 1.69-5.3h6.92a2.89 2.89 0 0 1-.08.59c-.39 1.28-.79 2.55-1.18 3.82-.08.24-.11.5-.18.8h2.33c.07-.86.68-1.08 1.33-1.35A43.23 43.23 0 0 0 124.53 2a32.48 32.48 0 0 0 2.85-2h6.11c1.27 2 3.31 3.17 5.32 4.33-.72 2.32-1.42 4.57-2.12 6.84l-2.5-1c0 .19-.06.33-.1.45-.35 1-.35 1-1.44 1h-3l.05.79h5.86c0 .11.05.18 0 .23-.72 2.36-1.38 4.74-2.19 7.07a5.14 5.14 0 0 1-4.11 3.57c-.68.13-1.37.17-2.05.24a5.88 5.88 0 0 0 1.85 1.3 14.26 14.26 0 0 0 4.3.88 25.42 25.42 0 0 0 6 0c.11 0 .24.12.48.24-.75.3-1.39.51-2 .8a9.55 9.55 0 0 0-4.34 3.47c-.52.89-.89 1.87-1.33 2.81zm-3.23-27.77l-1.7 1.23h2.43zm-.26 12.18c-.43-.07-.84-.27-1.05.27a5.08 5.08 0 0 0-.13.6h.9zm-7.2 0c-.79-.06-.79-.06-1 .84 1.02.05 1.02.05 1-.82zM93.36 0L93 1.58h13.09c-1 .6-1.84 1.08-2.65 1.65a3.49 3.49 0 0 0-1 4.32H91.87c-.88 0-.89 0-.84 1h10c-.24.82-.42 1.56-.65 2.29-.77 2.38-1.54 4.76-2.33 7.14a5.58 5.58 0 0 1-3.3 3.83 10.33 10.33 0 0 1-2.92.6c-1.59.1-3.19 0-4.78 0-.44 0-.84 0-.77.75h11.96a12.7 12.7 0 0 1-.91 3.34c-.31 1-.63 2.1-1 3.22H84.11l-.78 2.43h-8l.62-2.4H64.07l2.06-6.53h11.81l.38-.82h-9.86l4.33-13.85h9.06c.64 0 1-.28 1.08-1H71.69l1.83-5.92h11.25L85.42 0zm-3.8 12.49l-.3.91h2.19l.32-.91zm-12.15 5.56h2.24l.3-.88h-2.19zm4-5.57h-2.23l-.33.89h2.22zm8.9 4.68h-2.16l-.34.89H90zM32.58 1.68C29.87 3 29.37 3.5 30.1 6.69A16.56 16.56 0 0 0 23 8.63a16.84 16.84 0 0 0-6.34 6.06c-1.57 2.57-3.11 5.15-4.66 7.72a1.43 1.43 0 0 0-.1.25l5.18 9.42a2.92 2.92 0 0 1-.5.11h-6.51a.91.91 0 0 1-.94-.58q-2.19-4.19-4.45-8.33C3.24 20.65 1.76 18 .31 15.38a6.76 6.76 0 0 1-.31-.84h5.93l2.71 3.34c2-3.11 4.12-5.9 6-9.07H2.31C2.71 8 3 7.26 3.38 6.57c.74-1.43 1.51-2.84 2.22-4.28a1.07 1.07 0 0 1 1.1-.68h25.55a3.32 3.32 0 0 1 .33.07zM63 32.14H51.7c0-.56.09-1.05.09-1.55a67.3 67.3 0 0 1 .58-7.23 55.78 55.78 0 0 1 1.89-9.51c.86-3 1.89-5.91 2.87-8.85.32-1 .74-1.86 1.1-2.79a.85.85 0 0 1 .93-.6h11a20 20 0 0 0-1.91 1.65 43.46 43.46 0 0 0-2.81 3.41 27.29 27.29 0 0 0-4.19 9.37 22.58 22.58 0 0 0-.63 4.26 17.17 17.17 0 0 0 .27 3.1A42.5 42.5 0 0 0 63 31.84a2 2 0 0 1 0 .3zm-17.29 0H33.85c.48-1.07.92-2.08 1.38-3.07 1-2.19 2.06-4.36 3.07-6.55 1.82-4 3.61-7.92 5.42-11.87.6-1.31 1.24-2.6 1.85-3.89h7.6c-.1.24-.17.43-.25.61-1.25 2.56-2.52 5.11-3.74 7.69q-2.18 4.62-4.31 9.29a7.42 7.42 0 0 0-.55 5.48 11.43 11.43 0 0 0 1.39 2.31zM39.15 18.4a12.73 12.73 0 0 1-1.31.51 10.74 10.74 0 0 0-3.13 1.76 14.54 14.54 0 0 0-4.09 5.27c-1.14 2-2.26 4.11-3.41 6.2h-5c.9-1.39 1.72-2.68 2.57-3.94 1.49-2.19 3-4.37 4.49-6.53a7.36 7.36 0 0 1 5.1-3.44 39.75 39.75 0 0 1 4.76 0s-.01.03.02.17z"/><path d="M21.32 18.12a31.09 31.09 0 0 0-3.94 5.69 1 1 0 0 1-.7.42c-.87.05-1.74 0-2.74 0 1.13-1.95 2.18-3.8 3.29-5.62a1.33 1.33 0 0 1 .91-.49c.98-.04 1.96 0 3.18 0zm6.58 0a53.84 53.84 0 0 0-4 6.09h-3.15c.54-.95 1-1.81 1.52-2.65.6-1 1.2-2 1.82-3a.94.94 0 0 1 .6-.43c1.07-.03 2.14-.01 3.21-.01z"/></svg>