<svg xmlns="http://www.w3.org/2000/svg" viewBox="0 0 146.96 38" width="146.96" height="38" preserveAspectRatio="xMinYMid"><path d="M109.76 19.82v-.05a.06.06 0 0 1 0-.06l.06-.09h.18v-2.93a1 1 0 0 0-1-1H84.08a.16.16 0 0 1-.06.12l-.08.07a.23.23 0 0 1 0 .11h-.22l-.08-.06a.15.15 0 0 1 0-.13.21.21 0 0 1 .16-.07h-.11a.2.2 0 0 1-.19.12l-.06-.07h-2.02a1 1 0 0 0-1 1v4.32a1 1 0 0 0 1 1h10a.08.08 0 0 1 0-.05V22a.2.2 0 0 1 .15.06.18.18 0 0 1 .05.12h5.54a.07.07 0 0 1-.06 0l-.03-.18v-.06c.08-.21.32-.25.44-.27l.08.06v.05a.29.29 0 0 1-.07.23.33.33 0 0 1-.26.1h2.09a.35.35 0 0 1 .11 0h9.45a1 1 0 0 0 1-1v-1c-.12-.05-.14-.23-.15-.29zM81.47 20h.06a.07.07 0 0 1 0 .06.21.21 0 0 1 0 .07l-.08.07h-.06a.07.07 0 0 1-.06 0l-.06-.11a.17.17 0 0 1 .2-.09zm-.55-4l.1-.07h.08l.07.1a.13.13 0 0 1 0 .06.14.14 0 0 1 0 .07l-.1.07a.19.19 0 0 1-.08 0l-.07-.1a.19.19 0 0 1 0-.13zm0 1.11H81l.07.12a.21.21 0 0 1-.06.15l-.1.07a.16.16 0 0 1-.14-.18.21.21 0 0 1 .17-.21zm-.15 3.07a.24.24 0 0 1-.23-.15.2.2 0 0 1 0-.23h.2a.27.27 0 0 1 .15.19.18.18 0 0 1-.06.15h-.08zM81 21a.2.2 0 0 1-.1 0l-.06-.07a.25.25 0 0 1 0-.2l.08-.07h.14a.19.19 0 0 1 .1.24.21.21 0 0 1-.16.1zm.4 0v-.1a.13.13 0 0 1 0-.06.29.29 0 0 1 .11-.11l.1-.06a.19.19 0 0 1 .15.21.3.3 0 0 1-.34.12zm.69-3.13l-.09-.13v-.19l.07-.07h.18l.07.07v.14l-.07.07zm.39 2.13a.21.21 0 0 1-.13.05.07.07 0 0 1-.07-.06v-.23a.07.07 0 0 1 .06-.07.18.18 0 0 1 .18.2.23.23 0 0 1-.04.11zm.5-.36a.1.1 0 0 1 0 .05.31.31 0 0 1-.13 0c-.2 0-.34-.2-.4-.39a.13.13 0 0 1 0-.06l.06-.08h.09a.36.36 0 0 1 .2-.06h.11a.37.37 0 0 1 0 .31.19.19 0 0 1 0 .1zm.37 2.12h-.06l-.08-.05a.19.19 0 0 1 0-.15.22.22 0 0 1 .15-.08v.05a.06.06 0 0 1 0 .05.17.17 0 0 1-.01.18zm.28-1.14l-.06.07a.16.16 0 0 1-.13.06h-.06a.15.15 0 0 1 0-.18.23.23 0 0 1 .18-.08.17.17 0 0 1 .14.06.21.21 0 0 1-.07.07zm0-.47l-.1.06h-.06a.2.2 0 0 1-.11-.11h-.06a.25.25 0 0 1-.15-.1l-.07-.12v-.05a.15.15 0 0 1 .15-.11.21.21 0 0 1 .16.08h.05c.14 0 .2.1.19.29.03-.01.02.05 0 .06zm-.44-1.53a.14.14 0 0 1 0-.1v-.06a.07.07 0 0 1 .07-.06.15.15 0 0 1 .11 0 .22.22 0 0 1 0 .16.18.18 0 0 1-.17.2.07.07 0 0 1-.07-.07.08.08 0 0 1 .06-.07zm.71.12a.23.23 0 0 1-.16-.06v-.08c0-.18.11-.23.19-.23a.3.3 0 0 1 .19.09v.12a.25.25 0 0 1-.22.16zm.52-1.44a.16.16 0 0 1-.13.08.45.45 0 0 1-.11 0l-.05.05H84c.08 0 .23.08.23.2a.15.15 0 0 1-.12.16.17.17 0 0 1 .11.06.15.15 0 0 1 .07.05v.09a.24.24 0 0 1-.07.14l-.11.07a.19.19 0 0 1-.08 0v-.08a.27.27 0 0 1-.13-.07v-.1a.29.29 0 0 1 .15-.09.13.13 0 0 1-.1-.08.15.15 0 0 1-.1 0l-.07-.07h-.14a.45.45 0 0 1-.17.09h-.09a.31.31 0 0 1 .12-.33h-.09l-.07.08h-.11l-.07-.07v-.28l.06-.11a.19.19 0 0 1 .1 0l.08-.07h.08l.11.07v.22a1.2 1.2 0 0 1 .25-.13h.14l.1-.07h.07l.12-.07H84a.17.17 0 0 1-.1 0 .24.24 0 0 1-.16-.08.26.26 0 0 1-.06-.2l.08-.05h.14a.2.2 0 0 1 .19.15.19.19 0 0 1 0 .13h.18a.28.28 0 0 1 .07.09.18.18 0 0 1 .07.05v.08a.18.18 0 0 1 .01.09zm.8 2.22h-.08a.14.14 0 0 1-.14-.15.22.22 0 0 1 .2-.24h.08l.06.09v.13zm.18 1.1l-.07-.07a.29.29 0 0 1 0-.29l.06-.05h.22a.06.06 0 0 1 .06.05v.1a.28.28 0 0 1 .06.08.06.06 0 0 1 0 .06v.11a.06.06 0 0 1-.06 0h-.08a1.09 1.09 0 0 1-.19.01zm.65 1.31A.18.18 0 0 1 86 22a.06.06 0 0 1-.06.06.2.2 0 0 1-.16-.07.22.22 0 0 1-.06-.15.2.2 0 0 1 .23-.2.07.07 0 0 1 .07.06v.05a.08.08 0 0 1 0 .05.06.06 0 0 1 .03.13zm.1-3.88a.1.1 0 0 1 0-.07l.08-.07h.06a.19.19 0 0 1 .08 0l.07.08v.11l-.07.07h-.09a.07.07 0 0 1-.06 0l-.06-.1a.08.08 0 0 1-.01-.02zm.48 3.82a.2.2 0 0 1-.22.2.06.06 0 0 1-.06-.06.18.18 0 0 1 0-.21.34.34 0 0 1-.06-.12.26.26 0 0 1 .14-.27h.07a.22.22 0 0 1 .21.23.24.24 0 0 1-.07.17.2.2 0 0 1-.01.06zm.24-2.6l-.07.07h-.05a.31.31 0 0 1-.25-.08.17.17 0 0 1 0-.13q-.18 0-.21-.21a.15.15 0 0 1 0-.09l.1-.07h.07a.24.24 0 0 1 .16.24h.18a.19.19 0 0 1 .19.22l-.12.05zm.66.74h-.1l-.07-.07v-.1l.07-.11a.26.26 0 0 1 .23-.18h.08v.2a.06.06 0 0 1 0 .06h-.06v.07l-.07.07zm.4 2a.2.2 0 0 1-.15.06.22.22 0 0 1-.15-.06.18.18 0 0 1 0-.16l.07-.06h.12l.11.07a.24.24 0 0 1 0 .2zm2.68-5.13l-.07.08h-.09a.25.25 0 0 1-.12 0l-.05-.07c0-.18.08-.25.18-.25a.19.19 0 0 1 .16.07.24.24 0 0 1-.01.22zm.51-.37a.43.43 0 0 1 0 .13l-.1.08h-.08l.08.07v.06a.23.23 0 0 1-.09.15h-.29a.27.27 0 0 1 .06-.11l.16-.06-.07-.1a.06.06 0 0 1 0-.07c.07-.17.17-.2.24-.2H91v.1a.06.06 0 0 1 .12 0zm.67 1.27a.18.18 0 0 1-.14-.11.32.32 0 0 1 .06-.27h.1a.2.2 0 0 1 .14.07l.07.09a.19.19 0 0 1-.23.27zM92 20.7a.07.07 0 0 1 0-.06.16.16 0 0 1 .07-.1l.09-.08a.14.14 0 0 1 .13.16s0 .15-.19.15h-.07zm.32 1.05a.16.16 0 0 1-.11.05.06.06 0 0 1-.06-.06s-.06-.07-.07-.09a.24.24 0 0 1 0-.09.07.07 0 0 1 .06-.07.22.22 0 0 1 .2.22.16.16 0 0 1-.06.04zm0-5.5a.07.07 0 0 1-.06-.07l-.06-.06a.07.07 0 0 1 0-.05.07.07 0 0 1 .06-.07.21.21 0 0 1 .13 0 .19.19 0 0 1 0 .13.18.18 0 0 1-.12.12zm1 5.67a.07.07 0 0 1-.07-.07.07.07 0 0 1 .07-.06.06.06 0 0 1 .06.06.07.07 0 0 1-.1.07zm1-3.73h-.08a.23.23 0 0 1-.18-.28l.09-.1a.21.21 0 0 1 .21.13.22.22 0 0 1-.13.25zm1 3.68l-.08.06H95l-.11-.07a.19.19 0 0 1 0-.19.19.19 0 0 1 .17-.07h.05l.09.08a.08.08 0 0 1 0 .07zm.7 0a.7.7 0 0 1-.49.24l-.25-.11c0-.29.29-.3.43-.3h.09a.06.06 0 0 1 .06 0l.06.11a.08.08 0 0 1-.01.02zm.98-1.21a.08.08 0 0 1 0 .05.28.28 0 0 1-.06.18.24.24 0 0 1-.17.06h-.06a.18.18 0 0 1-.15.07l-.08.11a.25.25 0 0 1-.12 0l-.1-.07a.27.27 0 0 1-.21.1h-.08l-.07-.07a.24.24 0 0 1 0-.21l.1-.05a.18.18 0 0 1 .08.07h.06c0-.05.07-.09.18-.11a.27.27 0 0 1 .24-.15h.09a.19.19 0 0 1 0-.18v-.05h.07a.19.19 0 0 1 .16.07.25.25 0 0 1 0 .21zm.07-2.85h-.06l-.06.06a.18.18 0 0 1-.14-.19.22.22 0 0 1 .2-.21.17.17 0 0 1 .16.14v.09a.05.05 0 0 1-.11.11zm.37 2.84h-.06l-.08-.05a.2.2 0 0 1 0-.15.19.19 0 0 1 .15-.07v.05s.14.22-.02.22zm.26-1a.29.29 0 0 1-.27.16.23.23 0 0 1-.14 0v-.06a.21.21 0 0 1 .14-.27l.07-.07a.18.18 0 0 1 .16.18s.05 0 .03.06zm.76-1l-.07.08h-.08a.31.31 0 0 1-.13 0l-.09-.09a.28.28 0 0 1 0-.25.22.22 0 0 1 .18-.08l.12.07a.45.45 0 0 1 0 .14.22.22 0 0 1 .06.16zm1.54-2.86a.07.07 0 0 1 0-.06l.12-.05h.15l.08.07v.05c0 .05 0 .19-.24.19h-.08l-.07-.07zm0 2.12h-.05l-.09-.09a.06.06 0 0 1 0-.07.23.23 0 0 1 .15-.12v-.05l.12-.06a.19.19 0 0 1 .18-.15.3.3 0 0 1 .17.08l.07.07v.13a.07.07 0 0 1 0 .06 2.24 2.24 0 0 1-.56.25zm.63 2.12l-.07.07h-.1l-.07-.07v-.09l.07-.11h.05a.25.25 0 0 1 .14 0l.07.09zm.52 1.67a.16.16 0 0 1-.13.06.21.21 0 0 1-.16-.07v-.1a.21.21 0 0 1 .21-.19l.11.07c.06.13.04.19.01.23zm1.55-5.1l-.06.06-.08.07a.19.19 0 0 1-.15-.19.21.21 0 0 1 .2-.18.17.17 0 0 1 .1 0v.09a.13.13 0 0 1 .03.15zm1.3 4.15a.22.22 0 0 1-.16.06h-.06a.2.2 0 0 1-.07-.22.25.25 0 0 1 .23-.15h.05l.07.07a.28.28 0 0 1-.06.24zm2-.87l-.07.07h-.09l-.07-.07v-.1l.07-.07h.09l.07.07zm2.2.14l-.08.07H108l-.1-.09a.19.19 0 0 1 0-.19.27.27 0 0 1 .17-.07l.08.09v.06a.29.29 0 0 1 .04.11zm1.32-2.65l-.07.07h-.12l-.07-.08a.13.13 0 0 1 0-.06.24.24 0 0 1 .22-.18.16.16 0 0 1 .11.05.24.24 0 0 1 .06.17.05.05 0 0 1-.14.03zm8.6 2.63a.18.18 0 0 1 .12.07.14.14 0 0 1 0 .07l.89.84a1 1 0 0 0 1.29.12 33.64 33.64 0 0 0 5.58-4.58.34.34 0 0 1-.29-.16.29.29 0 0 1 0-.32l.09-.05c.25 0 .37.14.37.34a33.53 33.53 0 0 0 3.83-4.67.19.19 0 0 1-.05-.21.2.2 0 0 1 .2-.14h.07a33.48 33.48 0 0 0 2.91-5.47.18.18 0 0 1-.08 0h-.11a.06.06 0 0 1-.06 0 .31.31 0 0 1 0-.28.19.19 0 0 1 .17-.08l.09.07a.35.35 0 0 1 0 .12l.09-.23h-.1l-.09-.09v-.1a.35.35 0 0 1 0-.29s0-.07.07-.07h.13a.07.07 0 0 1 .06 0 .37.37 0 0 1 .07.14l.3-.76A1 1 0 0 0 133 3l-4.7-1a1 1 0 0 0-1.19.68c-2 5.42-5.59 9.92-11 13.7A1 1 0 0 0 116 18zm12.74-12a.06.06 0 0 1 0 .07.06.06 0 0 1-.06 0v-.09a.09.09 0 0 1 0-.07.05.05 0 0 1 .05 0c-.02-.03.01.09.01.09zm-.33-3a.16.16 0 0 1 .15.1.21.21 0 0 1 0 .24l-.1.06a.26.26 0 0 1-.11-.07l-.07-.12a.06.06 0 0 1 0-.06.22.22 0 0 1 .13-.15zm-.74 2.6l.09-.08h.25a.08.08 0 0 1 0 .05.27.27 0 0 1 0 .09.33.33 0 0 1 0 .13.07.07 0 0 1-.07.07.13.13 0 0 1-.09 0h-.06s-.14 0-.15-.19a.14.14 0 0 1 .03-.04zm-1 2.05l.1-.07a.19.19 0 0 1 .08 0l.07.1a.19.19 0 0 1 0 .08l-.1.07h-.13l-.07-.1a.07.07 0 0 1 0-.05.19.19 0 0 1 .03 0zM127 5.4v-.05h.22l.07.07a.31.31 0 0 1-.05.17.25.25 0 0 1-.18.07l-.06-.05V5.4zm-.25 6.66v-.05h.05a.2.2 0 0 1 .14.07.33.33 0 0 1 0 .23l-.07.1h-.09a.17.17 0 0 1-.12 0l-.09-.07a.19.19 0 0 1 .22-.28zm-.09 2.68l.11-.05h.13l.07.09a.07.07 0 0 1 0 .06.18.18 0 0 1-.17.15.21.21 0 0 1-.13 0v-.19a.09.09 0 0 1 .03-.06zm-.54-1.94a.32.32 0 0 1 .14 0l.07.1a.21.21 0 0 1-.13.22l-.09.08h-.05a.18.18 0 0 1-.13-.11v-.05a.23.23 0 0 1 .23-.24zm-1.1-2a.06.06 0 0 1 .06.06v.06a.08.08 0 0 1 0 .09v.05a.05.05 0 0 1 0 .05h-.14a.19.19 0 0 1-.07-.14.22.22 0 0 1 .19-.21zm-.19 2.14h.09a.24.24 0 0 1 .17.07.22.22 0 0 1 .05.18l-.08.09a.21.21 0 0 1-.22-.25zm-.09 1.63a.25.25 0 0 1 .24-.17l.06.11a.06.06 0 0 1 0 .07v.07a.45.45 0 0 1-.05.19h-.12a.32.32 0 0 1-.09-.31zm-2.87 3.67h.09a.3.3 0 0 1 .12 0v.1a.14.14 0 0 1 .08.05.18.18 0 0 1 0 .15l-.07.1c-.13 0-.18-.08-.18-.15a.22.22 0 0 1-.1-.21zm-.37 0a.19.19 0 0 1 .15-.07l.08.07v.14l-.07.07h-.11l-.11-.07c.05-.04.06-.1.1-.14zm-.57.1a.26.26 0 0 1 .18.09v.07a.2.2 0 0 1-.2.22.27.27 0 0 1-.18-.07v-.11c.1-.18.19-.2.27-.2zm-1 1.84h.08a.23.23 0 0 1 0 .07.18.18 0 0 1 .09.07v.08c0 .14-.11.19-.18.19a.21.21 0 0 1-.16-.09.25.25 0 0 1 0-.22c.09-.08.16-.1.24-.1zm-.59-4.59a.2.2 0 0 1 .15-.06h.08l.06.06a.29.29 0 0 1 0 .26.17.17 0 0 1-.14.06h-.08l-.08-.08c-.02-.12-.01-.19.04-.24zm-.34 3.55l.07-.06h.09l.11.08a.23.23 0 0 1 0 .21l-.08.05a.26.26 0 0 1-.14-.08.26.26 0 0 1 0-.2.08.08 0 0 1-.05 0zm-.29-4.59h.09a.19.19 0 0 1 .17.21.19.19 0 0 1 0 .08l-.08.07a.2.2 0 0 1-.17-.12.24.24 0 0 1 .02-.24zm-.42 3.29a.21.21 0 0 1 .15.07v.07a.2.2 0 0 1-.2.22.23.23 0 0 1-.18-.08v-.11a.25.25 0 0 1 .26-.17zM67.59 3.82a4.75 4.75 0 0 0 1.25 4.32 4.9 4.9 0 0 0 4.33 1.33 1 1 0 0 0 .55-1.76l-.5-.5a1 1 0 0 0-.82-.3 2.09 2.09 0 0 1-1.67-.61 2.16 2.16 0 0 1-.6-1.67 1 1 0 0 0-.3-.81l-.49-.5a1 1 0 0 0-1.75.5zm5.06 3.8h.08c.02 0 .17.08.18.2l-.08.09a.16.16 0 0 1-.08 0l-.06-.07v-.11zm-2.58-.71l.1-.08a.18.18 0 0 1 .08 0l.07.1a.12.12 0 0 1 0 .09l-.1.07h-.08L70 7a.19.19 0 0 1 .07-.09zm-.62-.15l.08-.07h.07a.24.24 0 0 1 .26.25L69.8 7a.22.22 0 0 1-.11 0h-.2a.22.22 0 0 1-.04-.24zm-1.09-3.08h.06l.06.07v.13a.06.06 0 0 1 0 .06.25.25 0 0 1-.19.09.24.24 0 0 1-.13-.03v-.07a.21.21 0 0 1 .2-.25zM68 5.59a.23.23 0 0 1 .18.07.25.25 0 0 1 0 .21l-.09.1H68l-.07-.07v-.17l.08-.12zM36.66 31.76h-5.88a.73.73 0 0 1-.71-.6.17.17 0 0 1-.14-.12.23.23 0 0 1 .06-.26h.07v-1.6a.72.72 0 0 1 .72-.72h4.91a.73.73 0 0 0 .73-.73v-3.89a.73.73 0 0 0-.73-.72h-.41v.05l-.08.06h-3.79a.18.18 0 0 1 0 .16.19.19 0 0 1-.15.07.17.17 0 0 1-.15-.07v-.16h-.33a.73.73 0 0 1-.72-.73v-2a.73.73 0 0 0-.73-.73H25a.73.73 0 0 0-.73.73V31a.73.73 0 0 1-.72.73H18a.73.73 0 0 1-.73-.73v-2.41a.21.21 0 0 1-.17.08.28.28 0 0 1-.15 0l-.05-.07a.23.23 0 0 1 0-.19l.05-.07c-.14 0-.12-.2-.12-.26v-.05c0-.05 0 0 0 0l.07-.09h.05c.16 0 .24.1.25.31a.06.06 0 0 1 0 .05h.07V28a.72.72 0 0 0-.73-.73H11.2a.73.73 0 0 1-.73-.73v-2.6a.23.23 0 0 1-.11 0l-.06-.12c0-.14.08-.2.17-.2h.06V3h-.05a.16.16 0 0 1-.14-.16.14.14 0 0 1 0-.06V2.7a.06.06 0 0 1 0-.07.18.18 0 0 1 .16-.09V1.42a.73.73 0 0 0-.75-.73H7.09a.73.73 0 0 0-.73.73V3a.73.73 0 0 1-.72.73H2.73a.44.44 0 0 1-.25.09h-.06a.21.21 0 0 1 0-.06H2a.17.17 0 0 1-.14-.09h-1a.72.72 0 0 0-.66.73v3.42a.76.76 0 0 0 .1.37.7.7 0 0 0 .56.28h1l-.02.03a.3.3 0 0 1 0-.22L2 8.19a.21.21 0 0 1 .17.27l-.06.06h3.53a.72.72 0 0 1 .72.72v.12a.73.73 0 0 1-.72.73H1.75a.72.72 0 0 0-.75.61v5.05h.07v.09c0 .09 0 .13-.06.14v1.59c.07 0 .22.07.23.19a.16.16 0 0 1-.13.16.23.23 0 0 1 .12.06l.07.05v.09a.17.17 0 0 1-.07.14l-.1.08h.05a.13.13 0 0 1-.08-.05l-.05-.08v.31l.1.07v.12A.23.23 0 0 1 1 19v5.83a.73.73 0 0 0 .73.73h3.91a.73.73 0 0 1 .72.73v.27a.73.73 0 0 1-.72.73H.73A.73.73 0 0 0 0 28v3.45a.73.73 0 0 0 .73.73h4.91a.72.72 0 0 1 .72.72v1.94a.2.2 0 0 1 .11 0 .19.19 0 0 1 .1 0l.05.06a.22.22 0 0 1 0 .2.09.09 0 0 1 0 .05h-.1v2.06a.67.67 0 0 0 .06.28.72.72 0 0 0 .66.43h2.59a.23.23 0 0 1-.06-.16.27.27 0 0 1 .08-.19.27.27 0 0 1 .18-.07.07.07 0 0 1 .07.06h.09a.07.07 0 0 1 0 .06v.08a.7.7 0 0 0 .25-.55v-4.24a.73.73 0 0 1 .73-.72h1.39a.72.72 0 0 1 .72.72v3.54a.73.73 0 0 0 .73.73h4.65a.2.2 0 0 1 .11.06h17.89a.73.73 0 0 0 .73-.73v-4a.73.73 0 0 0-.73-.75zm-2.11-4.2l-.06.07a.22.22 0 0 1-.18-.27l.07-.06a.13.13 0 0 1 .1 0 .16.16 0 0 1 .07.26zm-.25-2a.21.21 0 0 1 .13.05v.08a.16.16 0 0 1-.11.16h-.12a.15.15 0 0 1-.14-.17.22.22 0 0 1 .24-.14zm-.53.91a.05.05 0 0 1 0-.05l.1-.06H34a.25.25 0 0 1 .16.25l-.07.06h-.19l-.07-.07zM.71 7.71l-.08.07H.5a.17.17 0 0 1-.13-.2.21.21 0 0 1 .2-.19h.08l.07.08v.16a.08.08 0 0 1-.01.08zm.08-2.95H.61l-.1-.07v-.1l.07-.11h.23a.22.22 0 0 1-.02.28zm.86 1.66a.07.07 0 0 1-.07-.06h-.1a.26.26 0 0 1 .05-.19h.05A.22.22 0 0 1 1.8 6a.24.24 0 0 1 .06.17.23.23 0 0 1-.21.25zm.27-1a.31.31 0 0 1 0 .17l-.08.07a.15.15 0 0 1-.09 0 .15.15 0 0 1 0 .11v.06l-.1.08h-.19a.27.27 0 0 1-.17-.3l.09-.1h.19v-.09a.22.22 0 0 1 .21-.24h.06v.08a.16.16 0 0 0 .08.14zm.52-.54L2.38 5h-.11a.33.33 0 0 1-.19-.06v-.05L2 4.84h-.15a.07.07 0 0 1 0-.05.29.29 0 0 1 0-.18h.07a.29.29 0 0 1 .19.06h.12a.14.14 0 0 1 .12.07.17.17 0 0 1 0 .17s.1-.07.09-.05zm0-.43a.15.15 0 0 1-.12.05.07.07 0 0 1-.07-.06v-.05a.07.07 0 0 1 .07-.06.19.19 0 0 1 .17.2.17.17 0 0 1-.02-.1zM4 5l-.08.1h-.1a.33.33 0 0 1-.19-.06v-.08a.24.24 0 0 1 .05-.23.22.22 0 0 1 .19-.09h.08A.33.33 0 0 1 4 5zm.64-.87l-.09.09h-.16l-.07-.07V4a.07.07 0 0 1 0-.06h.12a.21.21 0 0 1 .21.06.22.22 0 0 1 .01.13zm.54 3.4l-.09.07h-.04L5 7.57l-.07-.1a.12.12 0 0 1 .05-.08L5 7.27h.08l.07.09a.13.13 0 0 1 0 .06.16.16 0 0 1 .05.11zm-3 20h.12a.25.25 0 0 1 .2.26v.08a.27.27 0 0 1-.18.07h-.08a.24.24 0 0 1-.02-.38zM1.64 30l-.09.07a.15.15 0 0 1-.18-.07.22.22 0 0 1 0-.23l.09-.07a.17.17 0 0 1 .17.08.23.23 0 0 1 .01.22zm.48.85a.25.25 0 0 1-.11.08h-.14a.18.18 0 0 1-.11-.1.23.23 0 0 1 0-.19.15.15 0 0 1 0-.07l.11-.07H2a.26.26 0 0 1 .15.25zm.42-1.42a.11.11 0 0 0 0 .06l-.09.09H2.2a.33.33 0 0 1-.07-.13l-.08-.07v-.22a.2.2 0 0 1 .15-.06.24.24 0 0 1 .13 0h.06c.22.02.24.14.15.31zm1.3-.14h-.16a.06.06 0 0 1-.05 0 .34.34 0 0 0-.12-.09.77.77 0 0 1-.17-.11V29a.2.2 0 0 1 .17-.21l.07-.08h.08a.22.22 0 0 1 .13 0l.09.08a.23.23 0 0 1 0 .2.24.24 0 0 1 .06.1.23.23 0 0 1-.1.18zm1-1.5a.23.23 0 0 1-.18-.28l.09-.1h.1a.19.19 0 0 1 .2.27l-.08.05zm.19 2.45H5v-.1a.13.13 0 0 1 0-.06.33.33 0 0 1 0-.08l.08-.07a.17.17 0 0 1 .16.19.2.2 0 0 1-.18.1zm1.25.41l-.08.09h-.11a.2.2 0 0 1-.16-.1.08.08 0 0 1 0-.05.18.18 0 0 1 .2-.14h.06a.19.19 0 0 1 .18.2s-.05-.04-.06-.02zM10.2 9h.06l.09.05a.22.22 0 0 1 0 .18.17.17 0 0 1-.29-.07.2.2 0 0 1 .14-.16zm-.1 5.22h.18l.06.1a.09.09 0 0 1 0 .07.26.26 0 0 1-.23.15L10 14.5v-.09l.07-.07zm-.61-9.06a.17.17 0 0 1 .16.19.24.24 0 0 1-.24.2l-.11-.06a.19.19 0 0 1 .07-.26l.08-.06zm-.15 15.78a.17.17 0 0 1-.19.14.1.1 0 0 1-.07 0L9 21v-.06a.29.29 0 0 1 .07-.1l.1-.07a.17.17 0 0 1 .13.16s.04 0 .04.01zm0-4.42a.07.07 0 0 1-.07-.06.12.12 0 0 1-.05-.05v-.05a.05.05 0 0 1 .06-.06.16.16 0 0 1 .12 0 .21.21 0 0 1 .05.13.16.16 0 0 1-.14.09zm-.09-8.06c-.13 0-.2-.14-.2-.25a.24.24 0 0 1 0-.14.23.23 0 0 1 .19-.07.06.06 0 0 1 .06.06.2.2 0 0 1 0 .11v.05a.06.06 0 0 1-.05.24zm.06-1a.28.28 0 0 1-.05-.21l.08-.1h.07a.2.2 0 0 1 .15.06.25.25 0 0 1 .06.21l-.08.1h-.07a.22.22 0 0 1-.16-.03zm-.09-6.13a.22.22 0 0 1 .13 0l.05.08v.09l-.07.11a.16.16 0 0 1-.11 0l-.08-.11v-.05a.17.17 0 0 1 .08-.12zM9 6.94s0-.08.06-.08h.12a.21.21 0 0 1 .18.1.19.19 0 0 1 0 .13.08.08 0 0 1-.05 0l-.09.08h-.11A.18.18 0 0 1 9 7.12a.23.23 0 0 1 0-.18zm0 3.86h.06l.07.08v.05a.19.19 0 0 1-.19.18.21.21 0 0 1-.15-.07v-.1c.05-.12.13-.14.21-.14zm-.32 7h.09c.09 0 .13.05.14.07l.09.03a.07.07 0 0 1 0 .1.16.16 0 0 1-.14.15.16.16 0 0 1-.14-.11.3.3 0 0 1-.07-.26zm-.28 4.56v-.05a.06.06 0 0 1 .05 0 .2.2 0 0 1 .14.05.2.2 0 0 1 .06.15.19.19 0 0 1-.2.19.07.07 0 0 1-.07-.06zm-.89-13a.07.07 0 0 1 .06-.07.17.17 0 0 1 .17.18.18.18 0 0 1-.06.14.17.17 0 0 1-.12 0 .06.06 0 0 1-.06-.06.14.14 0 0 1 .01-.17zm-.12 5.74a.21.21 0 0 1 .22.21.21.21 0 0 1 0 .13.2.2 0 0 1-.15.06.06.06 0 0 1-.06-.06.2.2 0 0 1 0-.16.06.06 0 0 1 0-.06zm.22-1.32h-.05c-.1 0-.2-.09-.18-.27l.08-.1h.09a.17.17 0 0 1 .14.06.17.17 0 0 1 0 .15.05.05 0 0 1 0 .05zm-1.45-3.23l.1-.09h.22l.09.1a.19.19 0 0 1-.08.2.22.22 0 0 1-.18.14l-.09-.07a.09.09 0 0 1 0-.06.15.15 0 0 1-.06-.22zm-1.82 9.51l.07-.06a.23.23 0 0 1 .22-.17h.08v.2a.07.07 0 0 1 0 .05v.12l-.07.07h-.22l-.07-.07a.09.09 0 0 1 0-.05zM3 22v.11a.19.19 0 0 1-.07.08.07.07 0 0 1-.07.07.23.23 0 0 1-.15-.07.21.21 0 0 1-.07-.16c0-.1.07-.2.24-.2A.07.07 0 0 1 3 22zm-.74-2.2a.11.11 0 0 1-.08 0 .15.15 0 0 1-.18-.11.21.21 0 0 1 .2-.23h.08l.07.09v.13zm.33-7c0-.16.11-.18.16-.18h.14l.07.07c0 .2-.14.21-.17.21a.26.26 0 0 1-.16-.07zm.28 11.91a.23.23 0 0 1-.16-.07v-.07a.2.2 0 0 1 .23-.22H3l.06.07v.05a.23.23 0 0 1-.19.27zm.32-6.42a.11.11 0 0 1 0-.06l.09-.07a.13.13 0 0 1 .08 0l.07.07a.08.08 0 0 1 0 .05v.06l-.07.07H3.3a.09.09 0 0 1-.06 0l-.05-.11a.09.09 0 0 1 0 .02zm.48 3.82a.21.21 0 0 1-.22.21.07.07 0 0 1-.07-.07.18.18 0 0 1 0-.22.2.2 0 0 1-.06-.12.24.24 0 0 1 .14-.27h.07a.22.22 0 0 1 .21.23.23.23 0 0 1-.08.18.16.16 0 0 1 .01.09zm.24-2.59l-.07.07a.3.3 0 0 1-.25-.09.2.2 0 0 1-.05-.13c-.11 0-.18-.07-.2-.2s0-.08 0-.09l.1-.08H3.4a.25.25 0 0 1 .16.25h.17a.2.2 0 0 1 .2.21s-.01.07-.02.09zm.34 3.53c-.06 0-.15 0-.15-.19v-.06l.06-.08a.18.18 0 0 1 .15.06.24.24 0 0 1 .05.15l-.07.1zm.4 1.06l-.1.07a.12.12 0 0 1-.08 0l-.07-.1v-.05a.56.56 0 0 1 0-.08l.1-.07h.08l.07.1v.05a.19.19 0 0 1 0 .11zm0-.64a.24.24 0 0 1-.13 0v-.12a.16.16 0 0 1 .09-.13.07.07 0 0 1 0-.05.18.18 0 0 1-.04-.17.14.14 0 0 1 .09 0l.06.08v.1a.14.14 0 0 1 0 .1.14.14 0 0 1-.07.22zM5 22.33a.21.21 0 0 1-.14.07.21.21 0 0 1-.15-.07.23.23 0 0 1-.06-.16l.07-.07h.17l.11.07v.16zm1.72-1.59a.73.73 0 0 1-.73.73h-.31a.73.73 0 0 1-.68-.73v-.31a.72.72 0 0 1 .73-.73H6a.73.73 0 0 1 .73.73zm0-5.62a.73.73 0 0 1-.73.73h-.31a.73.73 0 0 1-.68-.73v-.31a.73.73 0 0 1 .73-.73H6a.73.73 0 0 1 .73.73zm0-7.94a.23.23 0 0 1-.21.09h-.07a.26.26 0 0 1 0-.35h.23c.07.13.06.21.01.26zm.05-.31a.26.26 0 0 1-.09 0l-.07-.1a.13.13 0 0 1 0-.06.25.25 0 0 1 0-.07l.09-.07h.14l.07.1a.19.19 0 0 1 0 .08l-.1.07zm.35 18.56L7 25.5h-.1l-.11-.07a.2.2 0 0 1 0-.19.22.22 0 0 1 .21-.06l.08.09v.05a.19.19 0 0 1 0 .11zm0-18.23L7 7.23a.23.23 0 0 1-.1-.2.14.14 0 0 1 0-.09l.06-.11a.06.06 0 0 1 .06 0 .2.2 0 0 1 .19.13.28.28 0 0 1-.12.24zm.09 4.53c0-.08.05-.13.08-.17l.12-.13a.26.26 0 0 1 .25.26.22.22 0 0 1 0 .08.07.07 0 0 1 0 .05h-.41a.17.17 0 0 1-.07-.09zm.46 5.47l-.07.08h-.08a.25.25 0 0 1-.12 0l-.05-.06c0-.18.09-.26.19-.26a.2.2 0 0 1 .15.07.22.22 0 0 1-.05.17zm.15.16l-.07-.09a.13.13 0 0 1 0-.06.17.17 0 0 1 .07-.1l.06-.11-.07-.11a.09.09 0 0 1 0-.07c.07-.16.16-.19.23-.19h.07l.05.1v.06a.26.26 0 0 1 0 .13L8 17v.08-.05l.09.08v.06a.22.22 0 0 1-.1.15h-.15a.05.05 0 0 1-.05.04zm.08 5.54v-.07l.1-.06a.21.21 0 0 1 .18.13.27.27 0 0 1-.06.26H8a.18.18 0 0 1-.14-.09.19.19 0 0 1 .01-.17zm0 .72v-.09l.1-.11h.1a.06.06 0 0 1 .05 0l.07.07v.09a.07.07 0 0 1 0 .05l-.07.07H8l-.07-.07a.08.08 0 0 1-.06-.01zm.37 1.92c0 .13-.09.19-.18.19H8l-.08-.07a.22.22 0 0 1 0-.22H8a.21.21 0 0 1 0-.2.2.2 0 0 1 .15-.06.2.2 0 0 1 .16.07v.07a.2.2 0 0 1-.1.18zm.73-.09l-.07.07a.14.14 0 0 1-.11.05h-.07c-.07-.15.08-.32.1-.34h-.17a.18.18 0 0 1-.12-.07.16.16 0 0 1-.1 0c-.06 0-.15 0-.15-.19a.1.1 0 0 1 0-.07l.07-.07h.13a.27.27 0 0 1 .06-.1.31.31 0 0 1 .22-.08h.05l.08.1v.06a.68.68 0 0 0-.05.23h.09a.19.19 0 0 1 .16.22.12.12 0 0 1-.12.19zm.11-1.58a.16.16 0 0 1-.13.06.17.17 0 0 1-.16-.13.2.2 0 0 1 .18-.21h.09a.22.22 0 0 1 .03.28zm0-1.82a.16.16 0 0 1-.06-.09.12.12 0 0 1 0-.1.07.07 0 0 1 .07-.07.23.23 0 0 1 .2.22.17.17 0 0 1 0 .12.15.15 0 0 1-.11 0s-.04-.06-.05-.08zm.31 3.6a.18.18 0 0 1-.13.06.07.07 0 0 1-.07-.07.06.06 0 0 1 0-.06c0-.06 0-.14.06-.17s0-.07.06-.07a.19.19 0 0 1 .18.2.19.19 0 0 1-.05.11zm.22-15.44l-.07.06h-.15l-.07-.07v-.09l.02-.11h.06a.25.25 0 0 1 .19.07.2.2 0 0 1 .05.17.05.05 0 0 1 .02-.03zm.16-5h-.01l-.11-.07v-.18a.19.19 0 0 1 .17-.07h.05L10 5v.06a.19.19 0 0 1 0 .08l-.08.07zm.2 18.84a.31.31 0 0 1 0-.21l.07-.05a.19.19 0 0 1 .21.19.19.19 0 0 1-.2.19H10zm.49 10.62l-.08.08h-.06a.24.24 0 0 1-.2-.1v-.12a.21.21 0 0 1 0-.12l.08-.07h.15l.07.09a.17.17 0 0 1-.01.24zm1.8-5.55a.16.16 0 0 1-.16-.18.18.18 0 0 1 .17-.19.17.17 0 0 1 .1 0l.05.09v.09a.08.08 0 0 1-.21.19zM13 28h-.13a.18.18 0 0 1-.13-.19.28.28 0 0 1 .24-.19h.09v.06a.12.12 0 0 1 0 .14l-.09.07zm.4 3a.2.2 0 0 1-.16.07.3.3 0 0 1-.13 0l-.07-.09a.26.26 0 0 1 .23-.29h.07l.08.05a.05.05 0 0 1 0 .05.26.26 0 0 1-.01.14zm1.93 0a.31.31 0 0 1 .06-.26.29.29 0 0 1 .21-.08h.05a.21.21 0 0 1 0 .25.31.31 0 0 1-.27.17zm.39 1.68a.19.19 0 0 1-.09 0 .25.25 0 0 1-.12 0l-.05-.1a.06.06 0 0 1 0-.06.24.24 0 0 1 .2-.12.16.16 0 0 1 .13.06.19.19 0 0 1 .05.17zm.62-2.88l-.09.09h-.15a.2.2 0 0 1-.14-.06.13.13 0 0 1 0-.06.07.07 0 0 1 0 .05.16.16 0 0 1-.16.13.2.2 0 0 1-.1 0 .21.21 0 0 1 0 .06.18.18 0 0 1-.15.06h-.06a.24.24 0 0 1 0-.35h.13a.29.29 0 0 1 .22-.1.2.2 0 0 1 .14.05v.08a.16.16 0 0 1 0-.07.22.22 0 0 1 .34 0 .21.21 0 0 1 .03.06zm.27 2.45h-.05l-.06-.06V32a.07.07 0 0 1 0-.06h.19l.08.08v.06a.2.2 0 0 1-.15.11zm.64-.11l-.07.11a.05.05 0 0 1-.05 0 .16.16 0 0 1-.13-.06.2.2 0 0 1 0-.19v-.07l.06-.09a.21.21 0 0 1 .1-.11h.06a.17.17 0 0 1 .15.16.06.06 0 0 1 0 .05.15.15 0 0 1-.11.14zm.61.2a.11.11 0 0 1 0 .06l-.05.07h-.09a.2.2 0 0 1-.16-.09l-.06-.06a.21.21 0 0 1 .19-.27h.12a.21.21 0 0 1 .06.23zm1.94 3.61h-.11a.18.18 0 0 1-.12-.2.23.23 0 0 1 .22-.16h.11l.06.07a.18.18 0 0 1-.15.23zm.42-2.55a.23.23 0 0 1-.11 0v-.09a.06.06 0 0 1 0-.05.16.16 0 0 1 .15-.13h.05a.23.23 0 0 1 .14.25.2.2 0 0 1-.22-.04zm.95 2.33l-.08.05c-.1 0-.2-.09-.18-.27l.07-.06h.14l.11.07c0 .07-.03.12-.05.15zm.63-2.77l-.07.07h-.12l-.11-.08a.27.27 0 0 1 0-.25.25.25 0 0 1 .18-.07h.05l.06.07v.16a.08.08 0 0 1 .02.04zm.54 1.19a.32.32 0 0 1-.15 0 .29.29 0 0 1-.2-.09.12.12 0 0 1-.07 0l-.07-.11v-.07a.33.33 0 0 1 .22-.12h.19a.53.53 0 0 1 0 .17V34zm.66 1.39a.16.16 0 0 1-.11 0l-.12-.07a.06.06 0 0 1 0-.06v-.11h.11a.23.23 0 0 1 .14.13l.06.05a.07.07 0 0 1 0 .07.15.15 0 0 1-.08-.01zm.68-.4h-.19a.09.09 0 0 1-.07-.05.28.28 0 0 0 0-.13.72.72 0 0 1-.08-.3l.07-.07-.07-.1a.19.19 0 0 1 0-.08l.1-.07h.13l.08.1a.07.07 0 0 1 0 .05.19.19 0 0 1 0 .08l-.09.06.07.07a.17.17 0 0 1 0 .1v.06a.67.67 0 0 0 .07.18.07.07 0 0 1-.06.1zm.29-.07a.23.23 0 0 1-.17-.07v-.07c0-.14.07-.19.14-.19a.13.13 0 0 1 .1 0l.12.09a.08.08 0 0 1 0 .07.18.18 0 0 1-.23.17zm5-11.73a.22.22 0 0 1 .16-.07h.1l.09.08a.14.14 0 0 1 0 .06.21.21 0 0 1-.23.18l-.09-.06a.2.2 0 0 1-.07-.19zm-.33-.34l.1.05a.2.2 0 0 1 0 .19.16.16 0 0 1-.12.08.05.05 0 0 1-.05 0 .18.18 0 0 1-.16-.19.24.24 0 0 1 .23-.13zM26 30.34l-.07.07h-.17l-.07-.07v-.09l.07-.07a.27.27 0 0 1 .21.07.2.2 0 0 1 .03.09zm-1.27 1.53a.13.13 0 0 1-.08 0 .07.07 0 0 1-.06 0 .18.18 0 0 1-.11-.18.21.21 0 0 1 .2-.16.18.18 0 0 1 .17.13.16.16 0 0 1-.08.21zm.12-2.75l-.11.07h-.05a.19.19 0 0 1-.14-.12.2.2 0 0 1 0-.18h.07a.18.18 0 0 1 .17.08.23.23 0 0 1 .1.15zm.34-8.83l-.08.07H25l-.1-.07v-.19a.19.19 0 0 1 .17-.07h.05l.09.08a.08.08 0 0 1 0 .07.21.21 0 0 1 .02.11zm.09 8.71v-.08l.1-.07h.06l.07-.07a.06.06 0 0 1 .05 0h.09a.05.05 0 0 1 .05 0l.07.09a.26.26 0 0 1 0 .15.1.1 0 0 1 0 .05l-.11.05h-.06l-.05.1h-.1a.17.17 0 0 1-.12-.05.22.22 0 0 1-.05-.17zm.15 2.6a.22.22 0 0 1 .21-.19h.12a.25.25 0 0 1 .06.22l-.07.07h-.15a.07.07 0 0 1-.06 0 .16.16 0 0 1-.11-.15zm.46 5.56h-.08a.15.15 0 0 1-.06.05h-.07a.18.18 0 0 1-.14-.16.06.06 0 0 1 0-.06.16.16 0 0 1 .15-.11.19.19 0 0 1 .14.07.21.21 0 0 1 .11 0 .25.25 0 0 1 .15.06v.1a.19.19 0 0 1-.2 0zm.87-3.9l-.1.07h-.05a.19.19 0 0 1-.08 0l-.07-.1a.12.12 0 0 1 .04-.23l.09-.07a.12.12 0 0 1 .08 0l.08.11v.05a.19.19 0 0 1 .01.12zm.39-13.06a.3.3 0 0 1 0 .1l-.07.08c-.19 0-.21-.2-.21-.26V20a.07.07 0 0 1 0-.05l.05-.1a.21.21 0 0 1 .17.06.33.33 0 0 1 .06.24zm.65-.2a.08.08 0 0 1 0-.05v-.09l.07-.11a.25.25 0 0 1 .14 0l.07.08.06.07v.1a.06.06 0 0 1 0 .05l-.07.07h-.05a.24.24 0 0 1-.11 0l-.12-.1a.05.05 0 0 1 .01-.02zm.2 2.34l-.05-.09a.3.3 0 0 1 .23-.26.07.07 0 0 1 .06 0v.12a.11.11 0 0 1 0 .06c0 .19-.13.21-.19.21zm.28 12.49h-.09l-.07-.11v-.06a.21.21 0 0 1 .19-.12.2.2 0 0 1 .14.06v.09a.17.17 0 0 1-.22.14zm.65-7.25h-.24c-.06 0-.37 0-.37-.35a.05.05 0 0 1 0-.05l.09-.07h.06a.19.19 0 0 1 0-.15.21.21 0 0 1 .18-.11.24.24 0 0 1 .16.07.22.22 0 0 1 .05.18.32.32 0 0 1 0 .45zm.33 9.07a.19.19 0 0 1-.23 0 .23.23 0 0 1 0-.19.12.12 0 0 1 0-.08l.07-.08a.2.2 0 0 1 .18.15.76.76 0 0 1 0 .15zm-.07-11.88h-.05a.27.27 0 0 1-.14-.27h-.09l-.07-.06a.06.06 0 0 1 0-.05.18.18 0 0 1 0-.16.26.26 0 0 1 .17-.07.2.2 0 0 1 .15.06.27.27 0 0 1 .05.16.21.21 0 0 1 .2.2.23.23 0 0 1-.27.19zm2.06 7.71h-.17c-.05 0-.14 0-.14-.19v-.06l.05-.08H31a.25.25 0 0 1 .25.14.19.19 0 0 1-.05.19zm1.68-.25h-.09a.21.21 0 0 1-.22-.24l.09-.06c.22 0 .24.17.23.24zM46 35a45.11 45.11 0 0 0 4.4-8.74v-.13a.2.2 0 0 1 .12-.1 92.47 92.47 0 0 0 4.71-19.2 1.05 1.05 0 0 0-.85-1.18l-4.8-.88a1 1 0 0 0-1.22.93A61.77 61.77 0 0 1 46 17.47a.23.23 0 0 1 .17.24.24.24 0 0 1 0 .12.16.16 0 0 1-.15.09.07.07 0 0 1-.07-.07q-.31 1-.66 2a.23.23 0 0 1 .14 0h.05l.1.09v.17l-.07.07h-.17l-.11-.07A48.84 48.84 0 0 1 40 30.8a1 1 0 0 0 .26 1.43l4.34 3A1 1 0 0 0 46 35zm-3.2-3.58a.16.16 0 0 1 0 .11.17.17 0 0 1-.12 0 .07.07 0 0 1-.06-.07.13.13 0 0 1-.06-.09.12.12 0 0 1 0-.1.07.07 0 0 1 .07-.06.22.22 0 0 1 .17.21zm-.35-2.74a.15.15 0 0 1 .12-.07.07.07 0 0 1 .07.07.14.14 0 0 1 0 .06.11.11 0 0 1 0 .05v.07a.06.06 0 0 1-.06.06.27.27 0 0 1-.23-.24zm.17 3.41a.22.22 0 0 0-.22 0h-.06l-.06-.09-.11-.06a.19.19 0 0 1 .06-.26l.09-.06h.29a.43.43 0 0 1 0 .11.17.17 0 0 1 .06.06.21.21 0 0 1 0 .18.17.17 0 0 1-.05.12zm.46.8a.14.14 0 0 1 0 .11l-.12.08a.28.28 0 0 1 0-.39h.12a.17.17 0 0 1 0 .2zm.18-5l-.07.11a.17.17 0 0 1-.19 0l-.07-.08v-.06a.08.08 0 0 1 0-.05l.07-.07h.09l.07.07v.05zm.52-3.06v-.05a.67.67 0 0 1 0-.07l.11-.08H44a.14.14 0 0 1 .07 0l.08.1a.09.09 0 0 1 0 .05.19.19 0 0 1 0 .08L44 25a.18.18 0 0 1-.08-.05zm1 8.33l-.08.07a.2.2 0 0 1-.17-.12.24.24 0 0 1 .06-.23h.09c.13 0 .17.09.17.21a.24.24 0 0 1-.1.11zm.12-1.42a.13.13 0 0 0 0 .06l-.07.08h-.11a.21.21 0 0 1-.18-.09h-.08a.26.26 0 0 1-.14-.05h-.05a.59.59 0 0 1-.19-.22.06.06 0 0 1 0-.06l.06-.09a.09.09 0 0 1 .06 0 .24.24 0 0 1-.11 0l-.05-.08v-.05a.2.2 0 0 1 .22-.18h.05l.1.09v.13l-.07.11h.07a.25.25 0 0 1 .13 0 .09.09 0 0 1 .07 0l.09.06h.05a.2.2 0 0 1 .1-.07H45l.07.07a.17.17 0 0 1 0 .05.24.24 0 0 1-.2.28zm1-3a.17.17 0 0 1-.09-.05l-.07-.09a.13.13 0 0 1 0-.06l.05-.08.1-.07a.19.19 0 0 1 .08 0l.07.09a.11.11 0 0 1 0 .05.19.19 0 0 1 0 .09l-.1.07h-.04zm.45 1.31h-.05c-.13 0-.2-.11-.19-.29a.24.24 0 0 1 0-.08h-.09a.27.27 0 0 1-.07-.2l.07-.1a.16.16 0 0 1 .12 0h.08v.14a.21.21 0 0 1-.09.11v.06a.18.18 0 0 1 .14.16h.06a.14.14 0 0 1 0 .06.18.18 0 0 1 .02.17zm1-11.43a.15.15 0 0 1 0 .1l-.12.06a.29.29 0 0 1-.1-.22.2.2 0 0 1 .07-.16h.09a.23.23 0 0 1 .17.09.24.24 0 0 1-.1.16zm2.11 2.7h-.1a.22.22 0 0 1-.13-.1.16.16 0 0 1 0-.14.1.1 0 0 1 0-.08l.11-.05h.06a.23.23 0 0 1 .12.17.23.23 0 0 1-.05.23zm.14-9l-.07.08h-.06l-.07-.07v-.12l.06-.11a.22.22 0 0 1 .1 0 .14.14 0 0 1 .12.06.19.19 0 0 1 .05.17.14.14 0 0 1-.12.04zm.46 2.35h-.08l-.08-.07a.08.08 0 0 1 0-.05v-.06l.06-.05a.26.26 0 0 1 .11.07l.07.1v.05a.18.18 0 0 1-.07.06zm4.71-7.57h.09l.07.1a.27.27 0 0 1-.09.21h-.14a.18.18 0 0 1-.11-.21.23.23 0 0 1 .19-.05zm-.47 3.34a.18.18 0 0 1 .15.07.19.19 0 0 1 .06.16l-.07.07a.25.25 0 0 1-.12 0l-.11-.09v-.05a.18.18 0 0 1 .1-.11zm-.73 1.45a.07.07 0 0 1 .07.06.07.07 0 0 1-.07.07.07.07 0 0 1-.06-.07.06.06 0 0 1 .07-.01zm-1.14-1.3a.06.06 0 0 1 .06-.06.19.19 0 0 1 .18.2.17.17 0 0 1 0 .12.18.18 0 0 1-.12.05.07.07 0 0 1-.07-.06.09.09 0 0 1 0-.05zm-.82-5.07a.26.26 0 0 1 .24-.17l.1.07v.23a.21.21 0 0 1-.17.08.25.25 0 0 1-.17-.06v-.12s.01.03.01.02zM51.06 17l.06-.07h.09a.18.18 0 0 1 .16.09l.06.11a.06.06 0 0 1 0 .06.24.24 0 0 1-.21.13.22.22 0 0 1-.16-.07v-.05a.25.25 0 0 1 0-.2zm0 3.6a.19.19 0 0 1 .15-.06l.08.07v.15l-.07.07h-.07l-.15.03v-.23zm-.4-4.93a.14.14 0 0 1 .12.06.2.2 0 0 1 0 .17.24.24 0 0 1 0 .08l-.08.07h-.05a.14.14 0 0 1 0 .06.16.16 0 0 1 0 .12.25.25 0 0 1 .16-.05h.08l.06.06a.27.27 0 0 1 0 .25.24.24 0 0 1-.16.07h-.05a.22.22 0 0 1 0-.17h-.22a.21.21 0 0 1-.06-.18.08.08 0 0 1 0-.08.17.17 0 0 1 .12 0 .31.31 0 0 1 0-.14l.06-.09zm-.5-10.49s0-.07.07-.07h.13a.05.05 0 0 1 .05 0 .41.41 0 0 1 .08.23.16.16 0 0 1 0 .1.2.2 0 0 1-.21.17h-.07l-.09-.09v.01a.29.29 0 0 1 .01-.32zm-.22.61a.21.21 0 0 1 .17-.08h.05l.09.06c.07.21 0 .3-.07.33a.09.09 0 0 1-.08.05h-.12a.06.06 0 0 1-.06-.06.35.35 0 0 1-.01-.27zm0 5.8a.25.25 0 0 1 .12 0h.05v.09a.07.07 0 0 1 0 .05.21.21 0 0 1-.07.1l-.1.08a.18.18 0 0 1-.14-.08.25.25 0 0 1 0-.2l.07-.09zm-.63-2.9l.1-.05a.33.33 0 0 1 .12.05.31.31 0 0 1 .13-.08h.08a.16.16 0 0 1 .11.13.16.16 0 0 1-.08.15.24.24 0 0 1 .06.21l-.11.05h-.06V9.1h-.36a.05.05 0 0 1-.06 0v-.06a.49.49 0 0 1-.01-.32zM49 26.52a.2.2 0 0 1 .19.13.28.28 0 0 1-.05.29h-.1a.19.19 0 0 1-.13-.23.09.09 0 0 1 0-.07zm-.4-13.75l.07-.09a.23.23 0 0 1 .14.07.28.28 0 0 1 .05.23l-.08.06h-.05a.22.22 0 0 1-.14-.12.17.17 0 0 1 0-.15zm-.28 1.64v-.05h.08c.13 0 .18.08.17.14s0 0 0 .05a.2.2 0 0 1-.22.18h-.05l-.1-.08a.3.3 0 0 1 .11-.24zm-.49-2.49l.09-.09h.05c.13.06.2.15.17.24l-.1.1s-.13 0-.21-.18a.07.07 0 0 1-.01-.07zm0 .37h.05l.09.06c.05.11 0 .17 0 .2a.18.18 0 0 1-.15.07h-.08l-.08-.08a.2.2 0 0 1 .14-.25zm-.6 5.2a.23.23 0 0 1 .18.08v.11a.25.25 0 0 1-.22.17.2.2 0 0 1-.16-.07v-.07a.2.2 0 0 1 .17-.22zm-1 7.7a.19.19 0 0 1 .16-.07h.06a.1.1 0 0 1 .05 0v.09a.06.06 0 0 1 0 .06.22.22 0 0 1 0 .17.21.21 0 0 1-.18.06h-.06l-.07-.07a.27.27 0 0 1 .06-.24zm-.07-3.38a.34.34 0 0 1 0 .13v.07h-.14a.16.16 0 0 1-.12.08h-.06a.19.19 0 0 1-.12-.28.06.06 0 0 0 0-.07.06.06 0 0 1 0-.06l.06-.09h.07a.5.5 0 0 1 .29.09zm-.36-2.28a.27.27 0 0 1 .13 0v.17a.06.06 0 0 1 0 .06l-.1.05h-.07v-.05h-.05l-.07-.09v-.06a.19.19 0 0 1 .18-.08zm-.12.37a.15.15 0 0 1 .13.07l.11.07a.09.09 0 0 1 0 .06.21.21 0 0 1-.23.19h-.05l-.06-.07a.07.07 0 0 1 0-.05.11.11 0 0 1 0-.05.16.16 0 0 1 .12-.22zm.07 14.34a.24.24 0 0 1-.16.07.25.25 0 0 1-.19-.09.22.22 0 0 1 0-.21h.16v.07-.06h.05l.08.06a.23.23 0 0 1 .08.16zm28.94-28.5l.5.49a1 1 0 0 0 1.75-.5 3.11 3.11 0 0 0 0-.32l-.08-.06v-.17l.14-.12V5a4.68 4.68 0 0 0 0-1.14h-.06l-.11-.07a.16.16 0 0 1 0-.19.11.11 0 0 1 .09-.05A4.83 4.83 0 0 0 76 1.83v.07a.23.23 0 0 1-.18-.13.26.26 0 0 1 0-.24l-.15-.17A4.86 4.86 0 0 0 71.34.08a1 1 0 0 0-.54 1.76l.49.5a1.05 1.05 0 0 0 .82.3 2.11 2.11 0 0 1 1.68.61 2.15 2.15 0 0 1 .61 1.67 1.08 1.08 0 0 0 .29.82zm1.33 0h.12a.38.38 0 0 1 .14.34.21.21 0 0 1-.17.16l-.09-.06A.15.15 0 0 0 76 6a.55.55 0 0 1 0-.26zM71 .94a.22.22 0 0 1-.16.06l-.09-.09V.77l.07-.07H71l.08.06a.25.25 0 0 1-.08.18zM1 18h.06zm122.46 19.09a46.73 46.73 0 0 0 7.06-2.59.15.15 0 0 1 .14-.09.12.12 0 0 1 .08 0c9.4-4.49 14.15-11.78 16.19-24a1 1 0 0 0-.37-1l-3.44-2.8a1.06 1.06 0 0 0-.66-.23h-6.81a1 1 0 0 0-.94.61 36.19 36.19 0 0 1-2 3.72 1 1 0 0 0 .88 1.6h3.72a.32.32 0 0 1 0-.17v-.07a.21.21 0 0 1 .22-.21h.08a.4.4 0 0 1 .15-.07h.07l.09.07v.05a.25.25 0 0 1 0 .12.19.19 0 0 1 0 .08l-.05.09h-.05a.24.24 0 0 1-.13 0 .15.15 0 0 0 0 .06v.06h.52a1 1 0 0 1 1 1.28 27.41 27.41 0 0 1-5.15 10.22c-3.06 3.54-7.64 6-13.71 7.52a1 1 0 0 0-.6 1.59l1 1.54a.25.25 0 0 1 0-.13.24.24 0 0 1 .17-.07.27.27 0 0 1 .18.07v.07a.21.21 0 0 1-.23.22h-.08l1.21 1.63.1-.08h.06a.24.24 0 0 1 .14.23l-.06.11h-.08l.1.14a1.06 1.06 0 0 0 1.2.43zM133 11.65l-.1.07a.22.22 0 0 1-.13-.08.26.26 0 0 1-.05-.2l.08-.09h.08a.24.24 0 0 1 .13 0v.14s-.01.14-.01.16zm2.6-1.06a.17.17 0 0 1-.12.05.07.07 0 0 1-.06-.07.07.07 0 0 1 0-.06v-.05a.07.07 0 0 1 .07-.07.2.2 0 0 1 .12.33zm1.87-.1l-.08.06a.24.24 0 0 1-.11 0l-.12-.09a.19.19 0 0 1 .19-.18.22.22 0 0 1 .15.06.22.22 0 0 1 0 .17.08.08 0 0 1-.04-.02zm.2-3.22a.19.19 0 0 1-.11-.21.24.24 0 0 1 .23-.18h.08l.07.1a.26.26 0 0 1-.09.21h-.13zm.4 3.67h-.09a.25.25 0 0 1-.12 0l-.05-.11c.05-.14.13-.17.2-.17H138l.09.09v.16zm1.11-3.53l-.07.06h-.09a.2.2 0 0 1-.16-.1v-.13a.15.15 0 0 1 .15-.1.26.26 0 0 1 .2.1.2.2 0 0 1-.04.17zm-.88 20.53l-.08.06h-.09a.05.05 0 0 1-.05 0 .18.18 0 0 1 0-.18.2.2 0 0 1 .14-.06.21.21 0 0 1 .17.09.17.17 0 0 1-.1.09zm.7-.59a.06.06 0 0 1-.06-.06.08.08 0 0 1 0-.05.06.06 0 0 1 0-.06s0-.05.08-.05a.15.15 0 0 1 .08 0 .1.1 0 0 1-.1.22zm.72-6.09h-.06a.18.18 0 0 1-.12-.19.2.2 0 0 1 .19-.16.18.18 0 0 1 .16.1v.06a.2.2 0 0 1-.18.19zm.25-3.65a.21.21 0 0 1-.21.13h-.06l-.09-.08v-.24a.18.18 0 0 1 .16-.07h.05a.2.2 0 0 1 .18.26zm-.34-5.39h-.08l-.08-.06a.25.25 0 0 1 0-.19.21.21 0 0 1 .17-.08.18.18 0 0 1 .14.06v.06c0 .01.02.18-.16.21zm3.77 5.1h-.09a.21.21 0 0 1-.19-.21.2.2 0 0 1 .21-.19v.11a.19.19 0 0 1 .06.29zm.18-4.5l-.1.07a.19.19 0 0 1-.18-.21.2.2 0 0 1 .2-.19h.11a.2.2 0 0 1 .07.14.18.18 0 0 1-.11.19zm-.32-1c0-.16.09-.23.2-.23h.11a.18.18 0 0 1 .05.21.24.24 0 0 1-.23.14l-.07-.09-.07-.03zm1.81 2.44h.09c.1 0 .17.08.17.21a.09.09 0 0 1 0 .05l-.09.09h-.13l-.07-.08v-.1zM144 17.2h.1a.2.2 0 0 1 .08.12.29.29 0 0 1-.09.2.07.07 0 0 1-.05 0h-.12a.07.07 0 0 1-.06 0h.06-.07a.32.32 0 0 1-.11-.21v-.07a.32.32 0 0 1 .22-.12zm-.13-6.45v.05a.25.25 0 0 1-.21.16h-.12l-.07-.07a.24.24 0 0 1 0-.21h.23a.24.24 0 0 1 .08.06zm-.63-1a.23.23 0 0 1 .2-.14h.22l.08.09a.06.06 0 0 1 0 .06.2.2 0 0 1 0 .18.16.16 0 0 1-.15.17l-.05-.06a.41.41 0 0 1 0-.09.22.22 0 0 1-.24.2.07.07 0 0 1-.06 0v-.19c0-.01-.14-.17 0-.19zm-.24-.41l-.08.05h-.1v-.17a.17.17 0 0 1 .14-.06.19.19 0 0 1 .17.09.17.17 0 0 1-.13.09zM142.62 7l.07-.06h.07A.17.17 0 0 1 143 7a.28.28 0 0 1 0 .22v.06l-.08.06a.26.26 0 0 1-.14-.08.24.24 0 0 1 0-.19.08.08 0 0 1-.16-.07zm-.15 15.2l.07.07a.22.22 0 0 1 0 .21.19.19 0 0 1-.15.06l-.06-.06v-.21a.19.19 0 0 1 .16-.07zm-.18-7.78a.15.15 0 0 1 0 .17l-.09.07h-.22a.17.17 0 0 1 0-.2.2.2 0 0 1 .32 0zm-.63-4.59a.15.15 0 0 1 .14-.09.21.21 0 0 1 .16.1v.05l.05.1a.06.06 0 0 1 0 .06.17.17 0 0 1-.16.1.23.23 0 0 1-.18-.13v-.09a.07.07 0 0 1-.01-.08zm-.7 2a.2.2 0 0 1 .15.35h-.08a.21.21 0 0 1-.17-.27zm-.56 6.22h-.24v-.13a.15.15 0 0 1 .14-.09.26.26 0 0 1 .21.1.18.18 0 0 1-.11.18zm-.4-8.62h.05a.19.19 0 0 1 .19.2.23.23 0 0 1-.22.22l-.1-.06a.23.23 0 0 1 0-.24zm-.52-2.56l.09-.07a.2.2 0 0 1 .08 0c.1 0 .13.08.13.1a.16.16 0 0 1 0 .18.07.07 0 0 1-.06 0h-.2l-.07-.08zm-.11 6l.06-.07h.05a.27.27 0 0 1 .28.23v.07l-.06.09h-.06a.33.33 0 0 1-.19-.06l-.05-.08V13a.09.09 0 0 1-.08-.09zm.13 11.85a.2.2 0 0 1 .13 0V25l-.08.11a.24.24 0 0 1-.12 0l-.08-.11a.07.07 0 0 1 0-.06.18.18 0 0 1 .1-.18zm-.61 1.81a.28.28 0 0 1 .39 0v.08c0 .16-.1.25-.23.25a.3.3 0 0 1-.13 0l-.08-.09v-.13zm-1.1-1.83a.07.07 0 0 1 .06 0h.1v-.06h.19a.21.21 0 0 1 .17-.08l.09.07a.3.3 0 0 1 0 .21l-.07.06h-.1l-.08.06a.23.23 0 0 1-.14-.06s-.2 0-.25-.1a.05.05 0 0 1-.02-.06zm-1.13-2.14a.15.15 0 0 1 0-.13.17.17 0 0 1 .14-.06.06.06 0 0 1 0 .05.1.1 0 0 1 0 .09v.05a.07.07 0 0 1-.07.07.22.22 0 0 1-.19-.23zm-.52 3.9c0-.13 0-.35.23-.41l.1.08a.14.14 0 0 1 0 .06v.07a.61.61 0 0 1-.18.37l-.12-.07a.06.06 0 0 1 0-.07.43.43 0 0 0-.08.01zm-.37-3.7s0-.06.07-.06a.19.19 0 0 1 .17.19.19.19 0 0 1-.05.12h-.14a.05.05 0 0 1 0-.05v-.06a.22.22 0 0 1-.1-.1zm-.13 5.34v.06a.14.14 0 0 1 0 .12.06.06 0 0 1-.06.06.2.2 0 0 1-.14-.06.18.18 0 0 1-.05-.12c0-.08.05-.16.2-.16s0 .1 0 .14zm-.42-.8a.22.22 0 0 1 .16-.07h.05a.22.22 0 0 1 .07.24.22.22 0 0 1-.21.13h-.06l-.09-.07a.27.27 0 0 1 .03-.19zM133.9 26a.24.24 0 0 1 .11 0 .17.17 0 0 1 .12.05.22.22 0 0 1 0 .16v.06c0 .06 0 0 0 0a.31.31 0 0 1 .14.07v.08a.19.19 0 0 1-.2.21.29.29 0 0 1-.18-.07v-.07a.21.21 0 0 1 0-.15.31.31 0 0 1-.11-.09.26.26 0 0 1 .12-.25zm-.54-.11a.23.23 0 0 1 .19-.11.2.2 0 0 1 .14.06v.09a.18.18 0 0 1-.2.17h-.1l-.07-.11a.09.09 0 0 1 .04-.13zm-1.41.38a.1.1 0 0 1 .05 0h.05a.21.21 0 0 1 .19.12.27.27 0 0 1-.06.29h-.1a.19.19 0 0 1-.14-.23.09.09 0 0 1 0-.07zm-4.23 6.68l-.08.08a.2.2 0 0 1-.16-.13.21.21 0 0 1 0-.22h.1c.12 0 .16.09.16.22s-.01.01-.02.02zm1.92 1.54h-.18a.22.22 0 0 1-.06-.18.2.2 0 0 1 .18-.15.19.19 0 0 1 .06.3zm-.4-5.39v.08a.11.11 0 0 1 0 .05.17.17 0 0 1-.09.11v.06a.18.18 0 0 1 .14.16l.05.05v.06a.16.16 0 0 1-.1.13c-.13 0-.19-.1-.19-.28v-.08h-.09a.24.24 0 0 1-.08-.19l.07-.1a.21.21 0 0 1 .11 0zm-.5-.85l.1-.07a.13.13 0 0 1 .08.05l.07.09a.12.12 0 0 1 0 .08l-.1.07a.12.12 0 0 1-.08 0l-.07-.1v-.05a.19.19 0 0 1 0-.1zm-.38 5.51h.17v.07-.07l.08.05a.22.22 0 0 1-.05.17.19.19 0 0 1-.16.07.21.21 0 0 1-.18-.09.25.25 0 0 1 .14-.23zM127 30.78h.06l.1.09V31l-.07.11h.26l.08.06a.18.18 0 0 1 .11-.07h.46l.07.08v.05c0 .05-.16.2-.27.21a.13.13 0 0 1 0 .06l-.06.07a.23.23 0 0 1-.12 0 .2.2 0 0 1-.17-.08h-.08a.23.23 0 0 1-.14-.06.61.61 0 0 1-.2-.22.07.07 0 0 1 0-.06l.06-.1a.05.05 0 0 1 .05 0h-.11l-.06-.07a.09.09 0 0 1 0-.05.21.21 0 0 1 .03-.15zm-1.12 1.58c.09 0 .19.08.12.26s0 .09 0 .1l-.11.08a.27.27 0 0 1 0-.39zm-.39-1.36a.07.07 0 0 1 .06-.07.22.22 0 0 1 .2.22.21.21 0 0 1 0 .12.19.19 0 0 1-.12 0 .06.06 0 0 1-.06-.06.17.17 0 0 1-.07-.1.24.24 0 0 1-.01-.11zm-.33.35l.09-.06a.19.19 0 0 1 .09 0h.19a.28.28 0 0 1 0 .11v.06a.19.19 0 0 1 0 .18.17.17 0 0 1-.14.06h-.11a.18.18 0 0 1-.1 0l-.06-.09-.11-.07a.17.17 0 0 1 .15-.16zm-3.18.74a.2.2 0 0 1 .22.2.09.09 0 0 1 0 .07l-.06.09a.2.2 0 0 1-.16-.07.28.28 0 0 1 0-.21zm.1 4L122 36v-.09a.24.24 0 0 1 0-.2l.08-.06h.1a.19.19 0 0 1 .09.24.24.24 0 0 1-.19.24zm.46-4a.18.18 0 0 1-.15.06h-.06a.19.19 0 0 1-.06-.24.25.25 0 0 1 .23-.15l.08.07a.32.32 0 0 1-.04.33zm.54 2.36l.09-.07h.12a.07.07 0 0 1 .06 0l.06.11a.17.17 0 0 1-.17.14.19.19 0 0 1-.16-.09.19.19 0 0 1 0-.02z"/><path d="M17.56 3a.73.73 0 0 1-.73.73h-4.24a.73.73 0 0 0-.73.72v3.37a.73.73 0 0 0 .73.73H17a.73.73 0 0 0 .72-.73v-.57H26a.18.18 0 0 1 .19-.15.15.15 0 0 1 .09 0l.05.1h.29a.17.17 0 0 1 .1 0h1.5a.73.73 0 0 1 .59 1.16l-.57.72a.17.17 0 0 1 .14.06.32.32 0 0 1 .06.23l-.07.11a.24.24 0 0 1-.1 0 .21.21 0 0 1-.2-.13.28.28 0 0 1 0-.09l-.45.52a.72.72 0 0 1-1.06 0l-.24-.26a.72.72 0 0 0-.54-.25h-4.46a.73.73 0 0 0-.62 1.11A25.15 25.15 0 0 0 22.54 13a.71.71 0 0 1-.18 1.07 21.49 21.49 0 0 1-4.15 2 .73.73 0 0 1-1-.69v-4.54a.73.73 0 0 0-.35-.62.25.25 0 0 1-.18.07h-.05l-.06-.08h-4a.73.73 0 0 0-.73.72v2.52a.73.73 0 0 0 .73.72.73.73 0 0 1 .72.73v.31a.73.73 0 0 1-.72.73.73.73 0 0 0-.73.73V19a.73.73 0 0 0 .73.73.72.72 0 0 1 .72.73v.31a.73.73 0 0 1-.12.41.09.09 0 0 1 .06-.06.24.24 0 0 1 .12 0 .24.24 0 0 1 .23-.16.19.19 0 0 1 .1 0 .2.2 0 0 1 .05-.18h.06c.12 0 .16.05.17.08a.19.19 0 0 1 0 .2.05.05 0 0 1 0 .05.21.21 0 0 1-.07.18.21.21 0 0 1-.16.06h-.07a.18.18 0 0 1-.14.06l-.09.12a.18.18 0 0 1-.11 0l-.11-.07a.23.23 0 0 1-.2.11h-.09a.73.73 0 0 1-.3.07.73.73 0 0 0-.73.72v2.63a.73.73 0 0 0 .73.73h1.14l-.06-.09v-.05a.19.19 0 0 1 0-.08l.1-.07h.08l.07.1v.05a.29.29 0 0 1 0 .08H14a.06.06 0 0 1 .06-.06.14.14 0 0 1 .12.06h2.32a.73.73 0 0 0 .73-.73v-5.64a.72.72 0 0 1 1.33-.4l1.1 1.63a.74.74 0 0 0 .86.28 28.55 28.55 0 0 0 6.28-3.26.71.71 0 0 1 .81 0 26.75 26.75 0 0 0 7 3.23.72.72 0 0 0 .87-.37l1.74-3.53a.73.73 0 0 0-.46-1A26.62 26.62 0 0 1 33 14.43l-.77-.36a.73.73 0 0 1-.23-1.15 27.84 27.84 0 0 0 2.52-3.32.07.07 0 0 1 0-.05c.05-.17.16-.18.2-.18A26.9 26.9 0 0 0 36.86 5a.73.73 0 0 0-.17-.79l-2-1.93a.72.72 0 0 0-.51-.21h-.89a.07.07 0 0 1 0 .06.19.19 0 0 1-.14.08.2.2 0 0 1-.13-.06h-.11a.05.05 0 0 1 0-.06H18.28a.73.73 0 0 0-.72.73zM12.5 7.35a.21.21 0 0 1-.13.05h-.07l-.07-.07a.14.14 0 0 1-.06-.14.24.24 0 0 1 .23-.2h.09v.08h-.06.07a.28.28 0 0 1 0 .28zm2.77-2.65a.06.06 0 0 1-.06-.06v-.11a.07.07 0 0 1 0-.07h.05c.05 0 0 0 0 .16a.06.06 0 0 1 .01.08zm.25.53l-.07-.08V5l.07-.09h.07a.22.22 0 0 1 .16.07.28.28 0 0 1 0 .13.22.22 0 0 1-.21.23zm.47.64l-.07.07h-.13l-.07-.07V5.7a.07.07 0 0 1 0-.06l.1-.06h.07a.25.25 0 0 1 .15.25l-.04.04zm.65-1.33a.06.06 0 0 1-.06.06.2.2 0 0 1-.21-.2.25.25 0 0 1 .06-.14.24.24 0 0 1 .14 0s.07 0 .07.06a.13.13 0 0 1 0 .22zm.39 1l-.07.07h-.11l-.11-.08v-.22a.21.21 0 0 1 .15-.07l.11.16zm.41-.67a.06.06 0 0 1 0 .06.06.06 0 0 1 0 .06.07.07 0 0 1 0 .06.07.07 0 0 1-.07.06.2.2 0 0 1-.22-.11.22.22 0 0 1 0-.08.17.17 0 0 1 .08-.17h.1c.05 0 .15 0 .15.19a.19.19 0 0 1-.04-.07zm-4.5 8.37a.2.2 0 0 1-.14.06.19.19 0 0 1-.15-.07v-.1a.23.23 0 0 1 .22-.19l.11.07a.26.26 0 0 1-.04.23zM12 22a.24.24 0 0 1 .18-.07l.09.09v.06a.19.19 0 0 1 0 .08l-.08.07h-.1l-.09-.08a.18.18 0 0 1 0-.15zm.29 2.78a.21.21 0 0 1-.17-.09.21.21 0 0 1 0-.19l.08-.07h.13a.07.07 0 0 1 .06 0l.06.11a.15.15 0 0 1-.2.2zm.2-2.4l-.08-.08c0-.29.3-.29.43-.29h.1a.06.06 0 0 1 .06 0V22a.06.06 0 0 1 0 .07.65.65 0 0 1-.55.27zm.71 2l-.08.05H13a.06.06 0 0 1-.06 0l-.06-.11a.06.06 0 0 1 0-.07.09.09 0 0 1 0-.06L13 24h.05a.19.19 0 0 1 .15.12.2.2 0 0 1-.04.2zm1.26-4.6l.07-.08a.18.18 0 0 1 .17.17.13.13 0 0 1 0 .14.27.27 0 0 1-.26.15.21.21 0 0 1-.14 0v-.06a.2.2 0 0 1 .12-.38zm.24 1.06a.17.17 0 0 1-.19.15h-.06l-.08-.06a.19.19 0 0 1 0-.15.2.2 0 0 1 .15-.08v.05s.14.01.14.03zm-.93-7.33h-.17l-.09-.05c-.06-.09-.06-.15 0-.2a.19.19 0 0 1 .16-.09.17.17 0 0 1 .16.09.15.15 0 0 1 0 .17zm.32 9.89a.46.46 0 0 1-.07.07c-.05 0-.06.05-.06.09a.05.05 0 0 1 0 .06h-.1v.08c0 .2-.12.27-.22.27h-.14l-.08-.08a.31.31 0 0 1 .07-.29v-.06h.07a.31.31 0 0 1 0-.21.37.37 0 0 1 .23-.23l.08.05a.2.2 0 0 1 0 .11s.19.06.18.08zm0-5.22v.05h-.05a.18.18 0 0 1-.15-.19.22.22 0 0 1 .2-.2.16.16 0 0 1 .16.14V18a.08.08 0 0 1 0 .06zm.18 4.29h-.05l-.06-.1a.13.13 0 0 1 0-.06.54.54 0 0 1 .44-.27h.05l.08.06a.31.31 0 0 1-.06.24.41.41 0 0 1-.31.1zm.56 1.26l-.1.07a.18.18 0 0 1-.08-.05l-.07-.11v-.05a.22.22 0 0 1 .22-.15l.11.07a.17.17 0 0 1-.14.16zm.66-4.73l-.08.08h-.08a.24.24 0 0 1-.12 0l-.05-.06v-.25a.29.29 0 0 1 .19-.09l.11.07a.21.21 0 0 1 0 .15.18.18 0 0 1 .03.1zm.12-4.22a.28.28 0 0 1-.2.08h-.08a.22.22 0 0 1 0-.25.27.27 0 0 1 .24-.15.21.21 0 0 1 .12 0l.05.08a.29.29 0 0 1-.13.19zm.85 8a.23.23 0 0 1-.14 0l-.07-.09c0-.14.06-.2.15-.2a.25.25 0 0 1 .15.05l.07.09c0 .02-.07.09-.16.09zm.54-6.72a.05.05 0 0 1 0-.06l.11-.05h.14l.07.08a.08.08 0 0 1 0 .05s0 .19-.24.19H17l-.07-.07a.06.06 0 0 1 0-.05zm.64 1.86a2.43 2.43 0 0 1-.56.26H17l-.08-.1a.06.06 0 0 1 0-.07.22.22 0 0 1 .14-.12v-.05l.12-.06a.2.2 0 0 1 .19-.15.29.29 0 0 1 .17.07s.06.05.06.07v.13l.08.02zm2.1-1.05l-.07.06-.08.08h-.05a.16.16 0 0 1-.15-.19.2.2 0 0 1 .19-.18.2.2 0 0 1 .11 0v.1l.09.13zm1.68-1.5h-.05a.17.17 0 0 1-.17-.18.18.18 0 0 1 .18-.19.19.19 0 0 1 .1 0l.05.08v.09a.05.05 0 0 1-.07.2zm1.21-2.62l-.08-.05a.21.21 0 0 1 .06-.26.06.06 0 0 1 .05 0h.11a.05.05 0 0 1 .05 0 .2.2 0 0 1 0 .2.19.19 0 0 1-.15.11zm.53 2a.18.18 0 0 1-.15.06h-.13a.19.19 0 0 1-.1-.21.25.25 0 0 1 .23-.16.18.18 0 0 1 .17.1.21.21 0 0 1 .02.23zm.19-3.75l-.09.07h-.12L23 11a.19.19 0 0 1 0-.2.17.17 0 0 1 .16-.09.2.2 0 0 1 .17.09.17.17 0 0 1 .02.2zm.44 2.2a.05.05 0 0 1-.05 0v.07h-.05a.21.21 0 0 1-.14-.12.17.17 0 0 1 .05-.18h.08c.12 0 .16.06.17.1a.19.19 0 0 1-.06.08zm1.47-.08h-.05a.14.14 0 0 1-.12-.06.25.25 0 0 1 0-.18.14.14 0 0 1 0-.06l.05-.09h.05a.22.22 0 0 1 .13 0l.08.07a.19.19 0 0 1-.14.27zm1.28 4.58l-.07.06h-.18l-.06-.09v-.05a.22.22 0 0 1 .21-.18.16.16 0 0 1 .12 0 .19.19 0 0 1 0 .17.08.08 0 0 1-.02.04zm.12-4.47l-.08.05h-.09v-.17a.17.17 0 0 1 .14-.06.18.18 0 0 1 .17.09.15.15 0 0 1-.14.04zm1.09-.82s0 .06-.07.06h-.06a.09.09 0 0 1 0-.06h.07a.07.07 0 0 1 .07.06l-.01-.11zm.25-.24a.2.2 0 0 1-.16.07.18.18 0 0 1-.15-.07.22.22 0 0 1 0-.18v-.06a.17.17 0 0 1 .23 0l.1.06c.03.01-.02.08-.02.13zm-.09-1.4a.24.24 0 0 1-.16-.07v-.05a.22.22 0 0 1 0-.2.24.24 0 0 1 .34 0v.08a.24.24 0 0 1-.18.19zm.31 3.72a.07.07 0 0 1-.07-.06.13.13 0 0 1 0-.09.07.07 0 0 1 .07-.07.16.16 0 0 1 .12.06.13.13 0 0 1 0 .11.16.16 0 0 1-.12 0zm8.18 1.43a.19.19 0 0 1 .16-.07h.07l.06.06a.24.24 0 0 1 0 .26.16.16 0 0 1-.13.06h-.08l-.08-.08a.25.25 0 0 1 0-.28zm-1 2.25a.23.23 0 0 1 .16.06v.07a.2.2 0 0 1-.2.22.27.27 0 0 1-.18-.07v-.12a.24.24 0 0 1 .17-.21zm-.41 2.21a.12.12 0 0 1 .05 0h.12a.2.2 0 0 1 .17.09.2.2 0 0 1 0 .14v.05h-.12c-.21-.13-.3-.21-.27-.33zm-1.32-.95a.31.31 0 0 1 .2-.09.2.2 0 0 1 .15.06v.1a.28.28 0 0 1-.2.1.21.21 0 0 1-.15-.07v-.09s-.06-.04-.05-.06zM35.3 6.12h.1c.14 0 .24.12.22.23s-.06.15-.2.15l-.11-.07a.18.18 0 0 1-.01-.31zm-.61-.49l.07-.07h.1l.07.06a.2.2 0 0 1-.21.24l-.06-.07zm-.53.42l.1.07a.22.22 0 0 1 0 .2.21.21 0 0 1-.16.06h-.07l-.09-.07a.14.14 0 0 1 0-.06.21.21 0 0 1 .23-.18zm-.35-3.71a.07.07 0 0 1 .07-.06.19.19 0 0 1 .17.19.17.17 0 0 1 0 .12h-.08a.05.05 0 0 1 0-.05.06.06 0 0 1 0-.07.34.34 0 0 1-.16-.13zm-5 4.59a.22.22 0 0 1-.08 0l-.06-.1a.06.06 0 0 1 0-.06v-.21l.07-.07c.11 0 .14.07.14.15a.25.25 0 0 1 .19.09.23.23 0 0 1 0 .21A.19.19 0 0 1 29 7a.33.33 0 0 1-.15-.07zm.19 3.63a.07.07 0 0 1 0-.05.06.06 0 0 1 .05 0 .23.23 0 0 1 .16.06.2.2 0 0 1 .06.15.18.18 0 0 1-.2.18.06.06 0 0 1-.06-.06.23.23 0 0 1 0-.17.05.05 0 0 1-.01-.11zm.24 6.4a.14.14 0 0 1-.12.06.07.07 0 0 1-.07-.07.05.05 0 0 1 0-.05.08.08 0 0 1 0-.05.06.06 0 0 1 .06-.06.16.16 0 0 1 .16.16.16.16 0 0 1-.02.05zm1.32.9h-.05s-.05 0-.05-.05v-.12c0-.13.09-.19.18-.19h.06v.17c.03.13-.03.19-.13.19zm1.31-7.07a.21.21 0 0 1 .13.1.16.16 0 0 1 0 .14.11.11 0 0 1 0 .06l-.06.07a.24.24 0 0 1-.12 0l-.07-.16v-.11l.09-.07zM31.76 9a.26.26 0 0 1 .06.23l-.09.09h-.13a.05.05 0 0 1-.05 0l-.07-.08a.07.07 0 0 1 0-.06v-.09c0-.1.08-.14.15-.14a.24.24 0 0 1 .13.05zm-.43-2.9l.08-.1a.23.23 0 0 1 .18.28l-.08.06h-.05c-.09 0-.19-.09-.17-.27a.05.05 0 0 1 .04.03zM31 7.49v-.07h.22a.21.21 0 0 1 .16.08.25.25 0 0 1 .06.2l-.06.08a.19.19 0 0 1-.09 0 .21.21 0 0 1-.13 0h-.06a.21.21 0 0 1-.17-.1.17.17 0 0 1 .07-.19zm0 8l.07-.07h.17l.07.06a.2.2 0 0 1-.05.17.23.23 0 0 1-.18.07l-.07-.07zm-.27-1.27a.05.05 0 0 1 .05 0l.08.09a.24.24 0 0 1 0 .21v.05a.31.31 0 0 1-.21.08h-.15l-.1-.08a.3.3 0 0 1 0-.28.34.34 0 0 1 .2-.09zm-.26-1.65h.05l.1.06a.19.19 0 0 1 0 .18.14.14 0 0 1-.12.06.16.16 0 0 1-.16-.13c-.12-.08-.09-.17.04-.22zm-.15 4.38a.14.14 0 0 1 .11.05l.1.08a.17.17 0 0 1-.17.16.34.34 0 0 1-.14 0l-.07-.11c-.05-.19.02-.23.08-.23zm-.78-9.67a.19.19 0 0 1 0 .08l-.1.07a.19.19 0 0 1-.08 0l-.07-.1a.29.29 0 0 1 0-.08l.1-.07h.13l.07.1a.09.09 0 0 1-.14-.05zm-.27-1.78a.21.21 0 0 1 .13 0l.07.08v.1l-.07.07a.16.16 0 0 1-.14-.09.23.23 0 0 1 0-.22zm-.73-.5l.07-.11h.05a.25.25 0 0 1 .14 0l.07.08v.06l-.06.09a.19.19 0 0 1 .16.1.5.5 0 0 1 0 .12c0 .13-.07.22-.18.22a.07.07 0 0 1-.06-.07.09.09 0 0 1 0-.06.09.09 0 0 1 0-.07.14.14 0 0 1 0-.11h-.07a.24.24 0 0 1-.12 0l-.07-.08zm-.6-1.47a.18.18 0 0 1 .16-.08.2.2 0 0 1 .17.08.17.17 0 0 1 0 .17l-.09.07h-.12L28 3.69a.19.19 0 0 1-.06-.2zm-1.55-.81a.09.09 0 0 1 0-.06l.11-.05h.1a.14.14 0 0 1 .1.1.13.13 0 0 1 0 .14l-.1.09h-.08l-.07-.07zM24 5.93a.17.17 0 0 1 .16.11v.07a.18.18 0 0 1-.11.14.15.15 0 0 1-.12-.18.19.19 0 0 1 .07-.14zm-.82-1.65a.23.23 0 0 1 .16.06v.1a.32.32 0 0 1-.21.12.23.23 0 0 1-.13.03v-.1a.26.26 0 0 1 .17-.21zM21 2.54l.1-.07h.13l.07.1a.19.19 0 0 1 0 .08l-.1.07h-.05a.14.14 0 0 1-.08 0L21 2.67a.19.19 0 0 1 0-.13zm-.7 2.75a.16.16 0 0 1-.07.17h-.11a.19.19 0 0 1-.13-.14c0-.1.07-.17.1-.2h.11c.05.07.08.13.09.17zm-.47-1.5a.07.07 0 0 1 .07-.07.22.22 0 0 1 .19.22A.21.21 0 0 1 20 4a.17.17 0 0 1-.14.06.06.06 0 0 1-.02-.06s-.05-.17-.02-.21zm-.56 2.8h-.12v-.07l-.05.05a.22.22 0 0 1-.12-.21.13.13 0 0 1 0-.05l.09-.06h.05a.29.29 0 0 1 .21.18.19.19 0 0 1-.07.16zm-.39-3v-.06l.12-.04a.26.26 0 0 1 .18.06.28.28 0 0 1 0 .21l-.07.1h-.09a.35.35 0 0 1-.12 0 .07.07 0 0 1-.05 0v-.11a.06.06 0 0 1 .02-.13z"/><path d="M19.26 28.46h2.17a.73.73 0 0 0 .72-.73v-3.89a.72.72 0 0 0-.72-.72h-2.17a.69.69 0 0 0-.62.36.15.15 0 0 1 0 .11.23.23 0 0 1-.13.17.25.25 0 0 0 0 .08v3.89a.73.73 0 0 0 .75.73zm2.43-1.2h.09a.2.2 0 0 1 .18.12.29.29 0 0 1-.05.3h-.08a.25.25 0 0 1-.24-.19.23.23 0 0 1 .1-.23zm-.3 0h.06l.08.07v.22a.2.2 0 0 1-.15.07h-.07v-.17c-.07-.16.04-.18.08-.18zM74 28.8v.05l-.1.07h-.1a.31.31 0 0 1-.16-.32v-.22a.09.09 0 0 1 .06 0A106 106 0 0 1 65.43 5a1 1 0 0 0-1.31-.77L59.7 5.56a1.05 1.05 0 0 0-.7 1.2q.63 3 1.42 6.05h.17a.19.19 0 0 1 .06.13.18.18 0 0 1-.06.13l-.09.08a92.64 92.64 0 0 0 8.67 21.89 1 1 0 0 0 1.5.34l.63-.45a.21.21 0 0 1 .2-.19h.07l3.33-2.34a1 1 0 0 0 .3-1.36c-.41-.7-.81-1.46-1.2-2.24zM59.63 7.34l.07-.06a.13.13 0 0 1 .12.08.2.2 0 0 1 0 .21.11.11 0 0 1 0 .06l-.08.06c-.03-.09-.13-.17-.11-.35zM60 9.67h-.06a.16.16 0 0 1 0-.17.17.17 0 0 1 .14-.06.19.19 0 0 1 .17.09.17.17 0 0 1 0 .18L60 9.67zm.16.82v-.12a.07.07 0 0 1 0-.07c0-.08.05-.23.2-.25a.24.24 0 0 1 .2-.14h.21l.08.08a.07.07 0 0 1 0 .06.24.24 0 0 1 0 .19.17.17 0 0 1-.16.17v-.06a.42.42 0 0 1 0-.1.24.24 0 0 1-.24.21.06.06 0 0 1-.34.03zm.54 1.62a.27.27 0 0 1-.23.15l-.07-.08a.13.13 0 0 1 0-.06c0-.16.1-.23.21-.23h.06a.21.21 0 0 1-.02.22zm.25-1a.22.22 0 0 1-.2.15.3.3 0 0 1-.12 0l-.07-.07a.28.28 0 0 1 0-.2l.09-.05h.14l.07.05v.1a.06.06 0 0 1 .04-.01zm0-4.67a.06.06 0 0 1-.06-.06.07.07 0 0 1 0-.06h-.05s0-.06.08-.06a.1.1 0 0 1 .08.05.12.12 0 0 1 0 .08.09.09 0 0 1-.13.02zm1.47 8.35l-.08.09h-.08l-.06-.08v-.11l.07-.1h.08a.18.18 0 0 1 .18.2.08.08 0 0 1-.19-.03zM64 17.91a.17.17 0 0 1-.17-.19.2.2 0 0 1 .06-.15.17.17 0 0 1 .12-.05s.06 0 .06.07v.05a.09.09 0 0 1 0 .07.07.07 0 0 1-.07.2zm.4 5.76l-.05.06c-.1 0-.2-.09-.18-.27l.07-.07a.14.14 0 0 1 .09 0 .18.18 0 0 1 .13.16s-.08.1-.09.12zm.35-1.9h-.15a.16.16 0 0 1-.12-.11.15.15 0 0 1 0-.18.23.23 0 0 1 .18-.08.18.18 0 0 1 .07.34zm.16-1.33a.06.06 0 0 1-.06-.06.07.07 0 0 1 .06-.07.07.07 0 0 1 .07.07.07.07 0 0 1-.1.06zm.3 3.56a.14.14 0 0 1-.12.06.15.15 0 0 1-.16-.13.2.2 0 0 1 .14-.21h.05l.1.05a.19.19 0 0 1-.01.23zm.34-4.22l-.09.12a.18.18 0 0 1-.16.12h-.08L65 20a.08.08 0 0 1 0-.06h-.06l-.06-.07c0-.29.19-.32.27-.32h.07l.06.09a.07.07 0 0 1 0 .05h.07c.12 0 .15 0 .16.08a.15.15 0 0 1 .04 0zm0-2.68l-.06.12h-.13a.19.19 0 0 1-.06-.18.07.07 0 0 1 0-.06.21.21 0 0 1 .22-.18l.1.08c.01.12-.03.18-.06.21zm.15-2.32l-.06.07h-.09l-.11-.07a.2.2 0 0 1 0-.19l.11-.08a.19.19 0 0 1 .08 0l.07.07a.07.07 0 0 1 0 .05zm1.32 10h-.07s-.19-.12-.16-.23h.12a.27.27 0 0 1 .17.09.19.19 0 0 1-.08.1zm.2-7.13a.2.2 0 0 1 .22-.18l.09.06v.2a.19.19 0 0 1-.16.07h-.06l-.09-.07a.14.14 0 0 1 .01-.12zm.12 2.35a.26.26 0 0 1 0-.05.18.18 0 0 1 0-.13h.17a.56.56 0 0 1 0-.21v-.07a.08.08 0 0 1 0-.08l.11-.08h.07a.46.46 0 0 1 .21.29v.1a.2.2 0 0 1-.12.09.16.16 0 0 1 0 .18.17.17 0 0 1-.16.09.27.27 0 0 1-.28-.13zM68 30.8a.25.25 0 0 1-.18.07l-.1-.09v-.09a.08.08 0 0 1 0-.05l.07-.07H68l.07.06a.23.23 0 0 1-.07.17zm0-10.27a.06.06 0 0 1-.06-.06.06.06 0 0 1 0-.05.19.19 0 0 1 0-.09.07.07 0 0 1 .06-.13.18.18 0 0 1 .13.06.16.16 0 0 1 0 .11.17.17 0 0 1-.13.16zM69.38 24h-.22a.22.22 0 0 1 0-.18l.08-.05a.23.23 0 0 1 .2.07.33.33 0 0 1 .06.21.07.07 0 0 1 0 .06l-.11.05zm.48 5.2h-.08a.2.2 0 0 1-.18-.21.19.19 0 0 1 .2-.19h.05l.09.07a.24.24 0 0 1-.08.35zm.1-1.46l-.07.12a.09.09 0 0 1-.06 0h-.32l-.09-.09v-.13a.08.08 0 0 1 0-.07h.08v-.11h.07a.33.33 0 0 1 .06-.06.16.16 0 0 1 .14-.12l.07.08v.05a.19.19 0 0 1 0 .1.25.25 0 0 1 .16.25zm.04-3.45l-.07.07h-.14l-.06-.11a.06.06 0 0 1 0-.06.15.15 0 0 1 0-.07l.09-.07a.19.19 0 0 1 .08 0l.07.08v.1s.03.04.03.06zm.1-.41a.33.33 0 0 1-.19-.21.22.22 0 0 1 .06-.2h.08c.19 0 .28.12.28.35a.08.08 0 0 1 0 .06l-.11.05h-.06v-.05zm.32 8.82h-.13l-.11-.06a.06.06 0 0 1 0-.06v-.12l.06-.1h.11a.24.24 0 0 1 .17.08l.09.1a.07.07 0 0 1 0 .06.2.2 0 0 1-.16.1zm.58-4.34h-.06a.17.17 0 0 1-.07.13h-.07a.19.19 0 0 1-.17-.22.21.21 0 0 1 .07-.15l.08-.06a.22.22 0 0 1 .19.09.19.19 0 0 1 .03.21zm.37-3.36v.05a.19.19 0 0 1-.15.08.26.26 0 0 1-.15-.06L71 25a.19.19 0 0 1 .2-.23.21.21 0 0 1 .17.08.23.23 0 0 1 0 .15zm.11 6.18v-.07a.15.15 0 0 1 0-.12.16.16 0 0 1 0-.06.15.15 0 0 1 .12-.07h.08l.07.07a.07.07 0 0 1 0 .05.23.23 0 0 1-.21.24.2.2 0 0 1-.06-.06zm.57 1.63l-.05.09h-.08a.17.17 0 0 1-.16-.11.18.18 0 0 1 .19-.15h.06l.08.07a.08.08 0 0 1 0 .05zm.23-6.28v-.06a.16.16 0 0 1 .09-.23h.05a.17.17 0 0 1 .15.18.2.2 0 0 1-.2.19.19.19 0 0 1-.09-.1zm.49 2.35a.21.21 0 0 1-.18.07.07.07 0 0 1-.06-.07v-.12a.19.19 0 0 1 .07-.08.07.07 0 0 1 .07-.06.26.26 0 0 1 .25.25.16.16 0 0 1-.15-.01zm.91 1.91a.21.21 0 0 1-.17.09.26.26 0 0 1-.25-.2.22.22 0 0 1 .14-.24h.09a.22.22 0 0 1 .13.22zm1.15-.17l-.07.11h-.06a.29.29 0 0 1-.16-.09.23.23 0 0 1 0-.18.08.08 0 0 1 0-.05l.09-.07h.06a.19.19 0 0 1 .14.23.11.11 0 0 1 0 .03z"/></svg>