<svg xmlns="http://www.w3.org/2000/svg" width="147.751" height="47.73" viewBox="0 0 147.751 47.73"><g data-name="logo_ KOKIN"><path data-name="パス 48" d="M47.733 16.397h-16.4v-16.4H16.396v16.4h-16.4v14.934h16.4v16.4h14.937v-16.4h16.4z" fill="#003e92"/><g data-name="グループ 11" fill="#003e92"><path data-name="パス 49" d="M57.707 35.242a.768.768 0 0 0 .234.275 1.008 1.008 0 0 0 .343.156 1.622 1.622 0 0 0 .407.051 2.112 2.112 0 0 0 .306-.024 1.052 1.052 0 0 0 .305-.092.665.665 0 0 0 .238-.186.468.468 0 0 0 .1-.3.426.426 0 0 0-.126-.319 1 1 0 0 0-.329-.2 3.278 3.278 0 0 0-.462-.143q-.258-.061-.523-.136a4.516 4.516 0 0 1-.529-.166 1.811 1.811 0 0 1-.462-.254 1.142 1.142 0 0 1-.455-.957 1.267 1.267 0 0 1 .16-.648 1.442 1.442 0 0 1 .417-.458 1.822 1.822 0 0 1 .584-.272 2.49 2.49 0 0 1 .652-.088 3.09 3.09 0 0 1 .73.085 1.816 1.816 0 0 1 .621.275 1.389 1.389 0 0 1 .431.485 1.487 1.487 0 0 1 .16.716h-1.032a.854.854 0 0 0-.092-.36.6.6 0 0 0-.207-.224.872.872 0 0 0-.3-.115 1.806 1.806 0 0 0-.363-.034 1.255 1.255 0 0 0-.258.027.69.69 0 0 0-.234.1.592.592 0 0 0-.173.17.455.455 0 0 0-.068.258.434.434 0 0 0 .054.231.484.484 0 0 0 .214.163 2.713 2.713 0 0 0 .441.149q.282.075.737.19.136.027.377.1a1.817 1.817 0 0 1 .479.227 1.45 1.45 0 0 1 .41.418 1.187 1.187 0 0 1 .173.669 1.481 1.481 0 0 1-.129.618 1.336 1.336 0 0 1-.384.492 1.838 1.838 0 0 1-.631.323 2.985 2.985 0 0 1-.872.115 3.068 3.068 0 0 1-.777-.1 1.954 1.954 0 0 1-.665-.309 1.526 1.526 0 0 1-.458-.536 1.6 1.6 0 0 1-.163-.774h1.032a.889.889 0 0 0 .087.402z"/><path data-name="パス 50" d="M66.485 31.595v.9h-2.559v1.039h2.349v.828h-2.349v1.188h2.613v.9H62.86v-4.855z"/><path data-name="パス 51" d="M69.777 31.595l2.023 3.252h.014v-3.252h1v4.847h-1.066l-2.016-3.245h-.014v3.245h-1v-4.847z"/><path data-name="パス 52" d="M75.952 35.242a.766.766 0 0 0 .234.275 1.006 1.006 0 0 0 .343.156 1.622 1.622 0 0 0 .407.051 2.1 2.1 0 0 0 .305-.024 1.051 1.051 0 0 0 .305-.092.666.666 0 0 0 .238-.186.471.471 0 0 0 .1-.3.426.426 0 0 0-.126-.319 1 1 0 0 0-.329-.2 3.258 3.258 0 0 0-.461-.143q-.258-.061-.523-.136a4.519 4.519 0 0 1-.529-.166 1.811 1.811 0 0 1-.462-.254 1.142 1.142 0 0 1-.455-.957 1.267 1.267 0 0 1 .16-.648 1.442 1.442 0 0 1 .417-.458 1.822 1.822 0 0 1 .584-.272 2.491 2.491 0 0 1 .652-.088 3.089 3.089 0 0 1 .73.085 1.816 1.816 0 0 1 .621.275 1.39 1.39 0 0 1 .431.485 1.49 1.49 0 0 1 .16.716h-1.032a.854.854 0 0 0-.092-.36.6.6 0 0 0-.207-.224.875.875 0 0 0-.3-.115 1.807 1.807 0 0 0-.363-.034 1.255 1.255 0 0 0-.258.027.691.691 0 0 0-.234.1.589.589 0 0 0-.173.17.455.455 0 0 0-.068.258.436.436 0 0 0 .054.231.483.483 0 0 0 .214.163 2.709 2.709 0 0 0 .441.149q.282.075.737.19.136.027.377.1a1.815 1.815 0 0 1 .479.227 1.451 1.451 0 0 1 .41.418 1.187 1.187 0 0 1 .173.669 1.481 1.481 0 0 1-.129.618 1.338 1.338 0 0 1-.384.492 1.837 1.837 0 0 1-.631.323 2.989 2.989 0 0 1-.872.115 3.068 3.068 0 0 1-.777-.1 1.955 1.955 0 0 1-.665-.309 1.526 1.526 0 0 1-.458-.536 1.6 1.6 0 0 1-.163-.774h1.032a.889.889 0 0 0 .087.402z"/><path data-name="パス 53" d="M82.036 31.595v1.86h1.962v-1.86h1.066v4.847h-1.066v-2.091h-1.962v2.091H80.97v-4.847z"/><path data-name="パス 54" d="M89.741 31.595l1.812 4.847h-1.106l-.367-1.079h-1.812l-.38 1.079h-1.073l1.833-4.847zm.061 2.973l-.611-1.779h-.014l-.631 1.779z"/></g><g data-name="グループ 12" fill="#00458d"><path data-name="パス 55" d="M99.866 32.884a1.076 1.076 0 0 0-.238-.268 1.093 1.093 0 0 0-.322-.18 1.109 1.109 0 0 0-.377-.064 1.243 1.243 0 0 0-.611.139 1.153 1.153 0 0 0-.407.373 1.634 1.634 0 0 0-.227.533 2.654 2.654 0 0 0-.071.618 2.47 2.47 0 0 0 .071.594 1.6 1.6 0 0 0 .227.519 1.162 1.162 0 0 0 .407.37 1.243 1.243 0 0 0 .611.139.986.986 0 0 0 .764-.3 1.381 1.381 0 0 0 .336-.787h1.032a2.462 2.462 0 0 1-.21.821 1.965 1.965 0 0 1-.448.625 1.9 1.9 0 0 1-.652.394 2.389 2.389 0 0 1-.821.136 2.485 2.485 0 0 1-1-.193 2.143 2.143 0 0 1-.75-.533 2.361 2.361 0 0 1-.468-.8 2.927 2.927 0 0 1-.163-.988 3.027 3.027 0 0 1 .163-1.008 2.425 2.425 0 0 1 .468-.811 2.145 2.145 0 0 1 .75-.543 2.6 2.6 0 0 1 1.758-.082 2.056 2.056 0 0 1 .638.336 1.814 1.814 0 0 1 .465.546 1.956 1.956 0 0 1 .231.747H99.99a.872.872 0 0 0-.124-.333z"/><path data-name="パス 56" d="M104.109 31.595v1.86h1.962v-1.86h1.066v4.847h-1.066v-2.091h-1.962v2.091h-1.066v-4.847z"/><path data-name="パス 57" d="M113.192 31.595v.9h-2.559v1.039h2.349v.828h-2.349v1.188h2.613v.9h-3.679v-4.855z"/><path data-name="パス 58" d="M116.755 31.595l1.134 3.333h.014l1.072-3.333h1.5v4.847h-1v-3.435h-.014l-1.188 3.435h-.821l-1.188-3.4h-.013v3.4h-1v-4.847z"/><path data-name="パス 59" d="M123.496 31.595v4.847h-1.066v-4.847z"/><path data-name="パス 60" d="M128.767 32.884a1.072 1.072 0 0 0-.238-.268 1.1 1.1 0 0 0-.322-.18 1.11 1.11 0 0 0-.377-.064 1.243 1.243 0 0 0-.611.139 1.154 1.154 0 0 0-.407.373 1.638 1.638 0 0 0-.227.533 2.651 2.651 0 0 0-.071.618 2.467 2.467 0 0 0 .071.594 1.608 1.608 0 0 0 .227.519 1.163 1.163 0 0 0 .407.37 1.243 1.243 0 0 0 .611.139.986.986 0 0 0 .764-.3 1.382 1.382 0 0 0 .336-.787h1.032a2.462 2.462 0 0 1-.21.821 1.963 1.963 0 0 1-.448.625 1.9 1.9 0 0 1-.652.394 2.389 2.389 0 0 1-.821.136 2.485 2.485 0 0 1-1-.193 2.144 2.144 0 0 1-.75-.533 2.359 2.359 0 0 1-.468-.8 2.927 2.927 0 0 1-.163-.988 3.027 3.027 0 0 1 .163-1.008 2.423 2.423 0 0 1 .468-.811 2.146 2.146 0 0 1 .75-.543 2.6 2.6 0 0 1 1.758-.082 2.056 2.056 0 0 1 .638.336 1.816 1.816 0 0 1 .465.546 1.956 1.956 0 0 1 .231.747h-1.036a.873.873 0 0 0-.12-.333z"/><path data-name="パス 61" d="M134.458 31.595l1.812 4.847h-1.106l-.366-1.079h-1.813l-.38 1.079h-1.073l1.833-4.847zm.061 2.973l-.611-1.779h-.014l-.631 1.779z"/><path data-name="パス 62" d="M139.388 31.595v3.951h2.358v.9h-3.428v-4.851z"/><path data-name="パス 63" d="M144.791 35.242a.768.768 0 0 0 .234.275 1.01 1.01 0 0 0 .343.156 1.619 1.619 0 0 0 .407.051 2.106 2.106 0 0 0 .305-.024 1.055 1.055 0 0 0 .306-.092.666.666 0 0 0 .238-.186.469.469 0 0 0 .1-.3.426.426 0 0 0-.126-.319 1 1 0 0 0-.329-.2 3.246 3.246 0 0 0-.461-.143q-.258-.061-.523-.136a4.521 4.521 0 0 1-.53-.166 1.813 1.813 0 0 1-.461-.254 1.141 1.141 0 0 1-.455-.957 1.271 1.271 0 0 1 .16-.648 1.444 1.444 0 0 1 .418-.458 1.816 1.816 0 0 1 .584-.272 2.489 2.489 0 0 1 .652-.088 3.087 3.087 0 0 1 .73.085 1.816 1.816 0 0 1 .621.275 1.389 1.389 0 0 1 .431.485 1.487 1.487 0 0 1 .16.716h-1.032a.855.855 0 0 0-.092-.36.6.6 0 0 0-.207-.224.874.874 0 0 0-.3-.115 1.811 1.811 0 0 0-.363-.034 1.259 1.259 0 0 0-.258.027.692.692 0 0 0-.234.1.592.592 0 0 0-.173.17.456.456 0 0 0-.068.258.434.434 0 0 0 .054.231.483.483 0 0 0 .214.163 2.721 2.721 0 0 0 .441.149q.282.075.737.19.136.027.377.1a1.816 1.816 0 0 1 .479.227 1.451 1.451 0 0 1 .411.418 1.186 1.186 0 0 1 .173.669 1.481 1.481 0 0 1-.129.618 1.335 1.335 0 0 1-.384.492 1.835 1.835 0 0 1-.631.323 2.988 2.988 0 0 1-.872.115 3.068 3.068 0 0 1-.777-.1 1.956 1.956 0 0 1-.665-.309 1.526 1.526 0 0 1-.458-.536 1.6 1.6 0 0 1-.163-.774h1.029a.889.889 0 0 0 .087.402z"/></g><g data-name="グループ 13" fill="#003e92"><path data-name="パス 64" d="M60.072 14.036v6.027l5.682-6.028h3.987l-5.682 5.743 6.231 8.8h-4.012L61.9 22.041l-1.833 1.853v4.684h-3.2v-14.54z"/><path data-name="パス 65" d="M73.879 18.343a7.262 7.262 0 0 1 1.4-2.434 6.427 6.427 0 0 1 2.25-1.629 7.961 7.961 0 0 1 6.018 0 6.454 6.454 0 0 1 2.24 1.629 7.269 7.269 0 0 1 1.405 2.434 9.09 9.09 0 0 1 .489 3.024 8.787 8.787 0 0 1-.489 2.963 7.077 7.077 0 0 1-1.405 2.393 6.455 6.455 0 0 1-2.24 1.6 8.087 8.087 0 0 1-6.018 0 6.429 6.429 0 0 1-2.25-1.6 7.07 7.07 0 0 1-1.4-2.393 8.777 8.777 0 0 1-.489-2.963 9.08 9.08 0 0 1 .489-3.024zm2.922 4.806a4.809 4.809 0 0 0 .682 1.558 3.492 3.492 0 0 0 1.222 1.11 4.232 4.232 0 0 0 3.666 0 3.5 3.5 0 0 0 1.222-1.11 4.818 4.818 0 0 0 .682-1.558 7.391 7.391 0 0 0 .214-1.782 7.947 7.947 0 0 0-.214-1.853 4.913 4.913 0 0 0-.682-1.6 3.466 3.466 0 0 0-1.222-1.12 4.232 4.232 0 0 0-3.666 0 3.461 3.461 0 0 0-1.222 1.12 4.9 4.9 0 0 0-.682 1.6 7.958 7.958 0 0 0-.214 1.853 7.4 7.4 0 0 0 .214 1.784z"/><path data-name="パス 66" d="M102.797 27.463a8 8 0 0 1-9.134.01 5.561 5.561 0 0 1-1.619-4.4v-9.042h3.2v9.042a6.588 6.588 0 0 0 .1 1.161 2.258 2.258 0 0 0 1.334 1.721 3.684 3.684 0 0 0 1.558.275 3 3 0 0 0 2.362-.763 3.639 3.639 0 0 0 .652-2.393v-9.042h3.2v9.042a5.511 5.511 0 0 1-1.653 4.389z"/><path data-name="パス 67" d="M113.04 14.036v6.027l5.682-6.028h3.987l-5.682 5.743 6.232 8.8h-4.012l-4.378-6.537-1.833 1.853v4.684h-3.2v-14.54z"/><path data-name="パス 68" d="M129.882 14.036v14.54h-3.2v-14.54z"/><path data-name="パス 69" d="M137.804 14.036l6.069 9.755h.041v-9.755h2.994v14.54h-3.2l-6.048-9.734h-.041v9.734h-2.994v-14.54z"/></g></g></svg>