<svg xmlns="http://www.w3.org/2000/svg" viewBox="0 0 73.97 38" width="73.97" height="38" preserveAspectRatio="xMinYMid"><defs><style>.cls-1{fill:#231815}.cls-2{fill:#fff}.cls-3{fill:#fff100;stroke:#231815;stroke-linecap:round;stroke-linejoin:round;stroke-width:.2px}</style></defs><path class="cls-1" d="M66.08 12.75a1.69 1.69 0 0 1 1.65 1.36 1.29 1.29 0 0 0 .85 1 1.25 1.25 0 0 0 1.27-.24l3.68-3.21a1.32 1.32 0 0 0 .22-1.7 9 9 0 0 0-7-4.1 8.64 8.64 0 0 0-7 2.81 8.16 8.16 0 0 0-.71 1c-1.2-2.2-3.83-3.57-7.37-3.67a39.55 39.55 0 0 0-5.83.45 1.28 1.28 0 0 0-1.09 1.22v.49a6.69 6.69 0 0 0-3.81-1.52 11.35 11.35 0 0 0-6.34 1.27.78.78 0 0 0-.21.16 7.47 7.47 0 0 0-5.52-.84 7.55 7.55 0 0 0-1.43.43l-.71-.17c.68-1.07 1.4-2.23 1.4-2.23a1.84 1.84 0 0 0 .28-.94A1.88 1.88 0 0 0 28 3.11a1.77 1.77 0 0 0-2.23-.46l-2.16 1.16c-.16-1.11-.33-2.25-.33-2.25A1.84 1.84 0 0 0 21.76 0a1.77 1.77 0 0 0-1.9 1.11L18.72 3.9 17.19 3a1.75 1.75 0 0 0-2.09.22 1.84 1.84 0 0 0-.6 1.32s0 .26.06.44a10.41 10.41 0 0 0-4-.84A21 21 0 0 0 3 5.26a1.25 1.25 0 0 0-.79 1l-.6 5.07a1.28 1.28 0 0 0 .51 1.18 1.26 1.26 0 0 0 .8.26c-.48 3.48-1.23 9.56-1.48 13.5v.09a1.24 1.24 0 0 0 .44 1 1.24 1.24 0 0 0 1.09.3h.11l-.81.18A2.56 2.56 0 0 0 .48 30 50.37 50.37 0 0 0 0 35.8a2.31 2.31 0 0 0 .93 1.87 2.05 2.05 0 0 0 1.83.21 202.32 202.32 0 0 1 34.75-6.83c6.38-.56 13.19-.65 18.16-.72 2.3 0 4.11-.06 5.23-.13 6.85-.39 9.14-3.73 9.89-5.67A7.27 7.27 0 0 0 69.45 17a15.76 15.76 0 0 0-2.92-2.23c-1.72-1.1-1.68-1.2-1.49-1.65s.47-.42 1.04-.37zM9.7 14.21c.13-1 .26-1.94.38-2.73a5 5 0 0 1 .71.12.61.61 0 0 1 .52.58v.15a2 2 0 0 1-1 1.66 4.07 4.07 0 0 1-.61.22zM61 21.72l-1-3.15a1 1 0 0 0 .16.12c.58.43 1.14.79 1.64 1.12 1.19.76 1.85 1.21 1.85 1.68 0 1.05 0 2.06-4.1 2.36h-.12a7.57 7.57 0 0 0 1.1-.74 1.29 1.29 0 0 0 .47-1.39zm-28.44-5.34a1.17 1.17 0 0 0-.52-.09 1.31 1.31 0 0 0-1 .53c-.23.32-1 1.2-1.77 1.14a.75.75 0 0 1-.5-.29 1.47 1.47 0 0 1-.3-1.08c.22-1.95 1.14-2.18 1.44-2.25a2.5 2.5 0 0 1 1.85.56 1.27 1.27 0 0 0 1.08.24 1.05 1.05 0 0 0 .42-.18 6.38 6.38 0 0 0-.7 1.42zM22.29 24.1s.1-1.15.27-2.79a6.19 6.19 0 0 0 .55.79A6.82 6.82 0 0 0 27 24.39c-1.57.14-3.27.29-5 .48a1.19 1.19 0 0 0 .29-.77zM7.62 26.77a1.29 1.29 0 0 0 1-1.17s.17-2.3.38-4.74A12.47 12.47 0 0 0 15.91 18c-.25 1.69-.54 3.81-.78 6.25a.62.62 0 0 0 0 .13 1.3 1.3 0 0 0 .37.91 1.22 1.22 0 0 0 .41.27c-3.11.4-6.22.85-9 1.34z"/><path class="cls-2" d="M2.61 25.79l4.62-.9s.23-3.32.52-6.29v.48c4.93-.44 7.48-2.4 8.67-4.61l1.2-.63c-.22 1.17-.88 4.88-1.39 9.94l4.6-.4s.4-4.86 1.06-9.28l.87.67c-.06.31-.12.64-.15 1-.39 3.58 1.55 6.64 5.55 6.93a6.84 6.84 0 0 0 5.74-2.21 3.44 3.44 0 0 0 3.23 1.47 5.61 5.61 0 0 0 3.49-1.3v1.1l3.9-.28a36.77 36.77 0 0 1 .18-5.4c.49-3 .88-4.66-.1-6.44-.36-.65-1.21-2-4-2.3a9.93 9.93 0 0 0-5.52 1.06l.79 3.6c1.55-1 4.1-1.18 5.11-.34a1.14 1.14 0 0 1 .34 1.4 6.26 6.26 0 0 0-3.32-.38A5.57 5.57 0 0 0 33.39 17a7 7 0 0 0-.08 1.42L32 16.94s-1.26 1.81-2.93 1.68a2.4 2.4 0 0 1-2-2.79c.19-1.69.91-3 2.41-3.37a3.85 3.85 0 0 1 3 .81l2-3.93S33 7.16 28.93 7.88a6.16 6.16 0 0 0-1.56.5l-2.86-.65L26.88 4a.61.61 0 0 0 .08-.3.53.53 0 0 0-.12-.37.49.49 0 0 0-.61-.13l-3.76 2c-.16-1-.61-4.07-.61-4.07a.5.5 0 0 0-.43-.45.47.47 0 0 0-.52.32s-1.35 3.31-1.7 4.15l-2.82-1.67a.46.46 0 0 0-.57.07.51.51 0 0 0-.17.39.4.4 0 0 0 0 .19s.76 2.47 1 3.31l-.31.07a7.2 7.2 0 0 0-5.91-2.71 19.49 19.49 0 0 0-7.06 1l-.6 5.09a15 15 0 0 1 1.62-.61c-.34 2.15-1.46 10.46-1.78 15.51zM39 15.86c1.41-.23 2.06.16 2.12.86s-.46 1.45-1.91 1.83-2.26-.13-2.3-.81.59-1.64 2.09-1.88zM8.86 9.53a8.15 8.15 0 0 1 2.1.2c2.23.55 1.83 3.71-.22 4.78a5.17 5.17 0 0 1-2.65.6c.21-1.94.48-4.03.77-5.58zm41.59 3.86l-3.88.33A61.61 61.61 0 0 0 45.32 22h4.08s.36-4.27 1.05-8.61z"/><path class="cls-2" d="M53.87 12.26c.09 1.46-1.62 2.25-3.18 2.38 0 0-.43 3.42 1 5.77 1.19 2 4.34 3.91 8 1.07l-1.19-3.87a3.38 3.38 0 0 1-2.63 1.06c-1.22-.2-1.24-1.88-1.24-1.86a5.13 5.13 0 0 0 3.71-5c0-3.6-3.52-5-6.79-5.12a36 36 0 0 0-5.59.42l-.19 4.1a29.92 29.92 0 0 1 4.3-.61c1.99-.09 3.71.23 3.8 1.66z"/><path class="cls-2" d="M68.4 17.29c-2.46-2.51-5.7-2.85-4.69-5.28A2.14 2.14 0 0 1 66 10.84a3 3 0 0 1 2.82 2.43l3.67-3.22a7.62 7.62 0 0 0-12-1.18c-1.49 1.88-2.79 5.88.32 8.13 2.13 1.58 4 2.23 4 3.84 0 2.37-1.33 3.34-5.29 3.64-2.76.21-6.71-.15-11.16-.12-3.61 0-12 .1-14.23.19-6.08.21-22.27 1.72-31.7 3.89-.5.11-.76.69-.84 1.1a54 54 0 0 0-.45 5.51c.05.77.39 1.17 1.1 1a203.26 203.26 0 0 1 35-6.88c9.42-.83 20-.66 23.44-.85C71 27.7 71.06 20 68.4 17.29z"/><path class="cls-3" d="M23.23 10.38a.54.54 0 0 0-.36.28.58.58 0 0 0-.06.26.66.66 0 0 0 0 .23s.74 1.83 1.35 3.37l-2.71-2.11a.44.44 0 0 0-.44-.08.56.56 0 0 0-.33.34l-1.25 3.75c-.19-1.76-.4-3.73-.4-3.73a.58.58 0 0 0-.25-.42.47.47 0 0 0-.47 0l-2.74 1.45c.84-1.3 1.78-2.73 1.78-2.73a.55.55 0 0 0 .06-.48.51.51 0 0 0-.32-.35l-2.87-1c1.47-.34 3.18-.76 3.18-.76a.45.45 0 0 0 .34-.26.55.55 0 0 0 .06-.26.62.62 0 0 0 0-.18L17 5.1c1 .59 2.18 1.29 2.18 1.29a.47.47 0 0 0 .4.05.5.5 0 0 0 .3-.3s.67-1.62 1.23-3c.21 1.4.44 3 .44 3a.55.55 0 0 0 .27.41.45.45 0 0 0 .45 0L25 5.07l-1.7 2.72a.52.52 0 0 0-.09.29.57.57 0 0 0 0 .22.5.5 0 0 0 .36.33l4.15.94c-2.1.43-4.49.81-4.49.81z"/><path class="cls-2" d="M18.45 33.43h2l-.13.87h-.53l-.29 1.83h-1l.29-1.83h-.54z"/><path class="cls-2" d="M22.26 35.18a1.23 1.23 0 0 1-1.3 1c-.58 0-1.08-.33-1-1a1.24 1.24 0 0 1 1.3-1c.64-.01 1.1.34 1 1zm-1.39 0a.2.2 0 0 0 .21.25.3.3 0 0 0 .29-.25c0-.16-.05-.28-.2-.28a.3.3 0 0 0-.3.28zm2.84-.94H24l-.11.72h-.3l-.19 1.17h-.9l.19-1.17h-.23l.12-.72h.21l.1-.63h.92zm1.53 1.61a.86.86 0 0 1-.62.29c-.51 0-.71-.52-.64-1a1.13 1.13 0 0 1 1-1 .56.56 0 0 1 .51.28v-.23h.9l-.3 1.88h-.9zm-.18-.42a.3.3 0 0 0 .29-.29.19.19 0 0 0-.2-.24.29.29 0 0 0-.28.25c-.02.15.03.28.19.28zm1.81-2.2h.91l-.45 2.87h-.91zm1.96 0h.91l-.12.79-.12.45a.91.91 0 0 1 .61-.3c.53 0 .7.54.63 1a1.08 1.08 0 0 1-.94 1 .67.67 0 0 1-.56-.32v.28h-.86zm.58 1.93a.2.2 0 0 0 .19.27c.14 0 .26-.16.28-.28a.2.2 0 0 0-.2-.25.28.28 0 0 0-.27.26zm3.85.02a1.22 1.22 0 0 1-1.29 1c-.59 0-1.08-.33-1-1a1.24 1.24 0 0 1 1.3-1c.63-.01 1.1.34.99 1zm-1.39 0a.21.21 0 0 0 .21.25.3.3 0 0 0 .3-.25c0-.16-.06-.28-.21-.28a.32.32 0 0 0-.3.28zm2.91.64a1 1 0 0 1-.66.32c-.51 0-.7-.52-.62-1s.41-1 .93-1a.61.61 0 0 1 .52.3L35 34l.12-.79H36l-.46 2.87h-.86zm-.41-.66c0 .14 0 .27.2.27s.26-.16.28-.28a.2.2 0 0 0-.2-.25.3.3 0 0 0-.28.26zm2.56-.94L37 35v.29l.09-.29.33-.74h1l-1.62 2.62h-1l.64-1-.54-1.69zm3.6.78a.43.43 0 0 0-.31-.16.34.34 0 0 0-.33.28.23.23 0 0 0 .23.27.78.78 0 0 0 .38-.15l-.17.78a1.78 1.78 0 0 1-.47.08c-.61 0-1-.34-.89-1a1.18 1.18 0 0 1 1.13-1 1.78 1.78 0 0 1 .56.1zm1.47.85a.85.85 0 0 1-.62.29c-.51 0-.71-.52-.64-1a1.12 1.12 0 0 1 1-1 .53.53 0 0 1 .5.28v-.23h.9l-.3 1.88H42zm-.18-.42a.32.32 0 0 0 .3-.29.2.2 0 0 0-.12-.24.29.29 0 0 0-.28.25c-.07.15-.02.28.14.28zm3.08-.33a.42.42 0 0 0-.26-.1.4.4 0 0 0-.42.38l-.12.72h-.91l.3-1.88h.91l-.06.25a.73.73 0 0 1 .68-.3zm.98.22c0 .15 0 .31.17.31a.23.23 0 0 0 .2-.15h.89a1.26 1.26 0 0 1-1.16.66c-.59 0-1.08-.3-1-1a1.24 1.24 0 0 1 1.25-1 .9.9 0 0 1 1 1.15zm.49-.4a.19.19 0 0 0-.18-.24.26.26 0 0 0-.25.24zm1.88.44a.88.88 0 0 0 .44.17c.06 0 .14 0 .15-.09s-.09-.12-.16-.13c-.3 0-.56-.16-.51-.52a.94.94 0 0 1 1-.66 1.43 1.43 0 0 1 .71.17l-.31.52a.67.67 0 0 0-.39-.15c-.06 0-.14 0-.15.07s.09.11.21.13c.31.05.56.16.51.54a1 1 0 0 1-1 .69 1.92 1.92 0 0 1-.83-.21zm2.1-2.13h.92l-.13.79-.12.52a1 1 0 0 1 .66-.37c.47 0 .58.36.52.77L52 36.1h-.89l.15-1c0-.1 0-.22-.1-.22s-.2.11-.21.22l-.16 1h-.89zm4.36 1.95a1.23 1.23 0 0 1-1.29 1c-.59 0-1.09-.33-1-1a1.24 1.24 0 0 1 1.3-1c.63-.01 1.1.34.99 1zm-1.39 0a.21.21 0 0 0 .21.25.32.32 0 0 0 .3-.25c0-.16-.06-.28-.21-.28a.3.3 0 0 0-.3.28zm2.61-.66a.83.83 0 0 1 .65-.35c.52 0 .7.51.62 1s-.43 1-.94 1a.55.55 0 0 1-.51-.3v.3l-.12.74h-.91l.42-2.66H56zm-.08.64c0 .14 0 .27.2.27s.25-.16.27-.28a.19.19 0 0 0-.19-.25.3.3 0 0 0-.28.26z"/><path class="cls-1" d="M72.71 14.27a1.21 1.21 0 1 0 1.29 1.2 1.23 1.23 0 0 0-1.3-1.2zm0 2.22a1 1 0 1 1 0-2 1 1 0 0 1 0 2zm.22-1a.33.33 0 0 0 .27-.33.31.31 0 0 0-.13-.28.69.69 0 0 0-.43-.1 2.25 2.25 0 0 0-.4 0v1.33h.23v-.57h.15a.26.26 0 0 1 .3.24c0 .17.06.31.1.33h.23a.83.83 0 0 1-.08-.32.36.36 0 0 0-.24-.28zm-.3-.08h-.16V15h.16c.25 0 .34.11.34.23s-.16.2-.34.2z"/></svg>