<svg xmlns="http://www.w3.org/2000/svg" viewBox="0 0 140.37 43.15" width="140.37" height="43.15" preserveAspectRatio="xMinYMid"><path d="M19.47 29.38c3.21-1.83 2.15-10.57 1.33-12.86-.46-1.27-3.35-2.18-6.56-2.37v-1.54c2-.1 3.65-.26 4.39-.39 2.1-.36 2.75-2.84 2.56-4.21s-1.64-2.19-2.65-2.56a26.43 26.43 0 0 0-4.22-.33v-1c0-2.29-.46-2.38-1.65-3.21s-3.35.42-3.9 1.79A11 11 0 0 0 8.61 5a34.55 34.55 0 0 0-4.88.46 3.24 3.24 0 0 0-2.49 3.2c.27 1.83.31 1.83 3 3.2a12.38 12.38 0 0 0 4.37.79v2a9.21 9.21 0 0 0-1.61.64s-.42 1.79.87 2.33a3.22 3.22 0 0 0 .81.19c0 .83 0 1.62.05 2.35-.82 0-1.58.07-2.22.11a1.09 1.09 0 0 1 0-.18C6.2 16.25 5 16.71 3.73 15.88s-3.2.74-3.57 1.83 0 10.35 0 10.35C.9 30.25 3 30.43 4.74 29.7a1.58 1.58 0 0 0 .72-.7c1 .23 2.25.46 3.61.65 0 .51.06 1 .08 1.58-3.78 0-7.18.19-7.66.59-.71.64-.49 2.32.51 3.38 1.41 1.46 4.53 2.08 7.53 2.26.08.91.15 1.62.22 2 .49 2.7 1.58 3.15 3 3.11 1.09 0 1.2-3.17 1.19-3.2s0-.71 0-1.93c.51 0 1-.08 1.35-.13a8.81 8.81 0 0 0 5-2.38c.87-1 1-2.68.07-3.19A38.54 38.54 0 0 0 14 31.3v-1.2c2.36.06 4.43-.1 5.47-.72zm-2.88-10.89c.28.37.87 6.27.41 7.28-.16.35-1.36.6-2.9.75v-2.7c2.3-.2 2.12-1.66 1.82-2.95-.08-.33-.77-.53-1.78-.64v-2a8.52 8.52 0 0 1 2.45.26zm-10.3 8a21.44 21.44 0 0 0 .26-2.65H8.8v.48s0 .95.11 2.37a13 13 0 0 1-2.62-.18zm19.36-2.58a43.46 43.46 0 0 0 7.66-3.84 20.43 20.43 0 0 0 4 1.31c4 .83 6.84.63 6.73-.42-.19-1.69-1.95-1.53-5-2.45a9.76 9.76 0 0 1-1.91-.86 22.26 22.26 0 0 0 5.43-4.72c1.63-2.36 1.49-3 1.22-4.09-.87-3.52-12.11-6.2-13.62-6.34a5.87 5.87 0 0 0-5.1 1.67A3 3 0 0 0 25 7.58c.77 1.1 2.61.83 5.21 1.64 2.76.87 5.23.49 4.64 2.27A10.41 10.41 0 0 1 32 14.25C30.33 13 29.08 12 29.08 12s-3-2.33-4.07-2.06a1.78 1.78 0 0 0-1.28 2.52 14.54 14.54 0 0 0 4.44 4.63 57.56 57.56 0 0 0-5.54 4.2c-1.01 1.22.51 2.97 3.02 2.62z"/><path d="M45.26 35c-.49 0-4-.07-7.74-.12v-4.59a25.52 25.52 0 0 0 3.17-.14c3.71-.58 3.71-2.36 3.71-2.36.17-1.13-.4-1.79-3.05-1.79-.41 0-1.94-.06-3.89-.13a6.58 6.58 0 0 0-.16-1.24c-.41-1.27-2.27-1.71-3.5-1.73s-1.8 1.22-1.89 2.04v.7a54.65 54.65 0 0 0-5.58 0c-2.33.39-2.4 4.46 1.93 4.46.94 0 2.24 0 3.66.07v4.62c-2.38 0-4.19-.07-4.45-.1-1.16-.14-3.35.41-3.36 2.28s1.72 2 2.73 2.55c1.8.88 4.8 1.12 8.36 1s8.33-.78 10-2.5 1.16-3.02.06-3.02zm35.13-15.42c-2.64-1.8-9.11-3.83-14-1.95-3.3 1.28-6.8 3.37-8.25 8.37-.81 2.78-.74 10.45 1.5 12.74 2.43 2.49 8.28 2.9 10.81-.47a10.46 10.46 0 0 0 2.07-7c.06-2.39-.42-4.1-1.76-4.41a2.63 2.63 0 0 0-3.1 2.65 9.66 9.66 0 0 1-2.33 5.62 1.88 1.88 0 0 1-3.21-.61c-.62-1.34-.12-6.59 1-8.49s3-4.23 5.18-4.64 7.5-.73 10.09 1.34a12 12 0 0 1 4.09 6.93c.8 3.42.24 6.87-1.35 8.64s1.33 2.76 2.9.52a13.79 13.79 0 0 0 2.57-8.68c.07-4.14-3.6-8.77-6.21-10.56zm39.39 4.92a2.84 2.84 0 0 0 .6-1.88s.21-5.22.33-10.43l7.7-.5c3.91-.78 4.48-4.5 2.5-5.32-1.27-.53-5.82-1.2-10.14-1.58a18.48 18.48 0 0 0-.18-2.79c-.81-3.34-4.56-2-5.61 0a6.81 6.81 0 0 0-.33 2.52c-4.76 0-10.39.07-12.36 2.18-1.55 1.68.24 4 2.35 5.09 1.85 1 9.45.8 10.38.78v.55a6.06 6.06 0 0 0-.43.44s-6.3 4.94-7.67 5.83-1.31 1.65 0 2.13 5.74-1.38 8.59-3.37c.23 2.12.46 3.87.61 4.72.6 3.18 2.98 2.45 3.66 1.63z"/><path d="M123.58 15.73a2.54 2.54 0 0 0-.27 2.78A7.16 7.16 0 0 0 126 20.4c1.38.41 3.64.48 4.4-1.58s-.21-3.84-2.47-4-3.59-.05-4.35.91zM111 32.14v-.09a13 13 0 0 0 4.09-.91c3.33-1.47 3-2.86 1.82-3.5a31 31 0 0 0-5.92-1 16 16 0 0 0-.22-3.23c-.76-1.37-3.79-1.16-4 1.28a15.56 15.56 0 0 0 0 1.59c-3.22-.2-6.23-.17-7.4.33-.72.31-.9 1.09-.39 2.31s2.76 2.7 4.75 3l.72.08c-1.07 1.33-4.13 5.11-5.08 5.95-1.16 1-.71 2.05.9 2.05 1.42 0 5-2 6.79-3.8v2.07c-.06 3.47 1.15 4.8 2.18 4.75s1.6-1.73 1.66-2.89c0 .08 0-1.43.07-3.58a11.44 11.44 0 0 0 3.74 2.31c1.83.51 3.81 0 3.07-.82s-5.07-3.89-6.78-5.9zm22.81-1.41c3.12-.28 4.4-1.15 4.67-2.2s-.32-2.33-2-3.1c-.66-.3-2.91-.21-5.5 0-.16-2-.47-3.47-1-3.88-.92-.69-2.7 0-3.48 1a4.73 4.73 0 0 0-.51 2.94s0 .17.06.48c-2.22.28-4.07.54-4.63.62a3.33 3.33 0 0 0-2.94 3.15c.14 1.42 2.76 1.79 5.83 1.76C123 33.31 121 36 120 37.08c-1.65 1.79 0 2.84 1.46 2.34A16.72 16.72 0 0 0 126.8 36v2.58c-.09 5.44 3.24 5.72 3.81 2.61.13-.7.49-5.47.54-10.14 1.16-.16 2.1-.28 2.66-.32z"/><path d="M138.55 33.74c-1.25-.72-3.62-.93-4.26 0a3 3 0 0 0-.4 2.74 2.79 2.79 0 0 0 2.92 1.79c1.23 0 2.27.08 3.18-1s.06-2.66-1.44-3.53z"/></svg>