<svg xmlns="http://www.w3.org/2000/svg" viewBox="0 0 100.77 38" width="100.77" height="38" preserveAspectRatio="xMinYMid"><path d="M60 36a1.72 1.72 0 0 1-2 2h-3.84a.65.65 0 0 1-.65-.65v-3.61a.65.65 0 0 1 .65-.65h.21a.39.39 0 0 0 .39-.39v-7.36a.39.39 0 0 0-.39-.39h-1.82a.39.39 0 0 0-.39.39V36c0 1.45-.63 2-1.94 2h-9.51a.65.65 0 0 1-.65-.65v-15.3A1.74 1.74 0 0 1 42 20.11h17.38a.65.65 0 0 1 .65.64zm-13-2.91a.38.38 0 0 0 .39-.39v-7.36A.38.38 0 0 0 47 25h-1.31a.39.39 0 0 0-.39.39v7.31a.39.39 0 0 0 .39.39zM0 29.92a2.27 2.27 0 0 1 2.52-2.53h11.06a.5.5 0 0 0 .51-.5.52.52 0 0 0-.51-.53H3.33a.84.84 0 0 1-.84-.85v-13c0-1.76.7-2.51 2.51-2.51h8.57a.51.51 0 0 0 .51-.51v-.16a.5.5 0 0 0-.51-.5H1.63A.84.84 0 0 1 .79 8V4.35a2.2 2.2 0 0 1 2.52-2.53h10.27a.5.5 0 0 0 .51-.5V.88a.85.85 0 0 1 .84-.88h7.85a.85.85 0 0 1 .84.84v.44a.5.5 0 0 0 .5.5h12.33a.85.85 0 0 1 .85.85V6.3a2.2 2.2 0 0 1-2.53 2.53H24.12a.5.5 0 0 0-.5.5v.11a.51.51 0 0 0 .5.51h10.8a.83.83 0 0 1 .84.84v13a2.27 2.27 0 0 1-2.53 2.53h-9.11a.5.5 0 0 0-.5.5.51.51 0 0 0 .5.53h13a.85.85 0 0 1 .84.84v4.05a2.25 2.25 0 0 1-2.52 2.53H24.12a.5.5 0 0 0-.5.5v.33c0 1.57-.76 2.36-2.52 2.36h-6.17a.85.85 0 0 1-.84-.84v-1.81a.5.5 0 0 0-.51-.5H.84A.85.85 0 0 1 0 34zM13.92 16a.5.5 0 0 0 .51-.5v-.78a.51.51 0 0 0-.51-.51h-2.36a.51.51 0 0 0-.5.51v.78a.5.5 0 0 0 .5.5zm0 5.68a.51.51 0 0 0 .51-.51v-.86a.51.51 0 0 0-.51-.51h-2.36a.51.51 0 0 0-.5.51v.86a.51.51 0 0 0 .5.51zM26.15 16a.5.5 0 0 0 .5-.5v-.78a.51.51 0 0 0-.5-.51h-2.36a.51.51 0 0 0-.51.51v.78a.5.5 0 0 0 .51.5zm0 5.68a.51.51 0 0 0 .5-.51v-.86a.51.51 0 0 0-.5-.51h-2.36a.51.51 0 0 0-.51.51v.86a.51.51 0 0 0 .51.51zm70.61 5h1.49a2.21 2.21 0 0 0 2.52-2.53v-3.29a.83.83 0 0 0-.84-.84h-4.5a.51.51 0 0 1-.5-.51v-1.27a.4.4 0 0 1 .49-.39c1 .25 1.48.34 2.38.54a.68.68 0 0 0 .82-.67v-5.94a1 1 0 0 0-.82-1 35 35 0 0 1-7.44-2c-.09 0-.08-.18 0-.18H96a2.23 2.23 0 0 0 2.53-2.5V3a.83.83 0 0 0-.84-.84H87a.5.5 0 0 1-.5-.51V.84a.85.85 0 0 0-.87-.84h-7.72a.85.85 0 0 0-.84.84v.81a.51.51 0 0 1-.51.51h-9.19c-1.82 0-2.53.8-2.53 2.52v3.1a.85.85 0 0 0 .85.84H73a.09.09 0 0 1 0 .18 29 29 0 0 1-7.36 2 1 1 0 0 0-.87 1v5.86a.7.7 0 0 0 .79.71c1-.16 1.43-.25 2.5-.51s1.37-.32 2.1-.55a27.41 27.41 0 0 0 6.44-2.77c.19-.1.4.06.4.63v2.26a.87.87 0 0 0 .88.86h6.82a1.67 1.67 0 0 0 1.78-1.85V14.8a.3.3 0 0 1 .46-.24 31.59 31.59 0 0 0 6.36 2.74c.07 0 0 .15-.08.15h-5.06c-1.35 0-1.77.68-1.77 1.89v.17a.5.5 0 0 1-.5.51h-1.12c-1.72 0-2.52.69-2.52 2.52v3.35a.85.85 0 0 0 .84.84h1.8A.15.15 0 0 1 85 27l-2 1.33a1.56 1.56 0 0 0-.7 1.3v6.07a.43.43 0 0 0 .68.34L86 33.82a.25.25 0 0 1 .4.21v3.09a.85.85 0 0 0 .84.84h5.18c1.72 0 2.52-.78 2.52-2.53v-1.24a.22.22 0 0 1 .38-.15 19.26 19.26 0 0 0 4.68 3.48.5.5 0 0 0 .75-.44v-6.53a1.34 1.34 0 0 0-.75-1.2 14.63 14.63 0 0 1-3.37-2.28.19.19 0 0 1 .13-.34zm-18.19 0h.12c1.85 0 2.52-.68 2.52-2.53v-3.29a.83.83 0 0 0-.84-.84h-2.75a.51.51 0 0 1-.51-.51v-1.22a.84.84 0 0 0-.85-.84h-5.73a1.82 1.82 0 0 0-2 1.7v.36a.5.5 0 0 1-.5.51h-2.77c-1.68 0-2.53.66-2.53 2.52v3.35a.85.85 0 0 0 .84.84h3.67c.16 0 .26.19.13.28a25.18 25.18 0 0 1-3.87 2.6 1.4 1.4 0 0 0-.77 1.23v6.44a.51.51 0 0 0 .75.46 18 18 0 0 0 4.71-3.43.22.22 0 0 1 .38.13v2.68a.85.85 0 0 0 .85.84h5.17c1.93 0 2.52-.58 2.52-2.53V34a.25.25 0 0 1 .41-.2l3 2.26a.42.42 0 0 0 .67-.34v-6.08a1.56 1.56 0 0 0-.7-1.3l-2-1.33a.15.15 0 0 1 .08-.28z"/></svg>