<svg xmlns="http://www.w3.org/2000/svg" viewBox="0 0 17.76 26.61"><defs><style>.cls-1{fill:#000;}</style></defs><g id="_shop_nakamozu"><path class="cls-1" d="M12.77,19.61c-4.28,0-9.22.65-11,1.54-3.92,1.93,0,5.46,0,5.46S12.91,25.5,17,22.38C19,20.89,17.06,19.65,12.77,19.61ZM8.34,22.42C7,22.28,6.4,21.89,7,21.54a7.85,7.85,0,0,1,3.52-.5c1.35.08,2,.47,1.35.88A6.44,6.44,0,0,1,8.34,22.42Z"/><path class="cls-1" d="M14.19,3a3,3,0,1,1-3-3A3,3,0,0,1,14.19,3Zm-2,16.61L15.58,8.32a1,1,0,0,0-1-1.31H7.79a1,1,0,0,0-1,1.31L10.23,19.6A1,1,0,0,0,12.17,19.6Z"/></g></svg>