<svg xmlns="http://www.w3.org/2000/svg" xmlns:xlink="http://www.w3.org/1999/xlink" viewBox="0 0 469 53"><defs><style>.cls-1,.cls-3{fill:none;}.cls-2{clip-path:url(#clip-path);}.cls-3{stroke:#ea5514;stroke-miterlimit:10;stroke-width:0.75px;}</style><clipPath id="clip-path"><rect class="cls-1" x="0.31" y="0.36" width="468.39" height="52.28"/></clipPath></defs><title>アートボード 46</title><g id="letter"><rect class="cls-1" width="469" height="53"/><g class="cls-2"><line class="cls-3" x1="3.08" y1="-9.48" x2="-71.28" y2="64.88"/><line class="cls-3" x1="12.47" y1="-9.48" x2="-61.89" y2="64.88"/><line class="cls-3" x1="21.86" y1="-9.48" x2="-52.51" y2="64.88"/><line class="cls-3" x1="31.24" y1="-9.48" x2="-43.12" y2="64.88"/><line class="cls-3" x1="40.63" y1="-9.48" x2="-33.73" y2="64.88"/><line class="cls-3" x1="50.02" y1="-9.48" x2="-24.34" y2="64.88"/><line class="cls-3" x1="59.41" y1="-9.48" x2="-14.95" y2="64.88"/><line class="cls-3" x1="68.79" y1="-9.48" x2="-5.57" y2="64.88"/><line class="cls-3" x1="78.18" y1="-9.48" x2="3.82" y2="64.88"/><line class="cls-3" x1="87.57" y1="-9.48" x2="13.21" y2="64.88"/><line class="cls-3" x1="96.96" y1="-9.48" x2="22.6" y2="64.88"/><line class="cls-3" x1="106.34" y1="-9.48" x2="31.98" y2="64.88"/><line class="cls-3" x1="115.73" y1="-9.48" x2="41.37" y2="64.88"/><line class="cls-3" x1="125.12" y1="-9.48" x2="50.76" y2="64.88"/><line class="cls-3" x1="134.51" y1="-9.48" x2="60.15" y2="64.88"/><line class="cls-3" x1="143.89" y1="-9.48" x2="69.53" y2="64.88"/><line class="cls-3" x1="153.28" y1="-9.48" x2="78.92" y2="64.88"/><line class="cls-3" x1="162.67" y1="-9.48" x2="88.31" y2="64.88"/><line class="cls-3" x1="172.06" y1="-9.48" x2="97.7" y2="64.88"/><line class="cls-3" x1="181.44" y1="-9.48" x2="107.08" y2="64.88"/><line class="cls-3" x1="190.83" y1="-9.48" x2="116.47" y2="64.88"/><line class="cls-3" x1="200.22" y1="-9.48" x2="125.86" y2="64.88"/><line class="cls-3" x1="209.61" y1="-9.48" x2="135.25" y2="64.88"/><line class="cls-3" x1="219" y1="-9.48" x2="144.63" y2="64.88"/><line class="cls-3" x1="228.38" y1="-9.48" x2="154.02" y2="64.88"/><line class="cls-3" x1="237.77" y1="-9.48" x2="163.41" y2="64.88"/><line class="cls-3" x1="247.16" y1="-9.48" x2="172.8" y2="64.88"/><line class="cls-3" x1="256.55" y1="-9.48" x2="182.18" y2="64.88"/><line class="cls-3" x1="265.93" y1="-9.48" x2="191.57" y2="64.88"/><line class="cls-3" x1="275.32" y1="-9.48" x2="200.96" y2="64.88"/><line class="cls-3" x1="284.71" y1="-9.48" x2="210.35" y2="64.88"/><line class="cls-3" x1="294.1" y1="-9.48" x2="219.73" y2="64.88"/><line class="cls-3" x1="303.48" y1="-9.48" x2="229.12" y2="64.88"/><line class="cls-3" x1="312.87" y1="-9.48" x2="238.51" y2="64.88"/><line class="cls-3" x1="322.26" y1="-9.48" x2="247.9" y2="64.88"/><line class="cls-3" x1="331.65" y1="-9.48" x2="257.28" y2="64.88"/><line class="cls-3" x1="341.03" y1="-9.48" x2="266.67" y2="64.88"/><line class="cls-3" x1="350.42" y1="-9.48" x2="276.06" y2="64.88"/><line class="cls-3" x1="359.81" y1="-9.48" x2="285.45" y2="64.88"/><line class="cls-3" x1="369.2" y1="-9.48" x2="294.84" y2="64.88"/><line class="cls-3" x1="378.58" y1="-9.48" x2="304.22" y2="64.88"/><line class="cls-3" x1="387.97" y1="-9.48" x2="313.61" y2="64.88"/><line class="cls-3" x1="397.36" y1="-9.48" x2="323" y2="64.88"/><line class="cls-3" x1="406.75" y1="-9.48" x2="332.39" y2="64.88"/><line class="cls-3" x1="416.13" y1="-9.48" x2="341.77" y2="64.88"/><line class="cls-3" x1="425.52" y1="-9.48" x2="351.16" y2="64.88"/><line class="cls-3" x1="434.91" y1="-9.48" x2="360.55" y2="64.88"/><line class="cls-3" x1="444.3" y1="-9.48" x2="369.94" y2="64.88"/><line class="cls-3" x1="453.68" y1="-9.48" x2="379.32" y2="64.88"/><line class="cls-3" x1="463.07" y1="-9.48" x2="388.71" y2="64.88"/><line class="cls-3" x1="472.46" y1="-9.48" x2="398.1" y2="64.88"/><line class="cls-3" x1="481.85" y1="-9.48" x2="407.49" y2="64.88"/><line class="cls-3" x1="491.23" y1="-9.48" x2="416.87" y2="64.88"/><line class="cls-3" x1="500.62" y1="-9.48" x2="426.26" y2="64.88"/><line class="cls-3" x1="510.01" y1="-9.48" x2="435.65" y2="64.88"/><line class="cls-3" x1="519.4" y1="-9.48" x2="445.04" y2="64.88"/><line class="cls-3" x1="528.79" y1="-9.48" x2="454.42" y2="64.88"/><line class="cls-3" x1="538.17" y1="-9.48" x2="463.81" y2="64.88"/></g></g></svg>