<svg xmlns="http://www.w3.org/2000/svg" viewBox="0 0 629.34 142.64" preserveAspectRatio="xMinYMid"><defs><style>.cls-1,.cls-2{fill:none;}.cls-1{stroke:#ea5514;stroke-miterlimit:10;}</style></defs><title>アセット 3</title><g id="レイヤー_2" data-name="レイヤー 2"><g id="letter"><path class="cls-1" d="M98.8,38.14h10.39l10,36.69-13.63,4q-6.81-13.11-12.81-18.6-8.36-7.55-18.09-7.55a24.24,24.24,0,0,0-13.3,4,27,27,0,0,0-9.81,11.64,41.82,41.82,0,0,0-3.63,18q0,15.75,8.32,27.1t21.79,11.35a30.85,30.85,0,0,0,16.48-4.9,57.62,57.62,0,0,0,17.06-16.33L123,111.9q-11,15.09-20.2,21a56.65,56.65,0,0,1-31.47,9.15,50.13,50.13,0,0,1-26.09-6.93,50.83,50.83,0,0,1-18.63-19.37A54.85,54.85,0,0,1,19.61,88.6a53.48,53.48,0,0,1,6.77-26.7A48.87,48.87,0,0,1,44.82,43.12a51,51,0,0,1,26-6.74q14.56,0,25.54,6.16Z"/><path class="cls-1" d="M171.66,65.48q12.53,0,21.83,4.91A35.36,35.36,0,0,1,207.8,83.75a38.09,38.09,0,0,1,5,19.82q0,17.13-11.13,27.83T172,142.09q-19,0-30.17-10.78-10.84-10.25-10.84-27.76,0-11.49,4.94-19.77A36,36,0,0,1,150.2,70.49,44.59,44.59,0,0,1,171.66,65.48Zm.29,16A13.66,13.66,0,0,0,164.12,84a15.9,15.9,0,0,0-5.68,7.33,32.27,32.27,0,0,0-2,12.3,35.5,35.5,0,0,0,2,12.75,15.74,15.74,0,0,0,5.46,7.47,13.13,13.13,0,0,0,7.65,2.42,14,14,0,0,0,11.06-5.46q4.62-5.46,4.62-17,0-11.14-4.29-16.74A13.18,13.18,0,0,0,172,81.52Z"/><path class="cls-1" d="M256.47,65.49v9.74a64,64,0,0,1,14.18-7.69,36.57,36.57,0,0,1,12-2.05,25.68,25.68,0,0,1,12.57,3A19.42,19.42,0,0,1,303.2,76q2.49,4.5,2.49,12.78v30.47a14,14,0,0,0,.55,5,3.38,3.38,0,0,0,1.72,1.61,20.77,20.77,0,0,0,5.28.37h3.59v14.13h-43V126.21a52,52,0,0,0,5.5-.22,3.56,3.56,0,0,0,2.41-1.68c.39-.78.59-2.46.59-5V92.43q0-5.19-1.1-6.73a6.29,6.29,0,0,0-5.57-2.56,18.8,18.8,0,0,0-6.73,1.39,49.26,49.26,0,0,0-9.67,5.7v29q0,4.76,1,5.85t4.95,1.1h2.37v14.13H225.05V126.2h2.13c3.37,0,5.45-.14,6.26-.44a3.34,3.34,0,0,0,1.83-1.53,10,10,0,0,0,.62-4.31V85.85H225.05V71.71a98.86,98.86,0,0,0,24.63-6.22Z"/><path class="cls-1" d="M358.94,42.14V67.26h23.58v15.6H358.94v25.49q0,8.64.92,11.1a7.59,7.59,0,0,0,3.4,3.92,14.37,14.37,0,0,0,7.55,2,27.17,27.17,0,0,0,15-4.91v15.67a58.18,58.18,0,0,1-11.54,4.21,48.66,48.66,0,0,1-11.17,1.21,38.44,38.44,0,0,1-12-1.72,26.08,26.08,0,0,1-8.94-4.91,17.92,17.92,0,0,1-5.13-6.78q-1.42-3.59-1.42-10.4V82.86h-11V68.8a29.11,29.11,0,0,0,10-5.46,27.31,27.31,0,0,0,6.71-8.53,38.6,38.6,0,0,0,3.47-12.67Z"/><path class="cls-1" d="M439.29,96.06V90.64q0-4.83-.81-6.66a6.6,6.6,0,0,0-2.93-3,10.56,10.56,0,0,0-5.27-1.2,11.53,11.53,0,0,0-4.4.8,8.92,8.92,0,0,0-3.15,2A18.1,18.1,0,0,0,420,87.41a15.29,15.29,0,0,1-4.72,6.52,10.78,10.78,0,0,1-6.48,2A10.55,10.55,0,0,1,401.13,93a9.75,9.75,0,0,1-3-7.25A13.51,13.51,0,0,1,401.2,77q4.1-5.06,12.23-8.27a49.33,49.33,0,0,1,18.31-3.22q10.18,0,17.32,3.29t10,7.88q2.81,4.57,2.81,14v26.22a22.36,22.36,0,0,0,.52,6.19,4.86,4.86,0,0,0,2.2,2.38,7,7,0,0,0,3.73,1,18.13,18.13,0,0,0,5.49-1.17v14.28a39.36,39.36,0,0,1-11.94,2,27.32,27.32,0,0,1-11.49-2.2,20.43,20.43,0,0,1-8-6.6,60.15,60.15,0,0,1-13.29,6.78,36.11,36.11,0,0,1-11.54,2q-10.47,0-16.92-5.9a19,19,0,0,1-6.44-14.54,18.54,18.54,0,0,1,2.23-9,21,21,0,0,1,6.67-7.17q4.43-3.08,13.69-5.46A133.82,133.82,0,0,1,439.29,96.06Zm0,12.16q-9.6,1.38-13.55,2.81a12.28,12.28,0,0,0-5.64,3.59,7.12,7.12,0,0,0-1.69,4.43,6.35,6.35,0,0,0,2.2,4.91,8.53,8.53,0,0,0,5.93,2,15.77,15.77,0,0,0,5.61-1.24,46.78,46.78,0,0,0,7.14-3.66Z"/><path class="cls-1" d="M548.86,112.7l10.76,9.45q-8.64,10.48-17.94,15.23a43,43,0,0,1-19.92,4.76q-17,0-28.38-11.06a36.14,36.14,0,0,1-11.39-27,37.87,37.87,0,0,1,5.31-19.7,37,37,0,0,1,14.57-13.91q9.27-5,21.87-5,15.07,0,24.64,7t9.56,14.76a11.54,11.54,0,0,1-1.5,5.89,11,11,0,0,1-4.58,4.22A13.89,13.89,0,0,1,545.34,99a11,11,0,0,1-5-1.1,11.85,11.85,0,0,1-3.66-2.79,27.46,27.46,0,0,1-2.56-4.54,37.3,37.3,0,0,0-3.74-6.3,9.19,9.19,0,0,0-3.15-2.38,9.89,9.89,0,0,0-4.17-.84,12.5,12.5,0,0,0-7.29,2.45,17.57,17.57,0,0,0-5.71,7.43,29,29,0,0,0,.4,23.26,19.44,19.44,0,0,0,7.07,8.17,18,18,0,0,0,9.77,2.78,21.7,21.7,0,0,0,10.33-2.78Q542.86,119.58,548.86,112.7Z"/><path class="cls-1" d="M602,42.18V67.3h23.58v15.6H602v25.49q0,8.64.91,11.1a7.61,7.61,0,0,0,3.41,3.92,14.45,14.45,0,0,0,7.54,2,27.08,27.08,0,0,0,15-4.9v15.67a58.41,58.41,0,0,1-11.54,4.21,48.66,48.66,0,0,1-11.17,1.21,38.8,38.8,0,0,1-12-1.72,25.94,25.94,0,0,1-8.93-4.91,17.72,17.72,0,0,1-5.13-6.78q-1.42-3.59-1.43-10.4V82.9h-11V68.83a29.19,29.19,0,0,0,10-5.45,27.14,27.14,0,0,0,6.7-8.53,38.41,38.41,0,0,0,3.48-12.67Z"/><rect class="cls-2" width="627.62" height="137"/></g></g></svg>