<svg xmlns="http://www.w3.org/2000/svg" viewBox="0 0 270.77 55.48" preserveAspectRatio="xMinYMid"><defs><style>.cls-1{fill:#ea5514;stroke:#ea5514;stroke-linecap:round;stroke-linejoin:round;stroke-width:1.5px;}</style></defs><g id="letter"><path class="cls-1" d="M14.39,6.28c.49-1,1.15-2,2.36-2a2.09,2.09,0,0,1,2,2.14c0,.4-.28,2.31-.28,2.77,0,1.62.33,12.07.33,13.63,0,2.66-2,2.72-2.47,2.72-1,0-1-.18-1-2H4.76l.11,16.17c0,1.74,0,6.41.11,9,0,.46.17,3.17.17,3.46,0,1.56-2.31,2.54-3.19,2.54S1,54,1,53.34c0-1.38.44-8.2.5-9.76.11-3.75.17-7.74.17-15.48V8.7A1.27,1.27,0,0,1,.75,7.6c0-1.15,1.7-3.12,2.91-3.12C5,4.48,5.09,5.81,5.09,6.27Zm1,7.68V8.76c0-.41-.16-.64-.55-.64H4.76V14Zm.06,1.67H4.76v6.06H15.43ZM27.37,31.29A2.92,2.92,0,0,1,29.46,30a1.72,1.72,0,0,1,1.76,1.74,2.32,2.32,0,0,1-.11.69,7.9,7.9,0,0,0-.33,2.48c0,.41,0,5.55.11,6.36s.27,4,.27,4.73a2.55,2.55,0,0,1-2.42,2.37c-.55,0-1-.23-1-.87V45.15H16.31v2.31A2.32,2.32,0,0,1,14,49.53c-.72,0-.77-.46-.77-1.33s.33-6.81.33-9.29V35.09c0-.29-.06-.69-.11-1.27-.5-.29-1-.63-1-1.09,0-1.33,1.76-2.78,3-2.78a1.52,1.52,0,0,1,1.43,1.33Zm.49,12.12-.05-7.74c0-2.48,0-2.77-.83-2.77H16.86c-.49,0-.55,2.31-.55,3.81v6.7ZM38.58,6.28c1.05-2.43,2.7-2.43,3.14-2.43,1.37,0,1.7,1.1,1.7,2a4.91,4.91,0,0,1-.11.92A13.13,13.13,0,0,0,43,10v35.7c0,3.81-.66,9-7,9a8,8,0,0,1-5.61-2.42c0-.23.16-.23,1.65-.23,4.67,0,7.69-1.33,7.69-8.55V23.61H28.52A2.64,2.64,0,0,1,26,25.33c-.71,0-.77-.46-.77-1.27,0-1,.22-6.12.22-7.22,0-1.27-.05-7.27-.05-8.66-.66-.35-1.05-.81-1.05-1.27,0-1.15,1.82-2.71,2.92-2.71.71,0,1.54.63,1.43,2.08ZM39.79,14V9.63a3.32,3.32,0,0,0-.38-1.5h-11V14Zm0,7.85V15.63H28.41l.06,6.18Z"/><path class="cls-1" d="M79.29,32.91a45.81,45.81,0,0,0-.88,8.2c0,.29,0,1.56,0,1.79,0,1.85-1.48,2.25-3.08,2.25-7.7,0-13.64-10.28-14-21.48,0-.93-.22-8-.38-8.49a13.79,13.79,0,0,1-.44-1.33c0-.75.22-.93.77-.93,1.43,0,4,1.85,4,3.82,0,.34-.17,1.44-.28,2.31a41.64,41.64,0,0,0-.49,6.18c0,11.72,6.54,15.36,8.63,15.36s2.37-1.15,4.51-7.51c.33-.92,1.6-4.73,2.09-4.73.28,0,.33.23.33.4C80.11,29.44,79.4,32.33,79.29,32.91Zm21.88,1.16c-.77,0-.88-.35-2.58-3.87-1.43-3.06-4.45-9.07-12.81-9.07-.5,0-.72,0-.72-.35,0-.57,2.31-1.09,4.29-1.09,9.18,0,14.13,7.91,14.13,11.72A2.65,2.65,0,0,1,101.17,34.07Z"/><path class="cls-1" d="M119.94,24.08a22.09,22.09,0,0,1-5.17,1.79c-.28,0-.5-.06-.5-.17,0-.29.72-.75,1-.93,3.08-2,11.88-7.62,20-20.09A4.86,4.86,0,0,0,136,2.42c.17-.86.61-1.67,2.31-1.67,1.27,0,3,.75,3,2.14,0,.46-.16.81-.93,1a51.17,51.17,0,0,0,20,16c.94.35,6.11,2,6.11,2.31,0,.64-4.18,3.47-5.06,3.47-2,0-13.31-6.42-22-20C135.33,11.61,127.41,20.5,119.94,24.08Zm32.72,17.39c0,1.39.44,7.39.44,8.6,0,2-2,2.6-2.92,2.6-1.21,0-1.48-.86-1.48-2.6v-.75H129.83v1.5a2.72,2.72,0,0,1-2.75,2.6c-1.26,0-1.26-1-1.26-1.67,0-2,.44-10.52.44-12.25,0-1-.06-3.87-.17-4.79,0-.23-.49-1.21-.49-1.45,0-.75,1.59-2.36,3.19-2.36,1.15,0,1.48,1.27,1.65,1.9h17.71a4,4,0,0,1,3-1.62c1.38,0,1.82,1.15,1.82,2.14a7.21,7.21,0,0,1-.11.86,8.09,8.09,0,0,0-.22,2.14ZM138.36,24c-1.49,0-6.33,0-7.26.17-.55.11-2.81.75-3.3.75-.66,0-.77-.93-.77-1.16,0-.69.55-2.08,1.37-2.08.22,0,1.16.18,1.38.18h16.61c.71-1.1,1.32-1.85,2.09-1.85a2.79,2.79,0,0,1,2.64,2.6c0,1.27-1.1,1.39-2.09,1.39Zm10.45,13.34c0-2,0-2.54-1.1-2.54H130.6c-.66,0-.88.64-.88,1.16v7.74c0,.57.06,3,.06,3.46h19.08Z"/><path class="cls-1" d="M188.13,27.56c2.92-2.54,9-7.63,15.51-7.62s10.78,5,10.78,11c0,10.22-11.82,14.66-19.19,14.66-.22,0-.61,0-.61-.34s.06-.35.77-.52c14.8-4,14.8-12.88,14.8-14.73,0-3.92-1.76-7.85-7.48-7.85-5.23,0-9.85,2.77-14.47,7-.11,1.27-.05,7.05.17,11.55.05,1.1.71,5.95.71,7a1.85,1.85,0,0,1-1.7,1.85c-1.32,0-2-2.2-2-3.47,0-5.19-.22-5.89-2.37-12.47a40,40,0,0,0-4.17,7.1c-.39.92-.78,1.68-1.65,1.68-1.16,0-1.38-1.74-1.38-3.3a2.49,2.49,0,0,1,1.21-2.42,32.53,32.53,0,0,0,5.11-5.37,20.43,20.43,0,0,0-4.39-6.3c-1.21-1.1-1.49-1.33-1.49-2,0-2.72,5.06-4.39,7.7-4.39a6.16,6.16,0,0,1,2.31.35c0-1.79,0-4.56-.06-6.41,0-.75-.27-4.28-.27-5s0-1.44,1.21-1.44a2.67,2.67,0,0,1,2.64,2.36c0,.24-.22,1.33-.22,1.51a78.92,78.92,0,0,0-.83,10.16,3.31,3.31,0,0,1,.72,2.08,7.18,7.18,0,0,1-1.21,3.52Zm-1.54-5.32c-.38-.52-.77-1.09-2.53-1.1s-4.73,1.33-4.73,2.78c0,.57,3.14,5.48,3.63,6.58a28.91,28.91,0,0,0,3.69-6.06C186.65,23.8,186.65,22.88,186.59,22.24ZM183.9,32.7a62.6,62.6,0,0,1,2.53,9.12c.22-8,.22-10.68.22-13C185.71,30.1,184.23,32.12,183.9,32.7Z"/><path class="cls-1" d="M265.3,19.71a10.12,10.12,0,0,1,1.76-.28c1.37,0,3,.92,3,2.42s-1.75,1.5-3,1.5c-5.94,0-6.55,0-10.12.52-.06,1.21-.28,8.61-.28,8.84-.44,3.64-2.8,4-3.13,4-1.1,0-3.91-3.52-3.91-4.33,0-.18.22-.18.28-.18.38,0,2,.47,2.36.47,2.26,0,2.26-4.16,2.26-8.67a85.07,85.07,0,0,0-12.93,3.87c-.27,3.47-.27,5.55-.27,6.53,0,5.08,0,10.86,10.56,10.86a14.82,14.82,0,0,0,3.35-.41c.44-.06,2.86-.63,3.19-.63,2.31,0,3.47,1.1,3.47,2.54,0,1.79-3.36,1.91-5,1.91-17.32,0-18-7.52-18-17.28v-2.6c-1.87.81-7.65,3.76-7.87,3.87a4,4,0,0,1-2.08.47c-2.09,0-2.92-.76-2.92-1.57,0-1,.77-1.32,6.16-2.88,1-.29,5.77-1.85,6.71-2.14,0-1.56,0-9.47.11-10.68a2.86,2.86,0,0,1,2.47-2.72c1.43,0,1.49,1.16,1.49,1.74s-.55,3.17-.61,3.75c-.11,1.16-.49,6.12-.55,7.16,7.32-2.19,10.23-2.94,12.82-3.52.05-3.69.16-8.66-.06-11,0-.58-1-2.89-1-3.41a1,1,0,0,1,1-.92c.28,0,3.52.11,3.52,2.89,0,.05-1,10.1-1.1,12C259.74,21.21,262.55,20.46,265.3,19.71Z"/></g></svg>